<svg width="41" height="40" viewBox="0 0 41 40" fill="none" xmlns="http://www.w3.org/2000/svg">
<g opacity="0.2">
<path d="M23.221 23.0015C25.85 14.5325 33.583 11.8885 40.388 17.2295C32.5 19.8165 29.098 26.7085 23.221 23.0015Z" fill="black"/>
<path d="M26.571 22.0135C25.859 22.0135 25.144 21.8335 24.403 21.4655C26.026 16.9975 29.249 14.3565 33.138 14.3565C34.849 14.3565 36.61 14.8835 38.305 15.8945C36.053 16.8705 34.19 18.1295 32.507 19.2685C30.328 20.7415 28.446 22.0135 26.571 22.0135Z" fill="black"/>
<path d="M23.221 23.0015C28.325 21.6145 37.598 18.1745 41 23.7465C33.113 29.3545 28.17 28.8735 23.221 23.0015Z" fill="black"/>
<path d="M31.466 25.6315C29.211 25.6315 27.13 24.6075 25 22.4295C25.068 22.4095 25.137 22.3896 25.206 22.3696C27.984 21.5676 31.441 20.5676 34.453 20.5676C36.804 20.5676 38.504 21.1785 39.619 22.4315C36.422 24.5835 33.748 25.6315 31.466 25.6315Z" fill="black"/>
<path d="M39.62 22.4314C39.62 22.4314 39.392 22.4275 38.993 22.4215C38.592 22.3945 38.032 22.4135 37.372 22.4215C36.705 22.4555 35.935 22.4995 35.112 22.6035C34.7 22.6425 34.278 22.7175 33.847 22.7775C33.416 22.8345 32.979 22.9205 32.543 22.9975C30.796 23.3115 29.03 23.6885 27.662 23.8245C26.981 23.9015 26.402 23.9015 26.002 23.8835C25.603 23.8395 25.375 23.8135 25.375 23.8135C25.375 23.8135 25.597 23.7685 25.986 23.6895C26.371 23.5985 26.911 23.4605 27.556 23.2735C28.844 22.9005 30.569 22.3665 32.37 22.0365C33.273 21.8935 34.183 21.7595 35.048 21.7475C35.91 21.7105 36.72 21.7704 37.402 21.8634C38.09 21.9714 38.653 22.0975 39.025 22.2305C39.404 22.3585 39.62 22.4314 39.62 22.4314Z" fill="black"/>
<path d="M23.221 23.0015C30.954 22.8515 38.223 26.1736 39.151 31.0886C35.598 30.3506 24.399 34.2965 23.221 23.0015Z" fill="black"/>
<path d="M32.96 29.1235C29.235 29.1235 25.351 28.3545 24.346 22.8975C30.655 23.0535 36.125 25.5666 37.767 28.9276C37.166 28.9316 36.484 28.9716 35.75 29.0156C34.852 29.0686 33.922 29.1235 32.96 29.1235Z" fill="black"/>
<path d="M37.767 28.9276C37.767 28.9276 37.545 28.8446 37.168 28.6786C36.796 28.4986 36.249 28.2965 35.611 28.0235C34.323 27.4945 32.611 26.8166 30.86 26.2496C29.118 25.6566 27.342 25.1616 25.997 24.7936C24.642 24.4276 23.738 24.1836 23.738 24.1836C23.738 24.1836 24.683 24.1206 26.096 24.2416C26.8 24.3086 27.622 24.4176 28.488 24.6036C29.357 24.7776 30.27 25.0306 31.169 25.3236C32.064 25.6296 32.947 25.9745 33.745 26.3625C34.549 26.7365 35.269 27.1495 35.868 27.5285C36.469 27.9055 36.942 28.2686 37.266 28.5176C37.589 28.7706 37.767 28.9276 37.767 28.9276Z" fill="black"/>
<path d="M23.37 22.2105C28.479 19.3245 31.108 15.0235 27.042 7.26251C21.211 10.9095 21.43 17.3135 23.37 22.2105Z" fill="black"/>
<path d="M23.885 19.6725C22.893 16.6025 22.051 11.1745 26.67 7.62555C29.174 12.9895 28.302 16.7705 23.885 19.6725Z" fill="black"/>
<path d="M14.384 10.5595C23.822 11.5905 24.399 16.0465 23.371 22.2105C14.839 21.6145 17.013 12.6845 14.384 10.5595Z" fill="black"/>
<path d="M22.549 20.0516C18.39 19.3786 17.657 16.2005 16.945 13.1205C16.752 12.2855 16.565 11.4725 16.302 10.7485C18.924 11.2585 20.688 12.1465 21.669 13.4415C22.948 15.1285 22.903 17.5676 22.549 20.0516Z" fill="black"/>
<path d="M23.37 22.2105C20.282 18.2115 17.034 14.7564 8.21899 18.2744C17.035 26.9144 21.181 23.7205 23.37 22.2105Z" fill="black"/>
<path d="M18.548 21.9946C16.148 21.9946 13.289 20.5055 10.038 17.5645C11.761 16.9905 13.277 16.7105 14.641 16.7105C18.051 16.7105 19.996 18.4776 21.954 20.9066C21.07 21.4686 19.99 21.9946 18.548 21.9946Z" fill="black"/>
<path d="M23.37 22.2105C17.344 20.2215 9.149 22.7855 7.552 27.3065C12.297 28.7335 21.2 28.5295 23.37 22.2105Z" fill="black"/>
<path d="M12.793 25.9695C11.486 25.9695 10.163 25.8325 8.96497 25.5765C10.553 23.1825 14.626 21.4225 18.896 21.4225C19.998 21.4225 21.048 21.5375 22.034 21.7665C20.034 25.5375 14.991 25.9695 12.795 25.9695C12.793 25.9695 12.793 25.9695 12.793 25.9695Z" fill="black"/>
<path d="M23.898 21.1406C17.653 24.8616 10.969 29.3146 12.856 35.9476C15.98 32.5286 25.812 29.7916 23.898 21.1406Z" fill="black"/>
<path d="M13.523 32.9686C13.305 28.3516 17.952 24.8316 23.146 21.6516C23.453 26.3946 19.502 28.9776 15.981 31.2806C15.107 31.8526 14.261 32.4046 13.523 32.9686Z" fill="black"/>
<path d="M23.898 21.1406C19.973 27.9556 32.083 32.9185 30.335 37.2795C36.475 34.0625 30.761 23.1416 23.898 21.1406Z" fill="black"/>
<path d="M31.301 34.1096C30.808 32.5676 29.438 31.0605 28.017 29.4955C25.669 26.9115 23.247 24.2455 24.398 21.2665C28.071 22.7675 31.557 27.1976 31.94 31.0316C32.064 32.2826 31.85 33.3116 31.301 34.1096Z" fill="black"/>
<path d="M23.807 24.7096C23.807 24.7096 24.015 24.7036 24.379 24.6936C24.56 24.6806 24.78 24.7096 25.039 24.7576C25.304 24.7896 25.594 24.8576 25.892 24.9716C26.205 25.0586 26.518 25.2085 26.847 25.3785C27.181 25.5395 27.499 25.7646 27.832 25.9916C28.136 26.2506 28.486 26.4876 28.768 26.8016C29.073 27.0936 29.348 27.4216 29.619 27.7516C30.125 28.4396 30.588 29.1636 30.881 29.9116C31.058 30.2706 31.149 30.6525 31.263 30.9985C31.35 31.3555 31.426 31.6945 31.459 32.0135C31.482 32.3345 31.527 32.6215 31.498 32.8845C31.48 33.1445 31.484 33.3666 31.435 33.5486C31.355 33.9126 31.301 34.1085 31.301 34.1085C31.301 34.1085 31.279 33.9036 31.241 33.5436C31.236 33.3676 31.163 33.1556 31.126 32.9176C31.094 32.6776 30.981 32.4176 30.911 32.1316C30.719 31.5676 30.461 30.9275 30.104 30.2795C29.942 29.9475 29.726 29.6326 29.527 29.3016C29.321 28.9756 29.089 28.6566 28.847 28.3486C28.379 27.7166 27.824 27.1626 27.292 26.6566C27.003 26.4356 26.747 26.1796 26.466 25.9956C26.188 25.8076 25.93 25.6126 25.666 25.4806C25.408 25.3266 25.17 25.2016 24.947 25.1166C24.728 25.0196 24.53 24.9235 24.351 24.8835C24.005 24.7735 23.807 24.7096 23.807 24.7096Z" fill="black"/>
<path d="M23.37 24.0325C17.182 27.6455 17.649 37.4446 17.182 38.9896C20.027 38.0316 27.042 32.9045 23.37 24.0325Z" fill="black"/>
<path d="M18.379 36.2505C18.656 33.2725 19.222 27.4325 22.887 24.4665C23.696 27.0125 23.608 29.3915 22.626 31.5535C21.628 33.7495 19.866 35.3415 18.379 36.2505Z" fill="black"/>
<path d="M23.37 24.0325C20.282 29.9655 25.26 35.5525 24.142 39.7375C30.143 39.3095 31.109 28.5445 23.37 24.0325Z" fill="black"/>
<path d="M25.286 37.3935C25.305 35.8625 24.84 34.2625 24.354 32.5925C23.581 29.9345 22.784 27.1955 23.8 24.3925C27.426 27.0135 28.412 31.1295 27.735 34.0435C27.538 34.8925 26.935 36.6835 25.286 37.3935Z" fill="black"/>
<path d="M27.042 7.26349C27.042 7.26349 26.986 7.50855 26.865 7.92755C26.746 8.34455 26.575 8.94156 26.37 9.65656C25.96 11.0826 25.401 12.9635 24.967 14.8675C24.51 16.7665 24.177 18.6945 23.951 20.1575C23.836 20.8915 23.741 21.5046 23.674 21.9326C23.611 22.3636 23.562 22.6105 23.562 22.6105C23.562 22.6105 23.525 22.3626 23.484 21.9266C23.455 21.4916 23.388 20.8665 23.392 20.1155C23.371 18.6155 23.552 16.6005 24.017 14.6445C24.252 13.6675 24.537 12.7046 24.861 11.8226C25.174 10.9376 25.527 10.1345 25.848 9.45746C26.168 8.77946 26.481 8.23458 26.69 7.85358C26.907 7.47458 27.042 7.26349 27.042 7.26349Z" fill="black"/>
<path d="M16.303 10.7485C16.303 10.7485 16.491 10.8415 16.821 11.0035C17.15 11.1625 17.599 11.4315 18.131 11.7855C18.649 12.1485 19.236 12.6046 19.803 13.1666C20.082 13.4506 20.38 13.7395 20.639 14.0715C20.915 14.3895 21.156 14.7445 21.407 15.0905C21.634 15.4545 21.857 15.8206 22.048 16.1976C22.254 16.5656 22.4 16.9576 22.549 17.3276C22.843 18.0736 23.004 18.8055 23.114 19.4295C23.217 20.0565 23.248 20.5825 23.256 20.9505C23.253 21.3185 23.251 21.5285 23.251 21.5285C23.251 21.5285 23.183 21.3305 23.065 20.9835C22.95 20.6375 22.781 20.1486 22.573 19.5726C22.148 18.4216 21.485 16.9566 20.595 15.6296C20.369 15.3006 20.154 14.9625 19.903 14.6575C19.664 14.3435 19.424 14.0375 19.177 13.7505C18.69 13.1725 18.197 12.6595 17.773 12.2125C17.337 11.7875 16.978 11.4095 16.709 11.1595C16.45 10.8985 16.303 10.7485 16.303 10.7485Z" fill="black"/>
<path d="M10.038 17.5636C10.038 17.5636 10.54 17.5875 11.412 17.6695C12.284 17.7555 13.534 17.8406 15.026 18.0986C15.772 18.2266 16.584 18.3895 17.431 18.6545C18.277 18.9215 19.146 19.3396 19.952 19.9056C20.359 20.1826 20.735 20.5136 21.097 20.8596C21.456 21.1876 21.814 21.6325 22.097 21.8625C22.411 22.1175 22.733 22.2106 23.102 22.1576C23.474 22.1046 23.882 21.8936 24.27 21.6406C25.052 21.1216 25.786 20.4395 26.544 19.8115C27.298 19.1745 28.058 18.5496 28.842 18.0016C30.414 16.9116 32.09 16.1626 33.599 15.8616C35.112 15.5556 36.4 15.6826 37.266 15.8126C38.135 15.9676 38.61 16.1285 38.61 16.1285C38.61 16.1285 38.115 16.0376 37.247 15.9846C36.383 15.9326 35.129 15.9576 33.718 16.3596C32.301 16.7316 30.767 17.5296 29.323 18.6626C28.59 19.2156 27.869 19.8406 27.141 20.4966C26.41 21.1516 25.674 21.8345 24.799 22.4365C24.356 22.7265 23.866 23.0145 23.249 23.1175C22.629 23.2395 21.924 22.9975 21.49 22.6135C21.023 22.2065 20.787 21.8636 20.437 21.5386C20.108 21.2126 19.765 20.9146 19.411 20.6456C17.998 19.5626 16.336 19.0605 14.903 18.6905C13.445 18.3555 12.23 18.0766 11.38 17.8816C10.523 17.6936 10.038 17.5636 10.038 17.5636Z" fill="black"/>
<path d="M8.96497 25.5764C8.96497 25.5764 9.73796 25.1335 10.977 24.6435C12.21 24.1485 13.914 23.6174 15.675 23.3264C17.434 23.0314 19.238 22.9905 20.568 23.1525C21.234 23.2205 21.782 23.3355 22.16 23.4265C22.536 23.5285 22.751 23.5865 22.751 23.5865C22.751 23.5865 22.529 23.5985 22.141 23.6195C21.755 23.6375 21.207 23.6654 20.556 23.7124C19.253 23.8004 17.538 23.9975 15.834 24.2885C14.127 24.5635 12.426 24.9235 11.135 25.1775C9.84998 25.4395 8.96497 25.5764 8.96497 25.5764Z" fill="black"/>
<path d="M13.523 32.9686C13.523 32.9686 13.567 32.7705 13.645 32.4255C13.73 32.0895 13.882 31.5855 14.138 31.0325C14.376 30.4655 14.735 29.8435 15.162 29.2045C15.595 28.5695 16.126 27.9445 16.689 27.3505C17.274 26.7795 17.882 26.2326 18.504 25.7866C19.122 25.3366 19.727 24.9586 20.271 24.6826C21.351 24.1126 22.142 23.9025 22.142 23.9025C22.142 23.9025 21.517 24.4016 20.579 25.1516C19.655 25.8966 18.475 26.9245 17.385 28.0355C16.836 28.5865 16.321 29.1696 15.846 29.7236C15.386 30.2886 14.96 30.8245 14.623 31.3085C14.276 31.7895 14.013 32.1955 13.823 32.5005C13.632 32.7985 13.523 32.9686 13.523 32.9686Z" fill="black"/>
<path d="M18.379 36.2505C18.379 36.2505 18.686 35.5035 19.188 34.4405C19.682 33.3705 20.353 31.9695 20.865 30.5295C21 30.1725 21.123 29.8105 21.226 29.4505C21.328 29.0895 21.437 28.7375 21.513 28.3885C21.67 27.6935 21.788 27.0336 21.843 26.4586C21.91 25.8836 21.929 25.3935 21.937 25.0485C21.948 24.6995 21.955 24.4996 21.955 24.4996C21.955 24.4996 22.019 24.6895 22.13 25.0225C22.231 25.3585 22.357 25.8525 22.404 26.4595C22.545 27.6715 22.344 29.3346 21.783 30.8596C21.23 32.3906 20.382 33.7675 19.668 34.7255C18.954 35.6915 18.379 36.2505 18.379 36.2505Z" fill="black"/>
<path d="M25.286 37.3935C25.286 37.3935 25.333 37.1855 25.433 36.8295C25.539 36.4795 25.69 35.9785 25.871 35.3785C25.948 35.0805 26.037 34.7615 26.1 34.4225C26.177 34.0855 26.21 33.7245 26.251 33.3575C26.288 32.9875 26.275 32.6065 26.264 32.2195C26.23 31.8335 26.213 31.4385 26.118 31.0505C26.06 30.6575 25.965 30.2705 25.851 29.8915C25.758 29.5085 25.609 29.1426 25.495 28.7806C25.369 28.4216 25.217 28.0825 25.094 27.7515C24.973 27.4195 24.813 27.1235 24.695 26.8355C24.454 26.2605 24.214 25.7965 24.065 25.4575C23.918 25.1165 23.834 24.9216 23.834 24.9216C23.834 24.9216 23.977 25.0775 24.228 25.3515C24.47 25.6325 24.833 26.0255 25.183 26.5595C25.359 26.8255 25.579 27.0976 25.746 27.4266C25.92 27.7506 26.132 28.0796 26.29 28.4526C26.437 28.8296 26.648 29.1975 26.752 29.6165C26.886 30.0245 27.004 30.4455 27.078 30.8815C27.17 31.3105 27.181 31.7596 27.205 32.1926C27.213 32.6306 27.169 33.0586 27.101 33.4686C26.959 34.2876 26.68 35.0096 26.39 35.5836C26.101 36.1616 25.808 36.5995 25.609 36.9105C25.404 37.2165 25.286 37.3935 25.286 37.3935Z" fill="black"/>
<path d="M25.154 21.6556C25.154 22.7446 24.271 23.6265 23.183 23.6265C22.094 23.6265 21.212 22.7446 21.212 21.6556C21.212 20.5666 22.094 19.6845 23.183 19.6845C24.272 19.6835 25.154 20.5666 25.154 21.6556Z" fill="black"/>
<path d="M23.389 23.9025C23.389 23.1325 24.013 22.5085 24.783 22.5085C25.553 22.5085 26.177 23.1325 26.177 23.9025C26.177 24.6725 25.553 25.2966 24.783 25.2966C24.014 25.2966 23.389 24.6725 23.389 23.9025Z" fill="black"/>
<path d="M24.242 24.7795C24.242 25.8275 23.393 26.6766 22.345 26.6766C21.297 26.6766 20.448 25.8275 20.448 24.7795C20.448 23.7315 21.297 22.8825 22.345 22.8825C23.393 22.8825 24.242 23.7325 24.242 24.7795Z" fill="black"/>
<path d="M26.177 22.9025C26.6624 22.9025 27.056 22.509 27.056 22.0235C27.056 21.538 26.6624 21.1445 26.177 21.1445C25.6915 21.1445 25.298 21.538 25.298 22.0235C25.298 22.509 25.6915 22.9025 26.177 22.9025Z" fill="black"/>
<path d="M24.143 21.1456C24.143 21.9546 23.487 22.6115 22.678 22.6115C21.869 22.6115 21.213 21.9556 21.213 21.1456C21.213 20.3356 21.869 19.6805 22.678 19.6805C23.487 19.6795 24.143 20.3356 24.143 21.1456Z" fill="black"/>
<path d="M21.737 26.2065C22.4483 26.2065 23.025 25.6299 23.025 24.9185C23.025 24.2072 22.4483 23.6306 21.737 23.6306C21.0256 23.6306 20.449 24.2072 20.449 24.9185C20.449 25.6299 21.0256 26.2065 21.737 26.2065Z" fill="black"/>
<path d="M25.375 23.8135C25.375 24.3145 24.969 24.7195 24.469 24.7195C23.969 24.7195 23.563 24.3135 23.563 23.8135C23.563 23.3135 23.969 22.9075 24.469 22.9075C24.969 22.9075 25.375 23.3135 25.375 23.8135Z" fill="black"/>
<path d="M26.625 21.6915C26.625 21.9935 26.381 22.2375 26.079 22.2375C25.777 22.2375 25.533 21.9925 25.533 21.6915C25.533 21.3895 25.778 21.1456 26.079 21.1456C26.381 21.1456 26.625 21.3895 26.625 21.6915Z" fill="black"/>
</g>
<path d="M16.221 16.0015C18.85 7.5325 26.583 4.88853 33.388 10.2295C25.5 12.8165 22.098 19.7085 16.221 16.0015Z" fill="#6DAD2B"/>
<path d="M19.571 15.0135C18.859 15.0135 18.144 14.8335 17.403 14.4655C19.026 9.99752 22.249 7.35651 26.138 7.35651C27.849 7.35651 29.61 7.88347 31.305 8.89447C29.053 9.87047 27.19 11.1295 25.507 12.2685C23.328 13.7415 21.446 15.0135 19.571 15.0135Z" fill="#83D134"/>
<path d="M16.221 16.0015C21.325 14.6145 30.598 11.1745 34 16.7465C26.113 22.3545 21.17 21.8735 16.221 16.0015Z" fill="#6DAD2B"/>
<path d="M24.466 18.6315C22.211 18.6315 20.13 17.6075 18 15.4295C18.068 15.4095 18.137 15.3896 18.206 15.3696C20.984 14.5676 24.441 13.5676 27.453 13.5676C29.804 13.5676 31.504 14.1785 32.619 15.4315C29.422 17.5835 26.748 18.6315 24.466 18.6315Z" fill="#83D134"/>
<path d="M32.62 15.4314C32.62 15.4314 32.392 15.4275 31.993 15.4215C31.592 15.3945 31.032 15.4135 30.372 15.4215C29.705 15.4555 28.935 15.4995 28.112 15.6035C27.7 15.6425 27.278 15.7175 26.847 15.7775C26.416 15.8345 25.979 15.9205 25.543 15.9975C23.796 16.3115 22.03 16.6885 20.662 16.8245C19.981 16.9015 19.402 16.9015 19.002 16.8835C18.603 16.8395 18.375 16.8135 18.375 16.8135C18.375 16.8135 18.597 16.7685 18.986 16.6895C19.371 16.5985 19.911 16.4605 20.556 16.2735C21.844 15.9005 23.569 15.3665 25.37 15.0365C26.273 14.8935 27.183 14.7595 28.048 14.7475C28.91 14.7105 29.72 14.7704 30.402 14.8634C31.09 14.9714 31.653 15.0975 32.025 15.2305C32.404 15.3585 32.62 15.4314 32.62 15.4314Z" fill="#6DAD2B"/>
<path d="M16.221 16.0015C23.954 15.8515 31.223 19.1736 32.151 24.0886C28.598 23.3506 17.399 27.2965 16.221 16.0015Z" fill="#6DAD2B"/>
<path d="M25.96 22.1235C22.235 22.1235 18.351 21.3545 17.346 15.8975C23.655 16.0535 29.125 18.5666 30.767 21.9276C30.166 21.9316 29.484 21.9716 28.75 22.0156C27.852 22.0686 26.922 22.1235 25.96 22.1235Z" fill="#83D134"/>
<path d="M30.767 21.9276C30.767 21.9276 30.545 21.8446 30.168 21.6786C29.796 21.4986 29.249 21.2965 28.611 21.0235C27.323 20.4945 25.611 19.8166 23.86 19.2496C22.118 18.6566 20.342 18.1616 18.997 17.7936C17.642 17.4276 16.738 17.1836 16.738 17.1836C16.738 17.1836 17.683 17.1206 19.096 17.2416C19.8 17.3086 20.622 17.4176 21.488 17.6036C22.357 17.7776 23.27 18.0306 24.169 18.3236C25.064 18.6296 25.947 18.9745 26.745 19.3625C27.549 19.7365 28.269 20.1495 28.868 20.5285C29.469 20.9055 29.942 21.2686 30.266 21.5176C30.589 21.7706 30.767 21.9276 30.767 21.9276Z" fill="#6DAD2B"/>
<path d="M16.37 15.2105C21.479 12.3245 24.108 8.02351 20.042 0.262512C14.211 3.90951 14.43 10.3135 16.37 15.2105Z" fill="#6DAD2B"/>
<path d="M16.885 12.6725C15.893 9.60255 15.051 4.17455 19.67 0.625549C22.174 5.98955 21.302 9.77055 16.885 12.6725Z" fill="#83D134"/>
<path d="M7.38403 3.55951C16.822 4.59051 17.399 9.04651 16.371 15.2105C7.83903 14.6145 10.013 5.68451 7.38403 3.55951Z" fill="#6DAD2B"/>
<path d="M15.549 13.0516C11.39 12.3786 10.657 9.20054 9.94501 6.12054C9.75201 5.28554 9.565 4.47247 9.302 3.74847C11.924 4.25847 13.688 5.14647 14.669 6.44147C15.948 8.12847 15.903 10.5676 15.549 13.0516Z" fill="#83D134"/>
<path d="M16.37 15.2105C13.282 11.2115 10.034 7.75642 1.21899 11.2744C10.035 19.9144 14.181 16.7205 16.37 15.2105Z" fill="#6DAD2B"/>
<path d="M11.548 14.9946C9.14797 14.9946 6.28896 13.5055 3.03796 10.5645C4.76096 9.99051 6.27696 9.71051 7.64096 9.71051C11.051 9.71051 12.996 11.4776 14.954 13.9066C14.07 14.4686 12.99 14.9946 11.548 14.9946Z" fill="#83D134"/>
<path d="M16.37 15.2105C10.344 13.2215 2.149 15.7855 0.552002 20.3065C5.297 21.7335 14.2 21.5295 16.37 15.2105Z" fill="#6DAD2B"/>
<path d="M5.79297 18.9695C4.48597 18.9695 3.16297 18.8325 1.96497 18.5765C3.55297 16.1825 7.62597 14.4225 11.896 14.4225C12.998 14.4225 14.048 14.5375 15.034 14.7665C13.034 18.5375 7.99098 18.9695 5.79498 18.9695C5.79298 18.9695 5.79297 18.9695 5.79297 18.9695Z" fill="#83D134"/>
<path d="M16.898 14.1406C10.653 17.8616 3.96897 22.3146 5.85597 28.9476C8.97997 25.5286 18.812 22.7916 16.898 14.1406Z" fill="#6DAD2B"/>
<path d="M6.523 25.9686C6.305 21.3516 10.952 17.8316 16.146 14.6516C16.453 19.3946 12.502 21.9776 8.98098 24.2806C8.10698 24.8526 7.261 25.4046 6.523 25.9686Z" fill="#83D134"/>
<path d="M16.898 14.1406C12.973 20.9556 25.083 25.9185 23.335 30.2795C29.475 27.0625 23.761 16.1416 16.898 14.1406Z" fill="#6DAD2B"/>
<path d="M24.301 27.1096C23.808 25.5676 22.438 24.0605 21.017 22.4955C18.669 19.9115 16.247 17.2455 17.398 14.2665C21.071 15.7675 24.557 20.1976 24.94 24.0316C25.064 25.2826 24.85 26.3116 24.301 27.1096Z" fill="#83D134"/>
<path d="M16.807 17.7096C16.807 17.7096 17.015 17.7036 17.379 17.6936C17.56 17.6806 17.78 17.7096 18.039 17.7576C18.304 17.7896 18.594 17.8576 18.892 17.9716C19.205 18.0586 19.518 18.2085 19.847 18.3785C20.181 18.5395 20.499 18.7646 20.832 18.9916C21.136 19.2506 21.486 19.4876 21.768 19.8016C22.073 20.0936 22.348 20.4216 22.619 20.7516C23.125 21.4396 23.588 22.1636 23.881 22.9116C24.058 23.2706 24.149 23.6525 24.263 23.9985C24.35 24.3555 24.426 24.6945 24.459 25.0135C24.482 25.3345 24.527 25.6215 24.498 25.8845C24.48 26.1445 24.484 26.3666 24.435 26.5486C24.355 26.9126 24.301 27.1085 24.301 27.1085C24.301 27.1085 24.279 26.9036 24.241 26.5436C24.236 26.3676 24.163 26.1556 24.126 25.9176C24.094 25.6776 23.981 25.4176 23.911 25.1316C23.719 24.5676 23.461 23.9275 23.104 23.2795C22.942 22.9475 22.726 22.6326 22.527 22.3016C22.321 21.9756 22.089 21.6566 21.847 21.3486C21.379 20.7166 20.824 20.1626 20.292 19.6566C20.003 19.4356 19.747 19.1796 19.466 18.9956C19.188 18.8076 18.93 18.6126 18.666 18.4806C18.408 18.3266 18.17 18.2016 17.947 18.1166C17.728 18.0196 17.53 17.9235 17.351 17.8835C17.005 17.7735 16.807 17.7096 16.807 17.7096Z" fill="#6DAD2B"/>
<path d="M16.37 17.0325C10.182 20.6455 10.649 30.4446 10.182 31.9896C13.027 31.0316 20.042 25.9045 16.37 17.0325Z" fill="#6DAD2B"/>
<path d="M11.379 29.2505C11.656 26.2725 12.222 20.4325 15.887 17.4665C16.696 20.0125 16.608 22.3915 15.626 24.5535C14.628 26.7495 12.866 28.3415 11.379 29.2505Z" fill="#83D134"/>
<path d="M16.37 17.0325C13.282 22.9655 18.26 28.5525 17.142 32.7375C23.143 32.3095 24.109 21.5445 16.37 17.0325Z" fill="#6DAD2B"/>
<path d="M18.286 30.3935C18.305 28.8625 17.84 27.2625 17.354 25.5925C16.581 22.9345 15.784 20.1955 16.8 17.3925C20.426 20.0135 21.412 24.1295 20.735 27.0435C20.538 27.8925 19.935 29.6835 18.286 30.3935Z" fill="#83D134"/>
<path d="M20.042 0.263489C20.042 0.263489 19.986 0.508551 19.865 0.927551C19.746 1.34455 19.575 1.94156 19.37 2.65656C18.96 4.08256 18.401 5.96349 17.967 7.86749C17.51 9.76649 17.177 11.6945 16.951 13.1575C16.836 13.8915 16.741 14.5046 16.674 14.9326C16.611 15.3636 16.562 15.6105 16.562 15.6105C16.562 15.6105 16.525 15.3626 16.484 14.9266C16.455 14.4916 16.388 13.8665 16.392 13.1155C16.371 11.6155 16.552 9.60047 17.017 7.64447C17.252 6.66747 17.537 5.70457 17.861 4.82257C18.174 3.93757 18.527 3.13446 18.848 2.45746C19.168 1.77946 19.481 1.23458 19.69 0.853577C19.907 0.474577 20.042 0.263489 20.042 0.263489Z" fill="#6DAD2B"/>
<path d="M9.30298 3.74847C9.30298 3.74847 9.49098 3.84148 9.82098 4.00348C10.15 4.16248 10.599 4.43146 11.131 4.78546C11.649 5.14846 12.236 5.60456 12.803 6.16656C13.082 6.45056 13.38 6.73947 13.639 7.07147C13.915 7.38947 14.156 7.74452 14.407 8.09052C14.634 8.45451 14.857 8.82057 15.048 9.19757C15.254 9.56557 15.4 9.95758 15.549 10.3276C15.843 11.0736 16.004 11.8055 16.114 12.4295C16.217 13.0565 16.248 13.5825 16.256 13.9505C16.253 14.3185 16.251 14.5285 16.251 14.5285C16.251 14.5285 16.183 14.3305 16.065 13.9835C15.95 13.6375 15.781 13.1486 15.573 12.5726C15.148 11.4216 14.485 9.95658 13.595 8.62958C13.369 8.30058 13.154 7.96253 12.903 7.65753C12.664 7.34353 12.424 7.03755 12.177 6.75055C11.69 6.17255 11.197 5.65946 10.773 5.21246C10.337 4.78746 9.97798 4.40948 9.70898 4.15948C9.44998 3.89848 9.30298 3.74847 9.30298 3.74847Z" fill="#6DAD2B"/>
<path d="M3.03796 10.5636C3.03796 10.5636 3.53996 10.5875 4.41196 10.6695C5.28396 10.7555 6.53397 10.8406 8.02597 11.0986C8.77197 11.2266 9.58397 11.3895 10.431 11.6545C11.277 11.9215 12.146 12.3396 12.952 12.9056C13.359 13.1826 13.735 13.5136 14.097 13.8596C14.456 14.1876 14.814 14.6325 15.097 14.8625C15.411 15.1175 15.733 15.2106 16.102 15.1576C16.474 15.1046 16.882 14.8936 17.27 14.6406C18.052 14.1216 18.786 13.4395 19.544 12.8115C20.298 12.1745 21.058 11.5496 21.842 11.0016C23.414 9.91157 25.09 9.16255 26.599 8.86155C28.112 8.55555 29.4 8.6826 30.266 8.8126C31.135 8.9676 31.61 9.12852 31.61 9.12852C31.61 9.12852 31.115 9.0376 30.247 8.9846C29.383 8.9326 28.129 8.9576 26.718 9.3596C25.301 9.7316 23.767 10.5296 22.323 11.6626C21.59 12.2156 20.869 12.8406 20.141 13.4966C19.41 14.1516 18.674 14.8345 17.799 15.4365C17.356 15.7265 16.866 16.0145 16.249 16.1175C15.629 16.2395 14.924 15.9975 14.49 15.6135C14.023 15.2065 13.787 14.8636 13.437 14.5386C13.108 14.2126 12.765 13.9146 12.411 13.6456C10.998 12.5626 9.33595 12.0605 7.90295 11.6905C6.44495 11.3555 5.22997 11.0766 4.37997 10.8816C3.52297 10.6936 3.03796 10.5636 3.03796 10.5636Z" fill="#6DAD2B"/>
<path d="M1.96497 18.5764C1.96497 18.5764 2.73796 18.1335 3.97696 17.6435C5.20996 17.1485 6.91396 16.6174 8.67496 16.3264C10.434 16.0314 12.238 15.9905 13.568 16.1525C14.234 16.2205 14.782 16.3355 15.16 16.4265C15.536 16.5285 15.751 16.5865 15.751 16.5865C15.751 16.5865 15.529 16.5985 15.141 16.6195C14.755 16.6375 14.207 16.6654 13.556 16.7124C12.253 16.8004 10.538 16.9975 8.83398 17.2885C7.12698 17.5635 5.42598 17.9235 4.13498 18.1775C2.84998 18.4395 1.96497 18.5764 1.96497 18.5764Z" fill="#6DAD2B"/>
<path d="M6.52301 25.9686C6.52301 25.9686 6.56699 25.7705 6.64499 25.4255C6.72999 25.0895 6.882 24.5855 7.138 24.0325C7.376 23.4655 7.73499 22.8435 8.16199 22.2045C8.59499 21.5695 9.126 20.9445 9.689 20.3505C10.274 19.7795 10.882 19.2326 11.504 18.7866C12.122 18.3366 12.727 17.9586 13.271 17.6826C14.351 17.1126 15.142 16.9025 15.142 16.9025C15.142 16.9025 14.517 17.4016 13.579 18.1516C12.655 18.8966 11.475 19.9245 10.385 21.0355C9.83601 21.5865 9.32101 22.1696 8.84601 22.7236C8.38601 23.2886 7.95999 23.8245 7.62299 24.3085C7.27599 24.7895 7.013 25.1955 6.823 25.5005C6.632 25.7985 6.52301 25.9686 6.52301 25.9686Z" fill="#6DAD2B"/>
<path d="M11.379 29.2505C11.379 29.2505 11.686 28.5035 12.188 27.4405C12.682 26.3705 13.353 24.9695 13.865 23.5295C14 23.1725 14.123 22.8105 14.226 22.4505C14.328 22.0895 14.437 21.7375 14.513 21.3885C14.67 20.6935 14.788 20.0336 14.843 19.4586C14.91 18.8836 14.929 18.3935 14.937 18.0485C14.948 17.6995 14.955 17.4996 14.955 17.4996C14.955 17.4996 15.019 17.6895 15.13 18.0225C15.231 18.3585 15.357 18.8525 15.404 19.4595C15.545 20.6715 15.344 22.3346 14.783 23.8596C14.23 25.3906 13.382 26.7675 12.668 27.7255C11.954 28.6915 11.379 29.2505 11.379 29.2505Z" fill="#6DAD2B"/>
<path d="M18.286 30.3935C18.286 30.3935 18.333 30.1855 18.433 29.8295C18.539 29.4795 18.69 28.9785 18.871 28.3785C18.948 28.0805 19.037 27.7615 19.1 27.4225C19.177 27.0855 19.21 26.7245 19.251 26.3575C19.288 25.9875 19.275 25.6065 19.264 25.2195C19.23 24.8335 19.213 24.4385 19.118 24.0505C19.06 23.6575 18.965 23.2705 18.851 22.8915C18.758 22.5085 18.609 22.1426 18.495 21.7806C18.369 21.4216 18.217 21.0825 18.094 20.7515C17.973 20.4195 17.813 20.1235 17.695 19.8355C17.454 19.2605 17.214 18.7965 17.065 18.4575C16.918 18.1165 16.834 17.9216 16.834 17.9216C16.834 17.9216 16.977 18.0775 17.228 18.3515C17.47 18.6325 17.833 19.0255 18.183 19.5595C18.359 19.8255 18.579 20.0976 18.746 20.4266C18.92 20.7506 19.132 21.0796 19.29 21.4526C19.437 21.8296 19.648 22.1975 19.752 22.6165C19.886 23.0245 20.004 23.4455 20.078 23.8815C20.17 24.3105 20.181 24.7596 20.205 25.1926C20.213 25.6306 20.169 26.0586 20.101 26.4686C19.959 27.2876 19.68 28.0096 19.39 28.5836C19.101 29.1616 18.808 29.5995 18.609 29.9105C18.404 30.2165 18.286 30.3935 18.286 30.3935Z" fill="#6DAD2B"/>
<path d="M18.154 14.6556C18.154 15.7446 17.271 16.6265 16.183 16.6265C15.094 16.6265 14.212 15.7446 14.212 14.6556C14.212 13.5666 15.094 12.6845 16.183 12.6845C17.272 12.6835 18.154 13.5666 18.154 14.6556Z" fill="#5C3400"/>
<path d="M16.389 16.9025C16.389 16.1325 17.013 15.5085 17.783 15.5085C18.553 15.5085 19.177 16.1325 19.177 16.9025C19.177 17.6725 18.553 18.2966 17.783 18.2966C17.014 18.2966 16.389 17.6725 16.389 16.9025Z" fill="#5C3400"/>
<path d="M17.242 17.7795C17.242 18.8275 16.393 19.6766 15.345 19.6766C14.297 19.6766 13.448 18.8275 13.448 17.7795C13.448 16.7315 14.297 15.8825 15.345 15.8825C16.393 15.8825 17.242 16.7325 17.242 17.7795Z" fill="#5C3400"/>
<path d="M19.177 15.9025C19.6624 15.9025 20.056 15.509 20.056 15.0235C20.056 14.538 19.6624 14.1445 19.177 14.1445C18.6915 14.1445 18.298 14.538 18.298 15.0235C18.298 15.509 18.6915 15.9025 19.177 15.9025Z" fill="#5C3400"/>
<path d="M17.143 14.1456C17.143 14.9546 16.487 15.6115 15.678 15.6115C14.869 15.6115 14.213 14.9556 14.213 14.1456C14.213 13.3356 14.869 12.6805 15.678 12.6805C16.487 12.6795 17.143 13.3356 17.143 14.1456Z" fill="#754200"/>
<path d="M14.737 19.2065C15.4483 19.2065 16.025 18.6299 16.025 17.9185C16.025 17.2072 15.4483 16.6306 14.737 16.6306C14.0256 16.6306 13.449 17.2072 13.449 17.9185C13.449 18.6299 14.0256 19.2065 14.737 19.2065Z" fill="#754200"/>
<path d="M18.375 16.8135C18.375 17.3145 17.969 17.7195 17.469 17.7195C16.969 17.7195 16.563 17.3135 16.563 16.8135C16.563 16.3135 16.969 15.9075 17.469 15.9075C17.969 15.9075 18.375 16.3135 18.375 16.8135Z" fill="#754200"/>
<path d="M19.625 14.6915C19.625 14.9935 19.381 15.2375 19.079 15.2375C18.777 15.2375 18.533 14.9925 18.533 14.6915C18.533 14.3895 18.778 14.1456 19.079 14.1456C19.381 14.1456 19.625 14.3895 19.625 14.6915Z" fill="#754200"/>
</svg>
