<svg width="35" height="30" viewBox="0 0 35 30" fill="none" xmlns="http://www.w3.org/2000/svg">
<path d="M16.5363 28.8655C24.3639 28.8655 30.7095 22.52 30.7095 14.6923C30.7095 6.86462 24.3639 0.519043 16.5363 0.519043C8.70858 0.519043 2.36298 6.86462 2.36298 14.6923C2.36298 22.52 8.70858 28.8655 16.5363 28.8655Z" fill="#6DAD2B"/>
<path d="M25.2468 9.54259C27.1904 9.54259 28.7659 7.96701 28.7659 6.02344C28.7659 4.07986 27.1904 2.50429 25.2468 2.50429C23.3032 2.50429 21.7276 4.07986 21.7276 6.02344C21.7276 7.96701 23.3032 9.54259 25.2468 9.54259Z" fill="#6DAD2B"/>
<path d="M24.5844 9.24549C24.5844 6.42591 26.8702 4.14102 29.6889 4.14102C32.5085 4.14102 34.7935 6.4268 34.7935 9.24549C34.7935 12.0651 32.5076 14.3501 29.6889 14.3501C26.8694 14.3509 24.5844 12.0651 24.5844 9.24549Z" fill="#6DAD2B"/>
<path d="M29.8556 14.5434C29.8556 13.7126 30.5294 13.0387 31.3602 13.0387C32.191 13.0387 32.8649 13.7126 32.8649 14.5434C32.8649 15.3742 32.191 16.0479 31.3602 16.0479C30.5294 16.0479 29.8556 15.3742 29.8556 14.5434Z" fill="#6DAD2B"/>
<path d="M6.76789 17.5137C10.4606 17.5137 13.4542 14.5201 13.4542 10.8273C13.4542 7.1346 10.4606 4.14102 6.76789 4.14102C3.07515 4.14102 0.0815735 7.1346 0.0815735 10.8273C0.0815735 14.5201 3.07515 17.5137 6.76789 17.5137Z" fill="#6DAD2B"/>
<path d="M13.4542 25.9041C13.4542 27.7652 11.9451 29.2744 10.084 29.2744C8.22287 29.2744 6.71378 27.7652 6.71378 25.9041C6.71378 24.043 8.22287 22.5339 10.084 22.5339C11.9451 22.5339 13.4542 24.043 13.4542 25.9041Z" fill="#6DAD2B"/>
<path d="M15.0617 25.2116C8.44898 25.2116 3.06876 19.8314 3.06876 13.2187C3.06876 6.60596 8.44898 1.22571 15.0617 1.22571C21.6753 1.22571 27.0547 6.60596 27.0547 13.2187C27.0556 19.8314 21.6753 25.2116 15.0617 25.2116Z" fill="#83D134"/>
<path d="M23.7722 5.88955C23.0345 5.88955 22.4334 5.28929 22.4334 4.54982C22.4334 3.81034 23.0345 3.20998 23.7722 3.20998C24.5108 3.20998 25.112 3.81123 25.112 4.54982C25.112 5.2884 24.5108 5.88955 23.7722 5.88955Z" fill="#83D134"/>
<path d="M27.5965 10.6962C29.5538 10.6962 31.1404 9.10941 31.1404 7.15212C31.1404 5.19483 29.5538 3.60818 27.5965 3.60818C25.6392 3.60818 24.0525 5.19483 24.0525 7.15212C24.0525 9.10941 25.6392 10.6962 27.5965 10.6962Z" fill="#83D134"/>
<path d="M25.7966 11.777C25.7966 10.2324 27.0485 8.97955 28.594 8.97955C30.1394 8.97955 31.3914 10.2315 31.3914 11.777C31.3914 13.3224 30.1394 14.5743 28.594 14.5743C27.0485 14.5743 25.7966 13.3216 25.7966 11.777Z" fill="#83D134"/>
<path d="M5.29429 13.8606C2.80898 13.8606 0.787384 11.839 0.787384 9.35372C0.787384 6.86841 2.80898 4.84682 5.29429 4.84682C7.77959 4.84682 9.80119 6.86841 9.80119 9.35372C9.80119 11.839 7.77959 13.8606 5.29429 13.8606Z" fill="#83D134"/>
<path d="M12.7218 24.9137C12.7218 26.5079 11.4291 27.8006 9.83486 27.8006C8.24064 27.8006 6.94791 26.5079 6.94791 24.9137C6.94791 23.3195 8.24064 22.0267 9.83486 22.0267C11.4291 22.0267 12.7218 23.3195 12.7218 24.9137Z" fill="#83D134"/>
<path d="M24.0463 16.1029C24.0463 16.8823 23.415 17.5137 22.6356 17.5137C21.8563 17.5137 21.2249 16.8823 21.2249 16.1029C21.2249 15.3235 21.8563 14.6923 22.6356 14.6923C23.415 14.6923 24.0463 15.3244 24.0463 16.1029Z" fill="#6DAD2B"/>
<path d="M20.6263 17.7459C20.8594 17.7459 21.0484 17.557 21.0484 17.3239C21.0484 17.0908 20.8594 16.9018 20.6263 16.9018C20.3932 16.9018 20.2043 17.0908 20.2043 17.3239C20.2043 17.557 20.3932 17.7459 20.6263 17.7459Z" fill="#6DAD2B"/>
<path d="M22.968 13.5573C22.968 13.8437 22.7357 14.076 22.4493 14.076C22.1629 14.076 21.9306 13.8437 21.9306 13.5573C21.9306 13.271 22.1629 13.0387 22.4493 13.0387C22.7366 13.0387 22.968 13.271 22.968 13.5573Z" fill="#6DAD2B"/>
<path d="M21.7577 21.0345C21.7577 21.5825 21.3135 22.0267 20.7656 22.0267C20.2176 22.0267 19.7734 21.5825 19.7734 21.0345C19.7734 20.4866 20.2176 20.0423 20.7656 20.0423C21.3135 20.0415 21.7577 20.4857 21.7577 21.0345Z" fill="#6DAD2B"/>
<path d="M22.5912 19.0209C22.5912 19.2594 22.3979 19.4528 22.1594 19.4528C21.9209 19.4528 21.7276 19.2594 21.7276 19.0209C21.7276 18.7824 21.9209 18.5892 22.1594 18.5892C22.3979 18.5892 22.5912 18.7824 22.5912 19.0209Z" fill="#6DAD2B"/>
<path d="M19.3247 21.6623C19.3247 21.8636 19.1616 22.0267 18.9603 22.0267C18.759 22.0267 18.5959 21.8636 18.5959 21.6623C18.5959 21.461 18.759 21.2979 18.9603 21.2979C19.1616 21.2979 19.3247 21.461 19.3247 21.6623Z" fill="#6DAD2B"/>
<path d="M26.7807 13.896C26.7807 14.2702 26.4774 14.5734 26.1033 14.5734C25.7291 14.5734 25.4259 14.2702 25.4259 13.896C25.4259 13.5218 25.7291 13.2187 26.1033 13.2187C26.4765 13.2187 26.7807 13.5218 26.7807 13.896Z" fill="#6DAD2B"/>
<path d="M25.8089 12.5448C26.021 12.5448 26.1929 12.3729 26.1929 12.1609C26.1929 11.9489 26.021 11.777 25.8089 11.777C25.5969 11.777 25.425 11.9489 25.425 12.1609C25.425 12.3729 25.5969 12.5448 25.8089 12.5448Z" fill="#6DAD2B"/>
<path d="M17.4282 21.1605C17.8024 21.1605 18.1057 20.8572 18.1057 20.4831C18.1057 20.109 17.8024 19.8056 17.4282 19.8056C17.0541 19.8056 16.7509 20.109 16.7509 20.4831C16.7509 20.8572 17.0541 21.1605 17.4282 21.1605Z" fill="#6DAD2B"/>
<path d="M14.8267 20.953C14.9565 20.953 15.0617 20.8478 15.0617 20.7181C15.0617 20.5883 14.9565 20.4831 14.8267 20.4831C14.697 20.4831 14.5918 20.5883 14.5918 20.7181C14.5918 20.8478 14.697 20.953 14.8267 20.953Z" fill="#6DAD2B"/>
<path d="M2.89852 10.986C3.19429 10.986 3.43407 10.7462 3.43407 10.4505C3.43407 10.1547 3.19429 9.91492 2.89852 9.91492C2.60275 9.91492 2.36298 10.1547 2.36298 10.4505C2.36298 10.7462 2.60275 10.986 2.89852 10.986Z" fill="#6DAD2B"/>
<path d="M3.10686 8.87403C3.10686 9.07973 2.94017 9.24549 2.73535 9.24549C2.52964 9.24549 2.36383 9.07884 2.36383 8.87403C2.36383 8.66921 2.53053 8.50256 2.73535 8.50256C2.94017 8.50256 3.10686 8.66921 3.10686 8.87403Z" fill="#6DAD2B"/>
<path d="M11.6259 26.5408C11.6259 26.8919 11.3413 27.1773 10.9893 27.1773C10.6373 27.1773 10.3527 26.8928 10.3527 26.5408C10.3527 26.1896 10.6373 25.9041 10.9893 25.9041C11.3413 25.9041 11.6259 26.1888 11.6259 26.5408Z" fill="#6DAD2B"/>
<path d="M11.7439 25.1575C11.7439 25.2923 11.6348 25.4014 11.5 25.4014C11.3652 25.4014 11.2562 25.2923 11.2562 25.1575C11.2562 25.0228 11.3652 24.9137 11.5 24.9137C11.6348 24.9137 11.7439 25.0228 11.7439 25.1575Z" fill="#6DAD2B"/>
<path d="M29.9389 6.85328C30.3723 6.85328 30.7236 6.50195 30.7236 6.06858C30.7236 5.6352 30.3723 5.28398 29.9389 5.28398C29.5056 5.28398 29.1542 5.6352 29.1542 6.06858C29.1542 6.50195 29.5056 6.85328 29.9389 6.85328Z" fill="#6DAD2B"/>
<path d="M29.4913 7.37649C29.4913 7.25324 29.5915 7.15298 29.7147 7.15298C29.8379 7.15298 29.9381 7.25324 29.9381 7.37649C29.9381 7.49974 29.8379 7.59989 29.7147 7.59989C29.5915 7.59989 29.4913 7.49974 29.4913 7.37649Z" fill="#6DAD2B"/>
<path d="M24.1216 3.96633C24.1216 4.06298 24.0436 4.14102 23.9469 4.14102C23.8503 4.14102 23.7722 4.06298 23.7722 3.96633C23.7722 3.86969 23.8503 3.79164 23.9469 3.79164C24.0436 3.79253 24.1216 3.87057 24.1216 3.96633Z" fill="#6DAD2B"/>
<path d="M31.1058 12.1609C31.3247 12.1609 31.5022 11.9834 31.5022 11.7646C31.5022 11.5457 31.3247 11.3682 31.1058 11.3682C30.8869 11.3682 30.7095 11.5457 30.7095 11.7646C30.7095 11.9834 30.8869 12.1609 31.1058 12.1609Z" fill="#6DAD2B"/>
</svg>
