<svg width="34" height="33" viewBox="0 0 34 33" fill="none" xmlns="http://www.w3.org/2000/svg">
<path d="M16.221 16.0015C18.85 7.5325 26.583 4.88853 33.388 10.2295C25.5 12.8165 22.098 19.7085 16.221 16.0015Z" fill="#6DAD2B"/>
<path d="M19.571 15.0135C18.859 15.0135 18.144 14.8335 17.403 14.4655C19.026 9.99752 22.249 7.35651 26.138 7.35651C27.849 7.35651 29.61 7.88347 31.305 8.89447C29.053 9.87047 27.19 11.1295 25.507 12.2685C23.328 13.7415 21.446 15.0135 19.571 15.0135Z" fill="#83D134"/>
<path d="M16.221 16.0015C21.325 14.6145 30.598 11.1745 34 16.7465C26.113 22.3545 21.17 21.8735 16.221 16.0015Z" fill="#6DAD2B"/>
<path d="M24.466 18.6315C22.211 18.6315 20.13 17.6075 18 15.4295C18.068 15.4095 18.137 15.3896 18.206 15.3696C20.984 14.5676 24.441 13.5676 27.453 13.5676C29.804 13.5676 31.504 14.1785 32.619 15.4315C29.422 17.5835 26.748 18.6315 24.466 18.6315Z" fill="#83D134"/>
<path d="M32.62 15.4314C32.62 15.4314 32.392 15.4275 31.993 15.4215C31.592 15.3945 31.032 15.4135 30.372 15.4215C29.705 15.4555 28.935 15.4995 28.112 15.6035C27.7 15.6425 27.278 15.7175 26.847 15.7775C26.416 15.8345 25.979 15.9205 25.543 15.9975C23.796 16.3115 22.03 16.6885 20.662 16.8245C19.981 16.9015 19.402 16.9015 19.002 16.8835C18.603 16.8395 18.375 16.8135 18.375 16.8135C18.375 16.8135 18.597 16.7685 18.986 16.6895C19.371 16.5985 19.911 16.4605 20.556 16.2735C21.844 15.9005 23.569 15.3665 25.37 15.0365C26.273 14.8935 27.183 14.7595 28.048 14.7475C28.91 14.7105 29.72 14.7704 30.402 14.8634C31.09 14.9714 31.653 15.0975 32.025 15.2305C32.404 15.3585 32.62 15.4314 32.62 15.4314Z" fill="#6DAD2B"/>
<path d="M16.221 16.0015C23.954 15.8515 31.223 19.1736 32.151 24.0886C28.598 23.3506 17.399 27.2965 16.221 16.0015Z" fill="#6DAD2B"/>
<path d="M25.96 22.1235C22.235 22.1235 18.351 21.3545 17.346 15.8975C23.655 16.0535 29.125 18.5666 30.767 21.9276C30.166 21.9316 29.484 21.9716 28.75 22.0156C27.852 22.0686 26.922 22.1235 25.96 22.1235Z" fill="#83D134"/>
<path d="M30.767 21.9276C30.767 21.9276 30.545 21.8446 30.168 21.6786C29.796 21.4986 29.249 21.2965 28.611 21.0235C27.323 20.4945 25.611 19.8166 23.86 19.2496C22.118 18.6566 20.342 18.1616 18.997 17.7936C17.642 17.4276 16.738 17.1836 16.738 17.1836C16.738 17.1836 17.683 17.1206 19.096 17.2416C19.8 17.3086 20.622 17.4176 21.488 17.6036C22.357 17.7776 23.27 18.0306 24.169 18.3236C25.064 18.6296 25.947 18.9745 26.745 19.3625C27.549 19.7365 28.269 20.1495 28.868 20.5285C29.469 20.9055 29.942 21.2686 30.266 21.5176C30.589 21.7706 30.767 21.9276 30.767 21.9276Z" fill="#6DAD2B"/>
<path d="M16.37 15.2105C21.479 12.3245 24.108 8.02351 20.042 0.262512C14.211 3.90951 14.43 10.3135 16.37 15.2105Z" fill="#6DAD2B"/>
<path d="M16.885 12.6725C15.893 9.60255 15.051 4.17455 19.67 0.625549C22.174 5.98955 21.302 9.77055 16.885 12.6725Z" fill="#83D134"/>
<path d="M7.384 3.55951C16.822 4.59051 17.399 9.04651 16.371 15.2105C7.839 14.6145 10.013 5.68451 7.384 3.55951Z" fill="#6DAD2B"/>
<path d="M15.549 13.0516C11.39 12.3786 10.657 9.20054 9.94501 6.12054C9.75201 5.28554 9.565 4.47247 9.302 3.74847C11.924 4.25847 13.688 5.14647 14.669 6.44147C15.948 8.12847 15.903 10.5676 15.549 13.0516Z" fill="#83D134"/>
<path d="M16.37 15.2105C13.282 11.2115 10.034 7.75642 1.21899 11.2744C10.035 19.9144 14.181 16.7205 16.37 15.2105Z" fill="#6DAD2B"/>
<path d="M11.548 14.9946C9.148 14.9946 6.28899 13.5055 3.03799 10.5645C4.76099 9.99051 6.27699 9.71051 7.64099 9.71051C11.051 9.71051 12.996 11.4776 14.954 13.9066C14.07 14.4686 12.99 14.9946 11.548 14.9946Z" fill="#83D134"/>
<path d="M16.37 15.2105C10.344 13.2215 2.149 15.7855 0.552002 20.3065C5.297 21.7335 14.2 21.5295 16.37 15.2105Z" fill="#6DAD2B"/>
<path d="M5.793 18.9695C4.486 18.9695 3.163 18.8325 1.965 18.5765C3.553 16.1825 7.626 14.4225 11.896 14.4225C12.998 14.4225 14.048 14.5375 15.034 14.7665C13.034 18.5375 7.99101 18.9695 5.79501 18.9695C5.79301 18.9695 5.793 18.9695 5.793 18.9695Z" fill="#83D134"/>
<path d="M16.898 14.1406C10.653 17.8616 3.96897 22.3146 5.85597 28.9476C8.97997 25.5286 18.812 22.7916 16.898 14.1406Z" fill="#6DAD2B"/>
<path d="M6.523 25.9686C6.305 21.3516 10.952 17.8316 16.146 14.6516C16.453 19.3946 12.502 21.9776 8.98098 24.2806C8.10698 24.8526 7.261 25.4046 6.523 25.9686Z" fill="#83D134"/>
<path d="M16.898 14.1406C12.973 20.9556 25.083 25.9185 23.335 30.2795C29.475 27.0625 23.761 16.1416 16.898 14.1406Z" fill="#6DAD2B"/>
<path d="M24.301 27.1096C23.808 25.5676 22.438 24.0605 21.017 22.4955C18.669 19.9115 16.247 17.2455 17.398 14.2665C21.071 15.7675 24.557 20.1976 24.94 24.0316C25.064 25.2826 24.85 26.3116 24.301 27.1096Z" fill="#83D134"/>
<path d="M16.807 17.7096C16.807 17.7096 17.015 17.7036 17.379 17.6936C17.56 17.6806 17.78 17.7096 18.039 17.7576C18.304 17.7896 18.594 17.8576 18.892 17.9716C19.205 18.0586 19.518 18.2085 19.847 18.3785C20.181 18.5395 20.499 18.7646 20.832 18.9916C21.136 19.2506 21.486 19.4876 21.768 19.8016C22.073 20.0936 22.348 20.4216 22.619 20.7516C23.125 21.4396 23.588 22.1636 23.881 22.9116C24.058 23.2706 24.149 23.6525 24.263 23.9985C24.35 24.3555 24.426 24.6945 24.459 25.0135C24.482 25.3345 24.527 25.6215 24.498 25.8845C24.48 26.1445 24.484 26.3666 24.435 26.5486C24.355 26.9126 24.301 27.1085 24.301 27.1085C24.301 27.1085 24.279 26.9036 24.241 26.5436C24.236 26.3676 24.163 26.1556 24.126 25.9176C24.094 25.6776 23.981 25.4176 23.911 25.1316C23.719 24.5676 23.461 23.9275 23.104 23.2795C22.942 22.9475 22.726 22.6326 22.527 22.3016C22.321 21.9756 22.089 21.6566 21.847 21.3486C21.379 20.7166 20.824 20.1626 20.292 19.6566C20.003 19.4356 19.747 19.1796 19.466 18.9956C19.188 18.8076 18.93 18.6126 18.666 18.4806C18.408 18.3266 18.17 18.2016 17.947 18.1166C17.728 18.0196 17.53 17.9235 17.351 17.8835C17.005 17.7735 16.807 17.7096 16.807 17.7096Z" fill="#6DAD2B"/>
<path d="M16.37 17.0325C10.182 20.6455 10.649 30.4446 10.182 31.9896C13.027 31.0316 20.042 25.9045 16.37 17.0325Z" fill="#6DAD2B"/>
<path d="M11.379 29.2505C11.656 26.2725 12.222 20.4325 15.887 17.4665C16.696 20.0125 16.608 22.3915 15.626 24.5535C14.628 26.7495 12.866 28.3415 11.379 29.2505Z" fill="#83D134"/>
<path d="M16.37 17.0325C13.282 22.9655 18.26 28.5525 17.142 32.7375C23.143 32.3095 24.109 21.5445 16.37 17.0325Z" fill="#6DAD2B"/>
<path d="M18.286 30.3935C18.305 28.8625 17.84 27.2625 17.354 25.5925C16.581 22.9345 15.784 20.1955 16.8 17.3925C20.426 20.0135 21.412 24.1295 20.735 27.0435C20.538 27.8925 19.935 29.6835 18.286 30.3935Z" fill="#83D134"/>
<path d="M20.042 0.263489C20.042 0.263489 19.986 0.508551 19.865 0.927551C19.746 1.34455 19.575 1.94156 19.37 2.65656C18.96 4.08256 18.401 5.96349 17.967 7.86749C17.51 9.76649 17.177 11.6945 16.951 13.1575C16.836 13.8915 16.741 14.5046 16.674 14.9326C16.611 15.3636 16.562 15.6105 16.562 15.6105C16.562 15.6105 16.525 15.3626 16.484 14.9266C16.455 14.4916 16.388 13.8665 16.392 13.1155C16.371 11.6155 16.552 9.60047 17.017 7.64447C17.252 6.66747 17.537 5.70457 17.861 4.82257C18.174 3.93757 18.527 3.13446 18.848 2.45746C19.168 1.77946 19.481 1.23458 19.69 0.853577C19.907 0.474577 20.042 0.263489 20.042 0.263489Z" fill="#6DAD2B"/>
<path d="M9.30301 3.74847C9.30301 3.74847 9.49101 3.84148 9.82101 4.00348C10.15 4.16248 10.599 4.43146 11.131 4.78546C11.649 5.14846 12.236 5.60456 12.803 6.16656C13.082 6.45056 13.38 6.73947 13.639 7.07147C13.915 7.38947 14.156 7.74452 14.407 8.09052C14.634 8.45451 14.857 8.82057 15.048 9.19757C15.254 9.56557 15.4 9.95758 15.549 10.3276C15.843 11.0736 16.004 11.8055 16.114 12.4295C16.217 13.0565 16.248 13.5825 16.256 13.9505C16.253 14.3185 16.251 14.5285 16.251 14.5285C16.251 14.5285 16.183 14.3305 16.065 13.9835C15.95 13.6375 15.781 13.1486 15.573 12.5726C15.148 11.4216 14.485 9.95658 13.595 8.62958C13.369 8.30058 13.154 7.96253 12.903 7.65753C12.664 7.34353 12.424 7.03755 12.177 6.75055C11.69 6.17255 11.197 5.65946 10.773 5.21246C10.337 4.78746 9.97801 4.40948 9.70901 4.15948C9.45001 3.89848 9.30301 3.74847 9.30301 3.74847Z" fill="#6DAD2B"/>
<path d="M3.03799 10.5636C3.03799 10.5636 3.53999 10.5875 4.41199 10.6695C5.28399 10.7555 6.534 10.8406 8.026 11.0986C8.772 11.2266 9.584 11.3895 10.431 11.6545C11.277 11.9215 12.146 12.3396 12.952 12.9056C13.359 13.1826 13.735 13.5136 14.097 13.8596C14.456 14.1876 14.814 14.6325 15.097 14.8625C15.411 15.1175 15.733 15.2106 16.102 15.1576C16.474 15.1046 16.882 14.8936 17.27 14.6406C18.052 14.1216 18.786 13.4395 19.544 12.8115C20.298 12.1745 21.058 11.5496 21.842 11.0016C23.414 9.91157 25.09 9.16255 26.599 8.86155C28.112 8.55555 29.4 8.6826 30.266 8.8126C31.135 8.9676 31.61 9.12852 31.61 9.12852C31.61 9.12852 31.115 9.0376 30.247 8.9846C29.383 8.9326 28.129 8.9576 26.718 9.3596C25.301 9.7316 23.767 10.5296 22.323 11.6626C21.59 12.2156 20.869 12.8406 20.141 13.4966C19.41 14.1516 18.674 14.8345 17.799 15.4365C17.356 15.7265 16.866 16.0145 16.249 16.1175C15.629 16.2395 14.924 15.9975 14.49 15.6135C14.023 15.2065 13.787 14.8636 13.437 14.5386C13.108 14.2126 12.765 13.9146 12.411 13.6456C10.998 12.5626 9.33598 12.0605 7.90298 11.6905C6.44498 11.3555 5.23 11.0766 4.38 10.8816C3.523 10.6936 3.03799 10.5636 3.03799 10.5636Z" fill="#6DAD2B"/>
<path d="M1.965 18.5764C1.965 18.5764 2.73799 18.1335 3.97699 17.6435C5.20999 17.1485 6.91399 16.6174 8.67499 16.3264C10.434 16.0314 12.238 15.9905 13.568 16.1525C14.234 16.2205 14.782 16.3355 15.16 16.4265C15.536 16.5285 15.751 16.5865 15.751 16.5865C15.751 16.5865 15.529 16.5985 15.141 16.6195C14.755 16.6375 14.207 16.6654 13.556 16.7124C12.253 16.8004 10.538 16.9975 8.83401 17.2885C7.12702 17.5635 5.42601 17.9235 4.13501 18.1775C2.85001 18.4395 1.965 18.5764 1.965 18.5764Z" fill="#6DAD2B"/>
<path d="M6.52301 25.9686C6.52301 25.9686 6.56699 25.7705 6.64499 25.4255C6.72999 25.0895 6.882 24.5855 7.138 24.0325C7.376 23.4655 7.73499 22.8435 8.16199 22.2045C8.59499 21.5695 9.126 20.9445 9.689 20.3505C10.274 19.7795 10.882 19.2326 11.504 18.7866C12.122 18.3366 12.727 17.9586 13.271 17.6826C14.351 17.1126 15.142 16.9025 15.142 16.9025C15.142 16.9025 14.517 17.4016 13.579 18.1516C12.655 18.8966 11.475 19.9245 10.385 21.0355C9.83601 21.5865 9.32101 22.1696 8.84601 22.7236C8.38601 23.2886 7.95999 23.8245 7.62299 24.3085C7.27599 24.7895 7.013 25.1955 6.823 25.5005C6.632 25.7985 6.52301 25.9686 6.52301 25.9686Z" fill="#6DAD2B"/>
<path d="M11.379 29.2505C11.379 29.2505 11.686 28.5035 12.188 27.4405C12.682 26.3705 13.353 24.9695 13.865 23.5295C14 23.1725 14.123 22.8105 14.226 22.4505C14.328 22.0895 14.437 21.7375 14.513 21.3885C14.67 20.6935 14.788 20.0336 14.843 19.4586C14.91 18.8836 14.929 18.3935 14.937 18.0485C14.948 17.6995 14.955 17.4996 14.955 17.4996C14.955 17.4996 15.019 17.6895 15.13 18.0225C15.231 18.3585 15.357 18.8525 15.404 19.4595C15.545 20.6715 15.344 22.3346 14.783 23.8596C14.23 25.3906 13.382 26.7675 12.668 27.7255C11.954 28.6915 11.379 29.2505 11.379 29.2505Z" fill="#6DAD2B"/>
<path d="M18.286 30.3935C18.286 30.3935 18.333 30.1855 18.433 29.8295C18.539 29.4795 18.69 28.9785 18.871 28.3785C18.948 28.0805 19.037 27.7615 19.1 27.4225C19.177 27.0855 19.21 26.7245 19.251 26.3575C19.288 25.9875 19.275 25.6065 19.264 25.2195C19.23 24.8335 19.213 24.4385 19.118 24.0505C19.06 23.6575 18.965 23.2705 18.851 22.8915C18.758 22.5085 18.609 22.1426 18.495 21.7806C18.369 21.4216 18.217 21.0825 18.094 20.7515C17.973 20.4195 17.813 20.1235 17.695 19.8355C17.454 19.2605 17.214 18.7965 17.065 18.4575C16.918 18.1165 16.834 17.9216 16.834 17.9216C16.834 17.9216 16.977 18.0775 17.228 18.3515C17.47 18.6325 17.833 19.0255 18.183 19.5595C18.359 19.8255 18.579 20.0976 18.746 20.4266C18.92 20.7506 19.132 21.0796 19.29 21.4526C19.437 21.8296 19.648 22.1975 19.752 22.6165C19.886 23.0245 20.004 23.4455 20.078 23.8815C20.17 24.3105 20.181 24.7596 20.205 25.1926C20.213 25.6306 20.169 26.0586 20.101 26.4686C19.959 27.2876 19.68 28.0096 19.39 28.5836C19.101 29.1616 18.808 29.5995 18.609 29.9105C18.404 30.2165 18.286 30.3935 18.286 30.3935Z" fill="#6DAD2B"/>
<path d="M18.154 14.6556C18.154 15.7446 17.271 16.6265 16.183 16.6265C15.094 16.6265 14.212 15.7446 14.212 14.6556C14.212 13.5666 15.094 12.6845 16.183 12.6845C17.272 12.6835 18.154 13.5666 18.154 14.6556Z" fill="#5C3400"/>
<path d="M16.389 16.9025C16.389 16.1325 17.013 15.5085 17.783 15.5085C18.553 15.5085 19.177 16.1325 19.177 16.9025C19.177 17.6725 18.553 18.2966 17.783 18.2966C17.014 18.2966 16.389 17.6725 16.389 16.9025Z" fill="#5C3400"/>
<path d="M17.242 17.7795C17.242 18.8275 16.393 19.6766 15.345 19.6766C14.297 19.6766 13.448 18.8275 13.448 17.7795C13.448 16.7315 14.297 15.8825 15.345 15.8825C16.393 15.8825 17.242 16.7325 17.242 17.7795Z" fill="#5C3400"/>
<path d="M19.177 15.9025C19.6625 15.9025 20.056 15.509 20.056 15.0235C20.056 14.538 19.6625 14.1445 19.177 14.1445C18.6915 14.1445 18.298 14.538 18.298 15.0235C18.298 15.509 18.6915 15.9025 19.177 15.9025Z" fill="#5C3400"/>
<path d="M17.143 14.1456C17.143 14.9546 16.487 15.6115 15.678 15.6115C14.869 15.6115 14.213 14.9556 14.213 14.1456C14.213 13.3356 14.869 12.6805 15.678 12.6805C16.487 12.6795 17.143 13.3356 17.143 14.1456Z" fill="#754200"/>
<path d="M14.737 19.2065C15.4483 19.2065 16.025 18.6299 16.025 17.9185C16.025 17.2072 15.4483 16.6306 14.737 16.6306C14.0257 16.6306 13.449 17.2072 13.449 17.9185C13.449 18.6299 14.0257 19.2065 14.737 19.2065Z" fill="#754200"/>
<path d="M18.375 16.8135C18.375 17.3145 17.969 17.7195 17.469 17.7195C16.969 17.7195 16.563 17.3135 16.563 16.8135C16.563 16.3135 16.969 15.9075 17.469 15.9075C17.969 15.9075 18.375 16.3135 18.375 16.8135Z" fill="#754200"/>
<path d="M19.625 14.6915C19.625 14.9935 19.381 15.2375 19.079 15.2375C18.777 15.2375 18.533 14.9925 18.533 14.6915C18.533 14.3895 18.778 14.1456 19.079 14.1456C19.381 14.1456 19.625 14.3895 19.625 14.6915Z" fill="#754200"/>
</svg>
