<svg width="144" height="48" viewBox="0 0 144 48" fill="none" xmlns="http://www.w3.org/2000/svg">
<rect width="144" height="48" rx="8.4" fill="black"/>
<path d="M97.8311 23.0411V25.7903H96.1078V27.5932H97.8311V33.7192C97.8311 35.811 98.7773 36.6477 101.158 36.6477C101.576 36.6477 101.975 36.5979 102.323 36.5381V34.7551C102.025 34.785 101.835 34.8049 101.507 34.8049C100.441 34.8049 99.9727 34.3069 99.9727 33.1713V27.5932H102.323V25.7903H99.9727V23.0411H97.8311Z" fill="white"/>
<path d="M108.388 36.7971C111.556 36.7971 113.498 34.6754 113.498 31.1592C113.498 27.6629 111.546 25.5313 108.388 25.5313C105.22 25.5313 103.268 27.6629 103.268 31.1592C103.268 34.6754 105.211 36.7971 108.388 36.7971ZM108.388 34.8946C106.525 34.8946 105.479 33.5299 105.479 31.1592C105.479 28.8084 106.525 27.4338 108.388 27.4338C110.241 27.4338 111.297 28.8084 111.297 31.1592C111.297 33.52 110.241 34.8946 108.388 34.8946Z" fill="white"/>
<path d="M115.16 36.5879H117.301V30.183C117.301 28.659 118.447 27.633 120.071 27.633C120.449 27.633 121.087 27.7028 121.266 27.7625V25.6508C121.037 25.5911 120.628 25.5612 120.31 25.5612C118.895 25.5612 117.69 26.3381 117.381 27.4039H117.222V25.7405H115.16V36.5879Z" fill="white"/>
<path d="M126.583 27.3541C128.167 27.3541 129.203 28.4598 129.253 30.1631H123.775C123.894 28.4698 125 27.3541 126.583 27.3541ZM129.243 33.6594C128.845 34.5061 127.958 34.9743 126.663 34.9743C124.95 34.9743 123.844 33.769 123.775 31.8664V31.7469H131.434V30.9998C131.434 27.5932 129.612 25.5313 126.593 25.5313C123.535 25.5313 121.593 27.7327 121.593 31.1991C121.593 34.6655 123.496 36.7971 126.603 36.7971C129.084 36.7971 130.817 35.6018 131.305 33.6594H129.243Z" fill="white"/>
<path d="M83.7867 32.5821C83.9519 35.2458 86.1716 36.9493 89.4754 36.9493C93.0063 36.9493 95.2157 35.1632 95.2157 32.3137C95.2157 30.0733 93.9561 28.8344 90.9001 28.1221L89.2586 27.7194C87.3176 27.2652 86.533 26.656 86.533 25.5926C86.533 24.2505 87.7513 23.3729 89.5786 23.3729C91.3131 23.3729 92.5107 24.2298 92.7275 25.603H94.9782C94.844 23.0942 92.6346 21.3287 89.6096 21.3287C86.3575 21.3287 84.1894 23.0942 84.1894 25.7475C84.1894 27.9362 85.418 29.2371 88.1126 29.8669L90.0329 30.3315C92.0048 30.796 92.8721 31.4774 92.8721 32.6131C92.8721 33.9346 91.5093 34.8948 89.6509 34.8948C87.6583 34.8948 86.2749 33.9966 86.0787 32.5821H83.7867Z" fill="white"/>
<path d="M61.6019 25.5612C60.1277 25.5612 58.8527 26.2983 58.1953 27.5334H58.0359V25.7405H55.974V40.1938H58.1156V34.9444H58.285C58.8527 36.0899 60.0779 36.7672 61.6219 36.7672C64.3611 36.7672 66.1043 34.6057 66.1043 31.1592C66.1043 27.7127 64.3611 25.5612 61.6019 25.5612ZM60.9943 34.8448C59.2014 34.8448 58.0758 33.4303 58.0758 31.1692C58.0758 28.8981 59.2014 27.4836 61.0043 27.4836C62.8172 27.4836 63.9029 28.8682 63.9029 31.1592C63.9029 33.4602 62.8172 34.8448 60.9943 34.8448Z" fill="white"/>
<path d="M73.5981 25.5612C72.1239 25.5612 70.8489 26.2983 70.1915 27.5334H70.0321V25.7405H67.9702V40.1938H70.1118V34.9444H70.2811C70.8489 36.0899 72.0741 36.7672 73.618 36.7672C76.3573 36.7672 78.1004 34.6057 78.1004 31.1592C78.1004 27.7127 76.3573 25.5612 73.5981 25.5612ZM72.9905 34.8448C71.1975 34.8448 70.0719 33.4303 70.0719 31.1692C70.0719 28.8981 71.1975 27.4836 73.0004 27.4836C74.8133 27.4836 75.8991 28.8682 75.8991 31.1592C75.8991 33.4602 74.8133 34.8448 72.9905 34.8448Z" fill="white"/>
<path d="M52.1316 36.5879H54.5888L49.2099 21.6901H46.7217L41.3428 36.5879H43.7174L45.0905 32.6338H50.7688L52.1316 36.5879ZM47.8471 24.395H48.0226L50.1803 30.6928H45.679L47.8471 24.395Z" fill="white"/>
<path d="M42.7813 10.4531V17.6399H45.3762C47.5178 17.6399 48.7579 16.3201 48.7579 14.0241C48.7579 11.763 47.5078 10.4531 45.3762 10.4531H42.7813ZM43.897 11.4691H45.2517C46.7408 11.4691 47.6224 12.4154 47.6224 14.039C47.6224 15.6876 46.7558 16.6239 45.2517 16.6239H43.897V11.4691Z" fill="white"/>
<path d="M52.556 17.7445C54.1398 17.7445 55.111 16.6837 55.111 14.9256C55.111 13.1774 54.1348 12.1116 52.556 12.1116C50.9722 12.1116 49.996 13.1774 49.996 14.9256C49.996 16.6837 50.9672 17.7445 52.556 17.7445ZM52.556 16.7932C51.6247 16.7932 51.1017 16.1109 51.1017 14.9256C51.1017 13.7502 51.6247 13.0629 52.556 13.0629C53.4824 13.0629 54.0103 13.7502 54.0103 14.9256C54.0103 16.1059 53.4824 16.7932 52.556 16.7932Z" fill="white"/>
<path d="M63.3816 12.2162H62.3108L61.3445 16.355H61.2599L60.1443 12.2162H59.1183L58.0027 16.355H57.923L56.9518 12.2162H55.866L57.3602 17.6399H58.4609L59.5765 13.6456H59.6611L60.7818 17.6399H61.8924L63.3816 12.2162Z" fill="white"/>
<path d="M64.6147 17.6399H65.6855V14.4674C65.6855 13.6207 66.1885 13.0927 66.9804 13.0927C67.7723 13.0927 68.1509 13.526 68.1509 14.3976V17.6399H69.2217V14.1287C69.2217 12.8387 68.5543 12.1116 67.344 12.1116C66.5272 12.1116 65.9893 12.4752 65.7254 13.0778H65.6457V12.2162H64.6147V17.6399Z" fill="white"/>
<path d="M70.908 17.6399H71.9788V10.0995H70.908V17.6399Z" fill="white"/>
<path d="M76.0061 17.7445C77.5898 17.7445 78.561 16.6837 78.561 14.9256C78.561 13.1774 77.5849 12.1116 76.0061 12.1116C74.4223 12.1116 73.4461 13.1774 73.4461 14.9256C73.4461 16.6837 74.4173 17.7445 76.0061 17.7445ZM76.0061 16.7932C75.0747 16.7932 74.5518 16.1109 74.5518 14.9256C74.5518 13.7502 75.0747 13.0629 76.0061 13.0629C76.9324 13.0629 77.4603 13.7502 77.4603 14.9256C77.4603 16.1059 76.9324 16.7932 76.0061 16.7932Z" fill="white"/>
<path d="M81.7515 16.8281C81.1688 16.8281 80.7455 16.5442 80.7455 16.0561C80.7455 15.578 81.0841 15.324 81.8312 15.2742L83.156 15.1895V15.6427C83.156 16.3151 82.5583 16.8281 81.7515 16.8281ZM81.4776 17.7296C82.1898 17.7296 82.7825 17.4208 83.1062 16.8779H83.1909V17.6399H84.2218V13.9344C84.2218 12.7889 83.4548 12.1116 82.0952 12.1116C80.865 12.1116 79.9884 12.7093 79.8789 13.6406H80.9148C81.0343 13.2571 81.4477 13.038 82.0454 13.038C82.7775 13.038 83.156 13.3617 83.156 13.9344V14.4026L81.6868 14.4873C80.3968 14.567 79.6697 15.1298 79.6697 16.1059C79.6697 17.097 80.4317 17.7296 81.4776 17.7296Z" fill="white"/>
<path d="M87.8556 17.7296C88.6026 17.7296 89.2352 17.376 89.5589 16.7833H89.6436V17.6399H90.6695V10.0995H89.5987V13.0778H89.5191C89.2252 12.4802 88.5977 12.1265 87.8556 12.1265C86.486 12.1265 85.6044 13.2123 85.6044 14.9256C85.6044 16.6438 86.476 17.7296 87.8556 17.7296ZM88.1594 13.0878C89.0559 13.0878 89.6187 13.8 89.6187 14.9305C89.6187 16.0661 89.0609 16.7683 88.1594 16.7683C87.2529 16.7683 86.7101 16.076 86.7101 14.9256C86.7101 13.785 87.2579 13.0878 88.1594 13.0878Z" fill="white"/>
<path d="M97.6133 17.7445C99.1971 17.7445 100.168 16.6837 100.168 14.9256C100.168 13.1774 99.1921 12.1116 97.6133 12.1116C96.0295 12.1116 95.0534 13.1774 95.0534 14.9256C95.0534 16.6837 96.0245 17.7445 97.6133 17.7445ZM97.6133 16.7932C96.682 16.7932 96.159 16.1109 96.159 14.9256C96.159 13.7502 96.682 13.0629 97.6133 13.0629C98.5397 13.0629 99.0676 13.7502 99.0676 14.9256C99.0676 16.1059 98.5397 16.7932 97.6133 16.7932Z" fill="white"/>
<path d="M101.586 17.6399H102.657V14.4674C102.657 13.6207 103.16 13.0927 103.951 13.0927C104.743 13.0927 105.122 13.526 105.122 14.3976V17.6399H106.193V14.1287C106.193 12.8387 105.525 12.1116 104.315 12.1116C103.498 12.1116 102.96 12.4752 102.696 13.0778H102.617V12.2162H101.586V17.6399Z" fill="white"/>
<path d="M111.124 10.8665V12.2411H110.263V13.1426H111.124V16.2055C111.124 17.2514 111.597 17.6698 112.788 17.6698C112.997 17.6698 113.196 17.6449 113.371 17.615V16.7235C113.221 16.7385 113.126 16.7484 112.962 16.7484C112.429 16.7484 112.195 16.4994 112.195 15.9316V13.1426H113.371V12.2411H112.195V10.8665H111.124Z" fill="white"/>
<path d="M114.808 17.6399H115.879V14.4723C115.879 13.6506 116.367 13.0977 117.243 13.0977C118 13.0977 118.404 13.536 118.404 14.4026V17.6399H119.475V14.1386C119.475 12.8487 118.762 12.1166 117.607 12.1166C116.79 12.1166 116.217 12.4802 115.953 13.0878H115.869V10.0995H114.808V17.6399Z" fill="white"/>
<path d="M123.337 13.023C124.129 13.023 124.647 13.5759 124.672 14.4275H121.933C121.993 13.5808 122.546 13.023 123.337 13.023ZM124.667 16.1757C124.468 16.599 124.025 16.8331 123.377 16.8331C122.521 16.8331 121.968 16.2304 121.933 15.2792V15.2194H125.763V14.8459C125.763 13.1426 124.851 12.1116 123.342 12.1116C121.813 12.1116 120.842 13.2123 120.842 14.9455C120.842 16.6787 121.793 17.7445 123.347 17.7445C124.588 17.7445 125.454 17.1469 125.698 16.1757H124.667Z" fill="white"/>
<path d="M29.7228 24.361C29.7488 22.3438 30.8321 20.4351 32.5507 19.3786C31.4665 17.8302 29.6505 16.8485 27.7613 16.7893C25.7462 16.5778 23.7926 17.9951 22.7658 17.9951C21.7191 17.9951 20.1381 16.8103 18.4356 16.8454C16.2165 16.9171 14.1477 18.1787 13.0681 20.1188C10.7473 24.1369 12.4784 30.0422 14.7015 33.2901C15.8138 34.8805 17.1137 36.6571 18.8147 36.5941C20.4791 36.525 21.1008 35.5327 23.11 35.5327C25.1005 35.5327 25.6837 36.5941 27.4192 36.554C29.2052 36.525 30.3305 34.9565 31.4038 33.351C32.2029 32.2178 32.8179 30.9653 33.2259 29.64C31.1269 28.7523 29.7252 26.64 29.7228 24.361Z" fill="white"/>
<path d="M26.4448 14.6533C27.4186 13.4843 27.8984 11.9817 27.7822 10.4646C26.2944 10.6209 24.9201 11.3319 23.9331 12.4561C22.968 13.5545 22.4657 15.0307 22.5607 16.4898C24.049 16.5051 25.5121 15.8133 26.4448 14.6533Z" fill="white"/>
</svg>
