<svg width="306" height="275" viewBox="0 0 306 275" fill="none" xmlns="http://www.w3.org/2000/svg">
<path d="M78.8717 42.1674L104.602 49.5805L128.706 48.4001L78.8717 42.1674Z" fill="url(#paint0_linear_2042_19885)"/>
<path opacity="0.5" d="M78.8717 42.1674L104.602 49.5805L128.706 48.4001L78.8717 42.1674Z" fill="#52BEB8"/>
<path d="M133.074 28.1349L132.435 33.2436L95.4391 28.6175L82.6 27.0109L83.2391 21.9044L96.0782 23.5088L133.074 28.1349Z" fill="url(#paint1_linear_2042_19885)"/>
<path d="M130.515 33.0196L129.876 38.1261L92.8804 33.5022L80.0413 31.8978L80.6804 26.7892L93.5195 28.3957L130.515 33.0196Z" fill="url(#paint2_linear_2042_19885)"/>
<path d="M132.494 38.4979L131.854 43.6044L94.8588 38.9783L82.0197 37.3718L82.6588 32.2653L95.4979 33.8718L132.494 38.4979Z" fill="url(#paint3_linear_2042_19885)"/>
<path d="M129.343 43.2913L128.706 48.4L91.7087 43.774L78.8717 42.1674L79.5087 37.0609L92.3478 38.6653L129.343 43.2913Z" fill="url(#paint4_linear_2042_19885)"/>
<g opacity="0.15">
<path d="M132.435 33.2436L133.074 28.1349L96.0781 23.5088L83.239 21.9044L82.5999 27.011L95.439 28.6175L132.435 33.2436Z" fill="url(#paint5_linear_2042_19885)"/>
<path d="M129.876 38.1262L130.515 33.0197L93.5194 28.3957L80.6803 26.7892L80.0411 31.8979L92.8803 33.5023L129.876 38.1262Z" fill="url(#paint6_linear_2042_19885)"/>
<path d="M82.6585 32.2653L82.0194 37.3718L94.8585 38.9784L131.854 43.6044L132.493 38.4979L95.4977 33.8718L82.6585 32.2653Z" fill="url(#paint7_linear_2042_19885)"/>
<path d="M79.5085 37.061L78.8716 42.1675L91.7085 43.774L128.706 48.4001L129.343 43.2914L92.3477 38.6653L79.5085 37.061Z" fill="url(#paint8_linear_2042_19885)"/>
</g>
<path d="M276.02 135.076C267.078 150.728 257.626 159.378 247.7 164.463L247.374 164.628C245.429 165.607 243.429 166.473 241.385 167.224L241.072 167.337C210.896 178.285 176.572 164.198 139.061 215.115C111.778 252.148 47.4827 256.6 25.8783 225.633C5.70222 196.72 11.5305 152.978 62.6957 135.076C113.861 117.174 111.713 75.4196 123.58 56.5218C184.73 -40.8087 334.452 32.8413 276.02 135.076Z" fill="#FFF3ED"/>
<path d="M255.913 72.0435H232.839V11.3718H255.913V72.0435Z" fill="url(#paint9_linear_2042_19885)"/>
<path d="M244.38 26.35C243.151 26.35 241.949 25.9854 240.926 25.3022C239.904 24.619 239.107 23.648 238.636 22.5119C238.166 21.3759 238.043 20.1258 238.283 18.9197C238.522 17.7136 239.115 16.6058 239.984 15.7363C240.854 14.8668 241.961 14.2746 243.168 14.0347C244.374 13.7948 245.624 13.9179 246.76 14.3885C247.896 14.8591 248.867 15.656 249.55 16.6785C250.233 17.7009 250.598 18.903 250.598 20.1326C250.596 21.7811 249.941 23.3615 248.775 24.5271C247.609 25.6927 246.029 26.3483 244.38 26.35Z" fill="url(#paint10_linear_2042_19885)"/>
<path d="M244.38 44.637C243.151 44.637 241.949 44.2724 240.926 43.5892C239.904 42.906 239.107 41.935 238.636 40.7989C238.166 39.6628 238.043 38.4127 238.283 37.2067C238.522 36.0006 239.115 34.8928 239.984 34.0233C240.854 33.1538 241.961 32.5616 243.168 32.3217C244.374 32.0818 245.624 32.2049 246.76 32.6755C247.896 33.1461 248.867 33.943 249.55 34.9654C250.233 35.9879 250.598 37.19 250.598 38.4196C250.596 40.0681 249.941 41.6485 248.775 42.8141C247.609 43.9797 246.029 44.6353 244.38 44.637Z" fill="url(#paint11_linear_2042_19885)"/>
<path d="M244.38 62.9218C243.151 62.9218 241.949 62.5571 240.926 61.874C239.904 61.1908 239.107 60.2198 238.636 59.0837C238.166 57.9476 238.043 56.6975 238.283 55.4914C238.522 54.2854 239.115 53.1776 239.984 52.308C240.854 51.4385 241.961 50.8464 243.168 50.6065C244.374 50.3666 245.624 50.4897 246.76 50.9603C247.896 51.4309 248.867 52.2277 249.55 53.2502C250.233 54.2726 250.598 55.4747 250.598 56.7044C250.596 58.3528 249.941 59.9332 248.775 61.0988C247.609 62.2645 246.029 62.9201 244.38 62.9218Z" fill="url(#paint12_linear_2042_19885)"/>
<path d="M60.8479 197.009C60.7892 198.096 62.0087 200.072 66.3827 204.95C70.7566 209.828 75.7435 212.378 76.2327 211.733C76.7218 211.087 76.7109 207.95 76.7109 207.95C76.7109 207.95 66.1414 193.802 60.8479 197.009Z" fill="url(#paint13_linear_2042_19885)"/>
<path d="M219.839 205.948C220.376 206.559 224.996 202.126 226.75 200.372C228.504 198.617 232.6 194.646 232.504 193.572C232.504 193.572 231.574 191.913 228.959 193.354C226.344 194.796 217.57 203.328 219.839 205.948Z" fill="url(#paint14_linear_2042_19885)"/>
<path d="M140.278 66.9066L156.65 66.3522L170.454 127.917L129.307 125.217L140.278 66.9066Z" fill="url(#paint15_linear_2042_19885)"/>
<path opacity="0.25" d="M140.278 66.9066L156.65 66.3522L170.454 127.917L129.307 125.217L140.278 66.9066Z" fill="#52BEB8"/>
<path d="M144.348 71.1218C144.348 71.1218 144.313 72.7696 143.806 76.0305C143.154 80.2457 141.802 85.4674 140.404 90.5761C139.152 95.1588 137.856 99.6501 136.978 103.246C135.122 110.854 133.826 126.8 133.826 126.8L117.198 130.667C114.413 121.702 122.315 106.972 124.663 99.0392C126.048 94.3609 126.287 89.6088 126.25 86.4979C126.226 84.324 126.067 82.9609 126.067 82.9609L125.98 83.0479C125.804 83.2261 125.363 83.6609 124.717 84.2414C122.222 86.4848 116.652 90.9044 111.43 91.0153C104.609 91.1631 101.678 84.5174 101.678 82.4501C101.678 80.3827 101.717 65.2435 101.911 62.3414C102.104 59.4392 104.272 58.0066 105.898 57.7348C107.524 57.4631 110.898 56.7674 114.22 58.3153C117.541 59.8631 117.315 66.9066 117.315 66.9066C121.998 62.6109 124.861 59.7479 128.035 59.4761C128.806 59.4109 129.841 59.3914 130.965 59.3979C134.454 59.4196 138.791 59.7087 138.791 59.7087L144.348 71.1218Z" fill="url(#paint16_linear_2042_19885)"/>
<path d="M125.748 80.4674C125.937 81.3139 126.015 82.1813 125.98 83.0479C125.804 83.2261 125.363 83.6609 124.717 84.2414C122.222 86.4848 116.652 90.9044 111.43 91.0153C104.609 91.1631 101.678 84.5174 101.678 82.4501C101.678 80.3827 101.717 65.2435 101.911 62.3414C102.104 59.4392 104.272 58.0066 105.898 57.7348C107.524 57.4631 110.898 56.7674 114.22 58.3153C117.541 59.8631 117.315 66.9066 117.315 66.9066C121.998 62.6109 124.861 59.7479 128.035 59.4761C128.806 59.4109 129.841 59.3914 130.965 59.3979C128.146 63.3609 123.898 72.074 125.748 80.4674Z" fill="url(#paint17_linear_2042_19885)"/>
<path d="M105.278 54.3479C105.278 54.3479 105.261 58.5761 105.459 59.1305C105.656 59.6848 107.27 61.1087 110.226 60.9913C113.183 60.874 114.665 59.4827 114.743 58.6174C114.822 57.7522 114.837 53.387 114.837 53.387L105.278 54.3479Z" fill="url(#paint18_linear_2042_19885)"/>
<path d="M200.696 99.0392C199.13 103.326 192.52 106.154 192.52 106.154L174.889 106.033C174.35 102.63 183.404 95.7783 183.404 95.7783L174.961 86.1957L174.091 85.2109L174.078 85.45C174.039 86.0544 174.004 86.6696 173.976 87.2892C173.759 91.7826 173.733 96.5892 173.863 100.859C174.052 107.1 174.572 112.2 175.294 113.513C176.583 115.85 177.113 120.367 177.296 124.837C177.55 131.072 177.124 137.211 177.124 137.211L165.563 127.585C165.549 125.569 165.363 123.558 165.009 121.574C164.317 117.387 163.178 113.367 162.791 111.68C162.623 110.844 162.532 109.994 162.517 109.141C162.437 106.983 162.559 104.615 162.007 103.246C160.163 98.6674 158.704 94.8131 157.537 91.5196C153.765 80.8674 153.059 76.0979 152.38 71.6631L159.676 59.4261C159.676 59.4261 168.867 58.8457 173.87 60.7174C174.004 60.7652 174.135 60.8174 174.263 60.8718C176.759 61.9196 183.283 69.187 188.717 75.7044C190.959 78.3935 193.015 80.9522 194.526 82.8957C198.509 88.0174 202.561 93.9131 200.696 99.0392Z" fill="url(#paint19_linear_2042_19885)"/>
<path d="M200.696 99.0392C199.13 103.326 192.52 106.154 192.52 106.154L174.889 106.033C174.35 102.631 183.404 95.7783 183.404 95.7783L183.35 95.7175L174.961 86.1957L174.091 85.2109C174.426 80.6457 175.178 66.0936 173.874 60.7175C174.009 60.7653 174.139 60.8175 174.267 60.8718C176.763 61.9196 183.287 69.187 188.722 75.7044C190.963 78.3936 193.02 80.9523 194.53 82.8957C195.441 84.0696 196.359 85.287 197.204 86.5196C200.054 90.6805 202.133 95.0957 200.696 99.0392Z" fill="url(#paint20_linear_2042_19885)"/>
<path d="M200.696 99.0392C199.13 103.326 192.52 106.154 192.52 106.154L174.889 106.033C174.35 102.63 183.404 95.7783 183.404 95.7783L183.35 95.7174C183.606 95.5851 183.85 95.4333 184.083 95.2631C184.924 94.6109 191.737 88.1088 197.202 86.5196C200.054 90.6805 202.133 95.0957 200.696 99.0392Z" fill="url(#paint21_linear_2042_19885)"/>
<path d="M193.248 85.2175L192.713 84.2718L170.043 97.0631C169.878 97.0945 169.728 97.1827 169.621 97.3124C169.513 97.4422 169.454 97.6054 169.454 97.774V100.304C169.454 100.497 169.531 100.681 169.667 100.817C169.803 100.953 169.987 101.029 170.179 101.029C170.372 101.029 170.556 100.953 170.692 100.817C170.828 100.681 170.904 100.497 170.904 100.304V97.8262L193.248 85.2175Z" fill="url(#paint22_linear_2042_19885)"/>
<path d="M116.496 97.0631L93.8218 84.2653L93.287 85.2175L115.633 97.8262V100.304C115.633 100.497 115.709 100.681 115.845 100.817C115.981 100.953 116.165 101.029 116.358 101.029C116.55 101.029 116.734 100.953 116.87 100.817C117.006 100.681 117.083 100.497 117.083 100.304V97.774C117.083 97.6058 117.024 97.4428 116.917 97.313C116.81 97.1833 116.661 97.0949 116.496 97.0631Z" fill="url(#paint23_linear_2042_19885)"/>
<path d="M172.709 101.672C172.663 100.561 171.961 99.6283 170.85 99.5696H169.504C168.393 99.6283 167.693 100.561 167.646 101.672L167.567 103.531H172.785L172.709 101.672Z" fill="url(#paint24_linear_2042_19885)"/>
<path d="M118.889 101.672C118.844 100.561 118.141 99.6283 117.031 99.5696H115.696C114.585 99.6283 113.885 100.561 113.837 101.672L113.759 103.531H118.976L118.889 101.672Z" fill="url(#paint25_linear_2042_19885)"/>
<path d="M176.6 106.522C176.678 104.187 177.998 101.146 182.704 101.422C186.794 101.661 188.767 104.478 187.794 108.113C187.774 108.189 176.6 106.522 176.6 106.522Z" fill="url(#paint26_linear_2042_19885)"/>
<path d="M95.5326 111.159H111.283C112.375 111.159 113.261 110.273 113.261 109.18V107.878C113.261 106.786 112.375 105.9 111.283 105.9H95.5326C94.44 105.9 93.5543 106.786 93.5543 107.878V109.18C93.5543 110.273 94.44 111.159 95.5326 111.159Z" fill="url(#paint27_linear_2042_19885)"/>
<path d="M191.002 105.9H175.252C174.16 105.9 173.274 106.786 173.274 107.878V109.18C173.274 110.273 174.16 111.159 175.252 111.159H191.002C192.095 111.159 192.98 110.273 192.98 109.18V107.878C192.98 106.786 192.095 105.9 191.002 105.9Z" fill="url(#paint28_linear_2042_19885)"/>
<path d="M176.391 105.457C178.13 103.5 180.583 103.283 182.633 103.246C184.683 103.209 187.952 104.581 188.1 106.387C188.248 108.194 188.491 110.096 188.1 110.976C187.709 111.857 186.143 113.613 184.733 112.587C184.733 112.587 183.841 113.813 182.707 112.77C182.517 113.548 181.172 113.989 180.437 113.294C180.437 113.294 179.859 114.365 178.874 114.365C177.467 114.365 177.45 109.289 177.352 105.902H176.104L176.391 105.457Z" fill="#C39873"/>
<path d="M112.974 104.761H109.93C108.954 104.761 108.163 106.646 108.163 108.637C108.163 110.628 108.715 112.298 109.278 112.352C109.841 112.407 112.528 112.352 112.528 112.352L112.974 104.761Z" fill="url(#paint29_linear_2042_19885)"/>
<path d="M173.561 104.761H176.604C177.58 104.761 178.372 106.646 178.372 108.637C178.372 110.628 177.82 112.298 177.257 112.352C176.694 112.407 174.007 112.352 174.007 112.352L173.561 104.761Z" fill="url(#paint30_linear_2042_19885)"/>
<path d="M114.704 104.117H111.661C110.685 104.117 109.894 106.32 109.894 108.648C109.894 110.976 110.446 112.926 111.009 112.996C111.572 113.065 114.259 112.996 114.259 112.996L114.704 104.117Z" fill="url(#paint31_linear_2042_19885)"/>
<path d="M171.83 104.117H174.874C175.85 104.117 176.641 106.32 176.641 108.648C176.641 110.976 176.089 112.926 175.526 112.996C174.963 113.065 172.276 112.996 172.276 112.996L171.83 104.117Z" fill="url(#paint32_linear_2042_19885)"/>
<path d="M139.063 67.6979C141.948 70.5718 153.254 72.4805 157.935 66.6457L154.798 58.9131L141.639 57.9783L139.063 67.6979Z" fill="#C39873"/>
<path d="M144.348 71.1218C144.348 71.1218 144.313 72.7697 143.806 76.0305C143.154 80.2457 141.802 85.4675 140.404 90.5762C132.143 90.187 128.041 87.9305 126.25 86.4979C126.226 84.324 126.067 82.961 126.067 82.961L125.98 83.0479C125.804 83.2262 125.363 83.661 124.717 84.2414C122.265 77.1305 117.326 75.037 117.326 75.037V66.9066C122.009 62.611 124.872 59.7479 128.046 59.4762C128.817 59.411 129.852 59.3914 130.976 59.3979C134.465 59.4197 138.802 59.7088 138.802 59.7088L144.348 71.1218Z" fill="url(#paint33_linear_2042_19885)"/>
<path d="M144.348 71.1218C144.707 69.337 144.976 65.8 144.641 65.1196C143.6 62.9957 139.467 55.2653 139.467 55.2653C138.622 55.5507 137.883 56.0847 137.347 56.7972C136.81 57.5098 136.502 58.3677 136.461 59.2587C136.248 62.4522 138.785 71.9174 144.348 71.1218Z" fill="url(#paint34_linear_2042_19885)"/>
<path d="M188.717 75.7044C183.104 76.9892 178.767 81.7457 174.959 86.1957L174.62 86.5913C174.412 86.8348 174.195 87.0674 173.967 87.2892C169.989 91.2761 163.696 92.1 157.528 91.5196C153.757 80.8674 153.05 76.0979 152.372 71.6631L159.667 59.4261C159.667 59.4261 168.859 58.8457 173.861 60.7174L173.961 60.7544C174.061 60.7921 174.159 60.8312 174.254 60.8718C176.759 61.9196 183.283 69.187 188.717 75.7044Z" fill="url(#paint35_linear_2042_19885)"/>
<path d="M188.717 75.7044C183.104 76.9892 178.767 81.7457 174.959 86.1957L174.089 85.2109C174.424 80.6457 175.176 66.0936 173.872 60.7175L173.972 60.7544C174.072 60.7921 174.17 60.8312 174.265 60.8718C176.759 61.9196 183.283 69.187 188.717 75.7044Z" fill="url(#paint36_linear_2042_19885)"/>
<path d="M140.913 58.6044C144.976 64.387 147.624 65.674 155.5 64.2088L152.909 54.3718L140.913 58.6044Z" fill="#9E7150"/>
<path d="M152.381 71.6609C157.852 70.6435 161.817 62.8327 160.207 56.8783L155.761 54.9566C155.761 54.9566 155.039 57.9457 153.717 59.3348C152.396 60.724 150.574 63.7261 152.381 71.6609Z" fill="url(#paint37_linear_2042_19885)"/>
<path d="M136.448 40.2849C136.374 40.3892 136.909 59.0805 144.056 61.8414C151.491 64.7088 155.109 58.1783 157.928 52.7892C160.748 47.4001 159.543 36.1001 159.543 36.1001C159.543 36.1001 138.876 30.9196 136.448 40.2849Z" fill="#C39873"/>
<path d="M137.833 42.8783C137.76 42.8787 137.689 42.8547 137.632 42.8103C137.574 42.7658 137.533 42.7034 137.515 42.6329C137.497 42.5624 137.503 42.488 137.532 42.4214C137.561 42.3548 137.612 42.2998 137.676 42.2653C140.024 40.9761 142.652 41.5066 143.387 41.7935C143.463 41.8281 143.522 41.8905 143.554 41.9677C143.585 42.0449 143.586 42.1312 143.555 42.2089C143.525 42.2865 143.466 42.3496 143.391 42.3851C143.315 42.4207 143.229 42.426 143.15 42.4001C142.317 42.0761 139.961 41.7479 137.989 42.8348C137.941 42.8623 137.888 42.8773 137.833 42.8783Z" fill="#654B1E"/>
<path d="M162.883 54.9631C161.45 58.6392 159.383 60.7544 156.748 59.5696C154.113 58.3848 154.448 55.987 154.791 54.187C155.135 52.387 157.596 49.424 158.083 47.724C158.57 46.024 157.491 42.0501 156.591 41.1501C156.057 40.6153 152.678 39.1153 147.654 38.9762C141.852 38.8218 138.524 39.9762 138.524 39.9762C138.307 53.1522 139.283 56.0305 140.633 58.7088C134.189 57.8131 133.954 49.187 134.957 41.3762C135.19 39.4084 135.688 37.4811 136.435 35.6457C138.748 30.1262 143.28 27.0718 149.361 27.0718C156.715 27.0718 162.824 32.037 164.422 38.6653C164.676 39.7172 164.813 40.7941 164.83 41.8762C164.95 50.0522 164.317 51.2848 162.883 54.9631Z" fill="url(#paint38_linear_2042_19885)"/>
<path d="M113.598 55.3653C112.47 56.4718 109.033 56.7066 107.63 56.0175C107.572 55.9892 107.517 55.9588 107.467 55.9283C106.204 55.1457 96.7109 49.274 92.95 47.3414C91.2391 46.4609 93.4196 45.0936 94.3696 45.4675C94.6957 43.5936 96.6457 43.8892 99.5261 45.9979C98.9109 44.8109 100.126 43.487 101.307 44.287C102.357 45.0001 107.511 49.4262 107.511 49.4262C104.191 45.574 106.243 45.5349 106.92 45.9718C108.035 46.6892 109.643 48.6327 109.643 48.6327C111.207 48.9153 112.448 49.3827 113.339 49.974C115.409 51.3588 115.6 53.4044 113.598 55.3653Z" fill="#C39873"/>
<path d="M99.2175 51.1392C99.1785 51.1392 99.1402 51.1287 99.1066 51.1087C96.2457 49.4066 94.1414 48.2087 92.8501 47.5435C91.9218 47.0653 92.0696 46.4566 92.1762 46.2261C92.4653 45.5848 93.4805 45.1066 94.2044 45.2109C94.2495 44.9725 94.3524 44.7487 94.5039 44.5592C94.6555 44.3697 94.8513 44.2203 95.074 44.124C95.9436 43.7718 97.3457 44.237 99.1479 45.4674C99.1269 45.2278 99.1619 44.9866 99.2502 44.7629C99.3385 44.5391 99.4776 44.339 99.6566 44.1783C99.8976 43.963 100.206 43.8383 100.529 43.8256C100.852 43.8129 101.169 43.913 101.426 44.1087C102.474 44.8196 107.439 49.0827 107.65 49.2631C107.672 49.2816 107.69 49.3043 107.703 49.3297C107.716 49.3552 107.723 49.3829 107.726 49.4114C107.728 49.4399 107.724 49.4685 107.715 49.4956C107.707 49.5228 107.693 49.5479 107.674 49.5696C107.655 49.5913 107.633 49.6091 107.607 49.6221C107.582 49.635 107.554 49.6428 107.526 49.6451C107.497 49.6473 107.469 49.6439 107.441 49.635C107.414 49.6262 107.389 49.6121 107.367 49.5935C107.315 49.55 102.209 45.1653 101.183 44.4696C101.005 44.3288 100.784 44.255 100.558 44.2614C100.332 44.2677 100.115 44.3538 99.9457 44.5044C99.7577 44.6784 99.6331 44.9101 99.5917 45.163C99.5504 45.4158 99.5946 45.6752 99.7175 45.9C99.7405 45.9436 99.748 45.9937 99.7388 46.0421C99.7296 46.0905 99.7042 46.1344 99.6668 46.1665C99.6294 46.1986 99.5822 46.217 99.533 46.2188C99.4837 46.2205 99.4353 46.2055 99.3957 46.1761C97.5066 44.7935 96.0305 44.2066 95.2392 44.5283C94.887 44.6696 94.674 44.9913 94.587 45.5066C94.5815 45.5383 94.569 45.5685 94.5504 45.5948C94.5318 45.6211 94.5076 45.643 94.4795 45.6588C94.4514 45.6746 94.4202 45.684 94.388 45.6862C94.3558 45.6885 94.3236 45.6835 94.2936 45.6718C93.7979 45.4761 92.8023 45.8892 92.5762 46.3979C92.4523 46.6718 92.6131 46.924 93.0523 47.15C94.3566 47.8174 96.4631 49.0218 99.3327 50.7283C99.3736 50.7526 99.4055 50.7897 99.4233 50.8339C99.4412 50.878 99.444 50.9268 99.4314 50.9727C99.4188 51.0187 99.3915 51.0592 99.3536 51.0881C99.3158 51.117 99.2694 51.1326 99.2218 51.1327L99.2175 51.1392Z" fill="#875D3E"/>
<path d="M181.348 113.857C180.954 113.864 180.573 113.718 180.285 113.45C180.264 113.43 180.248 113.407 180.236 113.381C180.224 113.355 180.218 113.326 180.217 113.298C180.217 113.269 180.222 113.241 180.232 113.214C180.242 113.187 180.258 113.163 180.277 113.142C180.297 113.122 180.321 113.105 180.347 113.094C180.373 113.082 180.401 113.076 180.429 113.075C180.458 113.074 180.486 113.079 180.513 113.089C180.54 113.1 180.564 113.115 180.585 113.135C180.744 113.271 180.936 113.363 181.142 113.401C181.347 113.439 181.559 113.422 181.757 113.352C181.925 113.315 182.081 113.235 182.21 113.121C182.339 113.007 182.438 112.862 182.496 112.7C182.505 112.663 182.523 112.629 182.549 112.602C182.575 112.574 182.608 112.554 182.644 112.543C182.68 112.532 182.719 112.531 182.756 112.539C182.793 112.548 182.827 112.566 182.854 112.591C182.965 112.71 183.1 112.803 183.25 112.865C183.4 112.927 183.562 112.956 183.724 112.95C184.056 112.889 184.354 112.707 184.559 112.439C184.593 112.393 184.643 112.362 184.7 112.353C184.757 112.344 184.814 112.358 184.861 112.391C185.024 112.516 185.215 112.6 185.417 112.638C185.619 112.676 185.827 112.666 186.024 112.609C186.881 112.378 187.65 111.433 187.902 110.87C187.914 110.843 187.93 110.82 187.951 110.8C187.972 110.78 187.996 110.765 188.023 110.755C188.049 110.744 188.078 110.739 188.106 110.74C188.135 110.741 188.163 110.747 188.189 110.759C188.215 110.77 188.239 110.787 188.259 110.808C188.278 110.828 188.294 110.853 188.304 110.879C188.314 110.906 188.319 110.934 188.319 110.963C188.318 110.991 188.312 111.02 188.3 111.046C188.007 111.698 187.141 112.761 186.137 113.03C185.91 113.097 185.671 113.115 185.436 113.085C185.201 113.055 184.975 112.976 184.772 112.854C184.508 113.141 184.153 113.328 183.767 113.383C183.419 113.411 183.072 113.311 182.794 113.1C182.58 113.422 182.255 113.655 181.881 113.752C181.709 113.813 181.53 113.848 181.348 113.857Z" fill="#875D3E"/>
<path d="M180.435 113.509C180.393 113.509 180.352 113.497 180.317 113.474C180.27 113.443 180.236 113.394 180.224 113.338C180.212 113.283 180.222 113.224 180.252 113.176C180.45 112.794 180.383 109.033 180.22 105.685C180.217 105.627 180.237 105.571 180.276 105.528C180.314 105.485 180.368 105.459 180.426 105.457C180.484 105.454 180.54 105.474 180.583 105.513C180.626 105.551 180.651 105.605 180.654 105.663C180.737 107.341 180.978 112.859 180.62 113.411C180.599 113.441 180.572 113.466 180.54 113.484C180.507 113.501 180.471 113.509 180.435 113.509Z" fill="#875D3E"/>
<path d="M182.704 112.985C182.669 112.985 182.635 112.977 182.604 112.961C182.573 112.945 182.546 112.922 182.526 112.894C182.506 112.865 182.493 112.833 182.488 112.798C182.483 112.764 182.486 112.729 182.498 112.696C182.843 111.696 183.072 107.454 182.891 105.374C182.886 105.316 182.905 105.259 182.942 105.215C182.979 105.171 183.033 105.143 183.09 105.138C183.148 105.133 183.205 105.151 183.249 105.189C183.294 105.226 183.321 105.279 183.326 105.337C183.511 107.454 183.27 111.8 182.911 112.837C182.896 112.88 182.868 112.918 182.831 112.944C182.794 112.971 182.75 112.985 182.704 112.985Z" fill="#875D3E"/>
<path d="M184.73 112.802C184.688 112.803 184.646 112.79 184.611 112.767C184.575 112.744 184.547 112.711 184.53 112.673C184.513 112.634 184.508 112.591 184.515 112.549C184.522 112.507 184.541 112.468 184.57 112.437C185.053 111.876 185.422 111.226 185.657 110.524C185.73 110.278 185.737 107.959 185.704 105.902C185.704 105.845 185.727 105.789 185.768 105.749C185.809 105.708 185.864 105.685 185.922 105.685C185.979 105.685 186.035 105.708 186.075 105.749C186.116 105.789 186.139 105.845 186.139 105.902C186.154 106.931 186.198 110.311 186.067 110.685C185.812 111.443 185.41 112.143 184.885 112.746C184.843 112.784 184.787 112.804 184.73 112.802Z" fill="#875D3E"/>
<path d="M74.9457 203.985C74.8674 204.011 72.1326 206.826 69.2696 209.794C66.0631 213.113 62.6957 216.62 62.6957 216.62L59.0131 219.189L55.6957 214.367L55.4174 207.87L63.0957 199.391L65.5196 196.713C65.5196 196.713 75.1131 203.928 74.9457 203.985Z" fill="#C39873"/>
<path d="M62.6957 216.62C61.8391 218.702 61.5196 219.396 60.3435 220.733C59.8196 221.328 58.6304 222.748 57.4087 224.157C56.3739 225.348 55.3196 226.528 54.6283 227.2C54.4328 227.421 54.1975 227.604 53.9348 227.739C53.2391 227.9 48.4326 224.261 46.7761 221C45.1196 217.739 43.95 215.546 42.3956 214.002C35.9456 207.613 35.2891 205.507 34.8217 203.304C34.3543 201.102 34.3913 197.826 34.8261 197.174C34.9333 197.012 35.0517 196.858 35.1804 196.713C35.7543 196.061 36.8848 195.063 38.3283 195.111C39.0587 195.133 39.8696 195.42 40.7196 196.146C43.763 198.72 43.95 200.594 45.2152 201.015C46.4804 201.437 55.3761 203.731 56.5456 204.059C57.7152 204.387 58.4196 206.45 58.0913 207.898C57.763 209.346 58.913 215.652 62.6957 216.62Z" fill="url(#paint39_linear_2042_19885)"/>
<path d="M57.4087 224.157C56.3739 225.348 55.3196 226.528 54.6283 227.2C54.4328 227.421 54.1975 227.604 53.9348 227.739C53.2391 227.9 48.4326 224.261 46.7761 221C45.1196 217.739 43.95 215.546 42.3956 214.002C35.9456 207.613 35.2891 205.507 34.8217 203.304C34.3543 201.102 34.3913 197.826 34.8261 197.174C34.9333 197.012 35.0517 196.858 35.1804 196.713C35.7543 196.061 36.8848 195.063 38.3283 195.111C40.1848 198.589 41.7152 202.541 43.7369 206.098C48.3652 214.254 54.4152 219.62 57.4087 224.157Z" fill="url(#paint40_linear_2042_19885)"/>
<path opacity="0.15" d="M57.4087 224.157C56.3739 225.348 55.3196 226.528 54.6283 227.2C54.4328 227.421 54.1975 227.604 53.9348 227.739C53.2391 227.9 48.4326 224.261 46.7761 221C45.1196 217.739 43.95 215.546 42.3956 214.002C35.9456 207.613 35.2891 205.507 34.8217 203.304C34.3543 201.102 34.3913 197.826 34.8261 197.174C34.9333 197.012 35.0517 196.858 35.1804 196.713C35.7543 196.061 36.8848 195.063 38.3283 195.111C40.1848 198.589 41.7152 202.541 43.7369 206.098C48.3652 214.254 54.4152 219.62 57.4087 224.157Z" fill="url(#paint41_linear_2042_19885)"/>
<path d="M74.9456 203.985C74.8674 204.011 72.1326 206.826 69.2695 209.794C68.463 204.676 64.7782 200.88 63.0891 199.391L65.513 196.713C65.513 196.713 75.113 203.928 74.9456 203.985Z" fill="#9E7150"/>
<path d="M60.8478 197.009C60.8478 197.294 63.2544 196.357 70.537 203.659C75.3739 208.502 76.6239 211.289 76.2326 211.733C80.4978 206.448 91.3478 192.441 108.489 169.239L111.735 131.27C111.735 131.27 91.4457 152.187 90.2783 153.998C75.7718 176.522 60.8348 195.413 60.8478 197.009Z" fill="url(#paint42_linear_2042_19885)"/>
<path d="M236.528 199.13C235.876 212.263 229.354 208.574 229.354 208.574L225.722 204.53L221.393 199.713L228.722 192.417L231.389 194.709L236.528 199.13Z" fill="#C39873"/>
<path d="M231.383 194.72C229.554 196.767 227.096 200.124 225.715 204.541L221.387 199.724L228.715 192.428L231.383 194.72Z" fill="#9E7150"/>
<path d="M256.93 195.754C256.907 195.88 256.883 196.007 256.859 196.137C256.731 196.755 256.521 197.353 256.235 197.915C254.424 201.611 249.713 205.439 248.843 206.524C247.813 207.791 247.815 208.376 246.204 211.674C244.593 214.972 240.059 219.676 238.304 219.68C238.165 219.68 237.946 219.55 237.663 219.317C236.939 218.724 235.817 217.478 234.713 216.187C233.111 214.304 231.543 212.322 231.289 212.091C230.791 211.641 230.063 210.157 229.383 208.626C233.122 207.8 234.178 202.252 234.037 200.583C233.896 198.913 234.215 196.987 235.613 196.485C237.011 195.983 246.854 193.276 247.17 193.183C247.485 193.089 249.859 189.341 251.206 188.12C251.767 187.611 252.728 187.498 253.709 187.611C255.076 187.767 256.474 188.359 256.843 188.915L256.872 188.959C257.448 189.902 257.63 191.915 256.93 195.754Z" fill="url(#paint43_linear_2042_19885)"/>
<path d="M256.931 195.754C256.907 195.88 256.883 196.007 256.859 196.137C256.731 196.755 256.521 197.353 256.235 197.915C254.424 201.611 249.713 205.439 248.844 206.524C247.813 207.791 247.815 208.376 246.204 211.674C244.594 214.972 240.059 219.676 238.304 219.68C238.165 219.68 237.946 219.55 237.663 219.317C236.939 218.724 235.817 217.478 234.713 216.187C237.481 211.122 240.981 208.38 243.889 204.92C249.674 198.039 251.25 190.483 253.709 187.615C255.076 187.772 256.474 188.363 256.844 188.92L256.872 188.963C257.448 189.902 257.631 191.915 256.931 195.754Z" fill="url(#paint44_linear_2042_19885)"/>
<path opacity="0.15" d="M256.931 195.754C256.907 195.88 256.883 196.007 256.859 196.137C256.731 196.755 256.521 197.353 256.235 197.915C254.424 201.611 249.713 205.439 248.844 206.524C247.813 207.791 247.815 208.376 246.204 211.674C244.594 214.972 240.059 219.676 238.304 219.68C238.165 219.68 237.946 219.55 237.663 219.317C236.939 218.724 235.817 217.478 234.713 216.187C237.481 211.122 240.981 208.38 243.889 204.92C249.674 198.039 251.25 190.483 253.709 187.615C255.076 187.772 256.474 188.363 256.844 188.92L256.872 188.963C257.448 189.902 257.631 191.915 256.931 195.754Z" fill="url(#paint45_linear_2042_19885)"/>
<path d="M256.93 195.754C256.713 196.439 256.496 197.165 256.235 197.915C254.424 201.611 249.713 205.439 248.844 206.524C247.813 207.791 247.815 208.376 246.204 211.674C244.594 214.972 240.059 219.676 238.304 219.68C238.165 219.68 237.946 219.55 237.663 219.317C239.257 215.187 244.48 210.759 245.372 209.044C246.165 207.522 251.152 201.202 252.72 196.25C254.107 191.87 254.861 188.524 256.872 188.959C257.448 189.902 257.63 191.915 256.93 195.754Z" fill="url(#paint46_linear_2042_19885)"/>
<path d="M219.839 205.948C220.32 202.904 224.637 199.104 227.194 196.6C229.75 194.096 231.894 192.891 232.502 193.557C232.502 193.557 232.087 193.013 230.111 190.902C228.135 188.791 207.15 162.824 203.631 159.241C200.111 155.659 174.146 130.65 174.146 130.65L178.574 164.915C178.574 164.915 202.435 187.626 219.839 205.948Z" fill="url(#paint47_linear_2042_19885)"/>
<path d="M180.324 200.746C179.359 214.585 179.648 225.407 169.502 227.726C165.907 228.548 161.563 229.396 157.452 230.146C148.073 231.857 138.462 231.857 129.083 230.146C124.974 229.396 120.63 228.548 117.033 227.726C106.887 225.407 107.176 214.585 106.211 200.746C105.246 186.907 106.017 159.507 107.563 146.27C109.109 133.033 109.207 129.07 113.844 125.785C118.902 122.202 127.139 120.541 134.657 119.88C137.737 119.609 140.698 119.504 143.267 119.504C147.665 119.504 153.209 119.809 158.546 120.737C163.933 121.674 169.109 123.246 172.691 125.785C177.328 129.07 177.426 133.033 178.972 146.27C180.517 159.507 181.291 186.904 180.324 200.746Z" fill="url(#paint48_linear_2042_19885)"/>
<path d="M155.707 219.876C155.691 219.718 155.675 219.562 155.661 219.407H130.878C130.862 219.56 130.847 219.717 130.833 219.876C130.248 224.94 129.965 230.035 129.985 235.133C129.985 235.611 129.985 236.087 129.985 236.561V236.602C130.117 250.333 132.113 261.502 134.676 263.407C134.938 263.517 135.206 263.614 135.478 263.696C136.267 263.932 137.086 264.052 137.909 264.05H148.633C149.456 264.052 150.275 263.932 151.063 263.696C151.333 263.615 151.599 263.52 151.859 263.411C154.422 261.507 156.424 250.337 156.55 236.607V236.565C156.55 236.091 156.55 235.615 156.55 235.137C156.572 230.038 156.29 224.942 155.707 219.876Z" fill="url(#paint49_linear_2042_19885)"/>
<path d="M140.939 235.133C140.939 250.88 138.493 263.648 135.476 263.691C135.206 263.611 134.94 263.515 134.68 263.407C132.117 261.502 130.115 250.333 129.989 236.602V236.561C129.989 236.087 129.989 235.611 129.989 235.133C129.969 230.035 130.252 224.94 130.837 219.876C130.854 219.72 130.876 219.563 130.893 219.407H140.043C140.665 224.625 140.964 229.877 140.939 235.133Z" fill="url(#paint50_linear_2042_19885)"/>
<path d="M135.493 253.278C137.416 253.278 138.974 245.154 138.974 235.133C138.974 225.111 137.416 216.987 135.493 216.987C133.571 216.987 132.013 225.111 132.013 235.133C132.013 245.154 133.571 253.278 135.493 253.278Z" fill="url(#paint51_linear_2042_19885)"/>
<path d="M161.309 182.502H125.222C124.472 182.502 123.753 182.8 123.223 183.33C122.694 183.86 122.396 184.579 122.396 185.328V194.783C122.397 195.494 122.666 196.178 123.15 196.7C123.633 197.221 124.295 197.541 125.004 197.596L143.265 199.024L161.526 197.596C162.235 197.541 162.897 197.221 163.381 196.7C163.864 196.178 164.134 195.494 164.135 194.783V185.333C164.135 184.961 164.063 184.593 163.921 184.25C163.779 183.906 163.571 183.594 163.309 183.332C163.046 183.069 162.734 182.86 162.391 182.718C162.048 182.575 161.68 182.502 161.309 182.502Z" fill="url(#paint52_linear_2042_19885)"/>
<path d="M169.68 102.137C164.948 102.048 162.683 102.75 159.639 100.637C155.313 97.6305 152.248 90.4653 143.494 90.2262V90.2175H143.276H143.059C134.309 90.4588 131.239 97.624 126.913 100.628C123.87 102.741 121.607 102.041 116.872 102.128C113.794 102.185 111.639 104.009 111.654 108.502C111.67 112.996 112.726 114.767 115.133 114.767C117.026 114.767 131.172 114.359 131.172 114.359C131.172 114.359 132.526 144.85 132.865 150.609C133.204 156.367 134.644 161.613 143.257 161.62H143.272C151.887 161.62 153.326 156.365 153.663 150.609C154 144.852 155.357 114.359 155.357 114.359C155.357 114.359 169.5 114.767 171.396 114.767C173.811 114.767 174.857 112.996 174.874 108.502C174.891 104.009 172.757 102.194 169.68 102.137Z" fill="url(#paint53_linear_2042_19885)"/>
<path d="M244.38 28.087C243.151 28.087 241.949 27.7224 240.926 27.0392C239.904 26.356 239.107 25.385 238.636 24.2489C238.166 23.1128 238.043 21.8627 238.283 20.6567C238.522 19.4506 239.115 18.3428 239.984 17.4733C240.854 16.6037 241.961 16.0116 243.168 15.7717C244.374 15.5318 245.624 15.6549 246.76 16.1255C247.896 16.5961 248.867 17.393 249.55 18.4154C250.233 19.4379 250.598 20.6399 250.598 21.8696C250.596 23.518 249.941 25.0985 248.775 26.2641C247.609 27.4297 246.029 28.0853 244.38 28.087Z" fill="url(#paint54_linear_2042_19885)"/>
<path d="M244.38 46.374C243.151 46.374 241.949 46.0093 240.926 45.3261C239.904 44.643 239.107 43.6719 238.636 42.5359C238.166 41.3998 238.043 40.1497 238.283 38.9436C238.522 37.7376 239.115 36.6297 239.984 35.7602C240.854 34.8907 241.961 34.2985 243.168 34.0586C244.374 33.8187 245.624 33.9419 246.76 34.4125C247.896 34.883 248.867 35.6799 249.55 36.7024C250.233 37.7248 250.598 38.9269 250.598 40.1566C250.596 41.805 249.941 43.3854 248.775 44.551C247.609 45.7166 246.029 46.3722 244.38 46.374Z" fill="url(#paint55_linear_2042_19885)"/>
<path d="M244.38 64.6588C243.151 64.6588 241.949 64.2941 240.926 63.6109C239.904 62.9278 239.107 61.9567 238.636 60.8207C238.166 59.6846 238.043 58.4345 238.283 57.2284C238.522 56.0224 239.115 54.9145 239.984 54.045C240.854 53.1755 241.961 52.5833 243.168 52.3434C244.374 52.1035 245.624 52.2267 246.76 52.6972C247.896 53.1678 248.867 53.9647 249.55 54.9872C250.233 56.0096 250.598 57.2117 250.598 58.4414C250.596 60.0898 249.941 61.6702 248.775 62.8358C247.609 64.0014 246.029 64.657 244.38 64.6588Z" fill="url(#paint56_linear_2042_19885)"/>
<path d="M54.6283 227.189C54.4328 227.411 54.1975 227.593 53.9348 227.728C53.2391 227.889 48.4326 224.25 46.7761 220.989C45.1196 217.728 43.95 215.535 42.3956 213.991C35.9456 207.602 35.2891 205.496 34.8217 203.294C34.3543 201.091 34.3913 197.826 34.8261 197.174C34.9333 197.012 35.0517 196.858 35.1804 196.713C36.3391 197.048 37.1217 197.852 37.6761 199.741C38.5456 202.694 39.5087 207.178 42.9174 211.424C46.3261 215.67 47.65 218.672 51.1109 222.028C53.1609 224.017 54.1565 225.95 54.6283 227.189Z" fill="url(#paint57_linear_2042_19885)"/>
<path d="M174.391 146.922C175.193 147.335 175.465 148.902 175.465 151.009C175.465 153.115 175.728 164.811 175.465 165.444C175.202 166.076 170.565 166.813 170.143 165.865C169.722 164.917 170.196 155.909 170.776 152.274C171.357 148.639 172.961 146.183 174.391 146.922Z" fill="url(#paint58_linear_2042_19885)"/>
<path d="M112.143 146.922C111.341 147.335 111.07 148.902 111.07 151.009C111.07 153.115 110.807 164.811 111.07 165.444C111.333 166.076 115.97 166.813 116.391 165.865C116.813 164.917 116.339 155.909 115.759 152.274C115.178 148.639 113.576 146.183 112.143 146.922Z" fill="url(#paint59_linear_2042_19885)"/>
<path d="M143.267 157.796C146.746 157.796 149.565 154.976 149.565 151.498C149.565 148.02 146.746 145.2 143.267 145.2C139.789 145.2 136.97 148.02 136.97 151.498C136.97 154.976 139.789 157.796 143.267 157.796Z" fill="url(#paint60_linear_2042_19885)"/>
<path d="M143.267 115.059C149.635 115.059 154.798 109.896 154.798 103.528C154.798 97.1602 149.635 91.9979 143.267 91.9979C136.899 91.9979 131.737 97.1602 131.737 103.528C131.737 109.896 136.899 115.059 143.267 115.059Z" fill="url(#paint61_linear_2042_19885)"/>
<path d="M150.065 98.5457C149.912 98.5457 149.761 98.5134 149.621 98.4508C149.481 98.3883 149.356 98.2969 149.254 98.1827C148.527 97.3681 147.641 96.7106 146.651 96.2503C145.66 95.79 144.587 95.5366 143.495 95.5057C142.403 95.4748 141.317 95.6669 140.302 96.0704C139.288 96.4739 138.366 97.0802 137.593 97.8522C137.388 98.0502 137.114 98.1598 136.829 98.1573C136.544 98.1548 136.271 98.0405 136.07 97.839C135.868 97.6375 135.754 97.3648 135.751 97.0798C135.749 96.7949 135.858 96.5203 136.056 96.3153C137.038 95.3339 138.209 94.5632 139.499 94.0502C140.788 93.5372 142.169 93.2927 143.556 93.3318C144.943 93.3708 146.308 93.6926 147.567 94.2774C148.825 94.8622 149.951 95.6976 150.876 96.7327C151.016 96.8891 151.107 97.0827 151.139 97.2899C151.171 97.4972 151.143 97.7094 151.057 97.9008C150.972 98.0922 150.832 98.2548 150.656 98.3688C150.48 98.4829 150.275 98.5435 150.065 98.5435V98.5457Z" fill="url(#paint62_linear_2042_19885)"/>
<path d="M143.267 113.728C141.591 113.73 139.94 113.317 138.462 112.528C136.983 111.739 135.721 110.598 134.789 109.204C134.705 109.086 134.645 108.952 134.613 108.81C134.581 108.668 134.578 108.521 134.604 108.378C134.63 108.235 134.685 108.099 134.764 107.977C134.844 107.856 134.947 107.751 135.068 107.67C135.189 107.589 135.324 107.533 135.467 107.505C135.61 107.478 135.757 107.479 135.899 107.509C136.041 107.539 136.176 107.598 136.295 107.681C136.415 107.764 136.516 107.87 136.593 107.994C137.304 109.053 138.256 109.928 139.372 110.546C140.488 111.164 141.735 111.507 143.01 111.547C144.285 111.587 145.551 111.323 146.704 110.776C147.856 110.229 148.862 109.415 149.637 108.402C149.812 108.173 150.071 108.023 150.357 107.986C150.643 107.948 150.932 108.025 151.161 108.2C151.39 108.375 151.54 108.634 151.578 108.92C151.615 109.206 151.538 109.495 151.363 109.724C150.415 110.972 149.191 111.983 147.786 112.678C146.381 113.373 144.835 113.732 143.267 113.728Z" fill="url(#paint63_linear_2042_19885)"/>
<path d="M198.391 90.6327C202.91 90.6327 206.574 86.9692 206.574 82.4501C206.574 77.9309 202.91 74.2675 198.391 74.2675C193.872 74.2675 190.209 77.9309 190.209 82.4501C190.209 86.9692 193.872 90.6327 198.391 90.6327Z" fill="url(#paint64_linear_2042_19885)"/>
<path d="M88.1456 90.6327C92.6648 90.6327 96.3282 86.9692 96.3282 82.4501C96.3282 77.9309 92.6648 74.2675 88.1456 74.2675C83.6265 74.2675 79.963 77.9309 79.963 82.4501C79.963 86.9692 83.6265 90.6327 88.1456 90.6327Z" fill="url(#paint65_linear_2042_19885)"/>
<path d="M153.989 115.044C153.918 115.044 153.848 115.02 153.791 114.977C153.734 114.934 153.693 114.873 153.674 114.804C153.655 114.735 153.659 114.662 153.686 114.596C153.712 114.529 153.76 114.474 153.822 114.437C154.295 114.155 154.841 114.017 155.391 114.041C155.478 114.049 155.558 114.091 155.613 114.158C155.669 114.224 155.696 114.31 155.688 114.397C155.68 114.483 155.638 114.563 155.572 114.619C155.505 114.674 155.419 114.701 155.333 114.694C154.92 114.682 154.512 114.788 154.157 114.998C154.106 115.028 154.048 115.044 153.989 115.044Z" fill="#308B85"/>
<path d="M143.261 117.463C143.174 117.463 143.091 117.429 143.03 117.368C142.969 117.306 142.935 117.224 142.935 117.137C142.935 117.051 142.969 116.968 143.03 116.906C143.091 116.845 143.174 116.811 143.261 116.811C146.039 116.811 149.959 116.257 155.652 111.939C155.686 111.911 155.725 111.891 155.767 111.879C155.809 111.866 155.854 111.863 155.897 111.868C155.941 111.873 155.983 111.887 156.021 111.909C156.059 111.931 156.092 111.96 156.118 111.995C156.145 112.03 156.164 112.07 156.175 112.112C156.185 112.155 156.187 112.199 156.181 112.242C156.174 112.286 156.158 112.327 156.135 112.364C156.112 112.401 156.082 112.434 156.046 112.459C150.198 116.894 146.13 117.463 143.261 117.463Z" fill="#308B85"/>
<path d="M132.546 115.044C132.487 115.044 132.429 115.028 132.378 114.998C132.023 114.788 131.615 114.682 131.202 114.694C131.116 114.701 131.03 114.674 130.963 114.619C130.896 114.563 130.855 114.483 130.847 114.397C130.839 114.31 130.866 114.224 130.922 114.158C130.977 114.091 131.057 114.049 131.144 114.041C131.694 114.017 132.24 114.155 132.713 114.437C132.775 114.474 132.822 114.529 132.849 114.596C132.876 114.662 132.88 114.735 132.861 114.804C132.842 114.873 132.801 114.934 132.744 114.977C132.687 115.02 132.617 115.044 132.546 115.044Z" fill="#308B85"/>
<path d="M143.276 117.463C140.396 117.463 136.339 116.894 130.487 112.463C130.451 112.438 130.421 112.406 130.398 112.369C130.374 112.331 130.359 112.29 130.352 112.247C130.345 112.203 130.347 112.159 130.358 112.117C130.369 112.074 130.388 112.034 130.414 111.999C130.441 111.964 130.474 111.935 130.512 111.913C130.55 111.892 130.592 111.878 130.636 111.872C130.679 111.867 130.723 111.871 130.765 111.883C130.807 111.895 130.847 111.916 130.88 111.944C136.576 116.263 140.496 116.815 143.272 116.815C143.358 116.815 143.441 116.85 143.502 116.911C143.564 116.972 143.598 117.055 143.598 117.141C143.598 117.228 143.564 117.311 143.502 117.372C143.441 117.433 143.358 117.467 143.272 117.467L143.276 117.463Z" fill="#308B85"/>
<path d="M126.067 83.2848C125.987 83.2848 125.909 83.255 125.85 83.2012C125.79 83.1475 125.752 83.0735 125.743 82.9935C125.743 82.9544 125.309 79.0022 124.491 75.1022C124.473 75.0175 124.49 74.9291 124.537 74.8565C124.585 74.784 124.659 74.7332 124.743 74.7153C124.828 74.6974 124.917 74.7139 124.989 74.7612C125.062 74.8085 125.113 74.8827 125.13 74.9674C125.952 78.9001 126.389 82.8827 126.393 82.9218C126.403 83.0077 126.377 83.0937 126.323 83.161C126.269 83.2282 126.19 83.2712 126.104 83.2805L126.067 83.2848Z" fill="#51823B"/>
<path d="M117.739 80.7935C117.684 80.7936 117.629 80.7794 117.58 80.7522C117.017 80.4348 116.898 78.337 116.972 70.0566C116.972 68.9196 116.991 67.8392 116.991 66.9087C116.991 66.8222 117.026 66.7393 117.087 66.6781C117.148 66.617 117.231 66.5826 117.317 66.5826C117.404 66.5826 117.487 66.617 117.548 66.6781C117.609 66.7393 117.643 66.8222 117.643 66.9087C117.643 67.8392 117.643 68.9218 117.624 70.0631C117.591 73.85 117.541 79.5609 117.939 80.2109C117.993 80.2524 118.033 80.31 118.053 80.3753C118.073 80.4406 118.071 80.5105 118.049 80.5751C118.027 80.6397 117.985 80.6957 117.93 80.7353C117.874 80.7749 117.807 80.796 117.739 80.7957V80.7935Z" fill="#51823B"/>
<path d="M173.97 87.7718H173.957C173.914 87.7696 173.872 87.7589 173.833 87.7405C173.794 87.722 173.76 87.696 173.731 87.6641C173.702 87.6322 173.68 87.595 173.666 87.5545C173.652 87.5141 173.645 87.4712 173.648 87.4283C173.659 87.2109 173.676 86.9544 173.693 86.6914C173.728 86.1675 173.763 85.624 173.77 85.2066C173.811 81.9631 174.924 79.7957 175.661 79.1305C175.737 79.0476 175.829 78.9814 175.932 78.9361C176.035 78.8909 176.146 78.8675 176.259 78.8675C176.345 78.8712 176.427 78.9092 176.485 78.973C176.544 79.0368 176.574 79.1212 176.571 79.2077C176.567 79.2942 176.529 79.3756 176.465 79.4341C176.401 79.4926 176.317 79.5234 176.23 79.5196C175.913 79.6435 174.472 81.4892 174.422 85.2153C174.422 85.6501 174.38 86.2022 174.343 86.737C174.326 86.9957 174.309 87.2457 174.298 87.4653C174.293 87.5487 174.256 87.627 174.195 87.6841C174.134 87.7411 174.053 87.7725 173.97 87.7718Z" fill="#51823B"/>
<path d="M183.402 96.1044C183.333 96.1046 183.266 96.083 183.21 96.0427C183.155 96.0024 183.113 95.9454 183.092 95.8801C183.07 95.8147 183.07 95.7442 183.091 95.6787C183.112 95.6131 183.153 95.5559 183.209 95.5153C184.635 94.4588 188.309 91.4653 188.346 91.4348C188.379 91.4062 188.417 91.3845 188.458 91.371C188.5 91.3575 188.544 91.3524 188.587 91.3561C188.631 91.3598 188.673 91.3721 188.711 91.3925C188.75 91.4128 188.784 91.4407 188.812 91.4744C188.839 91.5081 188.86 91.5471 188.872 91.5889C188.885 91.6308 188.888 91.6747 188.883 91.718C188.879 91.7614 188.865 91.8033 188.843 91.8412C188.822 91.8792 188.793 91.9125 188.759 91.9392C188.722 91.9696 185.037 94.9827 183.6 96.0392C183.543 96.0821 183.473 96.105 183.402 96.1044Z" fill="#51823B"/>
<path d="M164.409 38.6718C161.093 38.6718 156.885 37.4979 151.622 35.4609C145.752 33.1914 140.639 33.5979 136.422 35.6523C138.735 30.1327 143.267 27.0783 149.348 27.0783C156.702 27.0783 162.811 32.0436 164.409 38.6718Z" fill="url(#paint66_linear_2042_19885)"/>
<path d="M153.739 44.6153C153.678 44.6154 153.618 44.5983 153.566 44.5661C153.514 44.5338 153.473 44.4875 153.446 44.4327C152.528 42.5587 150.117 41.7522 147.576 42.4761C147.493 42.4998 147.403 42.4894 147.328 42.4472C147.252 42.405 147.196 42.3345 147.173 42.2511C147.149 42.1678 147.16 42.0785 147.202 42.0029C147.244 41.9273 147.314 41.8715 147.398 41.8479C150.239 41.0392 152.963 41.9848 154.024 44.1479C154.048 44.1976 154.06 44.2528 154.057 44.3081C154.054 44.3635 154.037 44.4172 154.008 44.4642C153.978 44.5112 153.937 44.5499 153.889 44.5767C153.84 44.6035 153.786 44.6176 153.73 44.6174L153.739 44.6153Z" fill="#654B1E"/>
<path d="M144.348 52.1544H144.331C144.105 52.1508 143.885 52.0888 143.69 51.9745C143.496 51.8602 143.335 51.6975 143.222 51.5022C142.515 50.2566 143.639 47.6827 144.154 46.6327C144.498 45.9327 144.613 45.4392 144.498 45.1696C144.407 44.9522 144.148 44.8761 143.874 44.7914L143.72 44.7414C143.665 44.7232 143.62 44.684 143.594 44.6325C143.568 44.5809 143.563 44.5211 143.582 44.4664C143.6 44.4116 143.639 44.3663 143.691 44.3404C143.742 44.3145 143.802 44.3102 143.857 44.3283L144.002 44.374C144.324 44.474 144.726 44.5914 144.898 44.9935C145.07 45.3957 144.961 45.9783 144.546 46.8196C143.765 48.4066 143.109 50.4109 143.602 51.2827C143.681 51.4155 143.794 51.5254 143.928 51.6016C144.063 51.6779 144.215 51.7178 144.37 51.7174C144.427 51.7198 144.482 51.7449 144.521 51.7873C144.56 51.8297 144.581 51.8859 144.578 51.9435C144.576 52.0012 144.551 52.0556 144.509 52.0947C144.466 52.1338 144.41 52.1545 144.352 52.1522L144.348 52.1544Z" fill="#875D3E"/>
<path d="M146.398 55.6022C146.305 55.6022 146.213 55.5979 146.122 55.5892C146.035 55.5808 145.956 55.5385 145.9 55.4714C145.845 55.4043 145.819 55.3181 145.827 55.2316C145.836 55.1451 145.878 55.0655 145.945 55.0102C146.012 54.955 146.098 54.9287 146.185 54.937C147.778 55.0935 149.739 53.5066 150.276 52.5935C150.298 52.5566 150.327 52.5242 150.361 52.4984C150.395 52.4725 150.434 52.4537 150.475 52.4429C150.517 52.4321 150.56 52.4295 150.603 52.4354C150.645 52.4413 150.686 52.4555 150.723 52.4772C150.76 52.4989 150.792 52.5277 150.818 52.5619C150.844 52.5961 150.863 52.635 150.874 52.6765C150.884 52.718 150.887 52.7612 150.881 52.8037C150.875 52.8461 150.861 52.887 150.839 52.924C150.167 54.0675 148.159 55.6022 146.398 55.6022Z" fill="#875D3E"/>
<path d="M149.932 46.487C150.094 45.8692 149.889 45.2802 149.474 45.1714C149.06 45.0626 148.592 45.4753 148.43 46.0931C148.268 46.711 148.473 47.3 148.887 47.4087C149.302 47.5175 149.769 47.1048 149.932 46.487Z" fill="#654B1E"/>
<path d="M142.023 46.0325C142.185 45.4147 141.98 44.8257 141.566 44.7169C141.151 44.6081 140.683 45.0208 140.521 45.6386C140.359 46.2564 140.564 46.8454 140.979 46.9542C141.393 47.063 141.861 46.6503 142.023 46.0325Z" fill="#654B1E"/>
<path d="M103.789 49.7979C103.742 49.7979 103.696 49.7826 103.659 49.7544C103.639 49.7414 101.761 48.3283 99.3805 46.1696C99.3574 46.1511 99.3383 46.128 99.3244 46.1018C99.3106 46.0756 99.3022 46.0469 99.2999 46.0173C99.2975 45.9878 99.3013 45.9581 99.3108 45.93C99.3204 45.902 99.3355 45.8762 99.3554 45.8542C99.3753 45.8323 99.3995 45.8146 99.4265 45.8023C99.4534 45.79 99.4826 45.7834 99.5122 45.7828C99.5419 45.7822 99.5713 45.7877 99.5987 45.7989C99.6262 45.8101 99.651 45.8267 99.6718 45.8479C102.037 47.9914 103.9 49.3935 103.92 49.4066C103.956 49.434 103.983 49.4721 103.997 49.5157C104.01 49.5592 104.01 49.606 103.995 49.6493C103.981 49.6925 103.953 49.7302 103.916 49.7569C103.879 49.7835 103.835 49.7979 103.789 49.7979Z" fill="#875D3E"/>
<path d="M101.348 50C101.305 50.0003 101.264 49.9883 101.228 49.9653C101.189 49.9392 97.2196 47.3566 94.2718 45.6783C94.247 45.664 94.2252 45.645 94.2077 45.6223C94.1902 45.5996 94.1774 45.5737 94.1699 45.546C94.1624 45.5184 94.1605 45.4895 94.1642 45.4611C94.1678 45.4327 94.1771 45.4053 94.1914 45.3805C94.2056 45.3556 94.2247 45.3339 94.2474 45.3164C94.2701 45.2989 94.296 45.286 94.3236 45.2786C94.3513 45.2711 94.3801 45.2692 94.4085 45.2728C94.4369 45.2765 94.4644 45.2858 94.4892 45.3C97.4522 46.9826 101.433 49.5761 101.472 49.6022C101.511 49.6283 101.54 49.6663 101.556 49.7104C101.571 49.7546 101.572 49.8026 101.558 49.8473C101.544 49.892 101.516 49.931 101.478 49.9585C101.44 49.9861 101.395 50.0006 101.348 50Z" fill="#875D3E"/>
<path d="M107.943 50.0718C107.891 50.0717 107.84 50.0524 107.8 50.0174L106.115 48.5305C106.092 48.5121 106.073 48.4892 106.06 48.4633C106.046 48.4374 106.037 48.409 106.035 48.3797C106.032 48.3505 106.036 48.3211 106.045 48.2932C106.054 48.2653 106.069 48.2396 106.088 48.2175C106.108 48.1955 106.131 48.1776 106.158 48.165C106.184 48.1523 106.213 48.1452 106.242 48.144C106.272 48.1427 106.301 48.1474 106.329 48.1578C106.356 48.1682 106.381 48.184 106.402 48.2044L108.087 49.6913C108.12 49.7205 108.143 49.7591 108.154 49.8019C108.165 49.8447 108.162 49.8898 108.147 49.9311C108.131 49.9724 108.103 50.0079 108.067 50.0331C108.031 50.0582 107.988 50.0717 107.943 50.0718Z" fill="#875D3E"/>
<path d="M137.583 103.044C137.898 101.261 140.296 100.963 141.974 102.728C143.424 104.25 145.165 103.05 146.07 102.278C147.398 101.146 150.852 102.989 148.622 106.233C145.954 110.104 136.465 109.348 137.583 103.044Z" fill="url(#paint67_linear_2042_19885)"/>
<path d="M162.981 214.13C158.613 193.539 147.348 191.146 143.85 190.907H143.752C143.752 190.907 143.58 190.891 143.272 190.894C142.963 190.896 142.791 190.907 142.791 190.907H142.694C139.196 191.146 127.939 193.537 123.563 214.098V214.13C123.347 215.672 123.538 217.243 124.117 218.688C124.695 220.132 125.641 221.401 126.861 222.367C128.1 223.352 129.415 224.294 130.224 224.578C132.104 225.23 139.072 225.907 143.267 225.907C147.463 225.907 154.439 225.241 156.311 224.578C157.117 224.294 158.435 223.352 159.674 222.367C160.895 221.402 161.843 220.134 162.423 218.689C163.003 217.244 163.195 215.673 162.981 214.13Z" fill="url(#paint68_linear_2042_19885)"/>
<path d="M96.0782 23.5088L95.4391 28.6175L82.6 27.0109L83.2391 21.9044L96.0782 23.5088Z" fill="url(#paint69_linear_2042_19885)"/>
<path d="M93.5195 28.3957L92.8804 33.5022L80.0413 31.8979L80.6804 26.7892L93.5195 28.3957Z" fill="url(#paint70_linear_2042_19885)"/>
<path d="M82.6471 32.2579L82.0084 37.3638L94.8475 38.9698L95.4862 33.864L82.6471 32.2579Z" fill="url(#paint71_linear_2042_19885)"/>
<path d="M92.3478 38.6653L91.7087 43.774L78.8717 42.1674L79.5087 37.0609L92.3478 38.6653Z" fill="url(#paint72_linear_2042_19885)"/>
<path d="M125.748 80.4675C125.937 81.3139 126.015 82.1813 125.98 83.0479C125.804 83.2262 125.363 83.661 124.717 84.2414C122.265 77.1305 117.326 75.037 117.326 75.037V66.9066C122.009 62.611 124.872 59.7479 128.046 59.4762C128.817 59.411 129.852 59.3914 130.976 59.3979C128.146 63.361 123.898 72.074 125.748 80.4675Z" fill="url(#paint73_linear_2042_19885)"/>
<path d="M247.374 72.0457H241.385C241.298 72.0457 241.215 72.0801 241.154 72.1412C241.093 72.2024 241.059 72.2853 241.059 72.3718V167.224C241.056 167.248 241.056 167.272 241.059 167.296V167.337L241.372 167.224C243.416 166.473 245.416 165.607 247.361 164.628L247.687 164.463V72.3718C247.687 72.2875 247.655 72.2065 247.596 72.1457C247.538 72.0849 247.458 72.0491 247.374 72.0457Z" fill="url(#paint74_linear_2042_19885)"/>
<path d="M247.7 72.3718V74.15C246.679 74.6981 245.538 74.9848 244.379 74.9848C243.221 74.9848 242.08 74.6981 241.059 74.15V72.3718C241.059 72.2853 241.093 72.2024 241.154 72.1412C241.215 72.0801 241.298 72.0457 241.385 72.0457H247.374C247.46 72.0457 247.543 72.0801 247.604 72.1412C247.666 72.2024 247.7 72.2853 247.7 72.3718Z" fill="url(#paint75_linear_2042_19885)"/>
<defs>
<linearGradient id="paint0_linear_2042_19885" x1="104.859" y1="21.3327" x2="104.246" y2="35.0283" gradientUnits="userSpaceOnUse">
<stop stop-color="#E8E8EB"/>
<stop offset="1" stop-color="#D3D3D3"/>
</linearGradient>
<linearGradient id="paint1_linear_2042_19885" x1="141.011" y1="31.6066" x2="77.7956" y2="23.9218" gradientUnits="userSpaceOnUse">
<stop stop-color="#E8E8EB"/>
<stop offset="1" stop-color="#D3D3D3"/>
</linearGradient>
<linearGradient id="paint2_linear_2042_19885" x1="161.641" y1="43.7305" x2="148.759" y2="41.1544" gradientUnits="userSpaceOnUse">
<stop stop-color="#E8E8EB"/>
<stop offset="1" stop-color="#D3D3D3"/>
</linearGradient>
<linearGradient id="paint3_linear_2042_19885" x1="139.761" y1="41.8849" x2="76.5457" y2="34.2022" gradientUnits="userSpaceOnUse">
<stop stop-color="#E8E8EB"/>
<stop offset="1" stop-color="#D3D3D3"/>
</linearGradient>
<linearGradient id="paint4_linear_2042_19885" x1="159.622" y1="53.8305" x2="146.739" y2="51.2544" gradientUnits="userSpaceOnUse">
<stop stop-color="#E8E8EB"/>
<stop offset="1" stop-color="#D3D3D3"/>
</linearGradient>
<linearGradient id="paint5_linear_2042_19885" x1="125.682" y1="33.7371" x2="97.0738" y2="23.8566" gradientUnits="userSpaceOnUse">
<stop stop-color="#53BEB8"/>
<stop offset="1" stop-color="#53BEB8" stop-opacity="0"/>
</linearGradient>
<linearGradient id="paint6_linear_2042_19885" x1="123.902" y1="38.8914" x2="95.2933" y2="29.0109" gradientUnits="userSpaceOnUse">
<stop stop-color="#53BEB8"/>
<stop offset="1" stop-color="#53BEB8" stop-opacity="0"/>
</linearGradient>
<linearGradient id="paint7_linear_2042_19885" x1="122.424" y1="43.1718" x2="93.8151" y2="33.2914" gradientUnits="userSpaceOnUse">
<stop stop-color="#53BEB8"/>
<stop offset="1" stop-color="#53BEB8" stop-opacity="0"/>
</linearGradient>
<linearGradient id="paint8_linear_2042_19885" x1="120.609" y1="48.4284" x2="91.9998" y2="38.5479" gradientUnits="userSpaceOnUse">
<stop stop-color="#53BEB8"/>
<stop offset="1" stop-color="#53BEB8" stop-opacity="0"/>
</linearGradient>
<linearGradient id="paint9_linear_2042_19885" x1="235.093" y1="35.0827" x2="259.037" y2="52.1631" gradientUnits="userSpaceOnUse">
<stop stop-color="#E8E8EB"/>
<stop offset="1" stop-color="#D3D3D3"/>
</linearGradient>
<linearGradient id="paint10_linear_2042_19885" x1="190.093" y1="20.1326" x2="210.113" y2="20.1326" gradientUnits="userSpaceOnUse">
<stop stop-color="#E8E8EB"/>
<stop offset="1" stop-color="#D3D3D3"/>
</linearGradient>
<linearGradient id="paint11_linear_2042_19885" x1="190.093" y1="38.4196" x2="210.113" y2="38.4196" gradientUnits="userSpaceOnUse">
<stop stop-color="#E8E8EB"/>
<stop offset="1" stop-color="#D3D3D3"/>
</linearGradient>
<linearGradient id="paint12_linear_2042_19885" x1="190.093" y1="56.7044" x2="210.113" y2="56.7044" gradientUnits="userSpaceOnUse">
<stop stop-color="#E8E8EB"/>
<stop offset="1" stop-color="#D3D3D3"/>
</linearGradient>
<linearGradient id="paint13_linear_2042_19885" x1="68.7783" y1="171.783" x2="68.7783" y2="104.591" gradientUnits="userSpaceOnUse">
<stop stop-color="#C98348"/>
<stop offset="1" stop-color="#DD9127"/>
</linearGradient>
<linearGradient id="paint14_linear_2042_19885" x1="228.487" y1="190.835" x2="233.872" y2="173.107" gradientUnits="userSpaceOnUse">
<stop stop-color="#C98348"/>
<stop offset="1" stop-color="#DD9127"/>
</linearGradient>
<linearGradient id="paint15_linear_2042_19885" x1="149.88" y1="73.1414" x2="149.88" y2="95.6566" gradientUnits="userSpaceOnUse">
<stop stop-color="white"/>
<stop offset="1" stop-color="#DDF1F3"/>
</linearGradient>
<linearGradient id="paint16_linear_2042_19885" x1="123.9" y1="80.387" x2="133.156" y2="115.644" gradientUnits="userSpaceOnUse">
<stop stop-color="#AAC76F"/>
<stop offset="1" stop-color="#51823B"/>
</linearGradient>
<linearGradient id="paint17_linear_2042_19885" x1="122.211" y1="64.2435" x2="105.211" y2="79.6435" gradientUnits="userSpaceOnUse">
<stop stop-color="#AAC76F"/>
<stop offset="1" stop-color="#51823B"/>
</linearGradient>
<linearGradient id="paint18_linear_2042_19885" x1="107.998" y1="49.0153" x2="111.087" y2="59.4326" gradientUnits="userSpaceOnUse">
<stop stop-color="#AAC76F"/>
<stop offset="1" stop-color="#51823B"/>
</linearGradient>
<linearGradient id="paint19_linear_2042_19885" x1="171.313" y1="48.7609" x2="181.2" y2="111.941" gradientUnits="userSpaceOnUse">
<stop stop-color="#AAC76F"/>
<stop offset="1" stop-color="#51823B"/>
</linearGradient>
<linearGradient id="paint20_linear_2042_19885" x1="190.352" y1="79.174" x2="177.241" y2="87.1718" gradientUnits="userSpaceOnUse">
<stop stop-color="#AAC76F"/>
<stop offset="1" stop-color="#51823B"/>
</linearGradient>
<linearGradient id="paint21_linear_2042_19885" x1="184.241" y1="85.924" x2="189.274" y2="105.389" gradientUnits="userSpaceOnUse">
<stop stop-color="#AAC76F"/>
<stop offset="1" stop-color="#51823B"/>
</linearGradient>
<linearGradient id="paint22_linear_2042_19885" x1="133.539" y1="56.6784" x2="142.702" y2="63.574" gradientUnits="userSpaceOnUse">
<stop offset="0.04" stop-color="#654B1E"/>
<stop offset="1" stop-color="#2E1D12"/>
</linearGradient>
<linearGradient id="paint23_linear_2042_19885" x1="106.644" y1="92.4088" x2="115.804" y2="99.3066" gradientUnits="userSpaceOnUse">
<stop offset="0.04" stop-color="#654B1E"/>
<stop offset="1" stop-color="#2E1D12"/>
</linearGradient>
<linearGradient id="paint24_linear_2042_19885" x1="171.402" y1="100.446" x2="170.424" y2="101.95" gradientUnits="userSpaceOnUse">
<stop stop-color="#E8E8EB"/>
<stop offset="1" stop-color="#D3D3D3"/>
</linearGradient>
<linearGradient id="paint25_linear_2042_19885" x1="133.57" y1="75.8523" x2="132.591" y2="77.3588" gradientUnits="userSpaceOnUse">
<stop stop-color="#E8E8EB"/>
<stop offset="1" stop-color="#D3D3D3"/>
</linearGradient>
<linearGradient id="paint26_linear_2042_19885" x1="184.8" y1="116.528" x2="183.022" y2="109.061" gradientUnits="userSpaceOnUse">
<stop stop-color="#AAC76F"/>
<stop offset="1" stop-color="#51823B"/>
</linearGradient>
<linearGradient id="paint27_linear_2042_19885" x1="103.409" y1="106.291" x2="103.409" y2="111.507" gradientUnits="userSpaceOnUse">
<stop offset="0.04" stop-color="#654B1E"/>
<stop offset="1" stop-color="#2E1D12"/>
</linearGradient>
<linearGradient id="paint28_linear_2042_19885" x1="183.128" y1="106.291" x2="183.128" y2="111.507" gradientUnits="userSpaceOnUse">
<stop offset="0.04" stop-color="#654B1E"/>
<stop offset="1" stop-color="#2E1D12"/>
</linearGradient>
<linearGradient id="paint29_linear_2042_19885" x1="110.565" y1="104.82" x2="110.565" y2="111.27" gradientUnits="userSpaceOnUse">
<stop offset="0.04" stop-color="#654B1E"/>
<stop offset="1" stop-color="#2E1D12"/>
</linearGradient>
<linearGradient id="paint30_linear_2042_19885" x1="175.97" y1="104.82" x2="175.97" y2="111.27" gradientUnits="userSpaceOnUse">
<stop offset="0.04" stop-color="#654B1E"/>
<stop offset="1" stop-color="#2E1D12"/>
</linearGradient>
<linearGradient id="paint31_linear_2042_19885" x1="112.296" y1="107.08" x2="112.296" y2="112.911" gradientUnits="userSpaceOnUse">
<stop stop-color="#E8E8EB"/>
<stop offset="1" stop-color="#D3D3D3"/>
</linearGradient>
<linearGradient id="paint32_linear_2042_19885" x1="174.239" y1="107.08" x2="174.239" y2="112.911" gradientUnits="userSpaceOnUse">
<stop stop-color="#E8E8EB"/>
<stop offset="1" stop-color="#D3D3D3"/>
</linearGradient>
<linearGradient id="paint33_linear_2042_19885" x1="127.624" y1="59.7979" x2="135.726" y2="93.3479" gradientUnits="userSpaceOnUse">
<stop stop-color="#DBE8C4"/>
<stop offset="1" stop-color="#AAC76F"/>
</linearGradient>
<linearGradient id="paint34_linear_2042_19885" x1="136.439" y1="58.05" x2="146.274" y2="70.8413" gradientUnits="userSpaceOnUse">
<stop stop-color="#AAC76F"/>
<stop offset="1" stop-color="#51823B"/>
</linearGradient>
<linearGradient id="paint35_linear_2042_19885" x1="175.387" y1="63.95" x2="162.628" y2="89.6196" gradientUnits="userSpaceOnUse">
<stop stop-color="#DBE8C4"/>
<stop offset="1" stop-color="#AAC76F"/>
</linearGradient>
<linearGradient id="paint36_linear_2042_19885" x1="181.848" y1="66.774" x2="176.613" y2="80.3523" gradientUnits="userSpaceOnUse">
<stop stop-color="#DBE8C4"/>
<stop offset="1" stop-color="#AAC76F"/>
</linearGradient>
<linearGradient id="paint37_linear_2042_19885" x1="152.233" y1="58.5261" x2="159.661" y2="69.0479" gradientUnits="userSpaceOnUse">
<stop stop-color="#AAC76F"/>
<stop offset="1" stop-color="#51823B"/>
</linearGradient>
<linearGradient id="paint38_linear_2042_19885" x1="144.18" y1="21.987" x2="151.622" y2="53.8979" gradientUnits="userSpaceOnUse">
<stop stop-color="#AAC76F"/>
<stop offset="1" stop-color="#51823B"/>
</linearGradient>
<linearGradient id="paint39_linear_2042_19885" x1="48.3804" y1="206.117" x2="50.2174" y2="227.713" gradientUnits="userSpaceOnUse">
<stop stop-color="#52BEB8"/>
<stop offset="1" stop-color="#308B85"/>
</linearGradient>
<linearGradient id="paint40_linear_2042_19885" x1="44.4717" y1="201.898" x2="46.7696" y2="218.594" gradientUnits="userSpaceOnUse">
<stop stop-color="white"/>
<stop offset="1" stop-color="#DDF1F3"/>
</linearGradient>
<linearGradient id="paint41_linear_2042_19885" x1="46.9783" y1="218.196" x2="43.3174" y2="199.259" gradientUnits="userSpaceOnUse">
<stop stop-color="#53BEB8"/>
<stop offset="1" stop-color="#53BEB8" stop-opacity="0"/>
</linearGradient>
<linearGradient id="paint42_linear_2042_19885" x1="87.6718" y1="165.9" x2="104.524" y2="180.857" gradientUnits="userSpaceOnUse">
<stop stop-color="#F3CE63"/>
<stop offset="1" stop-color="#D2A651"/>
</linearGradient>
<linearGradient id="paint43_linear_2042_19885" x1="243.509" y1="196.202" x2="243.037" y2="210.376" gradientUnits="userSpaceOnUse">
<stop stop-color="#52BEB8"/>
<stop offset="1" stop-color="#308B85"/>
</linearGradient>
<linearGradient id="paint44_linear_2042_19885" x1="246.217" y1="194.378" x2="245.863" y2="213.748" gradientUnits="userSpaceOnUse">
<stop stop-color="white"/>
<stop offset="1" stop-color="#DDF1F3"/>
</linearGradient>
<linearGradient id="paint45_linear_2042_19885" x1="246.437" y1="211.598" x2="245.807" y2="199.12" gradientUnits="userSpaceOnUse">
<stop stop-color="#53BEB8"/>
<stop offset="1" stop-color="#53BEB8" stop-opacity="0"/>
</linearGradient>
<linearGradient id="paint46_linear_2042_19885" x1="247.263" y1="192.972" x2="247.594" y2="209.252" gradientUnits="userSpaceOnUse">
<stop stop-color="#E8E8EB"/>
<stop offset="1" stop-color="#D3D3D3"/>
</linearGradient>
<linearGradient id="paint47_linear_2042_19885" x1="201.652" y1="163.752" x2="187.926" y2="177.17" gradientUnits="userSpaceOnUse">
<stop stop-color="#F3CE63"/>
<stop offset="1" stop-color="#D2A651"/>
</linearGradient>
<linearGradient id="paint48_linear_2042_19885" x1="131.38" y1="153.209" x2="170.857" y2="231.552" gradientUnits="userSpaceOnUse">
<stop stop-color="#52BEB8"/>
<stop offset="1" stop-color="#308B85"/>
</linearGradient>
<linearGradient id="paint49_linear_2042_19885" x1="142.391" y1="237.909" x2="166.667" y2="269.098" gradientUnits="userSpaceOnUse">
<stop offset="0.04" stop-color="#654B1E"/>
<stop offset="1" stop-color="#2E1D12"/>
</linearGradient>
<linearGradient id="paint50_linear_2042_19885" x1="127.196" y1="235.233" x2="157.1" y2="253.4" gradientUnits="userSpaceOnUse">
<stop offset="0.04" stop-color="#654B1E"/>
<stop offset="1" stop-color="#2E1D12"/>
</linearGradient>
<linearGradient id="paint51_linear_2042_19885" x1="127.42" y1="226.024" x2="139.959" y2="240.172" gradientUnits="userSpaceOnUse">
<stop offset="0.04" stop-color="#654B1E"/>
<stop offset="1" stop-color="#2E1D12"/>
</linearGradient>
<linearGradient id="paint52_linear_2042_19885" x1="140.172" y1="182.537" x2="146.959" y2="199.004" gradientUnits="userSpaceOnUse">
<stop offset="0.04" stop-color="#654B1E"/>
<stop offset="1" stop-color="#2E1D12"/>
</linearGradient>
<linearGradient id="paint53_linear_2042_19885" x1="130.2" y1="122.174" x2="187.348" y2="138.826" gradientUnits="userSpaceOnUse">
<stop stop-color="#52BEB8"/>
<stop offset="1" stop-color="#308B85"/>
</linearGradient>
<linearGradient id="paint54_linear_2042_19885" x1="242.891" y1="18.5957" x2="246.222" y2="25.9218" gradientUnits="userSpaceOnUse">
<stop stop-color="#E94E4E"/>
<stop offset="1" stop-color="#D33332"/>
</linearGradient>
<linearGradient id="paint55_linear_2042_19885" x1="242.437" y1="36.6196" x2="245.717" y2="42.5914" gradientUnits="userSpaceOnUse">
<stop stop-color="#ECDE74"/>
<stop offset="1" stop-color="#EDC34D"/>
</linearGradient>
<linearGradient id="paint56_linear_2042_19885" x1="241.874" y1="54.0718" x2="248.32" y2="65.3153" gradientUnits="userSpaceOnUse">
<stop stop-color="#AAC76F"/>
<stop offset="1" stop-color="#51823B"/>
</linearGradient>
<linearGradient id="paint57_linear_2042_19885" x1="46.4065" y1="182.33" x2="43.4978" y2="230.933" gradientUnits="userSpaceOnUse">
<stop stop-color="#E8E8EB"/>
<stop offset="1" stop-color="#D3D3D3"/>
</linearGradient>
<linearGradient id="paint58_linear_2042_19885" x1="168.93" y1="140.491" x2="173.591" y2="161.13" gradientUnits="userSpaceOnUse">
<stop stop-color="#E8E8EB"/>
<stop offset="1" stop-color="#D3D3D3"/>
</linearGradient>
<linearGradient id="paint59_linear_2042_19885" x1="112.176" y1="153.307" x2="116.837" y2="173.946" gradientUnits="userSpaceOnUse">
<stop stop-color="#E8E8EB"/>
<stop offset="1" stop-color="#D3D3D3"/>
</linearGradient>
<linearGradient id="paint60_linear_2042_19885" x1="137.983" y1="145.317" x2="144.959" y2="153.476" gradientUnits="userSpaceOnUse">
<stop stop-color="#52BEB8"/>
<stop offset="1" stop-color="#308B85"/>
</linearGradient>
<linearGradient id="paint61_linear_2042_19885" x1="137.73" y1="106.415" x2="166.096" y2="91.6261" gradientUnits="userSpaceOnUse">
<stop stop-color="#E8E8EB"/>
<stop offset="1" stop-color="#D3D3D3"/>
</linearGradient>
<linearGradient id="paint62_linear_2042_19885" x1="142.609" y1="99.1088" x2="149.433" y2="84.0979" gradientUnits="userSpaceOnUse">
<stop stop-color="white"/>
<stop offset="1" stop-color="#DDF1F3"/>
</linearGradient>
<linearGradient id="paint63_linear_2042_19885" x1="151.561" y1="93.5109" x2="163.278" y2="72.2913" gradientUnits="userSpaceOnUse">
<stop stop-color="#D3D3D3"/>
<stop offset="1" stop-color="#E8E8EB"/>
</linearGradient>
<linearGradient id="paint64_linear_2042_19885" x1="199.594" y1="78.8131" x2="195.396" y2="91.5022" gradientUnits="userSpaceOnUse">
<stop stop-color="#52BEB8"/>
<stop offset="1" stop-color="#308B85"/>
</linearGradient>
<linearGradient id="paint65_linear_2042_19885" x1="86.1391" y1="79.5935" x2="92.563" y2="88.737" gradientUnits="userSpaceOnUse">
<stop stop-color="#52BEB8"/>
<stop offset="1" stop-color="#308B85"/>
</linearGradient>
<linearGradient id="paint66_linear_2042_19885" x1="146.139" y1="25.3175" x2="150.767" y2="37.987" gradientUnits="userSpaceOnUse">
<stop stop-color="#DBE8C4"/>
<stop offset="1" stop-color="#AAC76F"/>
</linearGradient>
<linearGradient id="paint67_linear_2042_19885" x1="146.011" y1="113.739" x2="140.504" y2="93.6109" gradientUnits="userSpaceOnUse">
<stop stop-color="#D3D3D3"/>
<stop offset="1" stop-color="#E8E8EB"/>
</linearGradient>
<linearGradient id="paint68_linear_2042_19885" x1="139.57" y1="198.433" x2="149.489" y2="244.017" gradientUnits="userSpaceOnUse">
<stop stop-color="#52BEB8"/>
<stop offset="1" stop-color="#308B85"/>
</linearGradient>
<linearGradient id="paint69_linear_2042_19885" x1="110.693" y1="26.7914" x2="155.335" y2="29.9892" gradientUnits="userSpaceOnUse">
<stop stop-color="#E8E8EB"/>
<stop offset="1" stop-color="#D3D3D3"/>
</linearGradient>
<linearGradient id="paint70_linear_2042_19885" x1="119.443" y1="32.0174" x2="54.4978" y2="28.2935" gradientUnits="userSpaceOnUse">
<stop stop-color="#E8E8EB"/>
<stop offset="1" stop-color="#D3D3D3"/>
</linearGradient>
<linearGradient id="paint71_linear_2042_19885" x1="109.936" y1="37.144" x2="154.577" y2="40.3419" gradientUnits="userSpaceOnUse">
<stop stop-color="#E8E8EB"/>
<stop offset="1" stop-color="#D3D3D3"/>
</linearGradient>
<linearGradient id="paint72_linear_2042_19885" x1="118.852" y1="42.324" x2="53.9065" y2="38.5979" gradientUnits="userSpaceOnUse">
<stop stop-color="#E8E8EB"/>
<stop offset="1" stop-color="#D3D3D3"/>
</linearGradient>
<linearGradient id="paint73_linear_2042_19885" x1="132.27" y1="69.3066" x2="119.428" y2="74.5392" gradientUnits="userSpaceOnUse">
<stop stop-color="#DBE8C4"/>
<stop offset="1" stop-color="#AAC76F"/>
</linearGradient>
<linearGradient id="paint74_linear_2042_19885" x1="205.511" y1="91.2826" x2="268.713" y2="137.596" gradientUnits="userSpaceOnUse">
<stop stop-color="#E8E8EB"/>
<stop offset="1" stop-color="#D3D3D3"/>
</linearGradient>
<linearGradient id="paint75_linear_2042_19885" x1="205.561" y1="73.5153" x2="223.517" y2="73.5153" gradientUnits="userSpaceOnUse">
<stop stop-color="#E8E8EB"/>
<stop offset="1" stop-color="#D3D3D3"/>
</linearGradient>
</defs>
</svg>
