<svg width="121" height="121" viewBox="0 0 121 121" fill="none" xmlns="http://www.w3.org/2000/svg">
<circle cx="60.8125" cy="60.3464" r="60" fill="#FFF3ED"/>
<mask id="mask0_2045_20701" style="mask-type:alpha" maskUnits="userSpaceOnUse" x="20" y="20" width="81" height="81">
<rect x="20.8125" y="20.3464" width="80" height="80" fill="#D9D9D9"/>
</mask>
<g mask="url(#mask0_2045_20701)">
<path d="M37.4793 90.3464C36.5349 90.3464 35.7432 90.027 35.1043 89.3881C34.4654 88.7492 34.146 87.9575 34.146 87.0131V83.6798C31.3682 83.6798 29.0071 82.7075 27.0627 80.7631C25.1182 78.8187 24.146 76.4575 24.146 73.6798V57.0131C24.146 54.2353 25.1182 51.8742 27.0627 49.9298C29.0071 47.9853 31.3682 47.0131 34.146 47.0131V40.3464C34.146 37.5687 35.1182 35.2075 37.0627 33.2631C39.0071 31.3187 41.3682 30.3464 44.146 30.3464H77.4793C80.2571 30.3464 82.6182 31.3187 84.5627 33.2631C86.5071 35.2075 87.4793 37.5687 87.4793 40.3464V47.0131C90.2571 47.0131 92.6182 47.9853 94.5627 49.9298C96.5071 51.8742 97.4793 54.2353 97.4793 57.0131V73.6798C97.4793 76.4575 96.5071 78.8187 94.5627 80.7631C92.6182 82.7075 90.2571 83.6798 87.4793 83.6798V87.0131C87.4793 87.9575 87.1599 88.7492 86.521 89.3881C85.8821 90.027 85.0904 90.3464 84.146 90.3464C83.2016 90.3464 82.4099 90.027 81.771 89.3881C81.1321 88.7492 80.8127 87.9575 80.8127 87.0131V83.6798H40.8127V87.0131C40.8127 87.9575 40.4932 88.7492 39.8543 89.3881C39.2154 90.027 38.4238 90.3464 37.4793 90.3464ZM34.146 77.0131H87.4793C88.4238 77.0131 89.2154 76.6937 89.8543 76.0548C90.4932 75.4159 90.8127 74.6242 90.8127 73.6798V57.0131C90.8127 56.0687 90.4932 55.277 89.8543 54.6381C89.2154 53.9992 88.4238 53.6798 87.4793 53.6798C86.5349 53.6798 85.7432 53.9992 85.1043 54.6381C84.4654 55.277 84.146 56.0687 84.146 57.0131V70.3464H37.4793V57.0131C37.4793 56.0687 37.1599 55.277 36.521 54.6381C35.8821 53.9992 35.0904 53.6798 34.146 53.6798C33.2016 53.6798 32.4099 53.9992 31.771 54.6381C31.1321 55.277 30.8127 56.0687 30.8127 57.0131V73.6798C30.8127 74.6242 31.1321 75.4159 31.771 76.0548C32.4099 76.6937 33.2016 77.0131 34.146 77.0131ZM44.146 63.6798H77.4793V57.0131C77.4793 55.5131 77.7849 54.152 78.396 52.9298C79.0071 51.7075 79.8127 50.6242 80.8127 49.6798V40.3464C80.8127 39.402 80.4932 38.6103 79.8543 37.9714C79.2154 37.3325 78.4238 37.0131 77.4793 37.0131H44.146C43.2016 37.0131 42.4099 37.3325 41.771 37.9714C41.1321 38.6103 40.8127 39.402 40.8127 40.3464V49.6798C41.8127 50.6242 42.6182 51.7075 43.2293 52.9298C43.8404 54.152 44.146 55.5131 44.146 57.0131V63.6798Z" fill="#FF875C"/>
</g>
</svg>
