<svg width="121" height="121" viewBox="0 0 121 121" fill="none" xmlns="http://www.w3.org/2000/svg">
<circle cx="60.1875" cy="60.3464" r="60" fill="#FFF3ED"/>
<mask id="mask0_2045_20683" style="mask-type:alpha" maskUnits="userSpaceOnUse" x="20" y="20" width="81" height="81">
<rect x="20.1875" y="20.3464" width="80" height="80" fill="#D9D9D9"/>
</mask>
<g mask="url(#mask0_2045_20683)">
<path d="M48.9375 90.3464C43.7153 90.3464 39.2847 88.527 35.6458 84.8881C32.0069 81.2492 30.1875 76.8187 30.1875 71.5964C30.1875 69.0964 30.6597 66.7075 31.6042 64.4298C32.5486 62.152 33.9097 60.1242 35.6875 58.3464L58.1875 35.8464C59.9653 34.0687 61.9931 32.7075 64.2708 31.7631C66.5486 30.8187 68.9375 30.3464 71.4375 30.3464C76.6597 30.3464 81.0903 32.1659 84.7292 35.8048C88.3681 39.4437 90.1875 43.8742 90.1875 49.0964C90.1875 51.5964 89.7153 53.9853 88.7708 56.2631C87.8264 58.5409 86.4653 60.5687 84.6875 62.3464L62.1875 84.8464C60.4097 86.6242 58.3819 87.9853 56.1042 88.9298C53.8264 89.8742 51.4375 90.3464 48.9375 90.3464ZM71.1042 66.5131L80.0208 57.6798C81.1319 56.5687 81.9931 55.2631 82.6042 53.7631C83.2153 52.2631 83.5208 50.7075 83.5208 49.0964C83.5208 45.7631 82.3403 42.9159 79.9792 40.5548C77.6181 38.1937 74.7708 37.0131 71.4375 37.0131C69.8264 37.0131 68.2708 37.3187 66.7708 37.9298C65.2708 38.5409 63.9653 39.402 62.8542 40.5131L54.0208 49.4298L71.1042 66.5131ZM48.9375 83.6798C50.5486 83.6798 52.1042 83.3742 53.6042 82.7631C55.1042 82.152 56.4097 81.2909 57.5208 80.1798L66.3542 71.2631L49.2708 54.1798L40.3542 63.0131C39.2431 64.1242 38.3819 65.4298 37.7708 66.9298C37.1597 68.4298 36.8542 69.9853 36.8542 71.5964C36.8542 74.9298 38.0347 77.777 40.3958 80.1381C42.7569 82.4992 45.6042 83.6798 48.9375 83.6798Z" fill="#FF875C"/>
</g>
</svg>
