<svg width="121" height="121" viewBox="0 0 121 121" fill="none" xmlns="http://www.w3.org/2000/svg">
<circle cx="60.5625" cy="60.3464" r="60" fill="#FFF3ED"/>
<mask id="mask0_2045_20713" style="mask-type:alpha" maskUnits="userSpaceOnUse" x="20" y="20" width="81" height="81">
<rect x="20.5625" y="20.3464" width="80" height="80" fill="#D9D9D9"/>
</mask>
<g mask="url(#mask0_2045_20713)">
<path d="M35.5623 60.7631C33.229 60.7631 31.2568 59.9575 29.6457 58.3464C28.0346 56.7353 27.229 54.7631 27.229 52.4297C27.229 50.0964 28.0346 48.1242 29.6457 46.5131C31.2568 44.9019 33.229 44.0964 35.5623 44.0964C37.8957 44.0964 39.8679 44.9019 41.479 46.5131C43.0901 48.1242 43.8957 50.0964 43.8957 52.4297C43.8957 54.7631 43.0901 56.7353 41.479 58.3464C39.8679 59.9575 37.8957 60.7631 35.5623 60.7631ZM50.5623 47.4297C48.229 47.4297 46.2568 46.6242 44.6457 45.0131C43.0346 43.402 42.229 41.4297 42.229 39.0964C42.229 36.7631 43.0346 34.7908 44.6457 33.1797C46.2568 31.5686 48.229 30.7631 50.5623 30.7631C52.8957 30.7631 54.8679 31.5686 56.479 33.1797C58.0901 34.7908 58.8957 36.7631 58.8957 39.0964C58.8957 41.4297 58.0901 43.402 56.479 45.0131C54.8679 46.6242 52.8957 47.4297 50.5623 47.4297ZM70.5623 47.4297C68.229 47.4297 66.2568 46.6242 64.6457 45.0131C63.0346 43.402 62.229 41.4297 62.229 39.0964C62.229 36.7631 63.0346 34.7908 64.6457 33.1797C66.2568 31.5686 68.229 30.7631 70.5623 30.7631C72.8957 30.7631 74.8679 31.5686 76.479 33.1797C78.0901 34.7908 78.8957 36.7631 78.8957 39.0964C78.8957 41.4297 78.0901 43.402 76.479 45.0131C74.8679 46.6242 72.8957 47.4297 70.5623 47.4297ZM85.5623 60.7631C83.229 60.7631 81.2568 59.9575 79.6457 58.3464C78.0346 56.7353 77.229 54.7631 77.229 52.4297C77.229 50.0964 78.0346 48.1242 79.6457 46.5131C81.2568 44.9019 83.229 44.0964 85.5623 44.0964C87.8957 44.0964 89.8679 44.9019 91.479 46.5131C93.0901 48.1242 93.8957 50.0964 93.8957 52.4297C93.8957 54.7631 93.0901 56.7353 91.479 58.3464C89.8679 59.9575 87.8957 60.7631 85.5623 60.7631ZM42.729 94.0964C40.229 94.0964 38.1318 93.1381 36.4373 91.2214C34.7429 89.3047 33.8957 87.0408 33.8957 84.4297C33.8957 81.5408 34.8818 79.0131 36.854 76.8464C38.8262 74.6797 40.7846 72.5408 42.729 70.4297C44.3401 68.7075 45.729 66.8325 46.8957 64.8047C48.0623 62.777 49.4512 60.8742 51.0623 59.0964C52.2846 57.6519 53.7012 56.4575 55.3123 55.5131C56.9234 54.5686 58.6734 54.0964 60.5623 54.0964C62.4512 54.0964 64.2012 54.5408 65.8123 55.4297C67.4234 56.3186 68.8401 57.4853 70.0623 58.9297C71.6179 60.7075 72.9929 62.6242 74.1873 64.6797C75.3818 66.7353 76.7846 68.652 78.3957 70.4297C80.3401 72.5408 82.2985 74.6797 84.2707 76.8464C86.2429 79.0131 87.229 81.5408 87.229 84.4297C87.229 87.0408 86.3818 89.3047 84.6873 91.2214C82.9929 93.1381 80.8957 94.0964 78.3957 94.0964C75.3957 94.0964 72.4234 93.8464 69.479 93.3464C66.5346 92.8464 63.5623 92.5964 60.5623 92.5964C57.5623 92.5964 54.5901 92.8464 51.6457 93.3464C48.7012 93.8464 45.729 94.0964 42.729 94.0964Z" fill="#FF875C"/>
</g>
</svg>
