<svg width="121" height="121" viewBox="0 0 121 121" fill="none" xmlns="http://www.w3.org/2000/svg">
<circle cx="60.4375" cy="60.3464" r="60" fill="#FFF3ED"/>
<mask id="mask0_2045_20671" style="mask-type:alpha" maskUnits="userSpaceOnUse" x="20" y="20" width="81" height="81">
<rect x="20.4375" y="20.3464" width="80" height="80" fill="#D9D9D9"/>
</mask>
<g mask="url(#mask0_2045_20671)">
<path d="M53.7708 67.0132C54.7152 67.0132 55.5069 66.6937 56.1458 66.0549C56.7846 65.416 57.1041 64.6243 57.1041 63.6798V53.6798C57.1041 52.7354 56.7846 51.9437 56.1458 51.3048C55.5069 50.666 54.7152 50.3465 53.7708 50.3465C52.8263 50.3465 52.0346 50.666 51.3958 51.3048C50.7569 51.9437 50.4374 52.7354 50.4374 53.6798V63.6798C50.4374 64.6243 50.7569 65.416 51.3958 66.0549C52.0346 66.6937 52.8263 67.0132 53.7708 67.0132ZM37.1041 62.0132C34.5485 60.7354 32.5208 58.8882 31.0208 56.4715C29.5208 54.0549 28.7708 51.4298 28.7708 48.5965C28.7708 44.4298 30.2013 40.9021 33.0624 38.0132C35.9235 35.1243 39.4374 33.6799 43.6041 33.6799C44.2708 33.6799 44.9513 33.7354 45.6458 33.8465C46.3402 33.9576 47.0208 34.0965 47.6874 34.2632C49.0763 31.9854 50.8819 30.2076 53.1041 28.9299C55.3263 27.6521 57.7708 27.0132 60.4374 27.0132C63.1041 27.0132 65.5485 27.6521 67.7708 28.9299C69.993 30.2076 71.7985 31.9854 73.1874 34.2632C73.8541 34.0965 74.5208 33.9576 75.1874 33.8465C75.8541 33.7354 76.5485 33.6799 77.2708 33.6799C81.4374 33.6799 84.9513 35.1243 87.8124 38.0132C90.6735 40.9021 92.1041 44.4298 92.1041 48.5965C92.1041 51.4298 91.3541 54.0549 89.8541 56.4715C88.3541 58.8882 86.3263 60.7354 83.7708 62.0132V80.3465H37.1041V62.0132ZM67.1041 67.0132C68.0485 67.0132 68.8402 66.6937 69.4791 66.0549C70.118 65.416 70.4374 64.6243 70.4374 63.6798V53.6798C70.4374 52.7354 70.118 51.9437 69.4791 51.3048C68.8402 50.666 68.0485 50.3465 67.1041 50.3465C66.1596 50.3465 65.368 50.666 64.7291 51.3048C64.0902 51.9437 63.7708 52.7354 63.7708 53.6798V63.6798C63.7708 64.6243 64.0902 65.416 64.7291 66.0549C65.368 66.6937 66.1596 67.0132 67.1041 67.0132ZM43.7708 73.6798H77.1041V57.9299L80.7708 56.0965C82.2152 55.3743 83.3541 54.3604 84.1874 53.0548C85.0208 51.7493 85.4374 50.291 85.4374 48.6798C85.4374 46.3465 84.6458 44.3743 83.0624 42.7632C81.4791 41.1521 79.5485 40.3465 77.2708 40.3465C76.6596 40.3465 76.1041 40.4021 75.6041 40.5132C75.1041 40.6243 74.5763 40.7632 74.0208 40.9299L70.1041 42.0132L67.5208 37.6799C66.743 36.4021 65.7291 35.416 64.4791 34.7215C63.2291 34.0271 61.8819 33.6799 60.4374 33.6799C58.993 33.6799 57.6458 34.0271 56.3958 34.7215C55.1458 35.416 54.1319 36.4021 53.3541 37.6799L50.7708 42.0132L46.7708 40.9299C46.2152 40.8187 45.6735 40.6937 45.1458 40.5548C44.618 40.416 44.0763 40.3465 43.5208 40.3465C41.243 40.3465 39.3263 41.1521 37.7708 42.7632C36.2152 44.3743 35.4374 46.3465 35.4374 48.6798C35.4374 50.291 35.8541 51.7493 36.6874 53.0548C37.5208 54.3604 38.6596 55.3743 40.1041 56.0965L43.7708 57.9299V73.6798ZM37.1041 80.3465H43.7708V87.0132H77.1041V80.3465H83.7708V87.0132C83.7708 88.8465 83.118 90.416 81.8124 91.7215C80.5069 93.0271 78.9374 93.6798 77.1041 93.6798H43.7708C41.9374 93.6798 40.368 93.0271 39.0624 91.7215C37.7569 90.416 37.1041 88.8465 37.1041 87.0132V80.3465Z" fill="#FF875C"/>
</g>
</svg>
