<svg width="121" height="121" viewBox="0 0 121 121" fill="none" xmlns="http://www.w3.org/2000/svg">
<circle cx="60.0625" cy="60.3464" r="60" fill="#FFF3ED"/>
<mask id="mask0_2045_20689" style="mask-type:alpha" maskUnits="userSpaceOnUse" x="20" y="20" width="81" height="81">
<rect x="20.0625" y="20.3464" width="80" height="80" fill="#D9D9D9"/>
</mask>
<g mask="url(#mask0_2045_20689)">
<path d="M50.0625 93.6797C48.2292 93.6797 46.6597 93.0269 45.3542 91.7214C44.0486 90.4158 43.3958 88.8464 43.3958 87.0131V73.6797H38.0625C35.8403 73.6797 33.9514 72.902 32.3958 71.3464C30.8403 69.7908 30.0625 67.902 30.0625 65.6797C30.0625 64.0686 30.5069 62.5825 31.3958 61.2214C32.2847 59.8603 33.4514 58.8464 34.8958 58.1797L56.7292 48.5131V46.3464C54.7292 45.6242 53.1181 44.4158 51.8958 42.7214C50.6736 41.0269 50.0625 39.1242 50.0625 37.0131C50.0625 34.2353 51.0347 31.8742 52.9792 29.9297C54.9236 27.9853 57.2847 27.0131 60.0625 27.0131C62.0625 27.0131 63.8958 27.5686 65.5625 28.6797C67.2292 29.7908 68.4514 31.2353 69.2292 33.0131L69.5625 34.4297C69.5625 35.3742 69.2431 36.1658 68.6042 36.8047C67.9653 37.4436 67.1736 37.7631 66.2292 37.7631C65.5069 37.7631 64.8819 37.5686 64.3542 37.1797C63.8264 36.7908 63.4236 36.2908 63.1458 35.6797C62.8681 35.0686 62.4514 34.5825 61.8958 34.2214C61.3403 33.8603 60.7292 33.6797 60.0625 33.6797C59.1181 33.6797 58.3264 33.9992 57.6875 34.6381C57.0486 35.277 56.7292 36.0686 56.7292 37.0131C56.7292 37.9575 57.0486 38.7492 57.6875 39.3881C58.3264 40.027 59.1181 40.3464 60.0625 40.3464C61.0069 40.3464 61.7986 40.6658 62.4375 41.3047C63.0764 41.9436 63.3958 42.7353 63.3958 43.6797V48.5131L85.2292 58.1797C86.6736 58.8464 87.8403 59.8603 88.7292 61.2214C89.6181 62.5825 90.0625 64.0686 90.0625 65.6797C90.0625 67.902 89.2847 69.7908 87.7292 71.3464C86.1736 72.902 84.2847 73.6797 82.0625 73.6797H76.7292V87.0131C76.7292 88.8464 76.0764 90.4158 74.7708 91.7214C73.4653 93.0269 71.8958 93.6797 70.0625 93.6797H50.0625ZM38.0625 67.0131H44.3125C44.9236 66.0131 45.7292 65.2075 46.7292 64.5964C47.7292 63.9853 48.8403 63.6797 50.0625 63.6797H70.0625C71.2847 63.6797 72.3958 63.9853 73.3958 64.5964C74.3958 65.2075 75.2014 66.0131 75.8125 67.0131H82.0625C82.4514 67.0131 82.7708 66.8742 83.0208 66.5964C83.2708 66.3186 83.3958 65.9575 83.3958 65.5131C83.3958 65.2353 83.3264 64.9992 83.1875 64.8047C83.0486 64.6103 82.8403 64.4575 82.5625 64.3464L60.0625 54.3464L37.5625 64.3464C37.2847 64.4575 37.0764 64.6103 36.9375 64.8047C36.7986 64.9992 36.7292 65.2353 36.7292 65.5131C36.7292 65.9575 36.8542 66.3186 37.1042 66.5964C37.3542 66.8742 37.6736 67.0131 38.0625 67.0131ZM50.0625 87.0131H70.0625V70.3464H50.0625V87.0131Z" fill="#FF875C"/>
</g>
</svg>
