<svg width="121" height="121" viewBox="0 0 121 121" fill="none" xmlns="http://www.w3.org/2000/svg">
<circle cx="60.9375" cy="60.3464" r="60" fill="#FFF3ED"/>
<mask id="mask0_2045_20695" style="mask-type:alpha" maskUnits="userSpaceOnUse" x="20" y="20" width="81" height="81">
<rect x="20.9375" y="20.3464" width="80" height="80" fill="#D9D9D9"/>
</mask>
<g mask="url(#mask0_2045_20695)">
<path d="M34.2707 87.0131C32.4373 87.0131 30.8679 86.3604 29.5623 85.0548C28.2568 83.7493 27.604 82.1798 27.604 80.3465V40.3465C27.604 38.5131 28.2568 36.9437 29.5623 35.6381C30.8679 34.3326 32.4373 33.6798 34.2707 33.6798H84.2707C85.2151 33.6798 86.0068 33.9993 86.6457 34.6381C87.2846 35.277 87.604 36.0687 87.604 37.0131C87.604 37.9576 87.2846 38.7493 86.6457 39.3881C86.0068 40.027 85.2151 40.3465 84.2707 40.3465H34.2707V80.3465H40.9373C41.8818 80.3465 42.6734 80.6659 43.3123 81.3048C43.9512 81.9437 44.2707 82.7354 44.2707 83.6798C44.2707 84.6243 43.9512 85.4159 43.3123 86.0548C42.6734 86.6937 41.8818 87.0131 40.9373 87.0131H34.2707ZM57.604 78.6798C58.9929 78.6798 60.1734 78.1937 61.1457 77.2215C62.1179 76.2493 62.604 75.0687 62.604 73.6798C62.604 72.2909 62.1179 71.1104 61.1457 70.1381C60.1734 69.1659 58.9929 68.6798 57.604 68.6798C56.2151 68.6798 55.0346 69.1659 54.0623 70.1381C53.0901 71.1104 52.604 72.2909 52.604 73.6798C52.604 75.0687 53.0901 76.2493 54.0623 77.2215C55.0346 78.1937 56.2151 78.6798 57.604 78.6798ZM90.9373 87.0131H74.2707C73.3262 87.0131 72.5346 86.6937 71.8957 86.0548C71.2568 85.4159 70.9373 84.6243 70.9373 83.6798V53.6798C70.9373 52.7354 71.2568 51.9437 71.8957 51.3048C72.5346 50.6659 73.3262 50.3465 74.2707 50.3465H90.9373C91.8818 50.3465 92.6734 50.6659 93.3123 51.3048C93.9512 51.9437 94.2707 52.7354 94.2707 53.6798V83.6798C94.2707 84.6243 93.9512 85.4159 93.3123 86.0548C92.6734 86.6937 91.8818 87.0131 90.9373 87.0131ZM77.604 80.3465H87.604V57.0131H77.604V80.3465ZM50.9373 83.6798V81.0965C49.8818 80.152 49.0623 79.0409 48.479 77.7631C47.8957 76.4854 47.604 75.1243 47.604 73.6798C47.604 72.2354 47.8957 70.8743 48.479 69.5965C49.0623 68.3187 49.8818 67.2076 50.9373 66.2631V63.6798C50.9373 62.7354 51.2568 61.9437 51.8957 61.3048C52.5346 60.6659 53.3262 60.3465 54.2707 60.3465H60.9373C61.8818 60.3465 62.6735 60.6659 63.3123 61.3048C63.9512 61.9437 64.2707 62.7354 64.2707 63.6798V66.2631C65.3262 67.2076 66.1457 68.3187 66.729 69.5965C67.3123 70.8743 67.604 72.2354 67.604 73.6798C67.604 75.1243 67.3123 76.4854 66.729 77.7631C66.1457 79.0409 65.3262 80.152 64.2707 81.0965V83.6798C64.2707 84.6243 63.9512 85.4159 63.3123 86.0548C62.6735 86.6937 61.8818 87.0131 60.9373 87.0131H54.2707C53.3262 87.0131 52.5346 86.6937 51.8957 86.0548C51.2568 85.4159 50.9373 84.6243 50.9373 83.6798Z" fill="#FF875C"/>
</g>
</svg>
