<svg width="121" height="121" viewBox="0 0 121 121" fill="none" xmlns="http://www.w3.org/2000/svg">
<circle cx="60.6875" cy="60.3464" r="60" fill="#FFF3ED"/>
<mask id="mask0_2045_20707" style="mask-type:alpha" maskUnits="userSpaceOnUse" x="20" y="20" width="81" height="81">
<rect x="20.375" y="20.0842" width="80" height="80" fill="#D9D9D9"/>
</mask>
<g mask="url(#mask0_2045_20707)">
<path d="M40.3752 71.1675C41.1529 70.7786 41.9585 70.5009 42.7918 70.3342C43.6252 70.1675 44.4863 70.0842 45.3752 70.0842H47.0418V33.4175H45.3752C43.9863 33.4175 42.8057 33.9036 41.8335 34.8759C40.8613 35.8481 40.3752 37.0286 40.3752 38.4175V71.1675ZM53.7085 70.0842H80.3752V33.4175H53.7085V70.0842ZM45.3752 93.4175C42.1529 93.4175 39.4029 92.2786 37.1252 90.0009C34.8474 87.7231 33.7085 84.9731 33.7085 81.7509V38.4175C33.7085 35.1953 34.8474 32.4453 37.1252 30.1675C39.4029 27.8897 42.1529 26.7509 45.3752 26.7509H80.3752C82.2085 26.7509 83.7779 27.4036 85.0835 28.7092C86.3891 30.0147 87.0418 31.5842 87.0418 33.4175V75.1675C87.0418 75.612 86.8613 76.0147 86.5002 76.3759C86.1391 76.737 85.4863 77.1397 84.5418 77.5842C83.764 77.9731 83.1529 78.5286 82.7085 79.2509C82.264 79.9731 82.0418 80.8064 82.0418 81.7509C82.0418 82.6953 82.264 83.5425 82.7085 84.2925C83.1529 85.0425 83.764 85.5842 84.5418 85.9175C85.3196 86.2509 85.9307 86.7092 86.3752 87.2925C86.8196 87.8759 87.0418 88.5009 87.0418 89.1675V90.0009C87.0418 90.9453 86.7224 91.7509 86.0835 92.4175C85.4446 93.0842 84.6529 93.4175 83.7085 93.4175H45.3752ZM45.3752 86.7509H76.4585C76.1252 85.9731 75.8613 85.1814 75.6668 84.3759C75.4724 83.5703 75.3752 82.6953 75.3752 81.7509C75.3752 80.862 75.4585 80.0009 75.6252 79.1675C75.7918 78.3342 76.0696 77.5286 76.4585 76.7509H45.3752C43.9307 76.7509 42.7363 77.237 41.7918 78.2092C40.8474 79.1814 40.3752 80.362 40.3752 81.7509C40.3752 83.1953 40.8474 84.3897 41.7918 85.3342C42.7363 86.2786 43.9307 86.7509 45.3752 86.7509Z" fill="#FF875C"/>
</g>
</svg>
