<svg width="121" height="121" viewBox="0 0 121 121" fill="none" xmlns="http://www.w3.org/2000/svg">
<circle cx="60.3125" cy="60.3464" r="60" fill="#FFF3ED"/>
<mask id="mask0_2045_20677" style="mask-type:alpha" maskUnits="userSpaceOnUse" x="20" y="20" width="81" height="81">
<rect x="20.3125" y="20.3464" width="80" height="80" fill="#D9D9D9"/>
</mask>
<g mask="url(#mask0_2045_20677)">
<path d="M43.6458 93.6797C41.8124 93.6797 40.243 93.0269 38.9374 91.7214C37.6319 90.4158 36.9791 88.8464 36.9791 87.0131C36.9791 85.1797 37.6319 83.6103 38.9374 82.3047C40.243 80.9992 41.8124 80.3464 43.6458 80.3464C45.4791 80.3464 47.0485 80.9992 48.3541 82.3047C49.6596 83.6103 50.3124 85.1797 50.3124 87.0131C50.3124 88.8464 49.6596 90.4158 48.3541 91.7214C47.0485 93.0269 45.4791 93.6797 43.6458 93.6797ZM76.9791 93.6797C75.1458 93.6797 73.5763 93.0269 72.2708 91.7214C70.9652 90.4158 70.3124 88.8464 70.3124 87.0131C70.3124 85.1797 70.9652 83.6103 72.2708 82.3047C73.5763 80.9992 75.1458 80.3464 76.9791 80.3464C78.8124 80.3464 80.3819 80.9992 81.6874 82.3047C82.993 83.6103 83.6458 85.1797 83.6458 87.0131C83.6458 88.8464 82.993 90.4158 81.6874 91.7214C80.3819 93.0269 78.8124 93.6797 76.9791 93.6797ZM40.8124 40.3464L48.8124 57.0131H72.1458L81.3124 40.3464H40.8124ZM37.6458 33.6797H86.8124C88.0902 33.6797 89.0624 34.2492 89.7291 35.3881C90.3958 36.5269 90.4235 37.6797 89.8124 38.8464L77.9791 60.1797C77.368 61.2908 76.5485 62.152 75.5208 62.7631C74.493 63.3742 73.368 63.6797 72.1458 63.6797H47.3124L43.6458 70.3464H80.3124C81.2569 70.3464 82.0485 70.6658 82.6874 71.3047C83.3263 71.9436 83.6458 72.7353 83.6458 73.6797C83.6458 74.6242 83.3263 75.4158 82.6874 76.0547C82.0485 76.6936 81.2569 77.0131 80.3124 77.0131H43.6458C41.1458 77.0131 39.2569 75.9158 37.9791 73.7214C36.7013 71.5269 36.6458 69.3464 37.8124 67.1797L42.3124 59.0131L30.3124 33.6797H26.9791C26.0346 33.6797 25.243 33.3603 24.6041 32.7214C23.9652 32.0825 23.6458 31.2908 23.6458 30.3464C23.6458 29.402 23.9652 28.6103 24.6041 27.9714C25.243 27.3325 26.0346 27.0131 26.9791 27.0131H32.3958C33.0069 27.0131 33.5902 27.1797 34.1458 27.5131C34.7013 27.8464 35.118 28.3186 35.3958 28.9297L37.6458 33.6797Z" fill="#FF875C"/>
</g>
</svg>
