<svg width="162" height="48" viewBox="0 0 162 48" fill="none" xmlns="http://www.w3.org/2000/svg">
<rect width="162" height="48" rx="6" fill="black"/>
<path d="M81.7632 26.1013C78.9408 26.1013 76.6404 28.2481 76.6404 31.2049C76.6404 34.1437 78.9408 36.3085 81.7632 36.3085C84.5868 36.3085 86.8872 34.1437 86.8872 31.2049C86.886 28.2481 84.5856 26.1013 81.7632 26.1013ZM81.7632 34.2997C80.2164 34.2997 78.8832 33.0241 78.8832 31.2061C78.8832 29.3689 80.2176 28.1125 81.7632 28.1125C83.31 28.1125 84.6432 29.3689 84.6432 31.2061C84.6432 33.0229 83.31 34.2997 81.7632 34.2997ZM70.5864 26.1013C67.764 26.1013 65.4636 28.2481 65.4636 31.2049C65.4636 34.1437 67.764 36.3085 70.5864 36.3085C73.41 36.3085 75.7104 34.1437 75.7104 31.2049C75.7104 28.2481 73.41 26.1013 70.5864 26.1013ZM70.5864 34.2997C69.0396 34.2997 67.7064 33.0241 67.7064 31.2061C67.7064 29.3689 69.0408 28.1125 70.5864 28.1125C72.1332 28.1125 73.4664 29.3689 73.4664 31.2061C73.4676 33.0229 72.1332 34.2997 70.5864 34.2997ZM57.2928 27.6685V29.8333H62.4744C62.3196 31.0513 61.914 31.9405 61.2948 32.5585C60.5412 33.3121 59.3616 34.1437 57.2928 34.1437C54.1032 34.1437 51.6096 31.5721 51.6096 28.3825C51.6096 25.1929 54.1032 22.6213 57.2928 22.6213C59.0136 22.6213 60.27 23.2981 61.1976 24.1681L62.7252 22.6405C61.4292 21.4033 59.7096 20.4565 57.2928 20.4565C52.9236 20.4565 49.2504 24.0133 49.2504 28.3825C49.2504 32.7517 52.9236 36.3085 57.2928 36.3085C59.6508 36.3085 61.4304 35.5345 62.8212 34.0849C64.2516 32.6545 64.6968 30.6433 64.6968 29.0197C64.6968 28.5181 64.6584 28.0537 64.5804 27.6673H57.2928V27.6685ZM111.662 29.3497C111.238 28.2097 109.942 26.1013 107.293 26.1013C104.664 26.1013 102.479 28.1701 102.479 31.2049C102.479 34.0657 104.645 36.3085 107.544 36.3085C109.883 36.3085 111.236 34.8781 111.798 34.0465L110.058 32.8861C109.478 33.7369 108.685 34.2973 107.544 34.2973C106.404 34.2973 105.592 33.7753 105.07 32.7505L111.894 29.9281L111.662 29.3497ZM104.702 31.0513C104.645 29.0785 106.23 28.0741 107.371 28.0741C108.26 28.0741 109.014 28.5193 109.266 29.1565L104.702 31.0513ZM99.1548 36.0001H101.396V20.9989H99.1548V36.0001ZM95.4804 27.2425H95.4036C94.9008 26.6425 93.9336 26.1013 92.7168 26.1013C90.1644 26.1013 87.8256 28.3441 87.8256 31.2253C87.8256 34.0861 90.1644 36.3097 92.7168 36.3097C93.9348 36.3097 94.9008 35.7685 95.4036 35.1505H95.4804V35.8849C95.4804 37.8373 94.4364 38.8813 92.7552 38.8813C91.3824 38.8813 90.5316 37.8961 90.1836 37.0645L88.2312 37.8769C88.7916 39.2293 90.2796 40.8925 92.7552 40.8925C95.3844 40.8925 97.608 39.3457 97.608 35.5753V26.4121H95.4816V27.2425H95.4804ZM92.91 34.2997C91.3632 34.2997 90.0684 33.0037 90.0684 31.2253C90.0684 29.4265 91.3632 28.1125 92.91 28.1125C94.4364 28.1125 95.6352 29.4265 95.6352 31.2253C95.6352 33.0037 94.4364 34.2997 92.91 34.2997ZM122.167 20.9989H116.802V36.0001H119.04V30.3169H122.166C124.648 30.3169 127.088 28.5205 127.088 25.6585C127.088 22.7965 124.649 20.9989 122.167 20.9989ZM122.225 28.2289H119.04V23.0869H122.225C123.899 23.0869 124.849 24.4729 124.849 25.6585C124.849 26.8201 123.899 28.2289 122.225 28.2289ZM136.063 26.0749C134.442 26.0749 132.763 26.7889 132.068 28.3717L134.056 29.2009C134.48 28.3717 135.272 28.1005 136.102 28.1005C137.26 28.1005 138.437 28.7953 138.456 30.0301V30.1849C138.05 29.9533 137.182 29.6065 136.121 29.6065C133.979 29.6065 131.797 30.7837 131.797 32.9833C131.797 34.9909 133.554 36.2833 135.522 36.2833C137.027 36.2833 137.857 35.6077 138.378 34.8157H138.455V35.9737H140.617V30.2221C140.618 27.5605 138.629 26.0749 136.063 26.0749ZM135.792 34.2961C135.06 34.2961 134.036 33.9289 134.036 33.0217C134.036 31.8637 135.311 31.4197 136.411 31.4197C137.394 31.4197 137.858 31.6321 138.456 31.9213C138.282 33.3121 137.086 34.2961 135.792 34.2961ZM148.492 26.4025L145.925 32.9065H145.848L143.184 26.4025H140.772L144.767 35.4925L142.489 40.5493H144.824L150.982 26.4025H148.492ZM128.324 36.0001H130.562V20.9989H128.324V36.0001Z" fill="white"/>
<path d="M56.9017 12.2916C56.9017 13.2972 56.6041 14.0976 56.0077 14.6952C55.3309 15.4056 54.4477 15.7608 53.3629 15.7608C52.3237 15.7608 51.4393 15.4008 50.7133 14.6808C49.9861 13.9596 49.6225 13.0668 49.6225 12.0012C49.6225 10.9344 49.9861 10.0416 50.7133 9.32158C51.4393 8.60038 52.3237 8.24038 53.3629 8.24038C53.8789 8.24038 54.3721 8.34118 54.8401 8.54158C55.3093 8.74318 55.6849 9.01078 55.9657 9.34558L55.3333 9.97918C54.8569 9.40918 54.2005 9.12478 53.3617 9.12478C52.6033 9.12478 51.9481 9.39118 51.3949 9.92398C50.8417 10.4568 50.5657 11.1492 50.5657 12C50.5657 12.8508 50.8417 13.5432 51.3949 14.076C51.9481 14.6088 52.6033 14.8752 53.3617 14.8752C54.1657 14.8752 54.8365 14.6076 55.3729 14.0712C55.7209 13.722 55.9225 13.236 55.9765 12.6132H53.3617V11.748H56.8501C56.8861 11.9364 56.9017 12.1176 56.9017 12.2916Z" fill="white"/>
<path d="M62.4338 9.28445H59.1554V11.5668H62.1122V12.4321H59.1554V14.7144H62.4338V15.6H58.2302V8.40005H62.4338V9.28445Z" fill="white"/>
<path d="M66.3348 15.6H65.4096V9.28445H63.3984V8.40005H68.346V9.28445H66.3348V15.6Z" fill="white"/>
<path d="M71.9256 15.6V8.40005H72.8508V15.6H71.9256Z" fill="white"/>
<path d="M76.9538 15.6H76.0286V9.28445H74.0174V8.40005H78.965V9.28445H76.9538V15.6Z" fill="white"/>
<path d="M88.3307 14.67C87.6227 15.3972 86.7431 15.7608 85.6907 15.7608C84.6383 15.7608 83.7587 15.3972 83.0519 14.67C82.3439 13.9428 81.9911 13.0524 81.9911 12C81.9911 10.9476 82.3439 10.0572 83.0519 9.33004C83.7587 8.60284 84.6383 8.23804 85.6907 8.23804C86.7371 8.23804 87.6155 8.60404 88.3259 9.33484C89.0363 10.0656 89.3915 10.9536 89.3915 12C89.3915 13.0524 89.0375 13.9428 88.3307 14.67ZM83.7347 14.0664C84.2675 14.6064 84.9191 14.8752 85.6907 14.8752C86.4623 14.8752 87.1151 14.6052 87.6467 14.0664C88.1795 13.5264 88.4471 12.8376 88.4471 12C88.4471 11.1624 88.1795 10.4736 87.6467 9.93364C87.1151 9.39364 86.4623 9.12484 85.6907 9.12484C84.9191 9.12484 84.2675 9.39484 83.7347 9.93364C83.2031 10.4736 82.9355 11.1624 82.9355 12C82.9355 12.8376 83.2031 13.5264 83.7347 14.0664Z" fill="white"/>
<path d="M90.6899 15.6V8.40005H91.8155L95.3147 14.0004H95.3543L95.3147 12.6132V8.40005H96.2399V15.6H95.2739L91.6128 9.72725H91.5731L91.6128 11.1144V15.6H90.6899Z" fill="white"/>
<path d="M56.9017 12.2916C56.9017 13.2972 56.6041 14.0976 56.0077 14.6952C55.3309 15.4056 54.4477 15.7608 53.3629 15.7608C52.3237 15.7608 51.4393 15.4008 50.7133 14.6808C49.9861 13.9596 49.6225 13.0668 49.6225 12.0012C49.6225 10.9344 49.9861 10.0416 50.7133 9.32158C51.4393 8.60038 52.3237 8.24038 53.3629 8.24038C53.8789 8.24038 54.3721 8.34118 54.8401 8.54158C55.3093 8.74318 55.6849 9.01078 55.9657 9.34558L55.3333 9.97918C54.8569 9.40918 54.2005 9.12478 53.3617 9.12478C52.6033 9.12478 51.9481 9.39118 51.3949 9.92398C50.8417 10.4568 50.5657 11.1492 50.5657 12C50.5657 12.8508 50.8417 13.5432 51.3949 14.076C51.9481 14.6088 52.6033 14.8752 53.3617 14.8752C54.1657 14.8752 54.8365 14.6076 55.3729 14.0712C55.7209 13.722 55.9225 13.236 55.9765 12.6132H53.3617V11.748H56.8501C56.8861 11.9364 56.9017 12.1176 56.9017 12.2916Z" stroke="white" stroke-width="0.24" stroke-miterlimit="10"/>
<path d="M62.4338 9.28445H59.1554V11.5668H62.1122V12.4321H59.1554V14.7144H62.4338V15.6H58.2302V8.40005H62.4338V9.28445Z" stroke="white" stroke-width="0.24" stroke-miterlimit="10"/>
<path d="M66.3348 15.6H65.4096V9.28445H63.3984V8.40005H68.346V9.28445H66.3348V15.6Z" stroke="white" stroke-width="0.24" stroke-miterlimit="10"/>
<path d="M71.9256 15.6V8.40005H72.8508V15.6H71.9256Z" stroke="white" stroke-width="0.24" stroke-miterlimit="10"/>
<path d="M76.9538 15.6H76.0286V9.28445H74.0174V8.40005H78.965V9.28445H76.9538V15.6Z" stroke="white" stroke-width="0.24" stroke-miterlimit="10"/>
<path d="M88.3307 14.67C87.6227 15.3972 86.7431 15.7608 85.6907 15.7608C84.6383 15.7608 83.7587 15.3972 83.0519 14.67C82.3439 13.9428 81.9911 13.0524 81.9911 12C81.9911 10.9476 82.3439 10.0572 83.0519 9.33004C83.7587 8.60284 84.6383 8.23804 85.6907 8.23804C86.7371 8.23804 87.6155 8.60404 88.3259 9.33484C89.0363 10.0656 89.3915 10.9536 89.3915 12C89.3915 13.0524 89.0375 13.9428 88.3307 14.67ZM83.7347 14.0664C84.2675 14.6064 84.9191 14.8752 85.6907 14.8752C86.4623 14.8752 87.1151 14.6052 87.6467 14.0664C88.1795 13.5264 88.4471 12.8376 88.4471 12C88.4471 11.1624 88.1795 10.4736 87.6467 9.93364C87.1151 9.39364 86.4623 9.12484 85.6907 9.12484C84.9191 9.12484 84.2675 9.39484 83.7347 9.93364C83.2031 10.4736 82.9355 11.1624 82.9355 12C82.9355 12.8376 83.2031 13.5264 83.7347 14.0664Z" stroke="white" stroke-width="0.24" stroke-miterlimit="10"/>
<path d="M90.6899 15.6V8.40005H91.8155L95.3147 14.0004H95.3543L95.3147 12.6132V8.40005H96.2399V15.6H95.2739L91.6128 9.72725H91.5731L91.6128 11.1144V15.6H90.6899Z" stroke="white" stroke-width="0.24" stroke-miterlimit="10"/>
<g filter="url(#filter0_ii_1753_28239)">
<path d="M12.5232 9.04561C12.174 9.41521 11.9676 9.98881 11.9676 10.7316V37.2708C11.9676 38.0148 12.174 38.5872 12.5232 38.9568L12.612 39.0432L27.4788 24.1764V24.0012V23.826L12.612 8.95801L12.5232 9.04561Z" fill="url(#paint0_linear_1753_28239)"/>
<path d="M32.4336 29.1336L27.4788 24.1764V24.0012V23.826L32.4348 18.87L32.5464 18.9336L38.418 22.2696C40.0944 23.2224 40.0944 24.7812 38.418 25.7352L32.5464 29.0712L32.4336 29.1336Z" fill="url(#paint1_linear_1753_28239)"/>
<g filter="url(#filter1_i_1753_28239)">
<path d="M32.5464 29.07L27.4776 24.0012L12.5232 38.9568C13.0752 39.5424 13.9884 39.6144 15.0168 39.0312L32.5464 29.07Z" fill="url(#paint2_linear_1753_28239)"/>
</g>
<path d="M32.5464 18.9324L15.0168 8.97238C13.9884 8.38798 13.0752 8.46118 12.5232 9.04678L27.4788 24.0024L32.5464 18.9324Z" fill="url(#paint3_linear_1753_28239)"/>
</g>
<defs>
<filter id="filter0_ii_1753_28239" x="11.9676" y="8.56909" width="27.7077" height="30.865" filterUnits="userSpaceOnUse" color-interpolation-filters="sRGB">
<feFlood flood-opacity="0" result="BackgroundImageFix"/>
<feBlend mode="normal" in="SourceGraphic" in2="BackgroundImageFix" result="shape"/>
<feColorMatrix in="SourceAlpha" type="matrix" values="0 0 0 0 0 0 0 0 0 0 0 0 0 0 0 0 0 0 127 0" result="hardAlpha"/>
<feOffset dy="-0.18"/>
<feComposite in2="hardAlpha" operator="arithmetic" k2="-1" k3="1"/>
<feColorMatrix type="matrix" values="0 0 0 0 0 0 0 0 0 0 0 0 0 0 0 0 0 0 0.12 0"/>
<feBlend mode="normal" in2="shape" result="effect1_innerShadow_1753_28239"/>
<feColorMatrix in="SourceAlpha" type="matrix" values="0 0 0 0 0 0 0 0 0 0 0 0 0 0 0 0 0 0 127 0" result="hardAlpha"/>
<feOffset dy="0.18"/>
<feComposite in2="hardAlpha" operator="arithmetic" k2="-1" k3="1"/>
<feColorMatrix type="matrix" values="0 0 0 0 1 0 0 0 0 1 0 0 0 0 1 0 0 0 0.25 0"/>
<feBlend mode="normal" in2="effect1_innerShadow_1753_28239" result="effect2_innerShadow_1753_28239"/>
</filter>
<filter id="filter1_i_1753_28239" x="12.5232" y="24.0012" width="20.0232" height="15.4329" filterUnits="userSpaceOnUse" color-interpolation-filters="sRGB">
<feFlood flood-opacity="0" result="BackgroundImageFix"/>
<feBlend mode="normal" in="SourceGraphic" in2="BackgroundImageFix" result="shape"/>
<feColorMatrix in="SourceAlpha" type="matrix" values="0 0 0 0 0 0 0 0 0 0 0 0 0 0 0 0 0 0 127 0" result="hardAlpha"/>
<feOffset dy="-0.18"/>
<feComposite in2="hardAlpha" operator="arithmetic" k2="-1" k3="1"/>
<feColorMatrix type="matrix" values="0 0 0 0 0 0 0 0 0 0 0 0 0 0 0 0 0 0 0.08 0"/>
<feBlend mode="normal" in2="shape" result="effect1_innerShadow_1753_28239"/>
</filter>
<linearGradient id="paint0_linear_1753_28239" x1="26.161" y1="10.4508" x2="6.02255" y2="30.5892" gradientUnits="userSpaceOnUse">
<stop stop-color="#00A0FF"/>
<stop offset="0.0066" stop-color="#00A1FF"/>
<stop offset="0.2601" stop-color="#00BEFF"/>
<stop offset="0.5122" stop-color="#00D2FF"/>
<stop offset="0.7604" stop-color="#00DFFF"/>
<stop offset="1" stop-color="#00E3FF"/>
</linearGradient>
<linearGradient id="paint1_linear_1753_28239" x1="40.6002" y1="24.0012" x2="11.5651" y2="24.0012" gradientUnits="userSpaceOnUse">
<stop stop-color="#FFE000"/>
<stop offset="0.4087" stop-color="#FFBD00"/>
<stop offset="0.7754" stop-color="#FFA500"/>
<stop offset="1" stop-color="#FF9C00"/>
</linearGradient>
<linearGradient id="paint2_linear_1753_28239" x1="29.7937" y1="26.7539" x2="2.48352" y2="54.0641" gradientUnits="userSpaceOnUse">
<stop stop-color="#FF3A44"/>
<stop offset="1" stop-color="#C31162"/>
</linearGradient>
<linearGradient id="paint3_linear_1753_28239" x1="8.75687" y1="0.212142" x2="20.9516" y2="12.4069" gradientUnits="userSpaceOnUse">
<stop stop-color="#32A071"/>
<stop offset="0.0685" stop-color="#2DA771"/>
<stop offset="0.4762" stop-color="#15CF74"/>
<stop offset="0.8009" stop-color="#06E775"/>
<stop offset="1" stop-color="#00F076"/>
</linearGradient>
</defs>
</svg>
