<svg width="240" height="240" viewBox="0 0 240 240" fill="none" xmlns="http://www.w3.org/2000/svg">
<g clip-path="url(#clip0_1802_35322)">
<path d="M24.7356 48.704C24.7356 48.704 20.1276 53.6 26.6876 60.896L27.3596 58.304L24.7356 48.704Z" fill="#39302A"/>
<path d="M235.68 176.96C237.472 172.224 238.912 167.136 238.176 162.112C237.44 157.088 234.048 152.192 229.12 151.04C222.048 149.376 215.648 155.68 211.936 161.92C208.96 166.944 206.656 172.352 205.056 177.984C208.256 164.576 209.44 150.752 208.544 136.992C207.968 128.288 204.8 117.664 196.192 116.224C187.936 114.848 181.376 123.328 178.944 131.328C172.48 152.608 180.32 175.328 188.096 196.16L205.888 237.856C212.352 235.264 218.464 231.808 224.032 227.616C226.976 225.376 229.856 222.848 231.424 219.488C232.992 216.128 232.928 211.776 230.4 209.088C227.872 206.4 223.648 206.016 220.192 207.168C216.736 208.32 213.824 210.72 211.04 213.088C221.984 203.168 230.432 190.784 235.68 176.96Z" fill="#B2B129"/>
<path d="M72.7682 0H181.408C186.24 0 190.144 3.904 190.144 8.736V203.04C190.144 207.872 186.24 211.776 181.408 211.776H72.7682C67.9362 211.776 64.0322 207.872 64.0322 203.04V8.736C64.0322 3.904 67.9682 0 72.7682 0Z" fill="#322A63"/>
<path d="M82.1441 205.376C81.3441 203.232 80.4161 201.056 78.9441 199.296C77.4721 197.536 75.2641 196.256 72.9601 196.352C70.4321 196.448 68.1281 198.208 66.9441 200.448C65.7601 202.688 65.4721 205.312 65.6321 207.84C66.1441 215.552 70.3041 222.368 74.9441 228.704C74.1761 227.84 73.3121 227.008 72.4481 226.24C70.0481 224.16 66.5601 222.432 63.8401 224.096C61.3121 225.632 61.0561 229.408 62.5601 231.936C64.0641 234.464 66.8161 235.936 69.5361 237.056C72.8641 238.4 76.3201 239.392 79.8721 240.064H86.2721C87.6161 228.288 86.1761 216.448 82.1441 205.376Z" fill="#B2B129"/>
<path d="M25.6641 56.3519L26.7201 60.8959L26.8801 56.3519H25.6641Z" fill="#39302A"/>
<path d="M41.7598 72.608L43.3918 96.48L49.9838 93.536C47.5198 79.328 41.7598 72.608 41.7598 72.608Z" fill="#F79673"/>
<path d="M61.5045 88.0961C50.4965 90.8481 44.7365 95.2961 44.7365 95.2961L42.2405 99.7441C42.2405 99.7441 40.9285 104.096 47.2645 104.672C53.6005 105.248 64.2245 93.5361 64.2245 93.5361L61.5045 88.0961Z" fill="#F79673"/>
<path d="M74.3039 12.3519H179.872C182.24 12.3519 184.128 14.2719 184.128 16.6079V182.112C184.128 184.48 182.208 186.368 179.872 186.368H74.3039C71.9359 186.368 70.0479 184.448 70.0479 182.112V16.6079C70.0479 14.2719 71.9679 12.3519 74.3039 12.3519Z" fill="#F2EEEB"/>
<path d="M120.512 193.088H84.0957V240H120.512V193.088Z" fill="#FAC694"/>
<path d="M22.5604 229.792H13.3764L13.0244 234.08C13.0244 234.08 13.7284 237.056 18.7204 237.248C23.7124 237.44 24.4164 234.656 24.4164 234.656L22.5604 229.792Z" fill="#F7BF99"/>
<path d="M24.4484 234.656C20.7044 237.728 13.0244 234.08 13.0244 234.08L12.7364 235.808C12.7364 235.808 12.3524 238.784 13.0564 240H27.6804C27.6804 240 27.8724 236.032 24.4484 234.656Z" fill="#39302A"/>
<path d="M45.5038 119.392C45.5038 119.392 55.2958 151.456 55.6478 167.392C56.0958 187.328 50.9438 229.792 50.9438 229.792H34.2718C34.2718 229.792 34.8478 191.392 37.5358 167.424C37.5358 167.424 24.4478 136.704 19.4238 120.992L45.5038 119.392Z" fill="#908E57"/>
<path d="M14.24 119.648C11.68 125.312 11.36 167.264 11.36 167.264C7.45597 184.096 9.21597 229.792 9.21597 229.792H24.448C24.448 229.792 28 185.184 29.408 167.264C30.912 160.8 40.32 118.048 40.32 118.048L14.24 119.648Z" fill="#908E57"/>
<path d="M12.6721 102.336C12.9281 92.16 15.1681 73.824 22.1761 70.4C26.4321 68.352 31.2641 67.872 35.8401 69.088C38.9441 69.664 41.6001 71.68 42.9441 74.56C45.1201 79.008 47.0721 100.416 47.0401 107.456C47.0401 111.808 46.9441 117.6 45.4721 119.616C45.4721 119.616 43.5201 123.232 29.7921 123.328C16.0641 123.424 15.3601 121.088 14.2081 119.872C13.1201 118.112 12.3841 113.088 12.6721 102.336Z" fill="#7F5BAE"/>
<path d="M25.8877 50.5281L36.4477 49.8881L35.3597 62.4321L26.7197 63.7761L25.8877 50.5281Z" fill="#F79673"/>
<path d="M27.3598 50.4321L36.4798 49.8881C36.4798 49.8881 38.4318 55.1041 37.7598 59.2001C37.4078 61.4081 36.4158 63.2321 33.8558 63.7121C31.1038 63.9681 28.5118 62.3681 27.5198 59.7761C26.1758 55.8401 27.3598 50.4321 27.3598 50.4321Z" fill="#F79673"/>
<path d="M36.4163 69.4719C33.2483 71.0399 25.1523 69.2799 25.1523 69.2799C26.7203 63.4559 26.7523 56.7679 26.7523 56.7679L34.9123 57.0559C34.4323 64.3199 36.4163 69.4719 36.4163 69.4719Z" fill="#F79673"/>
<path d="M27.8078 53.568C27.8078 53.568 26.3998 52.352 25.2798 53.632C24.3838 54.688 25.1198 57.376 28.2238 57.152C28.6398 55.936 28.4798 54.624 27.8078 53.568Z" fill="#F79673"/>
<path d="M48.096 233.824L47.008 229.792H37.888L37.856 235.808C37.856 235.808 37.408 238.848 37.888 240H60.096C60.096 240 59.2 236.608 48.096 233.824Z" fill="#F7BF99"/>
<path d="M51.1039 234.656C49.7599 237.888 37.8559 233.216 37.8559 233.216V235.808C37.8559 235.808 37.1199 238.912 37.8879 240H60.0959C60.1279 240 59.7439 236.32 51.1039 234.656Z" fill="#39302A"/>
<path d="M136 5.92004H118.176C117.792 5.92004 117.472 6.24004 117.472 6.62404C117.472 7.00804 117.792 7.32804 118.176 7.32804H136C136.384 7.32804 136.704 7.00804 136.704 6.62404C136.704 6.24004 136.384 5.92004 136 5.92004Z" fill="#F2EEEB"/>
<path d="M179.872 12.3519H74.3039C71.9359 12.3519 70.0479 14.2719 70.0479 16.6079V130.08H184.16V16.6079C184.16 14.2719 182.24 12.3519 179.872 12.3519Z" fill="#D5DAEE"/>
<path d="M70.0479 35.8081H156.928L184.16 20.0961V26.1441L157.216 42.2401H70.0479V35.8081Z" fill="#F2EEEB"/>
<path d="M70.0479 130.08C70.0479 130.08 78.4319 106.976 102.464 89.696L117.504 42.24H127.104L115.936 91.744C115.936 91.744 99.9679 108.96 98.5599 130.08H70.0479Z" fill="#F2EEEB"/>
<path d="M70.0479 84.704L95.9999 74.176H107.36H119.904L161.92 105.888H184.16V118.944H159.264L117.472 81.472H105.088H97.1839L70.0479 99.36V84.704Z" fill="#F2EEEB"/>
<path d="M151.072 12.3519V97.6959L155.968 101.408V12.3519H151.072Z" fill="#F2EEEB"/>
<path d="M93.5039 35.8079C95.1039 24.9599 93.5039 12.3519 93.5039 12.3519H74.3039C84.3839 24.4799 83.9999 35.8079 83.9999 35.8079L83.7758 46.7199L70.0479 49.3439V56.1599L92.8958 51.6479L93.5039 35.8079Z" fill="#F2EEEB"/>
<path d="M155.968 76.064L177.12 78.112L184.16 82.208V91.584L175.392 86.144L155.968 83.84V76.064Z" fill="#F2EEEB"/>
<path d="M104.544 108.896L132.608 130.08H124.416L102.272 114.08L104.544 108.896Z" fill="#F2EEEB"/>
<path d="M175.456 64.096C175.584 59.424 171.904 55.52 167.2 55.392C162.496 55.264 158.624 58.944 158.496 63.648C158.496 63.808 158.496 63.968 158.496 64.128C158.496 65.152 158.688 66.144 159.04 67.104L159.104 67.232C159.2 67.52 159.328 67.808 159.488 68.064C161.28 71.872 163.392 75.52 165.792 78.976C166.272 79.648 167.168 79.808 167.84 79.328C167.968 79.232 168.096 79.104 168.192 78.976C170.592 75.52 172.704 71.872 174.496 68.064C174.624 67.808 174.752 67.52 174.88 67.232L174.944 67.104C175.296 66.112 175.488 65.12 175.456 64.096Z" fill="#FE4947"/>
<path d="M166.976 67.584C168.903 67.584 170.464 66.0224 170.464 64.096C170.464 62.1697 168.903 60.608 166.976 60.608C165.05 60.608 163.488 62.1697 163.488 64.096C163.488 66.0224 165.05 67.584 166.976 67.584Z" fill="#F2EEEB"/>
<path d="M157.664 136.96H140.32V153.216H157.664V136.96Z" fill="#D5DAEE"/>
<path d="M177.952 160.032H140.32V161.152H177.952V160.032Z" fill="#D5DAEE"/>
<path d="M126.272 152.096H76.0645V153.216H126.272V152.096Z" fill="#D5DAEE"/>
<path d="M177.952 168.032H140.32V169.152H177.952V168.032Z" fill="#D5DAEE"/>
<path d="M177.952 176.032H140.32V177.152H177.952V176.032Z" fill="#D5DAEE"/>
<path d="M32.6075 90.08C15.1035 92.48 14.0475 93.536 13.9835 93.6C18.3995 86.976 19.9675 85.536 22.1115 82.016C26.2075 75.232 26.8795 70.464 26.8795 70.464C26.8795 70.464 22.5275 68.416 13.1835 76.8C4.79953 84.32 -4.60847 102.432 7.07153 104.448C18.7515 106.464 34.5915 96.288 34.5915 96.288L32.6075 90.08Z" fill="#F79673"/>
<path d="M47.0083 111.36L12.6083 106.304C12.6083 106.304 12.3523 117.344 11.8403 120.576C11.3923 123.328 12.6083 124.096 12.6083 124.096C12.6083 124.096 17.0243 127.616 26.8803 126.144C39.8403 124.192 46.1443 126.08 47.5203 123.616C48.8963 121.152 46.8163 116.384 47.0083 111.36Z" fill="#7F5BAE"/>
<path d="M69.0882 73.184L54.9442 74.464L48.4482 94.912L62.9442 93.44L69.0882 73.184Z" fill="#D5DAEE"/>
<path d="M69.088 73.1839L67.872 72.7679L54.336 73.8559L48 94.0799L48.448 94.9119L54.944 74.4639L69.088 73.1839Z" fill="#322A63"/>
<path d="M43.2642 87.744C43.0722 87.136 38.5602 87.456 37.0242 87.872C35.4882 88.288 32.4482 90.144 32.4482 90.144L34.5922 96.256C38.8802 96.32 40.5442 94.432 40.5442 94.432C40.8002 93.792 40.6402 93.056 40.1602 92.544C40.7362 91.488 39.7762 90.656 39.7762 90.656C39.9042 90.048 39.5202 89.44 38.9442 89.248L38.1762 89.184C40.5442 88.512 43.4242 88.352 43.2642 87.744Z" fill="#F79673"/>
<path d="M28.4802 72.6081C28.3522 72.3201 27.8722 70.1121 27.8722 70.1121L24.5442 69.4081C24.5442 69.4081 14.6882 72.6081 6.36816 82.9441C9.47216 86.1761 13.2482 88.6721 17.4402 90.2721L26.7522 77.0241C26.7202 77.0241 28.5762 72.8961 28.4802 72.6081Z" fill="#7F5BAE"/>
<path d="M41.7598 72.608L44.0318 88.992C46.5598 88.704 49.1198 87.168 49.1198 87.168C46.4318 77.984 41.7598 72.608 41.7598 72.608Z" fill="#7F5BAE"/>
<path d="M25.3976 49.2782C26.7847 47.8911 26.5923 45.4496 24.9677 43.825C23.3431 42.2005 20.9017 42.008 19.5145 43.3951C18.1274 44.7822 18.3199 47.2237 19.9445 48.8483C21.569 50.4728 24.0105 50.6653 25.3976 49.2782Z" fill="#39302A"/>
<path d="M120.48 193.088H119.072L115.744 240H120.48V193.088Z" fill="#F79673"/>
<path d="M132.64 157.76H89.5361V193.088H132.64V157.76Z" fill="#FAC694"/>
<path d="M146.72 191.712L132.608 193.088V157.76H146.72V191.712Z" fill="#F79673"/>
<path d="M142.368 157.76H137.728V162.4H142.368V157.76Z" fill="#EDE2D9"/>
<path d="M94.88 160.48H92V164.064H94.88V160.48Z" fill="#39302A"/>
<path d="M184.896 187.232H120.48V240H184.896V187.232Z" fill="#FAC694"/>
<path d="M205.952 237.952L184.896 240V187.232H205.952V237.952Z" fill="#F79673"/>
<path d="M199.456 187.232H192.512V194.176H199.456V187.232Z" fill="#EDE2D9"/>
<path d="M182.72 231.104H178.4V238.048H182.72V231.104Z" fill="#39302A"/>
<path d="M176.096 231.104H171.776V238.048H176.096V231.104Z" fill="#39302A"/>
<path d="M119.648 186.848L115.744 192.128L89.5361 192.704V193.088H120.48V187.232H132.608V185.824L119.648 186.848Z" fill="#39302A"/>
<path d="M166.976 82.912C168.39 82.912 169.536 82.5968 169.536 82.208C169.536 81.8192 168.39 81.504 166.976 81.504C165.562 81.504 164.416 81.8192 164.416 82.208C164.416 82.5968 165.562 82.912 166.976 82.912Z" fill="#39302A"/>
<path d="M63.7123 80.896C63.2323 81.024 63.9363 84.736 63.9363 84.736C63.9363 84.736 61.1203 81.952 60.6723 82.368C60.3203 82.656 63.5523 86.048 63.5523 86.048C63.5523 86.048 59.8403 84.128 59.5523 84.576C59.2643 85.024 63.1683 87.36 63.1683 87.36C63.1683 87.36 59.6163 86.272 59.5523 86.624C59.4883 86.976 62.8803 88.736 62.8803 88.736C62.8803 88.736 62.5923 90.784 63.2963 92.192L63.2003 93.504L64.2563 93.632C64.2563 93.632 66.2403 91.424 66.2403 88.544C66.1763 88.512 64.3523 80.736 63.7123 80.896Z" fill="#F79673"/>
<path d="M37.1836 52.352C37.1836 52.352 36.9596 47.776 32.5436 46.688C26.5916 45.216 25.1516 48.608 25.1516 48.608C23.1676 49.728 25.0236 54.176 25.0236 54.176C25.1836 53.76 25.5036 53.408 25.8876 53.184C29.0876 52.768 28.2556 57.184 28.2556 57.184C29.5676 55.296 28.4796 52.8 28.4796 52.8L29.8556 53.216C30.4316 53.248 30.9756 53.248 31.4876 53.248C31.4236 53.024 31.3596 52.832 31.2636 52.608L31.9036 53.248C32.6076 53.216 33.2796 53.184 33.8556 53.088C33.8236 52.928 33.8236 52.736 33.7596 52.576L34.1756 52.992C34.2076 52.992 34.2076 53.024 34.2396 53.024C34.6556 52.96 35.0396 52.896 35.3916 52.832C35.3916 52.352 35.2636 51.872 35.0396 51.488C35.3276 51.904 35.5836 52.32 35.8076 52.768C36.3836 52.64 36.7996 52.512 37.0236 52.448C37.0236 52.352 36.9916 52.224 36.9596 52.128C37.0236 52.224 37.1196 52.288 37.1836 52.384V52.352Z" fill="#39302A"/>
<path d="M36.4163 69.472L31.1683 68.736L25.1523 69.28C25.1523 69.28 29.9203 74.176 35.9043 75.904C36.4483 73.792 36.6403 71.616 36.4163 69.472Z" fill="#F79673"/>
<path d="M36.0636 136.832C36.2876 136.864 35.3916 140.896 34.3356 145.824C33.2796 150.752 32.3836 154.784 32.1596 154.752C31.9356 154.72 32.8316 150.688 33.8876 145.76C34.9436 140.832 35.8396 136.768 36.0636 136.832Z" fill="#090B0B"/>
<path d="M21.1204 85.12C21.3124 85.248 20.3204 86.656 19.1364 88.384C18.5604 89.216 18.0484 89.984 17.6324 90.528L17.5364 90.656L17.4084 90.592C16.7364 90.272 16.3204 90.016 16.3844 89.92C16.4484 89.824 16.8964 89.952 17.5684 90.24L17.3124 90.304C17.6964 89.728 18.2084 88.992 18.7844 88.16C19.9684 86.432 20.9284 85.024 21.1204 85.12Z" fill="#090B0B"/>
<path d="M44.8958 82.368C45.1198 82.336 45.3438 83.744 45.5678 85.504C45.7918 87.264 45.8558 88.704 45.6318 88.704C45.4078 88.704 45.3118 87.296 45.1198 85.536C44.9278 83.776 44.6718 82.4 44.8958 82.368Z" fill="#090B0B"/>
<path d="M10.0158 96.0641C9.85576 95.9361 10.5598 95.072 11.6798 94.336C12.7998 93.6 13.8878 93.2801 13.9518 93.5041C14.0158 93.7281 12.9918 93.984 11.9358 94.72C10.8798 95.456 10.2078 96.2241 10.0158 96.0641Z" fill="#090B0B"/>
</g>
<defs>
<clipPath id="clip0_1802_35322">
<rect width="240" height="240" fill="white"/>
</clipPath>
</defs>
</svg>
