<svg width="122" height="97" viewBox="0 0 122 97" fill="none" xmlns="http://www.w3.org/2000/svg">
<path d="M104.067 92.7165C104.687 92.6446 127.356 76.3606 116.543 59.3713C105.731 42.382 82.1708 45.1214 85.7376 37.7198C89.3044 30.3181 82.1339 -5.20312 53.905 1.42943C25.676 8.06198 22.7542 27.868 35.0156 40.4035C47.2771 52.9391 29.2105 67.1844 18.6062 54.887C8.00194 42.5895 -6.76194 61.595 3.42736 70.188C13.6167 78.7811 4.88245 104.156 104.067 92.7165Z" fill="#F0EEF9"/>
<path d="M89.7532 71.9167C89.7532 71.9167 87.849 76.9374 87.4331 78.8988C87.0173 80.8602 87.0271 82.7793 87.0271 82.7793L83.4648 81.9904C83.4648 81.9904 84.2957 71.4289 85.0852 70.6849C85.8738 69.941 89.7056 70.2527 89.7056 70.2527L89.7532 71.9167Z" fill="#674790"/>
<path d="M93.8438 69.2698C93.8438 69.2698 94.5031 77.5043 94.9189 78.8988C95.3348 80.2932 99.1064 85.7272 99.1064 85.7272L95.0779 84.6975C95.0779 84.6975 90.815 80.3777 88.9988 71.2752C87.718 64.8502 92.1444 66.5196 93.8438 69.2698Z" fill="#674790"/>
<path d="M85.7568 57.7783C85.7568 57.7783 81.2164 57.2078 79.0077 56.224C76.799 55.2392 70.1396 51.1547 70.1396 51.1547L71.222 49.8439C71.222 49.8439 77.4529 53.0595 78.6789 53.7046C79.905 54.3497 85.9239 55.3111 85.9239 55.3111L85.7568 57.7783Z" fill="#FFE3CA"/>
<path d="M93.1045 59.3848C93.2653 63.3902 93.6776 69.1243 93.8437 69.2698C93.8437 69.2698 91.8515 70.8727 90.1763 71.1431C88.5021 71.4136 84.7754 71.4352 84.7754 71.4352C84.7754 71.4352 85.9125 63.7101 85.9502 62.4486C85.988 61.1871 85.5038 56.5285 85.5038 56.5285C93.8437 51.6255 93.0991 59.2482 93.1045 59.3848Z" fill="#FF875C"/>
<path d="M88.5802 54.126L88.5909 54.9256C88.599 55.5132 89.093 55.9769 89.6805 55.9472L89.8466 55.9391C90.4143 55.9104 90.8535 55.4288 90.8293 54.8601L90.7951 54.0415C90.7682 53.4099 90.188 52.949 89.5664 53.0667L89.4236 53.0936C88.9296 53.1871 88.5739 53.6228 88.5802 54.126Z" fill="#FCD2B1"/>
<path d="M86.8615 49.3506C86.8615 49.3506 85.8923 52.099 86.7465 53.6507C87.6007 55.2024 90.7516 54.6274 91.2896 52.4701C92.4735 47.7208 88.2214 47.9355 86.8615 49.3506Z" fill="#FFE3CA"/>
<path d="M88.9883 58.3516C88.9883 58.3516 85.9982 59.0434 82.6523 57.6319L83.3071 54.7181L88.5913 54.9266C88.5913 54.9257 88.7709 56.4899 88.9883 58.3516Z" fill="#FF875C"/>
<path d="M92.5188 55.6678C92.3733 55.816 94.3466 62.2446 91.7957 64.4791C90.3891 65.711 83.772 67.4639 83.772 67.4639C83.7136 67.542 83.3067 67.6597 82.8963 67.7604C82.2603 67.9167 81.5894 67.7155 81.143 67.2366C81.1097 67.2006 81.0792 67.1674 81.0522 67.1377C81.0111 67.092 80.9804 67.0378 80.9622 66.979C80.9441 66.9202 80.9389 66.8582 80.9472 66.7972C80.966 66.6552 81.029 66.5228 81.1271 66.4185C81.2253 66.3142 81.3536 66.2433 81.4942 66.2159C81.6172 66.1916 81.743 66.1728 81.8445 66.1692C82.457 66.1494 82.9412 66.3992 83.5466 66.3776L83.9274 66.3641C83.9274 66.3641 89.2664 64.1737 89.9796 63.622C92.1433 61.9472 91.1104 59.0335 91.2999 57.8511L92.5188 55.6678Z" fill="#FCD2B1"/>
<path d="M85.0315 66.5968C85.0315 66.5968 83.8755 65.8969 83.1462 65.8583C82.8156 65.8412 82.2614 65.6498 82.0881 65.4773C81.9147 65.3039 81.7764 65.9751 82.071 66.0793C82.3656 66.1835 83.0959 66.3479 82.9297 66.7181L85.0315 66.5968Z" fill="#FCD2B1"/>
<path d="M91.2073 55.0721C91.2073 55.0721 93.8435 54.887 94.113 60.8152L90.7555 61.7406C90.7555 61.7406 88.2234 58.2464 91.2073 55.0721Z" fill="#FF875C"/>
<path d="M70.2494 51.3956C70.2494 51.3956 70.8395 51.4629 71.7602 51.3722C72.6809 51.2805 72.1887 50.9301 72.1887 50.9301L71.6398 50.1952C71.6398 50.1952 71.1575 49.0101 70.5512 48.6372C70.4093 48.5501 70.3554 48.4764 70.2512 48.3533C70.1569 48.2419 69.0404 48.1224 70.0303 48.8888C70.2898 49.0901 70.2539 49.2572 70.1003 49.259C69.9467 49.2608 68.8904 48.3596 68.5141 48.5788C67.4722 49.188 68.1189 50.5079 68.6578 50.7729C69.1814 51.029 70.2494 51.3956 70.2494 51.3956Z" fill="#FFE3CA"/>
<path d="M91.8671 48.6112C91.8384 48.6767 91.7477 48.6839 91.7126 48.6219C91.4306 48.1188 90.465 46.6749 88.8491 47.0442C87.1569 47.4315 86.3162 48.6435 85.8698 48.4099C85.8006 48.3731 85.7207 48.4333 85.7431 48.5078C85.8231 48.7747 86.0279 49.1044 86.5551 49.0281C86.6036 49.0209 86.6485 49.0586 86.6512 49.108C86.6629 49.3165 86.6243 49.7891 86.0368 49.7549C85.9659 49.7504 85.9183 49.8268 85.956 49.887C86.0638 50.0586 86.2919 50.2931 86.6755 50.1233C86.6979 50.1134 86.715 50.0936 86.7231 50.0703C86.7788 49.905 87.0626 49.2221 87.9024 49.285C87.9339 49.2877 87.9617 49.3093 87.9752 49.338C88.0291 49.4584 88.2518 49.7765 89.1276 49.94C90.1524 50.1314 90.4461 50.8915 89.9917 51.4144C89.9476 51.4647 89.9737 51.5447 90.0393 51.5564C90.2548 51.5923 90.65 51.5842 90.8719 51.1278C91.1872 50.4782 91.6695 51.1089 91.4477 51.4809C91.2447 51.8196 91.3039 52.8852 90.7946 53.4351C90.7426 53.4908 90.7884 53.5824 90.8647 53.5779C91.1333 53.56 91.568 53.4764 91.8016 53.1332C92.1545 52.613 93.1381 51.8897 92.8219 50.4602C92.5309 49.1404 92.265 48.6273 92.7474 48.294C92.8058 48.2536 92.7986 48.1646 92.7321 48.1404C92.5165 48.0631 92.1249 48.0245 91.8671 48.6112Z" fill="#36264F"/>
<path d="M55.2839 39.1897C55.2839 39.1897 58.742 43.9938 60.525 45.6273C62.0717 47.0451 66.1199 48.9615 67.4646 49.674L67.7861 49.8438L68.3502 48.7342C68.3502 48.7342 62.9187 44.9283 61.8382 44.0594C60.7585 43.1915 57.6408 38.4619 57.6408 38.4619L55.2839 39.1897ZM52.6791 37.665C52.5022 37.5563 44.871 38.7827 43.15 38.0531C41.429 37.3236 37.6197 31.7269 37.6197 31.7269L36.4413 31.0118C35.9722 30.7271 35.5935 30.3153 35.349 29.824L35.0993 29.3226C34.8344 28.7898 35.2233 28.1645 35.8188 28.1672L36.9119 28.5014C37.3313 28.6295 37.7112 28.8623 38.0159 29.1777C38.3206 29.4932 38.54 29.881 38.6536 30.3047L38.7524 30.673C38.7524 30.673 43.2838 35.4835 44.0527 35.9543C44.8207 36.4251 48.5752 35.3137 49.7689 35.2328L52.6791 37.665Z" fill="#B97A59"/>
<path d="M41.8433 54.603C41.8433 54.603 49.796 53.8986 53.396 47.1071L48.6867 47.4359C48.6867 47.4359 39.5726 52.4961 38.8792 53.4656C38.1857 54.435 40.1268 66.5869 40.1268 66.5869H42.0328L41.8433 54.603Z" fill="#674790"/>
<path d="M48.6865 47.4359C48.6865 47.4359 49.7267 59.5842 52.0827 64.2294C54.4396 68.8745 57.4198 75.392 57.4198 75.392L59.7363 74.7676L54.5779 61.1781C54.5779 61.1781 53.9617 54.6606 54.0929 53.8286C54.224 52.9966 55.459 49.6714 54.2114 47.1062L48.6865 47.4359Z" fill="#674790"/>
<path d="M46.1738 35.8321L46.4424 38.7279C46.4424 38.7279 48.6439 39.0333 48.617 39.1672C47.8032 43.0927 46.4604 48.6821 46.2726 48.798C46.2726 48.798 48.396 48.9903 50.0038 49.5312C51.6116 50.072 54.6826 51.6264 54.6826 51.6264C54.6826 51.6264 55.005 44.6102 55.1748 43.3604C55.3437 42.1097 56.5823 37.5931 56.5823 37.5931C52.3427 33.4287 46.1738 35.8321 46.1738 35.8321Z" fill="#FF875C"/>
<path d="M53.9394 34.718L53.7984 35.505C53.6942 36.0836 53.131 36.4601 52.5571 36.3343L52.3945 36.2984C51.8385 36.1771 51.4846 35.6299 51.6014 35.0729L52.0146 33.0971L53.2765 33.5598C53.749 33.735 54.0283 34.2229 53.9394 34.718Z" fill="#A86D52"/>
<path d="M56.7092 30.8114C56.7092 30.8114 56.4056 34.0513 55.0843 35.231C53.7631 36.4107 51.0999 34.4197 51.3074 32.2068C51.7672 27.3325 55.8954 29.0244 56.7092 30.8114Z" fill="#B97A59"/>
<path d="M54.3626 35.9741C54.3626 35.9741 57.1767 37.1996 59.0225 40.3272L56.7608 42.2769L54.2108 39.833C54.2117 39.833 53.4285 37.5976 54.3626 35.9741Z" fill="#FF875C"/>
<path d="M7.33301 96.6086C7.33301 96.6086 20.6059 68.0209 36.2356 68.0416C54.3382 68.0649 41.3303 77.9212 59.5244 78.4414C77.7186 78.9617 113.684 89.756 113.684 89.756L121.481 96.6077H7.33301V96.6086Z" fill="#B7A8DD"/>
<path d="M40.4905 66.586L40.3567 66.6642C39.6022 67.1045 38.7821 67.4162 37.9342 67.6238C36.1809 68.0515 36.012 68.9095 36.012 68.9095C35.9465 69.0281 36.4926 69.3623 36.6273 69.3516L39.4917 68.728C39.9817 68.6211 40.4851 68.5896 40.9845 68.6346L41.7911 68.7065C42.1657 68.6993 42.4387 68.3498 42.3543 67.9841L42.0328 66.586H40.4905ZM57.42 75.3911C57.42 75.3911 56.7616 77.7919 54.9418 77.6364C54.9418 77.6364 53.9385 79.2402 56.6574 78.8323C57.6975 78.6759 57.9167 77.3246 60.0886 77.6625C60.6886 77.7559 61.0245 77.0389 61.0245 77.0389C61.2509 76.2617 60.65 75.8116 60.1164 75.2024L59.7365 74.7676L57.42 75.3911ZM32.9653 68.507L32.0527 68.4396L37.7546 14.4798L38.6663 14.5472L32.9653 68.507Z" fill="#36264F"/>
<path d="M37.7434 15.0171C37.7434 15.0171 30.5218 9.51571 27.6161 13.1824C23.7808 18.0216 21.1885 16.1914 19.8511 14.7179C19.8511 14.7179 21.0259 17.6541 16.084 22.3154C16.084 22.3154 22.6194 27.0944 26.2661 24.1474C29.9119 21.2004 36.0566 24.4996 36.8039 26.7817L37.7434 15.0171Z" fill="#FF875C"/>
<path d="M67.8617 50.1125C67.8617 50.1125 67.391 49.7504 66.7928 49.0433C66.1955 48.3371 66.7928 48.4269 66.7928 48.4269L67.6982 48.2805C67.6982 48.2805 68.8686 47.7647 69.5638 47.9193C69.7264 47.9552 69.8162 47.9399 69.977 47.9238C70.1216 47.9094 71.0072 48.6003 69.7632 48.462C69.4372 48.426 69.3464 48.5707 69.4551 48.6794C69.5638 48.7881 70.9497 48.8761 71.0674 49.2957C71.3916 50.4584 70.0084 50.9561 69.4372 50.771C68.883 50.5922 67.8617 50.1125 67.8617 50.1125Z" fill="#B97A59"/>
<path d="M52.5056 29.8851C52.5056 29.8851 53.0185 31.461 54.8383 31.2535C56.658 31.045 56.4353 32.4035 56.4353 32.4035C56.4353 32.4035 57.9667 31.0307 56.7434 29.886C55.5191 28.7404 55.0547 27.2508 52.5056 28.5158C49.9565 29.7809 50.5646 32.1565 51.2562 33.1088L51.4736 33.3272C51.6092 33.4628 51.8355 33.4368 51.9352 33.2733L51.9361 33.2715C51.9954 33.1744 51.9936 33.0531 51.9325 32.957C51.7547 32.6758 51.4376 32.0675 51.7385 31.7117C51.9227 31.4943 52.0655 31.5401 52.167 31.6533C52.3331 31.8402 52.5918 31.913 52.8227 31.8159L52.8406 31.8087C52.8406 31.8078 53.7029 30.9264 52.5056 29.8851Z" fill="#36264F"/>
</svg>
