<svg width="165" height="97" viewBox="0 0 165 97" fill="none" xmlns="http://www.w3.org/2000/svg">
<path d="M157.751 59.7569C158.361 58.8867 161.444 59.1169 161.444 59.1169C160.424 59.3872 159.774 60.0447 159.371 60.6568C157.069 59.9556 154.777 59.7726 154.777 59.7726C154.777 59.7726 155.818 59.2198 156.731 58.4263C157.562 58.149 158.584 58.1874 158.584 58.1874C157.48 59.1169 157.751 59.7569 157.751 59.7569Z" fill="#F0EEF9"/>
<path d="M156.731 58.4263C155.818 59.2198 154.777 59.7726 154.777 59.7726C154.777 59.7726 157.069 59.9557 159.371 60.6568C161.69 61.3648 164.02 62.5995 164.02 64.7026C164.02 68.8915 150.766 72.8675 150.766 72.8675C150.766 72.8675 156.87 77.6024 136.292 83.7061C123.955 87.3648 112.247 88.2036 104.846 88.2891L104.844 88.1234C104.959 85.5668 106.82 85.7988 106.82 85.7988C104.321 84.2292 101.471 86.4388 101.471 86.4388C101.937 84.0548 99.8441 83.4741 99.8441 83.4741C100.484 86.2051 99.3244 86.8486 99.3244 86.8486C98.3932 84.5362 94.1469 85.0088 94.1469 85.0088C96.4297 85.6943 96.9877 87.0561 97.0505 88.0815L96.8794 88.0658C96.8794 88.0658 81.533 93.472 53.8048 96.0878C26.0766 98.7037 2.35941 91.0305 0.266712 82.7818C-1.82598 74.5331 8.98627 74.2889 12.1253 72.8675C15.2644 71.4464 5.67284 70.8011 5.84723 68.8828C6.02162 66.9645 18.4034 63.6511 18.4034 63.6511C18.4034 63.6511 33.5754 60.3812 43.167 60.3812C52.7585 60.3812 47.9331 62.9535 47.9331 62.9535C47.9331 62.9535 131.583 51.7925 148.499 52.9591C160.124 53.7596 158.736 56.6772 156.731 58.4263Z" fill="#F0EEF9"/>
<path d="M106.819 85.7988C106.819 85.7988 104.959 85.5668 104.843 88.1234L104.845 88.2891C100.585 88.3377 97.751 88.1373 97.0501 88.0815C96.9873 87.0561 96.4291 85.6943 94.1465 85.0088C94.1465 85.0088 98.3929 84.5362 99.324 86.8486C99.324 86.8486 100.484 86.2053 99.8437 83.4741C99.8437 83.4741 101.936 84.0548 101.471 86.4388C101.471 86.4388 104.32 84.2292 106.819 85.7988Z" fill="#F0EEF9"/>
<path d="M149.72 57.8962C149.774 56.9834 149.273 56.0277 149.193 55.1253C149.126 54.3675 149.153 53.51 149.197 52.7495C149.231 52.1721 149.396 51.0703 150.065 50.829C150.893 50.5304 151.05 51.405 151.702 50.4844C152.645 49.1527 151.766 47.3945 152.228 45.9481C152.398 45.4146 153.063 44.6611 153.736 44.9869C154.493 45.3536 153.878 46.2242 154.952 45.8626C155.35 45.7287 155.644 45.288 156.151 45.1829C156.586 45.0925 157.295 45.0934 157.74 45.1635C158.733 45.3201 160.006 46.0967 160.513 46.9964C161.702 49.1051 159.087 48.9595 157.742 49.1745C157.212 49.2593 156.176 49.4059 155.887 49.9375C155.377 50.8766 156.778 51.1371 157.306 51.7007C159.228 53.754 155.313 53.4757 154.323 53.4471C153.61 53.4267 152.905 53.4563 152.664 54.2339C152.416 55.033 153.238 55.4915 153.016 56.3287C152.707 57.4986 150.784 58.4404 149.72 57.8962Z" fill="#674790"/>
<path d="M69.5002 62.2559C69.5679 61.3392 70.2 60.6923 70.1974 59.751C70.1957 59.1033 70.0134 58.4467 69.6793 57.8942C69.2212 57.1367 68.5893 56.8186 67.7563 56.6759C67.1361 56.5697 66.323 56.6902 66.0954 55.8905C66.0138 55.6038 66.2476 55.1511 66.274 54.8445C66.3139 54.3806 66.2295 54.0472 66.0999 53.6237C65.5726 51.9018 64.0627 51.8115 62.9799 53.1053C61.6831 54.6549 60.9742 56.2368 62.7861 57.6585C63.4232 58.1583 64.5245 58.7083 64.7723 59.5529C65.0865 60.6241 63.8982 60.4409 63.5008 61.3161C62.9204 62.5946 63.8914 62.6337 64.7916 62.7791C66.2858 63.0205 64.9343 63.5032 65.1556 64.4207C65.9506 64.6664 67.9301 65.9994 68.7151 65.5755C69.6343 65.0793 70.2593 62.4985 69.7618 61.6456" fill="#8C68BF"/>
<path d="M150.767 26.3575V67.0081L125.159 73.6349V31.38L150.767 26.3575Z" fill="#F4AC38"/>
<path d="M150.767 26.3575L125.159 31.38L103.622 20.3933L126.875 16.0684L150.767 26.3575Z" fill="#FFC962"/>
<path d="M125.159 31.38V73.6349L114.815 67.8138V48.6883L103.622 43.8681V20.3933L125.159 31.38Z" fill="#E28529"/>
<path d="M114.814 67.8138V75.5097L89.2061 82.1366V53.7108L103.621 50.8839V61.5148L114.814 67.8138Z" fill="#F4AC38"/>
<path d="M114.815 48.6883V67.8138L103.622 61.5148V50.8839L114.815 48.6883Z" fill="#F4AC38"/>
<path d="M114.814 48.6883L103.621 50.8839V43.8681L114.814 48.6883ZM103.621 43.8681V50.8839L89.2063 53.7108L67.6689 42.7241L90.9223 38.3992L103.621 43.8681Z" fill="#FFC962"/>
<path d="M89.2063 53.7108V82.1365L76.024 74.7179V72.8676L67.6689 68.5236V42.7241L89.2063 53.7108Z" fill="#E28529"/>
<path d="M76.0246 74.718V85.9819L50.417 92.6088V77.8902L73.5866 73.3455L76.0246 74.718ZM76.0246 72.8677V74.718L73.5866 73.3455L76.0246 72.8677Z" fill="#F4AC38"/>
<path d="M76.024 72.8676L73.586 73.3455L67.6689 70.0163V68.5236L76.024 72.8676Z" fill="#FFC962"/>
<path d="M73.5868 73.3455L50.4172 77.8902L28.8799 66.9035L54.3863 61.616L67.6697 68.5236V70.0164L73.5868 73.3455Z" fill="#FFC962"/>
<path d="M50.4172 77.8901V92.6087L28.8799 80.4885V66.9034L50.4172 77.8901Z" fill="#E28529"/>
<path d="M112.924 0.608643L104.989 12.7288V7.23551L59.9036 34.6882L58.6602 29.4809L103.245 3.92208L100.804 1.04462L112.924 0.608643Z" fill="#FF875C"/>
<path d="M60.7808 67.8365C62.0888 68.1853 62.3504 69.842 62.2632 70.06C62.176 70.278 51.6253 70.1472 51.4509 70.06C51.2765 69.9728 52.2339 65.9688 52.2339 65.9688C52.9803 66.4553 55.6816 66.4902 56.5955 66.4883L56.4211 67.3567C56.4211 67.3567 59.4729 67.4877 60.7808 67.8365Z" fill="#36264F"/>
<path d="M44.9776 46.1526C44.9776 46.1526 60.5194 53.9288 60.4322 56.0214C60.345 58.1141 56.9007 66.4849 56.9007 66.4849C56.9007 66.4849 56.7874 66.4884 56.5956 66.4884C55.6818 66.4903 52.9804 66.4555 52.234 65.9689C52.1503 65.9148 52.091 65.8538 52.0614 65.7875L54.2413 57.6783L39.6796 53.9689L39.5732 53.9321L41.434 48.5381V48.5364C43.9487 47.4081 44.9985 46.299 44.9985 46.299L44.9776 46.1526Z" fill="#563C76"/>
<path d="M58.8196 48.5366C59.43 49.5916 59.4945 53.1876 58.9713 52.9469C58.4481 52.708 57.0111 49.6788 56.8141 49.6335C56.8141 49.6335 57.2727 51.5971 56.9885 51.5309C56.7844 51.4838 55.6997 50.5368 55.0771 49.6649C55.0928 49.3806 55.1678 49.0545 55.3387 48.6953C55.7799 47.7675 55.8026 46.5346 55.759 45.7411C56.6502 46.4108 58.3731 47.7658 58.8196 48.5366Z" fill="#FDA181"/>
<path d="M55.7588 45.7411C55.8024 46.5346 55.7797 47.7675 55.3385 48.6953C55.1676 49.0545 55.0926 49.3806 55.077 49.6649C54.8293 49.3198 54.6549 48.9865 54.6357 48.7249C55.5862 47.403 55.3385 45.8562 55.2165 45.3417H55.2182C55.2182 45.3417 55.4327 45.4952 55.7588 45.7411Z" fill="#F77556"/>
<path d="M55.2156 45.3418C55.3377 45.8562 55.5853 47.4031 54.6349 48.725C54.5686 48.8191 54.4954 48.9116 54.4152 49.0022C54.4152 49.0022 49.4904 46.1283 46.4176 42.9247C46.4176 42.923 46.4159 42.9212 46.4159 42.9212C45.3765 40.2461 44.9353 33.5773 44.7731 30.2133C44.5656 32.4002 44.311 36.1444 44.4644 40.2966C44.5342 42.201 44.6894 44.189 44.9771 46.1527L44.9981 46.2992C44.9981 46.2992 43.9482 47.4083 41.4335 48.5366V48.5384C39.0862 49.5899 35.4606 50.659 30.2184 50.8578C30.2184 50.8578 30.1364 45.912 30.2777 41.5226C30.8828 39.0619 32.0129 35.1538 32.7227 32.742C32.0826 33.9906 31.2839 35.5567 30.555 37.0059C29.6202 38.8614 28.7971 40.5286 28.5617 41.0971C27.9374 42.6073 26.7445 47.9855 26.7445 47.9855C26.4899 48.0832 26.2266 48.1582 25.9598 48.214C24.7268 48.4756 23.4677 48.3396 23.1015 48.2907C23.0317 48.282 22.9951 48.275 22.9951 48.275C22.9951 48.275 23.6055 42.2306 24.0415 40.9802C24.4774 39.7299 28.8093 27.6393 29.4197 26.8249C29.8696 26.2267 32.2065 25.1403 33.4098 24.6067L38.3102 26.0053L39.5658 28.0195H39.564L38.6467 29.9064L37.4417 42.2882L38.2387 44.7297L39.9407 42.405L41.0167 29.9064L40.0209 28.0195L40.8039 25.8605L44.5045 24.5229C45.1149 24.7549 45.7305 25.0357 45.87 25.2554C46.1612 25.721 47.5267 37.1733 47.5267 37.1733C47.5267 37.1733 52.0033 43.4793 55.1703 45.1656C55.1703 45.1656 55.1912 45.2284 55.2156 45.3418Z" fill="#8C68BF"/>
<path d="M46.4166 42.9212C45.5847 42.0545 44.8889 41.1616 44.4652 40.2966C44.3117 36.1443 44.5663 32.4002 44.7738 30.2133C44.936 33.5773 45.3772 40.246 46.4166 42.9212ZM44.5053 24.5229L40.8047 25.8605L40.8919 25.6198L43.1677 24.0643C43.1677 24.0643 43.8321 24.2648 44.5053 24.5229Z" fill="#674790"/>
<path d="M44.5049 17.2055C44.5049 17.2055 43.8998 17.8734 43.2545 18.1925L42.9424 15.6987C42.9616 15.7458 42.979 15.7842 42.993 15.8103C43.2249 16.2167 44.5049 17.2055 44.5049 17.2055Z" fill="#F77556"/>
<path d="M43.2581 18.7732C43.3087 18.822 43.3122 18.9023 43.2633 18.9546C43.2494 18.9685 43.0227 19.204 42.4315 19.204C42.1472 19.204 41.7775 19.1499 41.3084 18.9895C41.2757 18.9782 41.2487 18.9545 41.2333 18.9235C41.218 18.8925 41.2155 18.8566 41.2264 18.8238C41.2491 18.7558 41.3241 18.7191 41.3921 18.7418C42.6547 19.1708 43.0698 18.7784 43.0732 18.775C43.1238 18.7244 43.2058 18.7226 43.2581 18.7732Z" fill="black"/>
<path d="M43.2551 18.1925C43.2551 18.1925 43.6335 20.8677 43.2551 20.9828C42.8767 21.0996 40.7264 21.5653 40.7264 21.5653C40.7264 21.5653 39.4882 21.6228 38.7331 21.1432C38.7331 21.1432 39.5946 22.3448 40.9008 22.6796C40.9618 23.0493 41.0281 23.4121 41.0752 23.5987L39.6801 26.4482L36.5707 23.1348C36.5707 22.8732 36.2969 20.9444 36.2969 20.9444L37.7914 20.4893L37.7042 18.6285C37.7042 18.6285 36.8602 18.6878 36.6579 17.4671C36.4538 16.2463 37.3258 16.2254 37.6449 16.555C37.9658 16.8846 38.1977 17.1758 38.1977 17.1758L38.9528 16.8567L38.4593 14.6768C38.4593 14.6768 37.706 14.56 37.6746 13.7456C37.617 12.2353 42.0047 12.1481 42.0047 12.1481C42.0047 12.1481 42.146 12.7533 42.3238 13.4752C41.5269 13.2049 40.6444 14.0193 40.6078 14.0542C40.5909 14.0697 40.5772 14.0883 40.5676 14.1091C40.558 14.1299 40.5526 14.1524 40.5518 14.1753C40.551 14.1982 40.5548 14.2211 40.5629 14.2425C40.571 14.2639 40.5833 14.2835 40.5991 14.3001C40.634 14.3367 40.6793 14.3559 40.7264 14.3559C40.77 14.3559 40.8119 14.3402 40.845 14.3088C41.07 14.0978 41.764 13.6026 42.2733 13.8258C42.3186 13.8467 42.3692 13.845 42.4128 13.8275C42.6029 14.5809 42.8139 15.3726 42.9429 15.6987L43.2551 18.1925ZM43.2638 18.9546C43.287 18.9298 43.2994 18.8968 43.2984 18.8629C43.2975 18.8289 43.2831 18.7967 43.2586 18.7733C43.2337 18.7492 43.2004 18.7358 43.1658 18.7362C43.1312 18.7365 43.0981 18.7504 43.0737 18.775C43.0702 18.7785 42.6552 19.1709 41.3926 18.7419C41.3597 18.7309 41.3239 18.7334 41.2929 18.7488C41.2619 18.7641 41.2382 18.7911 41.2269 18.8238C41.2042 18.8918 41.2409 18.9668 41.3089 18.9895C41.778 19.1499 42.1477 19.204 42.432 19.204C43.0231 19.204 43.2498 18.9686 43.2638 18.9546ZM42.343 15.3883C42.343 15.1721 42.2454 14.9959 42.125 14.9959C42.0047 14.9959 41.907 15.1721 41.907 15.3883C41.907 15.6046 42.0047 15.7807 42.125 15.7807C42.2454 15.7807 42.343 15.6046 42.343 15.3883Z" fill="#FDA181"/>
<path d="M43.1675 24.0643L40.8917 25.6198L40.2447 26.0628H40.243L39.6797 26.4482L41.0748 23.5986L43.1675 24.0643Z" fill="#8C68BF"/>
<path d="M42.4122 13.5084C42.5011 13.5467 42.5412 13.6496 42.5011 13.7368C42.4837 13.7787 42.4505 13.81 42.4122 13.8275C42.3808 13.7072 42.3511 13.5886 42.3232 13.4752C42.3529 13.4839 42.3825 13.4944 42.4122 13.5084Z" fill="black"/>
<path d="M42.3239 13.4752C42.3518 13.5886 42.3814 13.7072 42.4128 13.8275C42.3692 13.8449 42.3186 13.8467 42.2733 13.8257C41.7641 13.6025 41.07 14.0978 40.845 14.3088C40.8119 14.3402 40.77 14.3559 40.7264 14.3559C40.6794 14.3559 40.634 14.3367 40.5991 14.3001C40.5834 14.2835 40.571 14.2639 40.5629 14.2425C40.5548 14.221 40.5511 14.1982 40.5519 14.1753C40.5527 14.1524 40.558 14.1299 40.5677 14.1091C40.5773 14.0883 40.5909 14.0697 40.6079 14.0542C40.6445 14.0193 41.5269 13.2049 42.3239 13.4752Z" fill="black"/>
<path d="M42.1242 15.7807C42.2446 15.7807 42.3422 15.6051 42.3422 15.3884C42.3422 15.1716 42.2446 14.996 42.1242 14.996C42.0038 14.996 41.9062 15.1716 41.9062 15.3884C41.9062 15.6051 42.0038 15.7807 42.1242 15.7807Z" fill="#231F20"/>
<path d="M42.2654 11.0145C42.4119 11.8569 42.0038 12.1481 42.0038 12.1481C42.0038 12.1481 37.6162 12.2353 37.6737 13.7455C37.7051 14.5599 38.4585 14.6768 38.4585 14.6768L38.952 16.8567L38.1969 17.1758C38.1969 17.1758 37.9649 16.8846 37.6441 16.555C37.3249 16.2254 36.453 16.2463 36.657 17.467C36.8593 18.6878 37.7034 18.6285 37.7034 18.6285L37.7906 20.4892L36.296 20.9444L36.0745 21.0124C36.0745 21.0124 36.0466 20.6933 35.7851 19.6748C35.5235 18.6581 33.1971 15.9254 32.9948 15.6359C32.7908 15.3447 33.5755 14.5599 33.5755 14.5599C32.4123 12.612 35.0003 10.2577 37.8778 9.67696C40.7552 9.09624 42.1207 10.1705 42.2654 11.0145Z" fill="#36264F"/>
<path d="M41.4342 48.5383L39.5735 53.9323L35.1317 66.8095L34.7393 66.6734L34.129 54.4225L32.2979 53.7685L29.8721 53.8852L30.2191 50.8577C35.4613 50.6589 39.0869 49.5899 41.4342 48.5383Z" fill="#674790"/>
<path d="M40.0216 28.0195L41.0174 29.9064L39.9414 42.405L38.2393 44.7297L37.4424 42.2882L38.6474 29.9064L39.5647 28.0195H39.5665L39.8542 28.4816L40.0216 28.0195ZM40.8918 25.6199L40.8046 25.8605L40.2448 26.0628L40.8918 25.6199Z" fill="#36264F"/>
<path d="M40.8053 25.8605L40.0223 28.0194L39.8549 28.4816L39.5671 28.0194L38.3115 26.0052L39.166 26.2494H39.1678L39.6805 26.4482L40.2438 26.0628H40.2455L40.8053 25.8605Z" fill="#36264F"/>
<path d="M40.7267 21.5652C40.7267 21.5652 40.8104 22.1285 40.9011 22.6796C39.5949 22.3447 38.7334 21.1432 38.7334 21.1432C39.4885 21.6228 40.7267 21.5652 40.7267 21.5652Z" fill="#F77556"/>
<path d="M36.5704 23.1348L39.6798 26.4482L39.1671 26.2494H39.1653L38.2393 25.8901L34.1289 24.2962L36.5704 23.1348Z" fill="#8C68BF"/>
<path d="M39.1653 26.2494L38.3108 26.0052L38.2393 25.8901L39.1653 26.2494Z" fill="#36264F"/>
<path d="M38.239 25.8901L38.3105 26.0052L33.4102 24.6066C33.8426 24.4165 34.1286 24.2962 34.1286 24.2962L38.239 25.8901Z" fill="#674790"/>
<path d="M35.9307 82.7818C36.9334 83.3416 36.8462 84.5344 36.4102 84.8396C35.9743 85.1448 26.034 84.9704 25.8596 84.8396C25.6852 84.7088 26.3409 80.5548 26.3409 80.5548C29.0736 80.9594 30.4687 80.8879 31.0931 80.7955L31.0041 81.7878C31.0041 81.7878 34.9279 82.2237 35.9307 82.7818Z" fill="#36264F"/>
<path d="M35.1313 66.8093L34.4913 68.6648L31.5267 80.6978C31.5267 80.6978 31.4063 80.7484 31.0924 80.7955C30.4681 80.8879 29.073 80.9594 26.3403 80.5548C26.2688 80.5461 26.1973 80.5339 26.124 80.5234L28.8672 67.1093V67.0203L32.7335 66.9942L34.7389 66.6733L35.1313 66.8093Z" fill="#674790"/>
<path d="M34.129 54.4223L34.7393 66.6733L32.7338 66.9941L32.2979 53.7683L34.129 54.4223Z" fill="#E28529"/>
<path d="M32.2981 53.7683L32.734 66.9941L28.8678 67.0203L15.7588 67.1092L16.1093 54.5531C16.1093 54.5531 20.4848 59.1378 23.3274 59.7709V59.7726L23.4913 61.3543H24.6248V59.7726L24.6126 59.7307C27.3732 58.8815 32.2981 53.7683 32.2981 53.7683Z" fill="#F4AC38"/>
<path d="M29.8714 53.8851L32.2971 53.7683C32.2971 53.7683 27.3723 58.8815 24.6117 59.7306C24.4949 59.7654 24.3833 59.7951 24.2751 59.8143C23.9874 59.8666 23.6683 59.8474 23.3265 59.7707C20.4839 59.1376 16.1084 54.5529 16.1084 54.5529L20.8937 54.321H21.0942V54.3105L28.6925 53.9425L29.8714 53.8851Z" fill="#FFC962"/>
<path d="M30.5556 37.0058C31.2846 35.5566 32.0833 33.9906 32.7233 32.7419C32.0135 35.1538 30.8835 39.0619 30.2783 41.5225C30.3306 39.8292 30.4178 38.2178 30.5556 37.0058Z" fill="#674790"/>
<path d="M28.693 51.0652V53.939L27.9658 53.9689L28.053 51.7853L26.126 51.815L26.5131 51.1523L27.0956 51.0947L28.693 51.0652Z" fill="#E28529"/>
<path d="M26.8614 49.555C27.2102 50.3398 27.0951 51.0949 27.0951 51.0949L26.5127 51.1525L26.1255 51.8151H26.1238C26.0924 51.871 26.0575 51.9302 26.0191 51.9965C25.5239 52.8388 24.8856 53.2748 23.9543 53.0429C23.6492 52.9663 23.4521 52.4273 23.3265 51.7386C23.2778 51.468 23.2394 51.1957 23.2114 50.9223C23.1277 50.1218 23.1051 49.2832 23.1016 48.7738C23.5375 48.7319 25.2134 48.5959 26.4499 48.8278C26.5911 49.0319 26.7394 49.2795 26.8614 49.555Z" fill="#FDA181"/>
<path d="M25.9604 48.214C25.9604 48.214 26.1923 48.4477 26.4504 48.8278C25.214 48.5959 23.5381 48.7319 23.1021 48.7738C23.0986 48.4756 23.1021 48.2907 23.1021 48.2907C23.4684 48.3396 24.7275 48.4756 25.9604 48.214Z" fill="#F77556"/>
<path d="M24.6246 59.7726V61.3544H23.4911L23.3271 59.7726V59.7709C23.669 59.8476 23.9881 59.8668 24.2758 59.8145C24.384 59.7953 24.4956 59.7657 24.6124 59.7308L24.6246 59.7726Z" fill="white"/>
<path d="M23.3274 51.7384L21.1946 51.6181L21.0952 54.3107L20.8946 54.3211H20.5127C20.5127 54.3211 20.6417 51.0653 20.6417 50.9223C20.6417 50.781 23.1338 50.9172 23.2123 50.9223C23.2419 51.2048 23.2803 51.4821 23.3274 51.7384Z" fill="#E28529"/>
<path d="M30.5556 37.1366C30.5332 37.1366 30.5112 37.1309 30.4917 37.1199C30.4721 37.109 30.4557 37.0932 30.4441 37.0741C30.4324 37.055 30.4258 37.0333 30.4249 37.0109C30.424 36.9885 30.4289 36.9663 30.4391 36.9464L33.3295 31.2712C33.3452 31.2402 33.3726 31.2168 33.4056 31.2061C33.4386 31.1954 33.4745 31.1982 33.5054 31.214C33.5363 31.2297 33.5597 31.2571 33.5705 31.2901C33.5812 31.3231 33.5784 31.359 33.5626 31.3899L30.6723 37.0651C30.6613 37.0867 30.6446 37.1047 30.624 37.1174C30.6034 37.13 30.5797 37.1366 30.5556 37.1366ZM44.4936 40.474H44.4912C44.474 40.4736 44.4571 40.4699 44.4413 40.4631C44.4256 40.4562 44.4113 40.4463 44.3994 40.4339C44.3875 40.4216 44.3781 40.407 44.3719 40.391C44.3656 40.375 44.3625 40.3579 44.3629 40.3407C44.3697 39.9684 44.5282 31.2047 44.6776 29.8584C44.6825 29.8248 44.7002 29.7943 44.7271 29.7735C44.754 29.7527 44.7879 29.7432 44.8217 29.747C44.8555 29.7507 44.8865 29.7675 44.9082 29.7937C44.9299 29.8199 44.9405 29.8535 44.9378 29.8874C44.7896 31.2216 44.6262 40.2544 44.6246 40.3456C44.6239 40.3799 44.6098 40.4125 44.5853 40.4365C44.5608 40.4605 44.5279 40.4739 44.4936 40.474ZM67.6697 65.5432C67.6504 65.5432 67.6313 65.539 67.6138 65.5308C67.5963 65.5225 67.5808 65.5105 67.5685 65.4956C67.5563 65.4806 67.5474 65.4632 67.5427 65.4444C67.538 65.4257 67.5374 65.4061 67.5412 65.3871C67.5476 65.3538 68.1608 61.9914 65.2638 57.5608C65.2543 57.5464 65.2477 57.5303 65.2445 57.5134C65.2412 57.4965 65.2414 57.4791 65.2449 57.4622C65.2484 57.4453 65.2552 57.4293 65.2649 57.415C65.2746 57.4008 65.287 57.3886 65.3014 57.3792C65.3159 57.3698 65.332 57.3633 65.349 57.3601C65.3659 57.357 65.3833 57.3572 65.4002 57.3608C65.417 57.3644 65.433 57.3713 65.4472 57.381C65.4614 57.3908 65.4735 57.4033 65.4828 57.4178C68.4426 61.9445 67.8254 65.2973 67.7977 65.4377C67.7919 65.4674 67.776 65.4942 67.7526 65.5134C67.7293 65.5327 67.7 65.5432 67.6697 65.5432ZM150.767 57.6782C150.749 57.6782 150.73 57.6743 150.714 57.6668C150.697 57.6593 150.682 57.6482 150.669 57.6345C150.657 57.6207 150.648 57.6045 150.642 57.5869C150.637 57.5693 150.635 57.5507 150.637 57.5324C150.647 57.4483 151.662 49.0967 156.643 46.8945C156.659 46.8876 156.676 46.8838 156.693 46.8834C156.71 46.883 156.727 46.8859 156.743 46.8921C156.759 46.8983 156.774 46.9076 156.786 46.9195C156.799 46.9313 156.809 46.9455 156.816 46.9612C156.823 46.9769 156.827 46.9939 156.827 47.011C156.827 47.0282 156.824 47.0453 156.818 47.0613C156.812 47.0773 156.803 47.092 156.791 47.1044C156.779 47.1169 156.765 47.1268 156.749 47.1338C151.903 49.276 150.906 57.4797 150.897 57.5624C150.893 57.5942 150.878 57.6236 150.854 57.645C150.83 57.6664 150.799 57.6782 150.767 57.6782Z" fill="#231F20"/>
<path d="M116.673 78.9103C116.097 77.9388 114.379 76.4071 115.428 75.0498C115.79 74.5818 116.631 74.771 116.852 74.0317C117.053 73.3589 116.405 72.7166 116.411 72.0219C116.419 71.1611 116.702 70.7861 117.477 70.7774C118.443 70.7666 118.27 71.1239 118.698 70.1055C119.262 68.763 121.041 67.1912 121.97 69.2314C122.332 70.027 122.101 70.2398 121.735 70.8184C121.255 71.5763 121.009 71.8543 121.558 72.6104C121.9 73.0813 122.765 73.4297 122.519 74.2012C122.254 75.0338 121.372 74.6363 120.771 74.8076C118.861 75.3512 120.364 77.1467 119.903 78.3041C119.522 79.2608 117.034 79.4422 116.586 78.6487" fill="#8C68BF"/>
<path d="M116.499 81.3954C116.466 81.3954 116.434 81.3831 116.41 81.3608C116.386 81.3385 116.371 81.308 116.369 81.2752C116.365 81.2322 116.047 76.9118 118.751 73.553C118.762 73.5397 118.776 73.5285 118.791 73.5203C118.806 73.5121 118.822 73.5069 118.839 73.5051C118.856 73.5032 118.874 73.5048 118.89 73.5096C118.907 73.5145 118.922 73.5225 118.935 73.5333C118.949 73.5441 118.96 73.5574 118.968 73.5725C118.976 73.5876 118.982 73.6042 118.983 73.6212C118.985 73.6383 118.984 73.6556 118.979 73.6721C118.974 73.6886 118.966 73.7039 118.955 73.7173C116.318 76.9927 116.626 81.2121 116.629 81.2543C116.632 81.2889 116.621 81.3232 116.599 81.3496C116.576 81.376 116.544 81.3924 116.509 81.3952L116.499 81.3954Z" fill="#231F20"/>
<path d="M112.575 78.5615C112.03 78.8588 111.195 79.208 110.59 78.8861C109.707 78.4168 110.425 78.0293 110.223 77.4255C110.003 76.77 108.889 76.6681 108.385 76.229C107.646 75.5839 107.846 74.8283 108.305 74.0273C108.815 73.1385 109.292 73.2612 110.221 73.7443C110.844 74.0685 112.09 74.9525 112.403 75.6162C112.539 75.9061 112.341 76.3766 112.482 76.6448C112.637 76.9414 113.155 76.8868 113.362 77.1836C113.825 77.8502 113.038 78.3939 112.488 78.5613" fill="#674790"/>
<path d="M113.272 81.3954C113.241 81.3953 113.21 81.3838 113.186 81.3629C113.162 81.342 113.147 81.3132 113.143 81.2818C113.137 81.2361 112.516 76.7184 110.426 75.7147C110.41 75.7077 110.395 75.6974 110.383 75.6847C110.371 75.6719 110.362 75.6569 110.356 75.6404C110.35 75.624 110.347 75.6065 110.348 75.589C110.349 75.5715 110.353 75.5544 110.361 75.5386C110.368 75.5228 110.379 75.5086 110.392 75.497C110.405 75.4854 110.42 75.4766 110.437 75.4711C110.454 75.4655 110.471 75.4633 110.489 75.4647C110.506 75.466 110.523 75.4709 110.539 75.479C112.757 76.5436 113.377 81.0558 113.402 81.2473C113.404 81.2658 113.403 81.2846 113.398 81.3025C113.392 81.3203 113.383 81.3368 113.371 81.3508C113.358 81.3649 113.343 81.3761 113.326 81.3838C113.309 81.3915 113.291 81.3954 113.272 81.3954Z" fill="#231F20"/>
<path d="M14.6254 80.8675C16.359 80.8675 17.7644 80.4825 17.7644 80.0074C17.7644 79.5324 16.359 79.1473 14.6254 79.1473C12.8917 79.1473 11.4863 79.5324 11.4863 80.0074C11.4863 80.4825 12.8917 80.8675 14.6254 80.8675Z" fill="white"/>
<path d="M19.4195 83.5495C20.7999 83.5495 21.919 83.2058 21.919 82.782C21.919 82.3581 20.7999 82.0145 19.4195 82.0145C18.039 82.0145 16.9199 82.3581 16.9199 82.782C16.9199 83.2058 18.039 83.5495 19.4195 83.5495Z" fill="white"/>
<path d="M21.9196 73.2492C22.6061 73.2492 23.1625 73.0784 23.1625 72.8676C23.1625 72.6569 22.6061 72.4861 21.9196 72.4861C21.2332 72.4861 20.6768 72.6569 20.6768 72.8676C20.6768 73.0784 21.2332 73.2492 21.9196 73.2492Z" fill="white"/>
<path d="M133.131 76.5736C133.817 76.5736 134.373 76.4028 134.373 76.1921C134.373 75.9813 133.817 75.8105 133.131 75.8105C132.444 75.8105 131.888 75.9813 131.888 76.1921C131.888 76.4028 132.444 76.5736 133.131 76.5736Z" fill="white"/>
</svg>
