<svg width="115" height="97" viewBox="0 0 115 97" fill="none" xmlns="http://www.w3.org/2000/svg">
<path d="M83.0696 6.70779C70.6052 9.18507 61.1645 18.8725 49.1262 22.7783C30.7023 28.6015 4.10977 33.5871 0.567606 53.9821C-6.79461 96.3731 59.4759 103.08 82.7063 85.4087C112.52 62.7289 90.7547 38.2911 110.892 20.0282C125.829 6.48132 91.8502 4.21297 83.0696 6.70779Z" fill="#E5E0F4"/>
<path d="M51.7127 23.8859C56.457 20.4066 57.8045 14.632 60.2478 18.615C62.6934 22.5975 57.6909 30.9017 62.5725 31.9419C67.4559 32.979 66.0818 23.6061 69.6356 25.4576C73.1913 27.3055 68.34 35.473 70.057 40.2804C70.083 40.3531 70.1144 40.4108 70.1432 40.4762C68.1742 41.6224 66.1596 42.6912 64.1562 43.7786C62.9519 43.1576 62.016 42.4366 61.7395 41.2224C60.7054 36.6945 60.6294 33.9451 50.9173 28.8916C44.3826 25.4916 43.0059 19.5515 42.8018 16.0259C46.2866 13.3722 47.343 27.0915 51.7127 23.8859Z" fill="#9D84CE"/>
<path d="M42.8015 16.0259C43.0056 19.5515 44.3827 25.4916 50.9171 28.8915C60.6292 33.9451 60.7051 36.6941 61.7393 41.2224C62.0157 42.4369 62.9517 43.1576 64.156 43.7786C62.9075 44.4565 61.6648 45.144 60.4433 45.8665C58.9939 43.4743 50.7568 43.5057 48.4628 40.2617C45.6016 36.213 51.536 33.0531 49.4418 31.4353C47.3479 29.8178 37.5653 23.2999 41.8466 17.0936C42.184 16.6045 42.5013 16.2542 42.8015 16.0259Z" fill="#8C68BF"/>
<path d="M12.2268 80.2901C13.4556 75.0101 10.933 70.1647 15.0306 71.4823C19.1296 72.798 20.6151 81.6054 24.6514 79.4025C28.6869 77.1958 22.1032 71.4691 25.6979 70.6297C29.292 69.787 30.8012 78.4082 34.8856 80.7379C34.9474 80.7733 35.004 80.7945 35.0635 80.823C34.3748 82.8061 33.6079 84.7625 32.86 86.7254C31.6455 87.0144 30.5587 87.0721 29.637 86.3894C26.1975 83.8453 24.4947 81.9689 14.6741 84.2668C8.06638 85.813 3.54008 82.4875 1.28223 80.1458C2.12614 76.1986 11.0955 85.154 12.2268 80.2901Z" fill="#9D84CE"/>
<path d="M1.28222 80.1458C3.54044 82.4875 8.06673 85.813 14.6741 84.2668C24.4947 81.9688 26.1975 83.8449 29.637 86.3894C30.5591 87.0721 31.6458 87.0143 32.86 86.7254C32.3941 87.9487 31.938 89.1753 31.5177 90.4139C29.0692 89.6118 23.3305 94.5788 19.7807 93.6882C15.3519 92.576 17.6035 86.8047 15.1697 86.9311C12.7354 87.0574 1.987 88.3739 1.25593 81.4659C1.1975 80.9209 1.20919 80.4855 1.28222 80.1458Z" fill="#8C68BF"/>
<path d="M83.1975 53.1997C85.8731 63.0343 84.041 64.8219 81.5977 68.3881C79.2065 71.8731 86.8134 77.2043 79.5695 83.5356L79.2471 84.6423C79.2471 84.6423 93.905 89.0033 95.8485 82.4175C97.7937 75.8327 85.2874 77.6919 87.493 73.4836C89.6961 69.2742 98.3437 67.4373 97.3625 63.8382C96.3849 60.2381 90.8434 67.095 88.4698 63.0993C86.0995 59.1028 94.9359 57.2831 96.1151 53.0959C97.2964 48.9099 92.4969 51.6334 87.1231 50.584C82.1728 49.6178 90.8869 40.2347 86.8718 39.5253C84.5895 41.8908 81.3976 46.5828 83.1975 53.1997Z" fill="#9D84CE"/>
<path d="M73.8738 58.6985C72.9127 63.2151 81.3021 70.8526 75.7862 71.6456C70.2681 72.4375 71.2128 78.7523 71.2128 78.7523L79.5705 83.5356C86.8144 77.2039 79.2075 71.8731 81.5987 68.3881C84.042 64.8219 85.8741 63.0346 83.1985 53.1997C81.3982 46.5828 84.5905 41.8908 86.8725 39.5253C86.527 39.464 86.087 39.468 85.5392 39.5465C78.5929 40.5353 80.3118 51.3426 80.5273 53.7965C80.7431 56.2504 74.8361 54.1855 73.8738 58.6985Z" fill="#8C68BF"/>
<path d="M16.7216 84.6347C16.6953 84.6285 15.3362 84.3023 13.7762 83.4198C13.7725 83.4117 13.7725 83.403 13.7674 83.396C13.5724 83.1312 13.5969 82.5135 13.633 82.0686C14.0351 81.6402 15.1751 80.3157 15.0134 79.2319C14.8173 77.9202 12.4466 78.3246 12.5229 79.5041C12.5941 80.6079 12.8829 81.23 13.388 82.042C13.3577 82.4076 13.3383 82.8646 13.4281 83.2156C12.0799 82.393 10.6466 81.1547 9.82573 79.3514C9.60663 78.8696 9.36014 78.447 9.09795 78.0715C9.32399 77.5473 9.96085 75.8886 9.43354 74.9166C8.80143 73.751 6.71155 74.9411 7.18591 76.0234C7.23338 76.1315 7.28158 76.2298 7.33015 76.3266C6.43512 75.7308 5.54958 75.4649 4.91199 75.3476C4.67645 75.1504 3.24133 73.9965 2.18562 74.2441C1.03277 74.5148 1.56556 76.5965 2.60995 76.4423C3.53785 76.3054 4.06516 76.0248 4.70275 75.5617C5.41446 75.672 6.55088 75.9847 7.63872 76.8598C7.95021 77.3252 8.30698 77.6671 8.76637 78.0342C9.06946 78.4397 9.35283 78.9076 9.60115 79.4533C9.8732 80.0509 10.2114 80.5856 10.5897 81.0674C10.0025 80.9191 9.13958 80.9199 8.66412 80.9352C8.14448 80.613 6.65057 79.7787 5.63393 80.1426C4.38578 80.5889 5.24137 82.8372 6.38363 82.5336C7.45796 82.2484 8.01412 81.8385 8.7178 81.1799C9.55843 81.1573 10.6769 81.2165 10.9307 81.4835C10.9344 81.4875 10.9395 81.4889 10.9435 81.4922C13.2324 84.055 16.6252 84.8652 16.6669 84.8747C16.7227 84.8878 16.779 84.8601 16.8042 84.8107C16.8085 84.802 16.8122 84.7925 16.8144 84.7823C16.8294 84.7158 16.7877 84.65 16.7216 84.6347Z" fill="#8C68BF"/>
<path d="M87.0402 75.3246C86.9964 76.2451 85.853 77.1528 85.4302 77.4582C85.2877 77.838 85.0077 78.5193 84.6998 78.9346C85.2027 78.7929 85.7347 78.6997 86.2942 78.6793C86.805 78.6606 87.2662 78.5894 87.6847 78.482C88.1237 78.2391 88.5093 78.0685 88.9774 77.9739C90.0215 77.3997 90.6371 76.6049 90.9556 76.0793C90.7974 75.4254 90.7478 74.918 90.9413 74.1415C91.159 73.2674 92.9742 73.5231 92.8128 74.521C92.6649 75.4345 91.2886 76.1918 91.0563 76.3134C90.7565 76.7784 90.2592 77.3906 89.4985 77.9031C89.5906 77.8961 89.6837 77.8899 89.7845 77.8877C90.7923 77.8651 91.0516 79.9011 89.9269 80.0209C88.9887 80.121 87.8878 79.0796 87.5478 78.7308C87.1665 78.8159 86.7532 78.8729 86.3018 78.8893C84.6129 78.951 83.1701 79.6794 82.0834 80.476C82.389 80.5191 82.7436 80.6831 83.0219 80.8256C83.8263 80.6912 84.4106 80.6656 85.3045 80.9681C86.2595 81.2913 85.8077 83.2934 84.71 83.0216C83.803 82.7974 83.1289 81.467 82.9214 81.0108C82.5822 80.8377 82.1031 80.6178 81.831 80.6857C81.8237 80.6875 81.8168 80.6846 81.8091 80.685C80.6062 81.6292 79.9069 82.5957 79.8938 82.6143C79.8602 82.6618 79.7948 82.6728 79.7474 82.6392C79.7401 82.6341 79.7335 82.6282 79.7284 82.6216C79.6977 82.5859 79.694 82.5325 79.7225 82.4927C79.7437 82.4628 81.4852 80.049 84.2503 79.076C84.2543 79.0738 84.2572 79.0705 84.2612 79.0686C84.5541 78.9554 84.9646 78.0919 85.2198 77.4213C84.9291 76.652 84.7867 76.08 84.9109 75.1394C85.0427 74.1389 87.0939 74.1944 87.0402 75.3246Z" fill="#8C68BF"/>
<path d="M87.3211 63.2081C87.466 64.0621 86.5984 65.1258 86.2716 65.4911C86.2172 65.8688 86.097 66.5504 85.8976 66.9935C86.3307 66.7622 86.8007 66.5697 87.3101 66.4386C87.5924 66.3659 87.852 66.2775 88.0949 66.1796C87.7301 65.5992 87.5128 65.1116 87.4434 64.2904C87.3638 63.3458 89.2579 62.9842 89.4358 64.0326C89.5307 64.5922 89.1915 65.2401 88.8544 65.7238C89.0976 65.5349 89.3419 65.3786 89.6319 65.2511C90.475 64.514 90.8808 63.6603 91.0674 63.1135C90.7906 62.5452 90.643 62.0893 90.6646 61.3372C90.689 60.4909 92.4068 60.3608 92.459 61.3094C92.5069 62.1777 91.3953 63.1501 91.2065 63.3086C91.0246 63.7959 90.6912 64.4581 90.0956 65.0816C90.1789 65.0568 90.2629 65.0323 90.3553 65.01C91.2762 64.7865 91.9237 66.6037 90.9151 66.9401C90.0741 67.2207 88.8537 66.4857 88.4714 66.2341C88.1387 66.3889 87.7702 66.5241 87.3594 66.63C87.252 66.6578 87.1465 66.6888 87.0428 66.7217C87.3536 66.6735 87.687 66.6669 88.0949 66.7122C89.0366 66.817 89.0246 68.746 87.9616 68.7175C87.1071 68.6945 86.2464 67.6674 85.9407 67.2645C85.9407 67.2645 85.3079 67.3452 83.8048 68.9352C84.0944 68.9133 84.4527 68.9926 84.7368 69.0675C85.4485 68.7822 85.9798 68.6412 86.8613 68.7391C87.8035 68.8439 87.791 70.7729 86.728 70.7444C85.8498 70.7207 84.9639 69.6351 84.6816 69.2578C84.3351 69.1668 83.8512 69.0616 83.6149 69.1785C83.6084 69.1818 83.6014 69.1803 83.5949 69.1822C82.6801 70.2911 82.2324 71.319 82.224 71.3387C82.2028 71.3888 82.1448 71.4125 82.0944 71.391C82.0867 71.3877 82.0794 71.3837 82.0732 71.3789C82.0381 71.3523 82.0239 71.304 82.0422 71.2617C82.0557 71.2299 83.1694 68.6635 85.5127 67.2137C85.516 67.2108 85.5179 67.2071 85.5215 67.2049C85.7676 67.042 85.9707 66.1665 86.0704 65.4995C85.6486 64.8515 85.4032 64.3551 85.328 63.4664C85.2487 62.5211 87.1432 62.1594 87.3211 63.2081Z" fill="white"/>
<path d="M53.1326 28.6058C53.1326 28.6058 40.0416 33.731 37.2097 37.7639C34.3778 41.7969 32.0838 51.5585 37.6662 52.0644" fill="#7F5BAE"/>
<path opacity="0.25" d="M53.1326 28.6058C53.1326 28.6058 40.0416 33.731 37.2097 37.7639C34.3778 41.7969 32.0838 51.5585 37.6662 52.0644C43.2486 52.5706 53.1326 28.6058 53.1326 28.6058Z" fill="#563C76"/>
<path d="M82.7065 85.4084C80.9687 88.2455 78.5417 90.5339 75.7591 92.1988C75.6678 92.2543 75.5744 92.3102 75.4812 92.3599C59.4239 101.735 30.5382 93.3571 27.6504 88.5833C28.4487 28.9584 74.526 -3.54681 81.7772 68.3235C82.2953 73.4728 82.6171 79.1586 82.7065 85.4084Z" fill="#7F5BAE"/>
<path opacity="0.1" d="M52.4893 32.267C52.4984 34.7238 54.9871 36.075 58.0476 35.2849C61.1081 34.4948 63.5817 31.863 63.5722 29.4062C63.5627 26.9493 61.0745 25.5982 58.014 26.3883C54.9535 27.1784 52.4798 29.8102 52.4893 32.267Z" fill="#36264F"/>
<path d="M53.6446 31.1894C53.6526 33.3157 55.8064 34.4849 58.4553 33.8011C61.1043 33.1173 63.2449 30.8395 63.2369 28.7132C63.2288 26.587 61.0751 25.4177 58.4261 26.1015C55.7775 26.785 53.6365 29.0632 53.6446 31.1894Z" fill="#563C76"/>
<path d="M55.6436 30.7372C57.0309 31.7048 61.0515 29.7714 61.975 28.3541C62.243 27.9428 61.929 27.5209 61.8614 26.3933C61.7267 24.0388 61.5174 20.397 61.5174 20.301L55.6929 23.2407L55.6681 27.1202C55.6685 27.1202 54.902 30.2199 55.6436 30.7372Z" fill="#FECECC"/>
<path opacity="0.1" d="M55.668 27.1202L55.6928 27.1911C55.6928 27.1911 56.3523 26.6344 57.6673 26.1804C58.9859 25.7231 61.8222 26.6344 61.8222 26.6344L61.8613 26.3933C61.7265 24.0388 61.5173 20.397 61.5173 20.301L55.6928 23.2407L55.668 27.1202Z" fill="#36264F"/>
<path d="M52.0485 6.27024C52.0485 6.27024 49.0858 10.7536 51.213 14.2489C53.3401 17.7442 65.7227 15.3885 65.7227 15.3885C65.7227 15.3885 71.3441 7.76457 66.3303 5.56088C66.3303 5.56088 64.3047 1.35622 61.0887 1.78688C55.5406 2.52984 52.0485 6.27024 52.0485 6.27024Z" fill="#563C76"/>
<path d="M52.9094 26.2794C54.477 27.3749 63.3522 20.9505 64.8622 18.9853C65.032 18.7639 65.1667 18.4626 65.2755 18.1002C67.0031 18.0969 68.997 15.4743 68.0899 13.7078C67.4552 12.4703 66.3108 12.7972 65.6411 13.1373C65.5578 10.6651 65.266 8.39859 65.266 8.39859C64.83 5.32702 52.0888 5.32702 51.6528 8.39859C51.6528 8.39823 48.2144 22.9989 52.9094 26.2794Z" fill="#FECECC"/>
<path opacity="0.1" d="M66.7119 13.4675C67.2311 13.465 68.0984 14.064 67.5777 15.3564C67.0573 16.6487 66.0527 17.1889 66.0527 17.1889C66.0527 17.1889 67.4645 15.9912 67.2746 14.9487C67.0851 13.9059 66.2722 13.4697 66.7119 13.4675Z" fill="#36264F"/>
<path d="M65.6604 12.9894C65.6604 12.9894 65.5775 14.8548 64.4568 14.8632C64.0551 14.8661 63.8824 8.69194 63.3719 8.69084C60.7938 8.68573 55.7723 8.54254 51.8277 8.23316C46.3856 7.80615 52.9295 0.28044 58.7609 0.619778C61.4266 0.774654 64.1983 2.1437 65.3383 5.33362C66.1651 7.64616 65.6035 10.4277 65.6604 12.9894Z" fill="#563C76"/>
<path opacity="0.05" d="M60.5087 16.2049C60.5766 16.6082 60.1373 17.0184 59.5279 17.121C58.9184 17.2236 58.3688 16.9804 58.3009 16.5775C58.233 16.1746 58.6719 15.7644 59.2817 15.6614C59.8916 15.5587 60.4404 15.802 60.5087 16.2049Z" fill="#563C76"/>
<path opacity="0.05" d="M53.6031 16.2432C53.671 16.6461 53.232 17.0563 52.6222 17.159C52.0127 17.262 51.4632 17.0184 51.3956 16.6155C51.3277 16.2126 51.767 15.8024 52.3764 15.6997C52.9859 15.5967 53.5348 15.84 53.6031 16.2432Z" fill="#563C76"/>
<path d="M53.8951 12.4539C53.8359 12.4539 53.7786 12.4232 53.7472 12.3684C53.7194 12.3209 53.0599 11.2313 51.4437 11.948C51.3568 11.986 51.2564 11.9473 51.2187 11.8611C51.1808 11.7752 51.2191 11.6744 51.3053 11.6361C53.2111 10.7908 54.0346 12.1843 54.0426 12.1982C54.0894 12.28 54.0609 12.3841 53.9791 12.4309C53.9528 12.4466 53.9236 12.4539 53.8951 12.4539Z" fill="#563C76"/>
<path d="M57.2007 12.4842C57.1795 12.4842 57.1583 12.4802 57.1378 12.4718C57.0502 12.4371 57.0075 12.3381 57.0425 12.2508C57.0487 12.2355 57.6684 10.7484 59.9091 11.228C60.0011 11.2474 60.0596 11.3384 60.0399 11.4304C60.0201 11.5221 59.9307 11.5816 59.8376 11.5615C57.8744 11.1404 57.3639 12.3644 57.3591 12.3768C57.3325 12.4433 57.2682 12.4842 57.2007 12.4842Z" fill="#563C76"/>
<path d="M55.2603 16.7506C55.2015 16.7506 55.1435 16.7422 55.0865 16.7257C54.7253 16.6205 54.5723 16.2133 54.5661 16.1965C54.5475 16.1457 54.5541 16.0898 54.5833 16.0445C55.1946 15.1058 55.0321 13.8379 55.0306 13.8255C55.0182 13.732 55.0836 13.6461 55.1767 13.6337C55.2724 13.6202 55.356 13.6867 55.3684 13.7798C55.3761 13.8353 55.54 15.1189 54.9196 16.1501C54.9685 16.2392 55.0602 16.3634 55.1833 16.3988C55.2979 16.431 55.4385 16.3864 55.5996 16.2629C55.6744 16.206 55.7814 16.2202 55.8384 16.2947C55.8957 16.3696 55.8815 16.4763 55.8066 16.5336C55.6174 16.6783 55.4345 16.7506 55.2603 16.7506Z" fill="#563C76"/>
<path d="M52.2363 19.9821C52.2363 19.9821 53.9355 21.2734 56.2839 20.77C56.5643 21.7621 53.5243 23.4854 52.2363 19.9821Z" fill="#F0EEF9"/>
<path d="M53.3782 13.8281C53.3782 14.3592 53.0835 14.7899 52.7205 14.7899C52.3572 14.7899 52.0625 14.3592 52.0625 13.8281C52.0625 13.2974 52.3572 12.8667 52.7205 12.8667C53.0835 12.8667 53.3782 13.2974 53.3782 13.8281Z" fill="#563C76"/>
<path d="M59.2968 13.8281C59.2968 14.3592 59.0025 14.7899 58.6391 14.7899C58.2758 14.7899 57.9814 14.3592 57.9814 13.8281C57.9814 13.2974 58.2758 12.8667 58.6391 12.8667C59.0028 12.8667 59.2968 13.2974 59.2968 13.8281Z" fill="#563C76"/>
<path opacity="0.05" d="M54.1571 22.897C53.9814 22.8568 53.8733 22.8049 53.862 22.7991C53.8196 22.7783 53.8025 22.7275 53.8233 22.6851C53.8441 22.6431 53.8952 22.6256 53.9372 22.6461C53.9438 22.6497 54.6358 22.9777 55.4279 22.5551C55.4702 22.5343 55.5213 22.5496 55.5432 22.5905C55.5652 22.6322 55.5495 22.6837 55.5082 22.706C54.9575 22.9996 54.458 22.9657 54.1571 22.897Z" fill="#563C76"/>
<path opacity="0.25" d="M82.7061 85.4083C80.9682 88.2454 78.5413 90.5338 75.7587 92.1987C75.6674 92.2543 75.5739 92.3101 75.4808 92.3598C74.9108 91.3666 74.4481 90.4783 74.3506 90.1426C73.8284 88.3287 75.1985 86.5746 75.7667 84.9375C77.6375 79.5439 61.3834 84.0374 60.0728 88.0861C55.3957 89.0537 35.7213 92.0278 33.4971 87.2398C37.1732 85.8353 41.2329 86.6597 45.0562 86.7909C49.4572 86.8822 54.4623 86.8365 58.0552 83.9538C60.798 81.3852 62.0772 75.5445 61.1256 71.9685C60.0016 69.3462 56.482 69.8565 54.2757 68.772C59.2807 66.1595 58.7067 64.1213 64.9748 62.2957C68.2796 60.9489 65.3802 57.0409 65.118 54.6293C64.7904 50.493 63.9224 45.8047 65.8925 41.9664C67.6921 50.8645 74.0176 57.8872 78.6987 65.3293C79.3403 66.6603 80.4625 67.6794 81.7771 68.323C82.2949 73.4727 82.6166 79.1585 82.7061 85.4083Z" fill="#563C76"/>
<path d="M13.3955 27.5204C13.3955 27.7019 13.5427 27.8495 13.7245 27.8495C13.9064 27.8495 14.0535 27.7023 14.0535 27.5204C14.0535 27.3389 13.9064 27.1913 13.7245 27.1913C13.5427 27.1913 13.3955 27.3385 13.3955 27.5204Z" fill="#E5E0F4"/>
<path d="M10.874 27.5204C10.874 27.7019 11.0212 27.8495 11.203 27.8495C11.3845 27.8495 11.5321 27.7023 11.5321 27.5204C11.5321 27.3389 11.3849 27.1913 11.203 27.1913C11.0212 27.1913 10.874 27.3385 10.874 27.5204Z" fill="#E5E0F4"/>
<path d="M8.35254 27.5204C8.35254 27.7019 8.4997 27.8495 8.68156 27.8495C8.86305 27.8495 9.01058 27.7023 9.01058 27.5204C9.01058 27.3389 8.86341 27.1913 8.68156 27.1913C8.4997 27.1913 8.35254 27.3385 8.35254 27.5204Z" fill="#E5E0F4"/>
<path d="M5.83008 27.5203C5.83008 27.7019 5.97724 27.8494 6.1591 27.8494C6.34059 27.8494 6.48812 27.7022 6.48812 27.5203C6.48812 27.3388 6.34095 27.1912 6.1591 27.1912C5.97724 27.1912 5.83008 27.3384 5.83008 27.5203Z" fill="#E5E0F4"/>
<path d="M14.7139 28.9401C14.7139 29.1217 14.861 29.2692 15.0429 29.2692C15.2244 29.2692 15.3719 29.122 15.3719 28.9401C15.3719 28.7586 15.2247 28.611 15.0429 28.611C14.8614 28.611 14.7139 28.7586 14.7139 28.9401Z" fill="#E5E0F4"/>
<path d="M12.1924 28.9401C12.1924 29.1217 12.3395 29.2692 12.5214 29.2692C12.7029 29.2692 12.8504 29.122 12.8504 28.9401C12.8504 28.7586 12.7033 28.611 12.5214 28.611C12.3395 28.611 12.1924 28.7586 12.1924 28.9401Z" fill="#E5E0F4"/>
<path d="M9.6709 28.9401C9.6709 29.1217 9.81806 29.2692 9.99992 29.2692C10.1814 29.2692 10.3289 29.122 10.3289 28.9401C10.3289 28.7586 10.1818 28.611 9.99992 28.611C9.81806 28.611 9.6709 28.7586 9.6709 28.9401Z" fill="#E5E0F4"/>
<path d="M7.14844 28.9401C7.14844 29.1217 7.2956 29.2692 7.47746 29.2692C7.65895 29.2692 7.80647 29.122 7.80647 28.9401C7.80647 28.7586 7.65931 28.611 7.47746 28.611C7.2956 28.611 7.14844 28.7586 7.14844 28.9401Z" fill="#E5E0F4"/>
<path d="M89.7151 89.9574C89.8738 89.9574 90.0025 89.8287 90.0025 89.6699C90.0025 89.5111 89.8738 89.3824 89.7151 89.3824C89.5564 89.3824 89.4277 89.5111 89.4277 89.6699C89.4277 89.8287 89.5564 89.9574 89.7151 89.9574Z" fill="#E5E0F4"/>
<path d="M87.5101 89.9574C87.6688 89.9574 87.7974 89.8287 87.7974 89.6699C87.7974 89.5111 87.6688 89.3824 87.5101 89.3824C87.3513 89.3824 87.2227 89.5111 87.2227 89.6699C87.2227 89.8287 87.3513 89.9574 87.5101 89.9574Z" fill="#E5E0F4"/>
<path d="M85.305 89.9574C85.4637 89.9574 85.5924 89.8287 85.5924 89.6699C85.5924 89.5111 85.4637 89.3824 85.305 89.3824C85.1462 89.3824 85.0176 89.5111 85.0176 89.6699C85.0176 89.8287 85.1462 89.9574 85.305 89.9574Z" fill="#E5E0F4"/>
<path d="M82.8135 89.6699C82.8135 89.8288 82.9424 89.9574 83.1012 89.9574C83.2601 89.9574 83.3886 89.8284 83.3886 89.6699C83.3886 89.511 83.2597 89.3824 83.1012 89.3824C82.942 89.3824 82.8135 89.511 82.8135 89.6699Z" fill="#E5E0F4"/>
<path d="M90.5801 90.9115C90.5801 91.0704 90.709 91.199 90.8675 91.199C91.0263 91.199 91.1549 91.07 91.1549 90.9115C91.1549 90.7526 91.0259 90.624 90.8675 90.624C90.7086 90.6237 90.5801 90.7526 90.5801 90.9115Z" fill="#E5E0F4"/>
<path d="M88.375 90.9115C88.375 91.0704 88.5039 91.199 88.6624 91.199C88.8212 91.199 88.9498 91.07 88.9498 90.9115C88.9498 90.7526 88.8209 90.624 88.6624 90.624C88.5039 90.6237 88.375 90.7526 88.375 90.9115Z" fill="#E5E0F4"/>
<path d="M86.1709 90.9115C86.1709 91.0704 86.2998 91.199 86.4583 91.199C86.6171 91.199 86.7457 91.07 86.7457 90.9115C86.7457 90.7526 86.6168 90.624 86.4583 90.624C86.2998 90.6237 86.1709 90.7526 86.1709 90.9115Z" fill="#E5E0F4"/>
<path d="M83.9658 90.9115C83.9658 91.0704 84.0947 91.199 84.2532 91.199C84.4121 91.199 84.5406 91.07 84.5406 90.9115C84.5406 90.7526 84.4117 90.624 84.2532 90.624C84.0944 90.6237 83.9658 90.7526 83.9658 90.9115Z" fill="#E5E0F4"/>
<path d="M93.2854 39.7821C93.4275 39.7821 93.5425 39.667 93.5425 39.5249C93.5425 39.3828 93.4275 39.2678 93.2854 39.2678C93.1434 39.2678 93.0283 39.3828 93.0283 39.5249C93.0287 39.667 93.1437 39.7821 93.2854 39.7821Z" fill="white"/>
<path d="M93.2854 41.7531C93.4275 41.7531 93.5425 41.6381 93.5425 41.496C93.5425 41.3539 93.4275 41.2388 93.2854 41.2388C93.1434 41.2388 93.0283 41.3539 93.0283 41.496C93.0287 41.6381 93.1437 41.7531 93.2854 41.7531Z" fill="white"/>
<path d="M93.2854 43.7241C93.4275 43.7241 93.5425 43.6091 93.5425 43.467C93.5425 43.3249 93.4275 43.2098 93.2854 43.2098C93.1434 43.2098 93.0283 43.3249 93.0283 43.467C93.0287 43.6091 93.1437 43.7241 93.2854 43.7241Z" fill="white"/>
<path d="M93.2854 45.6951C93.4275 45.6951 93.5425 45.5801 93.5425 45.438C93.5425 45.2959 93.4275 45.1808 93.2854 45.1808C93.1434 45.1808 93.0283 45.2959 93.0283 45.438C93.0287 45.5801 93.1437 45.6951 93.2854 45.6951Z" fill="white"/>
<path d="M94.3948 38.7517C94.5368 38.7517 94.6519 38.6366 94.6519 38.4945C94.6519 38.3524 94.5368 38.2374 94.3948 38.2374C94.2527 38.2374 94.1377 38.3524 94.1377 38.4945C94.1381 38.6366 94.2531 38.7517 94.3948 38.7517Z" fill="white"/>
<path d="M94.3948 40.7227C94.5368 40.7227 94.6519 40.6076 94.6519 40.4655C94.6519 40.3234 94.5368 40.2084 94.3948 40.2084C94.2527 40.2084 94.1377 40.3234 94.1377 40.4655C94.1381 40.6076 94.2531 40.7227 94.3948 40.7227Z" fill="white"/>
<path d="M94.3948 42.6937C94.5368 42.6937 94.6519 42.5786 94.6519 42.4365C94.6519 42.2944 94.5368 42.1794 94.3948 42.1794C94.2527 42.1794 94.1377 42.2944 94.1377 42.4365C94.1381 42.5786 94.2531 42.6937 94.3948 42.6937Z" fill="white"/>
<path d="M94.3948 44.6647C94.5368 44.6647 94.6519 44.5496 94.6519 44.4075C94.6519 44.2655 94.5368 44.1504 94.3948 44.1504C94.2527 44.1504 94.1377 44.2655 94.1377 44.4075C94.1381 44.5496 94.2531 44.6647 94.3948 44.6647Z" fill="white"/>
<path d="M6.78223 48.717C6.78223 48.717 7.14849 48.4876 8.03257 47.9887C8.91665 47.4897 9.72185 45.7448 10.1812 46.006C10.6406 46.2671 10.4303 48.8372 9.36472 49.7011C8.29951 50.5646 6.87388 49.4998 6.78223 48.717Z" fill="#EAB2B2"/>
<path d="M61.2916 79.0636C61.2916 79.0636 61.2244 78.6366 61.0203 77.6419C60.8161 76.6473 61.6038 74.8943 61.1054 74.719C60.6069 74.5437 58.8066 76.3898 58.8545 77.7606C58.9019 79.1315 60.6409 79.5085 61.2916 79.0636Z" fill="#EAB2B2"/>
<path d="M64.3914 61.2741C64.2986 91.648 24.1269 101.39 9.83369 75.4504C4.91593 66.8887 5.09559 54.9469 10.3555 46.5292C24.8437 21.5646 64.5367 32.1845 64.3914 61.2741Z" fill="#9D84CE"/>
<path opacity="0.1" d="M59.4934 45.0805C59.114 46.5284 59.4485 47.98 59.9492 49.3578C60.2019 50.0537 60.4823 50.74 60.708 51.4457C60.9194 52.1073 61.0918 52.7848 61.2532 53.4602C61.5767 54.815 61.8572 56.2746 61.5231 57.6539C61.2375 58.8323 60.5619 59.8372 60.0985 60.9436C59.8447 61.5499 59.6749 62.184 59.6285 62.8408C59.5778 63.5586 59.6932 64.2913 59.775 65.0036C59.9346 66.3923 60.1212 67.8184 59.8528 69.2057C59.5939 70.544 58.8748 71.8035 57.7837 72.6348C56.7269 73.4399 55.4327 73.8322 54.1882 74.2417C53.8599 74.3498 53.5185 74.444 53.2059 74.5916C52.9412 74.7169 52.6757 74.8415 52.412 74.9693C51.9669 75.1852 51.5181 75.4069 51.1102 75.6889C50.4014 76.1791 49.9939 76.8399 49.9172 77.7037C49.819 78.8112 50.1169 79.8954 50.3072 80.9759C50.4299 81.6739 50.4795 82.392 50.0114 82.9783C49.7357 83.3235 49.3661 83.5824 48.9933 83.8126C48.4722 84.134 47.9215 84.4149 47.3657 84.6713C46.3111 85.1575 45.1941 85.5556 44.2307 86.2164C43.2488 86.89 42.5528 87.8485 42.3614 89.0374C42.3362 89.1949 42.3209 89.3526 42.3096 89.5108C54.2061 86.5612 64.3451 76.5155 64.3915 61.2741C64.4229 54.9421 62.5664 49.4857 59.4934 45.0805Z" fill="#563C76"/>
<path d="M52.757 78.8904C62.3893 69.2553 62.3894 53.6339 52.7572 43.999C43.125 34.3641 27.5079 34.3642 17.8755 43.9993C8.24316 53.6343 8.24304 69.2557 17.8753 78.8906C27.5075 88.5255 43.1246 88.5254 52.757 78.8904Z" fill="#8C68BF"/>
<path d="M12.8939 61.613C12.8509 54.1965 16.4098 47.6019 21.929 43.4867C23.573 42.2594 25.3912 41.2553 27.3372 40.5152C28.2099 40.1792 29.1064 39.902 30.0274 39.6799C31.6838 39.2762 33.4082 39.0607 35.1847 39.0505C37.5054 39.037 39.7453 39.3749 41.8527 40.017C51.0017 42.8008 57.6822 51.2824 57.741 61.3511C57.7614 64.8548 56.977 68.1697 55.5642 71.1298C53.8322 74.7621 51.1515 77.8552 47.8394 80.0896C47.0619 80.6145 46.2534 81.0919 45.4084 81.5149C43.5935 82.4317 41.6315 83.1133 39.5693 83.5078C38.235 83.7639 36.8568 83.902 35.4462 83.9104C23.064 83.9823 12.9662 73.9994 12.8939 61.613Z" fill="white"/>
<path d="M57.7403 61.35C57.7604 64.8552 56.9767 68.1693 55.5628 71.1287C53.8308 74.761 51.1501 77.8545 47.8394 80.0904C47.0623 80.6138 46.252 81.0927 45.4081 81.5135C43.5936 82.431 41.6301 83.1126 39.5683 83.5067C39.4861 83.5224 39.4036 83.5378 39.3189 83.5513C40.02 83.1817 40.697 82.7718 41.3514 82.3309C44.6643 80.0951 47.345 77.0016 49.077 73.3693C50.4884 70.4095 51.2746 67.0958 51.2523 63.5928C51.1943 53.5222 44.5131 45.0417 35.3648 42.258C33.2563 41.6165 31.0167 41.2779 28.6968 41.2915C27.3811 41.3002 26.0942 41.4186 24.8428 41.6432C25.6443 41.2177 26.4791 40.8392 27.3365 40.5142C28.2093 40.1803 29.1065 39.902 30.026 39.6791C31.6824 39.2762 33.4079 39.06 35.1844 39.0512C37.5044 39.0377 39.7443 39.3741 41.8524 40.0177C51.0011 42.8011 57.6823 51.2817 57.7403 61.35Z" fill="#E5E0F4"/>
<path d="M15.1104 63.8058C15.106 63.7671 15.1006 63.7291 15.0962 63.6904C15.0918 63.652 15.0889 63.6133 15.0849 63.575L14.5371 63.6356L14.5627 63.8661L15.1104 63.8058Z" fill="#9D84CE"/>
<path d="M47.2812 77.9108L47.6052 78.3517L47.7921 78.2143L47.4675 77.7727C47.4058 77.8187 47.3437 77.8651 47.2812 77.9108Z" fill="#9D84CE"/>
<path d="M15.8289 61.6748L15.8274 61.4428L14.4219 61.4508L14.4233 61.6832L15.8289 61.6751V61.6748Z" fill="#9D84CE"/>
<path d="M48.9365 76.5698L49.3046 76.9742L49.4762 76.8179L49.1071 76.4128C49.0508 76.4654 48.9939 76.518 48.9365 76.5698Z" fill="#9D84CE"/>
<path d="M15.4142 57.2159L14.8778 57.1049L14.8311 57.3321L15.3668 57.4427C15.3817 57.3671 15.3982 57.2915 15.4142 57.2159Z" fill="#9D84CE"/>
<path d="M15.4678 65.9057C15.4594 65.8681 15.4499 65.8305 15.4415 65.7929C15.4331 65.7549 15.4262 65.7169 15.4181 65.6789L14.8799 65.7965L14.9292 66.0233L15.4678 65.9057Z" fill="#9D84CE"/>
<path d="M18.416 73.7357L18.5533 73.9228L18.9944 73.598C18.9481 73.5359 18.9017 73.4742 18.8564 73.4117L18.416 73.7357Z" fill="#9D84CE"/>
<path d="M23.04 78.3586L23.2288 78.4937L23.5484 78.0485C23.4852 78.0039 23.422 77.9594 23.3592 77.9141L23.04 78.3586Z" fill="#9D84CE"/>
<path d="M24.8612 43.3449L24.6611 43.4621L25.3713 44.6757L25.5714 44.5586L24.8612 43.3449Z" fill="#9D84CE"/>
<path d="M21.3398 76.9822L21.5133 77.1367L21.8774 76.7273C21.8193 76.6765 21.7613 76.6254 21.7036 76.5739L21.3398 76.9822Z" fill="#9D84CE"/>
<path d="M19.7939 75.4357L19.9502 75.6074L20.3552 75.2381C20.3026 75.1815 20.25 75.1249 20.1982 75.0671L19.7939 75.4357Z" fill="#9D84CE"/>
<path d="M50.4424 75.0631L50.851 75.4269L51.0055 75.2534L50.5961 74.8889C50.545 74.9469 50.4942 75.0054 50.4424 75.0631Z" fill="#9D84CE"/>
<path d="M15.0809 59.3202L14.5357 59.2662L14.5127 59.497L15.0572 59.5511C15.0645 59.474 15.0729 59.3973 15.0809 59.3202Z" fill="#9D84CE"/>
<path d="M15.8941 55.3789C15.9172 55.3052 15.9413 55.2314 15.9654 55.1583C15.9654 55.158 15.9654 55.158 15.9654 55.158L15.4435 54.9918L15.373 55.2128L15.8941 55.3789Z" fill="#9D84CE"/>
<path d="M51.7822 73.407L52.2266 73.7259L52.3621 73.5374L51.917 73.2178C51.8721 73.281 51.8275 73.3445 51.7822 73.407Z" fill="#9D84CE"/>
<path d="M18.325 51.8967L18.44 51.6951L17.2185 50.9993L17.1459 51.1271L17.1035 51.2009L18.325 51.8967Z" fill="#9D84CE"/>
<path d="M54.6317 55.0429C54.6438 55.0798 54.6547 55.1167 54.6668 55.1536L55.1897 54.9801L55.1167 54.7598L54.5938 54.933C54.6062 54.9699 54.6197 55.006 54.6317 55.0429Z" fill="#9D84CE"/>
<path d="M16.7277 53.169L16.2259 52.9491L16.1328 53.1617L16.6338 53.3812C16.6645 53.31 16.6963 53.2395 16.7277 53.169Z" fill="#9D84CE"/>
<path d="M55.1689 56.9843C55.1773 57.0219 55.1868 57.0596 55.1949 57.0976C55.2033 57.1355 55.2102 57.1732 55.2182 57.2112L55.7565 57.0935L55.7068 56.8667L55.1689 56.9843Z" fill="#9D84CE"/>
<path d="M25.3161 78.775L24.875 79.5498L25.0766 79.6645L25.7722 78.4426L25.5706 78.3279L25.3161 78.775Z" fill="#9D84CE"/>
<path d="M29.0333 80.8037L28.8672 81.3257L29.0881 81.3962L29.2543 80.8749C29.1805 80.8519 29.1067 80.8275 29.0333 80.8037Z" fill="#9D84CE"/>
<path d="M26.6786 42.4132L26.6016 42.4479L26.8287 42.9502C26.8641 42.9341 26.8984 42.9169 26.9339 42.9012C26.9693 42.8852 27.0047 42.8706 27.0401 42.8549L26.813 42.3526L26.6786 42.4132Z" fill="#9D84CE"/>
<path d="M55.5264 59.0843C55.5307 59.123 55.5366 59.161 55.5406 59.1993C55.545 59.238 55.5479 59.2764 55.5519 59.3151L56.0997 59.2541L56.0741 59.0233L55.5264 59.0843Z" fill="#9D84CE"/>
<path d="M23.3546 44.9793L23.0307 44.5388L22.8438 44.6761L23.1684 45.1177C23.2301 45.0713 23.2918 45.0246 23.3546 44.9793Z" fill="#9D84CE"/>
<path d="M27.0444 80.0407L26.8242 80.5426L27.0367 80.6361V80.6357L27.1587 80.3578L27.2566 80.1346C27.1854 80.1039 27.1149 80.0718 27.0444 80.0407Z" fill="#9D84CE"/>
<path d="M18.5549 71.3914L18.4377 71.1909L17.2246 71.9013L17.3415 72.1015H17.3418L18.5549 71.3914Z" fill="#9D84CE"/>
<path d="M18.8533 49.4831L18.4089 49.1642L18.2734 49.3527L18.7186 49.6719C18.7639 49.6091 18.808 49.5455 18.8533 49.4831Z" fill="#9D84CE"/>
<path d="M20.1936 47.8269L19.785 47.4631L19.6309 47.6363L20.0402 48.0008C20.091 47.9427 20.1417 47.8847 20.1936 47.8269Z" fill="#9D84CE"/>
<path d="M28.6348 41.6406L28.8079 42.1637C28.8447 42.1513 28.8809 42.1378 28.9178 42.1257C28.9547 42.1133 28.9915 42.1027 29.0284 42.0906L28.855 41.5676L28.6348 41.6406Z" fill="#9D84CE"/>
<path d="M16.0043 67.8471C15.9922 67.8102 15.9813 67.7733 15.9692 67.7365L15.4463 67.91L15.5193 68.1302L16.0422 67.9571C16.0295 67.9202 16.0163 67.884 16.0043 67.8471Z" fill="#9D84CE"/>
<path d="M16.7799 69.8313C16.7639 69.7959 16.7493 69.7605 16.7336 69.7247L16.2314 69.9519L16.3271 70.1634L16.8292 69.9362C16.8128 69.9015 16.7964 69.8668 16.7799 69.8313Z" fill="#9D84CE"/>
<path d="M21.6999 46.3202L21.3318 45.9158L21.1602 46.0722L21.5293 46.4773C21.5856 46.4247 21.6422 46.3721 21.6999 46.3202Z" fill="#9D84CE"/>
<path d="M54.7431 67.5111C54.7201 67.5853 54.6956 67.6583 54.6719 67.7321L55.1937 67.8983L55.2642 67.6773V67.6769L54.7431 67.5111Z" fill="#9D84CE"/>
<path d="M52.3113 70.9929L52.1963 71.1945L53.4182 71.8907L53.4715 71.7972L53.5328 71.6891L52.3113 70.9929Z" fill="#9D84CE"/>
<path d="M52.2204 49.1543L52.0831 48.9673L51.6416 49.292C51.688 49.3541 51.7344 49.4158 51.78 49.4787L52.2204 49.1543Z" fill="#9D84CE"/>
<path d="M43.5994 42.2543L43.5752 42.3091L43.3799 42.7551C43.4507 42.7858 43.5212 42.8176 43.592 42.849L43.8119 42.3471L43.5994 42.2543Z" fill="#9D84CE"/>
<path d="M30.9795 81.8915L31.2066 81.9383L31.3173 81.4024C31.2413 81.3871 31.1657 81.3706 31.0901 81.3546L30.9795 81.8915Z" fill="#9D84CE"/>
<path d="M45.259 78.2148L45.0586 78.3321L45.7686 79.5459L45.969 79.4286L45.259 78.2148Z" fill="#9D84CE"/>
<path d="M47.0879 44.8412C47.1511 44.8858 47.2142 44.9303 47.277 44.976L47.5958 44.5315L47.4074 44.3963L47.0879 44.8412Z" fill="#9D84CE"/>
<path d="M48.7578 46.1627C48.8159 46.2138 48.8739 46.2646 48.9316 46.3165L49.2953 45.9077L49.1219 45.7532L48.7578 46.1627Z" fill="#9D84CE"/>
<path d="M55.5547 63.5698L56.0999 63.6238L56.1229 63.3926L55.5784 63.3386C55.5711 63.4156 55.5631 63.4927 55.5547 63.5698Z" fill="#9D84CE"/>
<path d="M54.8076 61.2149V61.2152L54.8087 61.4472L56.2146 61.4388L56.2132 61.2068L54.8076 61.2149Z" fill="#9D84CE"/>
<path d="M55.2227 65.6741L55.7591 65.7848L55.8062 65.5576L55.2705 65.4469C55.2552 65.5229 55.2387 65.5981 55.2227 65.6741Z" fill="#9D84CE"/>
<path d="M53.9082 69.721L54.4099 69.9409L54.5031 69.7283L54.0021 69.5088C53.9717 69.5797 53.94 69.6505 53.9082 69.721Z" fill="#9D84CE"/>
<path d="M53.2945 50.7886L52.0811 51.4987L52.1983 51.6992L53.4117 50.9887L53.2945 50.7886Z" fill="#9D84CE"/>
<path d="M53.8076 52.9535C53.8237 52.9889 53.8409 53.0233 53.8566 53.0587C53.8723 53.0941 53.8872 53.1296 53.9029 53.165L54.405 52.9378L54.3094 52.7263L53.8076 52.9535Z" fill="#9D84CE"/>
<path d="M50.2812 47.6516C50.3338 47.7086 50.3864 47.7652 50.4383 47.8225L50.8425 47.4543L50.6862 47.2827L50.2812 47.6516Z" fill="#9D84CE"/>
<path d="M39.43 40.9514L39.3193 41.4872C39.3953 41.5026 39.4709 41.519 39.5465 41.5351L39.6571 40.9985L39.43 40.9514Z" fill="#9D84CE"/>
<path d="M37.5636 81.6727C37.5253 81.6771 37.4866 81.68 37.4482 81.684L37.5089 82.2316L37.7397 82.206L37.6787 81.6584C37.6403 81.6628 37.602 81.6687 37.5636 81.6727Z" fill="#9D84CE"/>
<path d="M43.8081 79.9398C43.7731 79.9559 43.7384 79.9731 43.7033 79.9888C43.6679 80.0048 43.6321 80.0195 43.5967 80.0352L43.8238 80.5374L43.9049 80.5005L44.0352 80.4417L43.8081 79.9398Z" fill="#9D84CE"/>
<path d="M33.1937 81.6877L33.1396 82.233L33.3704 82.256L33.4245 81.7118C33.3474 81.7045 33.2707 81.6957 33.1937 81.6877Z" fill="#9D84CE"/>
<path d="M39.6647 81.3272C39.6267 81.3356 39.5888 81.3425 39.5508 81.3506L39.6684 81.889L39.8951 81.8393L39.7776 81.3009C39.7396 81.3097 39.7023 81.3188 39.6647 81.3272Z" fill="#9D84CE"/>
<path d="M41.3818 42.015C41.4556 42.038 41.529 42.0625 41.6028 42.0862L41.7689 41.5643L41.548 41.4938L41.3818 42.015Z" fill="#9D84CE"/>
<path d="M30.968 41.0011L30.7412 41.0508L30.8588 41.5892C30.8964 41.5804 30.9337 41.5713 30.9716 41.5629C31.0096 41.5545 31.0472 41.5475 31.0852 41.5395L30.968 41.0011Z" fill="#9D84CE"/>
<path d="M41.8286 80.7259C41.7917 80.7383 41.7559 80.7518 41.719 80.7639C41.6822 80.7759 41.6453 80.7869 41.6084 80.7989L41.7815 81.322L42.0017 81.249L41.8286 80.7259Z" fill="#9D84CE"/>
<path d="M32.8975 40.6837L32.9581 41.2312C32.9964 41.2268 33.0348 41.2213 33.0731 41.2169C33.1115 41.2126 33.1502 41.2096 33.1885 41.2056L33.1279 40.6577L32.8975 40.6837Z" fill="#9D84CE"/>
<path d="M37.2119 41.1782C37.289 41.1855 37.366 41.1939 37.4427 41.202C37.4427 41.202 37.4427 41.202 37.4431 41.202L37.4971 40.6566L37.2663 40.6336L37.2119 41.1782Z" fill="#9D84CE"/>
<path d="M44.8643 44.4474L45.0658 44.5621L45.2214 44.2885L45.7615 43.3403L45.5599 43.2256L44.8643 44.4474Z" fill="#9D84CE"/>
<path d="M35.5493 80.9408L35.3174 80.9421L35.3254 82.3484L35.5573 82.3471L35.5493 80.9408Z" fill="#9D84CE"/>
<path d="M35.3133 40.5439L35.0811 40.5452L35.0894 41.9515L35.3216 41.9502L35.3133 40.5439Z" fill="#9D84CE"/>
<path d="M36.8072 61.4366C36.8116 62.2271 36.1747 62.8714 35.3845 62.8762C34.5942 62.8809 33.9497 62.2439 33.9453 61.4534C33.9406 60.663 34.5774 60.0183 35.368 60.0139C36.1583 60.0091 36.8024 60.6462 36.8072 61.4366Z" fill="#8C68BF"/>
<path d="M45.021 49.2402L35.3838 60.6889L36.1594 61.4541L47.5009 51.686L48.0848 48.6126L45.021 49.2402Z" fill="#8C68BF"/>
<path d="M35.6386 62.5287C36.0216 62.4509 36.3463 62.1646 36.4478 61.7598C36.5891 61.198 36.2484 60.6278 35.6868 60.4865C35.1251 60.3451 34.5551 60.6859 34.4138 61.2477C34.3101 61.6597 34.4675 62.0751 34.7797 62.3234L31.3584 72.184L32.1187 74.3468L33.8299 72.8214L35.6386 62.5287Z" fill="#9D84CE"/>
<path d="M81.3881 55.7675C81.3881 55.7675 89.657 74.708 81.4005 76.1753C73.144 77.643 69.1289 60.6213 69.1289 60.6213L81.3881 55.7675Z" fill="#FECECC"/>
<path d="M60.0717 84.0382C61.0026 84.5496 76.4102 81.6431 83.1874 75.4269C89.965 69.2107 77.321 65.2234 72.8378 67.8982C68.3542 70.5731 60.2368 78.6256 60.2368 78.6256C60.2368 78.6256 57.1694 82.4441 60.0717 84.0382Z" fill="#FECECC"/>
<path opacity="0.5" d="M72.588 80.9472C72.3193 80.9238 72.0483 80.9738 71.7872 81.0334C71.4374 81.113 71.0948 81.2084 70.7373 81.2504C69.8806 81.3512 69.0163 81.2675 68.1578 81.3344C67.7323 81.3672 67.323 81.4487 66.9155 81.5744C66.5751 81.6792 66.2403 81.8008 65.9014 81.9093C65.2269 82.1248 64.4951 82.321 63.7838 82.1939C63.4449 82.1332 63.1045 81.9959 62.8482 81.761C62.6382 81.5685 62.5173 81.3139 62.4859 81.0323C62.422 80.4606 62.6473 79.8883 62.483 79.3232C62.315 78.7461 61.8494 78.3402 61.3448 78.0502C61.2345 77.987 61.1217 77.9289 61.0077 77.8738C60.5199 78.3461 60.2379 78.6259 60.2379 78.6259C60.2379 78.6259 57.1701 82.4444 60.0729 84.0385C60.6506 84.3555 66.8015 83.3569 73.0065 81.0681C72.878 81.0012 72.7366 80.9603 72.588 80.9472Z" fill="#EAB2B2"/>
<path opacity="0.5" d="M83.0197 61.0888C82.6932 62.3684 81.8212 63.4039 80.6599 64.0201C79.5319 64.6188 78.2571 64.7138 77.0042 64.7485C76.5448 64.7613 76.084 64.7602 75.6253 64.7941C75.3825 64.812 75.1378 64.8387 74.9004 64.8968C74.7168 64.9417 74.5141 65.0045 74.3764 65.1411C74.1087 65.4071 74.1895 65.791 74.4856 65.986C74.796 66.1906 75.1937 66.2581 75.5541 66.3159C76.111 66.4054 76.6723 66.4857 77.2211 66.6172C77.8853 66.7757 78.604 67.0289 79.0853 67.5377C79.46 67.9333 79.6265 68.4618 79.6049 68.9988C79.5962 69.2125 79.5827 69.4415 79.5042 69.6428C79.4892 69.6808 79.472 69.7231 79.4428 69.7531C79.4198 69.7768 79.4224 69.7739 79.4056 69.7732C79.323 69.7691 79.2204 69.6844 79.155 69.6417C78.9772 69.5248 78.8154 69.3867 78.642 69.2643C78.3725 69.0744 78.0343 68.948 77.732 68.8216C76.9994 68.5155 76.2457 68.2324 75.4763 68.0348C74.7263 67.8423 73.9576 67.7203 73.1845 67.6732C72.6397 67.64 72.0937 67.6498 71.5482 67.6345C69.929 64.011 69.1289 60.6213 69.1289 60.6213L81.3881 55.7675C81.3881 55.7675 82.2495 57.7418 83.1387 60.4638C83.1099 60.6742 83.0722 60.8832 83.0197 61.0888Z" fill="#EAB2B2"/>
<path d="M69.2271 32.5643C69.2271 32.5643 87.8242 54.5208 83.968 59.7621C80.1121 65.0034 71.6409 64.8876 68.6421 62.5594C65.6433 60.2308 62.6997 29.0935 69.2271 32.5643Z" fill="#7F5BAE"/>
<path opacity="0.1" d="M66.4288 44.1449C66.955 45.6086 67.5776 47.0423 68.3335 48.4029C68.6848 49.0352 69.0657 49.6518 69.4838 50.2421C69.8647 50.7797 70.2905 51.2736 70.7228 51.7696C71.0712 52.1696 71.4009 52.5849 71.5985 53.0828C71.8454 53.7056 71.9056 54.4087 71.841 55.071C71.7661 55.8362 71.5664 56.5869 71.5499 57.3587C71.5419 57.7375 71.578 58.1188 71.6894 58.4823C71.7778 58.7708 71.9341 59.0415 72.0955 59.295C72.793 60.3901 73.8512 61.2452 74.9646 61.8902C75.5248 62.2146 76.1138 62.4926 76.7248 62.7066C77.2104 62.8768 77.721 63.0219 78.2355 63.0675C78.6843 63.1073 79.1371 63.1044 79.5899 63.0876C75.5745 64.7383 70.7531 64.1988 68.6424 62.5594C66.8637 61.1783 65.2022 49.6193 65.5071 41.1672C65.7715 42.1725 66.0775 43.1671 66.4288 44.1449Z" fill="#563C76"/>
<path d="M6.37789 48.0494C6.37789 48.0494 14.572 49.7084 14.4365 51.2689C14.373 51.9987 11.5593 51.6817 9.37778 51.327C12.0293 51.8577 14.2802 52.6189 13.8449 53.348C13.5101 53.9087 11.1156 53.6088 8.93117 53.3422C10.4119 53.6614 13.437 54.4077 13.2694 55.0473C12.9846 56.1321 9.94269 55.5258 7.89774 55.0717C9.09659 55.425 12.1812 56.3192 12.034 56.9058C11.9037 57.4252 11.189 57.7357 8.61968 57.1549C7.12029 56.8159 7.10312 57.114 6.45166 56.8258C5.94882 56.6037 5.40325 56.4291 5.08628 56.0507C3.55841 54.2291 5.11221 48.369 6.37789 48.0494Z" fill="#FECECC"/>
<path opacity="0.5" d="M11.8067 56.9456C11.8282 56.6622 11.019 56.2724 10.9215 56.3002C10.9215 56.3002 10.7305 57.0048 10.7528 57.1396C10.7747 57.2744 11.7851 57.2291 11.8067 56.9456Z" fill="#E5E0F4"/>
<path opacity="0.5" d="M13.0616 55.1207C13.0835 54.8372 12.2735 54.4475 12.176 54.4749C12.176 54.4749 11.9854 55.1795 12.0077 55.3143C12.0299 55.4491 13.0404 55.4041 13.0616 55.1207Z" fill="#E5E0F4"/>
<path opacity="0.5" d="M13.6491 53.1055C13.6707 52.822 12.8611 52.4319 12.764 52.4597C12.764 52.4597 12.573 53.1643 12.5956 53.2991C12.6175 53.4338 13.6276 53.3885 13.6491 53.1055Z" fill="#E5E0F4"/>
<path opacity="0.5" d="M14.1787 51.1122C14.2006 50.8287 13.3911 50.439 13.2936 50.4667C13.2936 50.4667 13.1026 51.1713 13.1249 51.3061C13.1468 51.4409 14.1576 51.3956 14.1787 51.1122Z" fill="#E5E0F4"/>
<path opacity="0.25" d="M8.21635 55.1634L5.7383 54.0804C5.7383 54.0804 4.97874 54.7861 5.49802 55.8162C5.49802 55.8162 4.3145 54.8738 5.08683 51.8862C5.8599 48.8986 6.29884 48.6002 6.29884 48.6002C6.29884 48.6002 6.06403 49.5309 6.56541 50.2151C6.67715 50.3681 9.33998 51.308 9.16945 51.2682C8.99928 51.2284 6.52123 50.7645 6.52123 50.7645L6.20353 52.0312L8.59795 53.2147L6.04614 52.5225L5.81937 53.6136L8.21635 55.1634Z" fill="#EAB2B2"/>
<path d="M60.876 78.036C60.876 78.036 52.6417 76.5891 52.1988 78.0919C51.9917 78.7943 54.7269 79.5263 56.8876 79.9927C54.2251 79.519 51.8519 79.4061 51.9914 80.2437C52.0987 80.888 54.4373 81.4827 56.5684 82.0324C55.0734 81.7892 51.9844 81.3793 51.9074 82.0361C51.7767 83.1502 54.8302 83.6959 56.8993 84.0199C55.6544 83.911 52.4562 83.6174 52.3792 84.2171C52.3113 84.7482 52.863 85.2983 55.4674 85.6958C56.9873 85.9277 56.8942 86.2115 57.6059 86.1808C58.1551 86.1575 58.7266 86.1943 59.16 85.9576C61.2463 84.8187 61.9379 78.7954 60.876 78.036Z" fill="#FECECC"/>
<path opacity="0.5" d="M52.5756 84.337C52.6589 84.0652 53.5546 83.998 53.6353 84.059C53.6353 84.059 53.5561 84.7844 53.486 84.902C53.4166 85.0197 52.4924 84.6087 52.5756 84.337Z" fill="#E5E0F4"/>
<path opacity="0.5" d="M52.0727 82.1793C52.156 81.9075 53.0518 81.8403 53.1328 81.9013C53.1328 81.9013 53.0532 82.6271 52.9831 82.7444C52.9134 82.8616 51.9891 82.4507 52.0727 82.1793Z" fill="#E5E0F4"/>
<path opacity="0.5" d="M52.2612 80.0884C52.3444 79.8167 53.2406 79.7491 53.3209 79.8105C53.3209 79.8105 53.2416 80.5363 53.1712 80.6535C53.1018 80.7711 52.1779 80.3602 52.2612 80.0884Z" fill="#E5E0F4"/>
<path opacity="0.5" d="M52.4956 78.0397C52.5788 77.7679 53.4746 77.7007 53.5553 77.7621C53.5553 77.7621 53.4761 78.4879 53.406 78.6051C53.3366 78.7224 52.412 78.3111 52.4956 78.0397Z" fill="#E5E0F4"/>
<path opacity="0.25" d="M56.5684 83.9881L59.2706 83.8844C59.2706 83.8844 59.7202 84.8187 58.8609 85.588C58.8609 85.588 60.307 85.1427 60.6776 82.0792C61.0483 79.0157 60.7481 78.5773 60.7481 78.5773C60.7481 78.5773 60.6269 79.5296 59.9108 79.9833C59.7508 80.0848 56.9288 79.988 57.1019 80.0132C57.2746 80.0384 59.7512 80.5111 59.7512 80.5111L59.5847 81.8067L56.9237 82.0346L59.5518 82.3217L59.3648 83.4201L56.5684 83.9881Z" fill="#EAB2B2"/>
</svg>
