<svg width="145" height="97" viewBox="0 0 145 97" fill="none" xmlns="http://www.w3.org/2000/svg">
<path d="M81.8338 4.54676C83.6034 5.31469 85.2619 6.16562 86.7651 7.07239C92.0211 10.2407 96.2492 14.8535 101.414 18.0313C106.291 21.0319 112.247 21.7613 117.828 22.2629C127.556 23.1372 147.846 31.5223 144.182 47.0633C142.849 52.7191 138.149 56.5602 135.743 61.6817C133.183 67.1298 133.452 73.9249 129.376 78.6478C127.583 80.7245 125.108 82.0961 122.567 83.1351C105.657 90.0473 86.6664 89.7259 68.7357 88.9641C54.583 88.3628 31.8518 91.5412 19.4206 83.7798C13.2489 79.9263 16.4582 69.3925 12.1876 63.7347C8.59906 58.9805 3.71498 55.8579 1.31575 49.9068C-2.76713 39.7806 3.05263 26.6026 13.2425 23.008C19.6101 20.7617 26.356 19.7326 32.6504 17.2657C39.1533 14.7161 41.659 10.8973 46.6182 6.37735C55.5838 -1.79247 70.8428 -0.224513 81.8338 4.54676Z" fill="#F0EEF9"/>
<path d="M97.4951 85.1181H48.4082V54.4195C48.4082 53.8393 48.8698 53.3693 49.439 53.3693H96.4642C97.0338 53.3693 97.4951 53.8393 97.4951 54.4195V85.1181Z" fill="#D3D3D3"/>
<path d="M50.2051 55.5935H95.6993V82.6647H50.2051V55.5935Z" fill="#F2F2F2"/>
<path d="M40.6013 94.2563C40.1501 94.8463 41.0123 96.6087 42.3645 96.6087H104.588C105.939 96.6087 106.791 94.8463 106.273 94.2563H40.6013Z" fill="#D3D3D3"/>
<path d="M106.1 93.9337C106.617 94.5229 105.94 95.001 104.589 95.001H42.365C41.0129 95.001 40.2828 94.5229 40.734 93.9337L47.1045 85.6046C47.5557 85.0148 48.7364 84.537 49.7424 84.537H96.0352C97.04 84.537 98.2756 85.0148 98.7931 85.6046C101.228 88.3818 103.664 91.1568 106.1 93.9337Z" fill="#F2F2F2"/>
<g opacity="0.5">
<path d="M54.5529 87.3464H52.4513C52.7487 86.9062 52.8976 86.6855 53.1944 86.245H55.213L54.5529 87.3464ZM57.2767 87.3464H55.1751C55.4296 86.9062 55.5569 86.6855 55.8108 86.245H57.8289L57.2767 87.3464ZM56.4064 86.0341H53.3384L53.6155 85.6231H56.6369L56.4064 86.0341ZM60.0022 86.0344L56.9334 86.0341L57.1552 85.6231H60.1766C60.1072 85.7877 60.0716 85.8698 60.0022 86.0344ZM63.5983 86.0341H60.5292L60.6952 85.6231H63.718L63.5983 86.0341ZM67.1938 86.0341H64.1256L64.2358 85.6231H67.2577C67.2329 85.7877 67.2198 85.8698 67.1938 86.0341ZM70.7902 86.0341H67.7211L67.7769 85.6231H70.798L70.7902 86.0341ZM74.386 86.0341H71.3178V85.6231H74.3389C74.3579 85.7877 74.3663 85.8698 74.386 86.0341ZM77.9824 86.0341H74.9136L74.8575 85.6231H77.8797C77.9202 85.7877 77.941 85.8698 77.9824 86.0341ZM81.5788 86.0341H78.5097L78.3986 85.6231H81.42C81.4839 85.7877 81.5154 85.8698 81.5788 86.0341ZM85.1749 86.0341H82.1061C82.0387 85.8698 82.0054 85.7877 81.9383 85.6231H84.9611L85.1749 86.0341ZM88.7701 86.0341H85.7019C85.6131 85.8698 85.5682 85.7877 85.48 85.6231H88.5005C88.6081 85.7877 88.6619 85.8698 88.7701 86.0341ZM92.7827 86.0341H89.298L89.02 85.6231H92.4515C92.5837 85.7877 92.6505 85.8698 92.7827 86.0341ZM59.9993 87.3464H57.8983C58.1094 86.9062 58.2156 86.6858 58.4261 86.2456L60.4441 86.245C60.2666 86.6861 60.1775 86.9056 59.9993 87.3464ZM62.7225 87.3464H60.6212C60.7898 86.9062 60.8737 86.6855 61.0426 86.245L63.0606 86.2456L62.7225 87.3464ZM65.4462 87.3464H63.3452C63.4707 86.9056 63.5338 86.6858 63.6587 86.245H65.6768C65.5848 86.6855 65.5379 86.9062 65.4462 87.3464ZM68.1694 87.3464H66.0684C66.1505 86.9062 66.191 86.6849 66.274 86.245H68.2926C68.2429 86.6855 68.2177 86.9062 68.1694 87.3464ZM70.8911 87.3464H68.7918L68.8902 86.245H70.9076C70.9016 86.6855 70.8984 86.9062 70.8911 87.3464ZM73.6158 87.3464H71.5147L71.5066 86.245H73.5241C73.5611 86.6855 73.5793 86.9062 73.6158 87.3464ZM76.3386 87.3464H74.2385L74.1234 86.245H76.1399C76.2198 86.6855 76.2591 86.9062 76.3386 87.3464ZM79.0612 87.3464H76.9608C76.872 86.9062 76.8272 86.6855 76.7378 86.245H78.7558C78.8776 86.6855 78.9389 86.9062 79.0612 87.3464ZM53.6728 88.8146H51.4621L52.2038 87.7134H54.3328L53.6728 88.8146ZM56.54 88.8146H54.3285C54.583 88.3743 54.7103 88.1539 54.9642 87.7134H57.0933C56.8715 88.1537 56.7604 88.3741 56.54 88.8146ZM59.4061 88.8146H57.1946C57.4057 88.3743 57.5107 88.1539 57.7224 87.7134H59.8506C59.6727 88.1539 59.5834 88.3741 59.4061 88.8146ZM62.2724 88.8146H60.0603C60.2287 88.3743 60.3131 88.1539 60.4809 87.7134H62.6102C62.4749 88.1539 62.4072 88.3741 62.2724 88.8146ZM65.1391 88.8146H62.9278C63.0534 88.3743 63.1156 88.1539 63.2408 87.7143C64.0926 87.7143 64.5175 87.7134 65.3693 87.7134C65.2764 88.1539 65.231 88.3741 65.1391 88.8146ZM68.0043 88.8146H65.793L65.9993 87.7134H68.1275C68.0786 88.1537 68.0534 88.3741 68.0043 88.8146ZM70.87 88.8146H68.6597L68.7586 87.7134H70.8856L70.87 88.8146ZM73.737 88.8146H71.5257L71.5176 87.7134H73.6458C73.682 88.1539 73.7011 88.3741 73.737 88.8146ZM76.6027 88.8146H74.3927C74.3461 88.3743 74.3227 88.1539 74.2772 87.7134H76.4043L76.6027 88.8146ZM79.4688 88.8146H77.2581C77.1688 88.3743 77.1236 88.1539 77.0348 87.7134H79.1631L79.4688 88.8146ZM52.7935 90.2827H50.4718C50.7683 89.8425 50.9175 89.6218 51.2146 89.1819L53.4536 89.1813C53.1895 89.6212 53.057 89.8422 52.7935 90.2827ZM55.8027 90.2827H53.4816L54.1165 89.1819H56.3561C56.1348 89.6215 56.0237 89.8422 55.8027 90.2827ZM58.8126 90.2827H56.4903L57.0181 89.1819H59.2571L58.8126 90.2827ZM61.8215 90.2827H59.4989L59.9198 89.1819H62.1593L61.8215 90.2827ZM64.8304 90.2827H62.5096C62.6345 89.8425 62.6982 89.6218 62.8226 89.1819H65.0613C64.9699 89.6215 64.9233 89.8422 64.8304 90.2827ZM67.8391 90.2827H65.518C65.6001 89.8425 65.642 89.6218 65.7245 89.1819H67.9635L67.8391 90.2827ZM70.8478 90.2827H68.5278L68.6261 89.1819H70.864C70.8582 89.6215 70.8547 89.8422 70.8478 90.2827ZM73.859 90.2827H71.537C71.5344 89.8425 71.5324 89.6218 71.5289 89.1819H73.7676C73.8043 89.6215 73.822 89.8422 73.859 90.2827ZM76.8677 90.2827H74.5474C74.5008 89.8425 74.4774 89.6218 74.4314 89.1819H76.6692C76.7485 89.6215 76.7887 89.8422 76.8677 90.2827ZM79.876 90.2827H77.5543C77.4658 89.8425 77.4213 89.6218 77.3319 89.1819H79.5706L79.876 90.2827ZM51.9136 91.75H49.4814C49.7782 91.3098 49.9277 91.0897 50.2245 90.6498H52.5731C52.3537 91.0168 52.1338 91.3835 51.9136 91.75ZM55.0663 91.75H52.6347L53.2705 90.6498H55.6197C55.3984 91.0897 55.287 91.3098 55.0663 91.75ZM58.2182 91.75H55.7865C55.9977 91.3098 56.1036 91.0897 56.3153 90.6498H58.6636C58.4857 91.0897 58.3969 91.3098 58.2182 91.75ZM61.3602 91.785H58.9242C59.0989 91.3312 59.1851 91.1039 59.3586 90.6501H61.7087C61.5693 91.1036 61.4999 91.3312 61.3602 91.785ZM80.2844 91.75H62.0911C62.2157 91.3098 62.2782 91.0897 62.4037 90.6498H79.9787L80.2844 91.75ZM66.8363 94.1689H80.6376L79.4754 92.2935H67.9348L66.8363 94.1689ZM81.5256 87.3464H79.4245C79.2958 86.9062 79.2325 86.6855 79.1046 86.245H81.1226C81.2838 86.6849 81.3636 86.9062 81.5256 87.3464ZM82.0624 88.8146H79.8503C79.7227 88.3743 79.6591 88.1539 79.531 87.7134H81.6603C81.8206 88.1539 81.9013 88.3741 82.0624 88.8146ZM82.5992 90.2827H80.2772C80.1491 89.8425 80.086 89.6218 79.9579 89.1819H82.1969C82.3577 89.6215 82.4375 89.8422 82.5992 90.2827ZM83.136 91.75H80.7038L80.3839 90.6498H82.7331L83.136 91.75ZM83.9884 87.3464H81.8874C81.7205 86.9062 81.6366 86.6855 81.4706 86.245H83.4889C83.6882 86.6855 83.7886 86.9062 83.9884 87.3464ZM84.6551 88.8146H82.4436C82.2767 88.3743 82.1928 88.1539 82.0268 87.7134H84.1553C84.3546 88.1537 84.4552 88.3741 84.6551 88.8146ZM85.3209 90.2827H82.9992L82.5818 89.1819H84.8208C85.0216 89.6215 85.1208 89.8422 85.3209 90.2827ZM85.9871 91.75H83.5546C83.3885 91.3098 83.3047 91.0897 83.1386 90.6498H85.4873C85.6874 91.0897 85.7866 91.3098 85.9871 91.75ZM86.4516 87.3464H84.3508L83.8366 86.245H85.8552C86.0938 86.6855 86.2135 86.9062 86.4516 87.3464ZM87.247 88.8146H85.0357L84.5215 87.7134H86.6506C86.8889 88.1539 87.0089 88.3741 87.247 88.8146ZM88.0432 90.2827H85.7212C85.5156 89.8425 85.4132 89.6218 85.207 89.1819H87.4465L88.0432 90.2827ZM88.8384 91.75H86.4062C86.2008 91.3098 86.0984 91.0897 85.8922 90.6498H88.2417L88.8384 91.75ZM88.9144 87.3464H86.8137L86.2031 86.245H88.2205C88.4991 86.6855 88.6371 86.9062 88.9144 87.3464ZM89.8397 88.8146H87.6285L87.0176 87.7134H89.1461C89.4235 88.1539 89.5629 88.3741 89.8397 88.8146ZM90.7647 90.2827H88.4436C88.1992 89.8425 88.0774 89.6218 87.8324 89.1819H90.0714C90.3491 89.6215 90.4876 89.8422 90.7647 90.2827ZM91.69 91.75H89.2578C89.0544 91.3831 88.8507 91.0163 88.6466 90.6498H90.9964C91.2735 91.0897 91.412 91.3098 91.69 91.75ZM91.3787 87.3464H89.2771C88.9934 86.9062 88.8517 86.6855 88.5682 86.245H90.5871C90.9035 86.6855 91.0614 86.9062 91.3787 87.3464ZM92.4321 88.8146H90.2206C89.9372 88.3743 89.7957 88.1539 89.5132 87.7134H91.6417C91.9581 88.1539 92.1163 88.3741 92.4321 88.8146ZM93.487 90.2827H91.1644C90.8815 89.8425 90.7404 89.6218 90.4569 89.1819H92.6965C93.0132 89.6215 93.1709 89.8422 93.487 90.2827ZM94.541 91.75H92.1082L91.4004 90.6498H93.7505L94.541 91.75ZM93.8407 87.3464H91.7403C91.4181 86.9062 91.2576 86.6855 90.9345 86.245H92.9534C93.3082 86.6855 93.4855 86.9062 93.8407 87.3464ZM95.0246 88.8146H92.8131C92.492 88.3743 92.3303 88.1539 92.0087 87.7134H94.1369L95.0246 88.8146ZM96.2084 90.2827H93.8867C93.5645 89.8425 93.404 89.6218 93.0818 89.1819H95.3208C95.6759 89.6215 95.8532 89.8422 96.2084 90.2827ZM97.3923 91.75H94.9595L94.1551 90.6498H96.5043C96.8595 91.0897 97.0365 91.3098 97.3923 91.75Z" fill="#D3D3D3"/>
</g>
<path d="M84.6019 82.6575H62.9414C63.0961 82.0287 63.2379 81.5266 63.3622 81.1772C63.4267 80.9978 63.5154 80.8281 63.626 80.6728C64.0099 80.129 64.667 79.6665 65.5136 79.2755C66.5242 78.8081 67.8032 78.4407 69.2054 78.1495C70.6953 77.844 72.3205 77.6239 73.903 77.4646C74.01 77.455 74.1158 77.4437 74.2229 77.4345C75.9829 77.2702 77.6737 77.18 79.0381 77.1363C80.9216 77.0712 82.1914 77.0848 82.1914 77.0848C82.1914 77.0848 82.2932 77.2471 82.4716 77.571C82.8896 78.3392 83.7252 80.0229 84.6019 82.6575Z" fill="#563C76"/>
<path d="M68.0087 47.3138C67.9677 47.5915 67.8954 47.8486 67.793 48.0962L67.8543 47.3962C67.9061 47.365 67.9578 47.3447 68.0087 47.3138Z" fill="#FFE3CA"/>
<path d="M79.4822 46.2746V46.2838C79.461 46.2746 79.4405 46.2639 79.4307 46.2639C79.4515 46.2641 79.461 46.2746 79.4822 46.2746Z" fill="#EEBEA7"/>
<path d="M101.713 61.0451C101.713 61.0451 103.051 59.8048 102.786 58.8743C102.561 58.0847 102.9 57.2002 102.985 56.8332C103.099 56.347 103.145 54.7686 103.508 54.8545C104.122 55.0038 103.98 57.5233 104.056 58.0604C104.132 58.597 105.758 56.7999 106.313 56.7059C106.869 56.6099 109.693 59.4722 108.435 60.5777C107.177 61.6808 105.441 62.1286 105.258 62.3669C105.075 62.6052 104.213 63.2601 104.213 63.2601L101.713 61.0451Z" fill="#F1B99E"/>
<path d="M105.957 56.8928C105.957 56.8928 110.036 53.769 110.481 53.7878C110.929 53.8057 111.083 54.0383 110.714 54.3455C110.345 54.6535 106.862 57.4799 106.862 57.4799C106.862 57.4799 112.309 54.5922 112.679 54.5277C112.894 54.4895 113.059 54.9025 112.875 55.0862C112.693 55.2678 107.624 58.457 107.624 58.457C107.624 58.457 112.714 55.7694 113.039 55.8076C113.324 55.842 113.526 56.3111 113.163 56.5361C112.798 56.7609 108.214 59.5231 108.214 59.5231C108.214 59.5231 112.044 57.8016 112.299 57.9939C112.453 58.1131 112.674 58.3745 111.674 58.7876C110.671 59.2012 108.491 60.5216 108.491 60.5216L105.957 56.8928Z" fill="#F1B99E"/>
<path d="M76.8382 43.578V43.8557C76.8165 43.8051 76.7966 43.7634 76.7867 43.7119C76.7656 43.7018 76.7656 43.6816 76.7656 43.6703C76.7867 43.6402 76.807 43.6098 76.8382 43.578Z" fill="#FF875C"/>
<path d="M73.7716 45.2663C73.7305 45.2758 73.6782 45.2758 73.6377 45.2758V45.2556C73.6782 45.2663 73.7305 45.2663 73.7716 45.2663ZM76.8381 43.578V43.6607C76.8206 43.6774 76.8034 43.6945 76.7866 43.7119C76.6735 43.8354 76.5495 43.9482 76.4262 44.0619C76.3745 44.1033 76.3337 44.1438 76.2828 44.1851C76.3438 44.1241 76.4158 44.0515 76.4786 43.9899C76.5711 43.8973 76.6631 43.7842 76.7655 43.6703C76.7866 43.6402 76.8069 43.6098 76.8381 43.578Z" fill="#EEBEA7"/>
<path d="M79.1938 40.0285C78.628 41.2841 77.9382 42.4161 77.1558 43.3113C77.0537 43.4346 76.9398 43.5578 76.8374 43.661V43.5783C76.8061 43.6098 76.7859 43.6405 76.7648 43.6706C76.6624 43.7845 76.5704 43.8976 76.4778 43.9902C76.4151 44.0521 76.3431 44.1244 76.282 44.1854C76.2603 44.1961 76.2407 44.2169 76.2201 44.2372C76.1889 44.2678 76.1582 44.2991 76.1267 44.3092C76.0456 44.3802 75.9597 44.4454 75.8696 44.5044C75.7568 44.5869 75.6541 44.6586 75.5413 44.7205C75.5144 44.7387 75.4869 44.756 75.4589 44.7723C75.355 44.8333 75.2532 44.8851 75.1612 44.9259C75.0687 44.9756 74.9719 45.017 74.872 45.0497L74.8622 45.0601C74.78 45.0809 74.7178 45.1116 74.6455 45.1321C74.6244 45.1425 74.605 45.1529 74.5836 45.1529C74.5125 45.1732 74.4402 45.1934 74.3676 45.2044C74.3476 45.2044 74.3372 45.2142 74.3167 45.2142H74.2851C74.2342 45.2252 74.1729 45.2353 74.1214 45.2458C74.0697 45.2556 74.008 45.2556 73.9568 45.2556C73.9059 45.2663 73.853 45.2663 73.8119 45.2663H73.8021C73.7923 45.2758 73.7819 45.2758 73.7714 45.2663C73.7304 45.2663 73.678 45.2663 73.6375 45.2556V45.2758C73.5762 45.2758 73.514 45.2663 73.4426 45.2556C73.37 45.2458 73.2878 45.2353 73.2152 45.2252C73.1742 45.2142 73.134 45.2142 73.0813 45.2044C73.0408 45.1934 72.9992 45.1934 72.9581 45.1732C72.7423 45.1217 72.5373 45.0392 72.3206 44.9259C72.253 44.8926 72.1876 44.8551 72.1248 44.8136C71.7855 44.6181 71.4558 44.3402 71.1159 43.9899C70.9936 43.8673 70.8799 43.7226 70.7564 43.578C70.2317 42.9194 69.7076 42.0456 69.2235 40.9344C69.0261 40.49 68.8407 40.0403 68.6675 39.5859C68.9244 40.0901 68.4764 35.3871 68.5796 35.5522C67.1806 32.8768 68.575 35.0787 69.0702 33.752C72.1665 35.0585 78.1852 37.3122 78.1852 35.0276C78.1852 35.0276 78.3188 36.4168 78.4739 37.8572C78.5971 39.0404 78.731 40.2657 78.7932 40.7284C78.7929 40.7282 78.9566 40.4707 79.1938 40.0285Z" fill="#F4C7B1"/>
<path d="M73.7716 45.2663C73.7305 45.2758 73.6782 45.2758 73.6377 45.2758V45.2556C73.6782 45.2663 73.7305 45.2663 73.7716 45.2663ZM76.8381 43.578V43.6607C76.8206 43.6774 76.8034 43.6945 76.7866 43.7119C76.6735 43.8354 76.5495 43.9482 76.4262 44.0619C76.3745 44.1033 76.3337 44.1438 76.2828 44.1851C76.3438 44.1241 76.4158 44.0515 76.4786 43.9899C76.5711 43.8973 76.6631 43.7842 76.7655 43.6703C76.7866 43.6402 76.8069 43.6098 76.8381 43.578Z" fill="#EEBEA7"/>
<path d="M68.667 39.586C67.8432 37.9601 66.5162 34.8532 66.7531 31.9099V31.8992C66.3832 29.4609 69.4184 25.0671 74.0491 25.2933C78.679 25.0671 81.7151 29.4609 81.3443 31.8992V31.9099C81.4875 33.6898 81.0556 35.5213 80.5208 37.0551C80.8604 37.0438 81.189 37.0852 81.5184 37.1986C83.3609 37.806 84.2248 40.2035 83.443 42.5394C82.6716 44.8851 80.5411 46.2841 78.6995 45.6773C77.8451 45.3994 77.1966 44.7309 76.8371 43.8557V43.6607C76.9395 43.5578 77.0537 43.4343 77.1555 43.3111C77.9379 42.4159 78.6278 41.2838 79.1935 40.0282C78.9563 40.4707 78.8123 41.0145 78.8123 41.0145C78.7501 40.5523 78.5962 39.0402 78.473 37.8569C78.3177 36.4165 78.1844 35.0273 78.1844 35.0273C78.1844 37.3123 72.1656 35.0582 69.0693 33.7517L68.667 39.586Z" fill="#FF875C"/>
<path d="M76.8381 43.578V43.8557C76.8381 44.0515 76.8283 44.2881 76.8381 44.5556C76.5393 44.9259 76.2411 45.235 75.9325 45.4714C75.8287 45.5538 75.7263 45.6261 75.6239 45.6978C75.5461 45.7563 75.4634 45.8079 75.3766 45.852H75.3668C74.8936 46.1192 74.4198 46.2532 73.957 46.2636H73.7198C73.6892 46.2636 73.6588 46.2636 73.6377 46.2532V45.255C73.6782 45.2657 73.7305 45.2657 73.7716 45.2657C73.782 45.2753 73.7924 45.2753 73.8023 45.2657H73.8121C73.8645 45.2753 73.9058 45.2753 73.957 45.2753C74.0189 45.2753 74.0906 45.2657 74.1522 45.255C74.224 45.2452 74.307 45.2348 74.3793 45.2246C74.4198 45.2136 74.4606 45.2136 74.5129 45.2038C74.5543 45.1928 74.5951 45.1928 74.6364 45.1726C74.8525 45.1211 75.0579 45.0387 75.273 44.9253C75.3358 44.8952 75.4084 44.8541 75.4692 44.8131C75.695 44.6895 75.9114 44.5241 76.1275 44.3083C76.159 44.2982 76.1896 44.267 76.2209 44.2363C76.2411 44.2161 76.2611 44.1952 76.2828 44.1845C76.3438 44.1235 76.4158 44.0509 76.4786 43.9893C76.5711 43.8967 76.6631 43.7837 76.7655 43.6697C76.7866 43.6402 76.8069 43.6098 76.8381 43.578Z" fill="#A5735B"/>
<path d="M73.6387 52.3963V80.2511L78.4444 80.0457L82.3959 79.8708L81.9939 75.0037L81.5516 69.5597C80.8655 69.8508 80.1827 70.1495 79.5033 70.4558C79.6887 68.305 79.7708 66.3295 79.6476 64.7135C79.164 58.704 78.4131 53.8063 77.8263 50.6062V50.5958C77.8876 49.9786 77.8052 49.289 77.6617 48.6513C77.6406 48.5197 77.6131 48.3892 77.5795 48.2602C77.5382 48.1159 77.5081 47.9825 77.4667 47.8486L77.3733 47.5403C77.3531 47.4683 77.3218 47.3962 77.3022 47.3341C77.2267 47.0823 77.1371 46.835 77.0337 46.5933H77.0138C77.0962 46.9641 77.3843 48.1989 77.7438 50.1431V50.1538C77.5084 51.1827 76.7564 51.7588 75.8299 52.0784C75.8201 52.0784 75.8001 52.088 75.7886 52.088C75.1517 52.3046 74.4312 52.3865 73.7422 52.3966C73.7113 52.3963 73.6699 52.407 73.6387 52.3963Z" fill="#674790"/>
<path d="M84.6165 61.0616C84.8638 61.4413 85.2129 62.1413 85.5632 62.9338C85.5123 63.8084 85.4504 64.3325 85.4504 64.3325C85.4504 64.3325 85.0697 65.3307 84.5653 66.8955C84.4308 67.2857 83.1356 74.2008 82.9915 74.654C82.9603 74.7362 82.9392 74.8287 82.9091 74.9111C82.4359 75.1472 82.5415 74.7353 81.7177 75.0656C81.4719 75.168 81.2035 75.2709 80.9255 75.3939C80.8844 75.4156 80.8335 75.4355 80.7604 75.4662C80.6782 75.4971 80.5961 75.5281 80.5136 75.5692C79.9665 75.8046 79.4213 76.0448 78.8783 76.2896C79.0628 74.1389 79.7703 66.3294 79.6465 64.7138C79.1632 58.7043 78.4126 53.8066 77.8257 50.6065V50.596C77.7942 50.4419 77.7748 50.2981 77.7436 50.1538V50.1431C77.3835 48.1988 77.0954 46.9644 77.0127 46.5933H79.678V46.6144C80.4185 46.5626 83.9139 46.0706 86.3016 48.3446C84.9841 47.7786 83.2383 48.2908 82.6526 48.6515C82.4155 48.7872 82.1971 48.9532 82.0029 49.1452C81.7046 49.4237 81.4606 49.7552 81.2833 50.1229C79.5753 53.6524 83.896 59.97 84.6165 61.0616Z" fill="#7F5BAE"/>
<path d="M84.8118 82.6576H78.1895C78.2586 81.8136 78.3465 80.9386 78.444 80.0463C78.5432 79.0887 78.6615 78.1151 78.7743 77.1363C78.8119 76.7985 78.8509 76.4627 78.888 76.1257C78.888 76.1257 78.8903 76.1257 78.8929 76.1234C79.6973 75.8292 80.7547 74.4623 81.914 74.0044C81.9415 73.9949 81.9669 73.9836 81.9947 73.9741C82.3253 73.861 82.6538 74.7767 82.9917 74.6541C83.2089 76.9535 83.984 79.9538 84.8118 82.6576Z" fill="#7F5BAE"/>
<path d="M73.6387 46.2538V52.3966C73.6699 52.4073 73.7113 52.3966 73.7425 52.3966C74.4315 52.3865 75.152 52.3046 75.7889 52.088C75.8007 52.088 75.8204 52.0784 75.8302 52.0784C76.7564 51.7588 77.5084 51.1827 77.7441 50.1538V50.1431C77.3846 48.1989 77.0968 46.9644 77.0141 46.5933H76.8698V46.3981C76.8698 46.2749 76.859 46.1615 76.859 46.0481C76.8492 45.6776 76.8492 45.3279 76.8391 44.988V44.5562C76.5409 44.9264 76.2421 45.2356 75.9338 45.4719C75.8385 45.557 75.7353 45.6328 75.6257 45.6984C75.5477 45.7566 75.465 45.8082 75.3784 45.8526H75.3686C74.8636 46.1409 74.3699 46.2642 73.8761 46.2642C73.7934 46.2642 73.7113 46.2642 73.6387 46.2538Z" fill="#F4C7B1"/>
<path d="M103.159 59.7479L103.397 60.1716L103.404 60.1797L105.263 63.4663L105.55 63.9722C105.55 63.9722 104.987 64.1993 104.1 64.5744C103.293 64.9154 102.222 65.3635 101.061 65.8662C100.739 66.01 100.416 66.1507 100.091 66.2884C97.8328 67.2901 95.4558 68.3594 94.2656 69.0437C91.6691 70.5266 89.5085 71.0447 88.1922 71.0175C86.8828 70.9828 84.011 63.2318 83.5624 61.3723C83.1077 59.5208 81.4275 56.1093 80.2237 52.8609C79.7144 51.4806 79.8616 50.2626 80.2977 49.2957C80.878 47.9849 81.9719 47.1377 82.6472 47.0023C82.9134 46.9412 83.1864 46.9145 83.4594 46.9228C83.8802 46.9245 84.2774 47.0052 84.6505 47.1496C88.3047 48.5735 89.4362 56.144 89.6503 57.4334C89.7289 57.8809 89.9485 58.6312 90.2313 59.4503C90.8581 61.3665 91.7707 63.6789 91.7707 63.6789C93.6056 62.8882 94.3631 62.6623 95.0622 62.4618C95.5698 62.3134 96.0485 62.1925 96.8763 61.8744C97.1259 61.7818 97.3929 61.6739 97.6798 61.5759C98.3804 61.3221 99.084 61.0766 99.7904 60.8392C101.537 60.2555 103.159 59.7479 103.159 59.7479Z" fill="#7F5BAE"/>
<path d="M73.9566 45.2556V46.2537C73.9259 46.2641 73.9057 46.2641 73.8744 46.2641H73.637C73.1736 46.2537 72.6998 46.1198 72.2266 45.8525H72.2168C72.1303 45.808 72.0476 45.7565 71.9695 45.6984C71.8646 45.626 71.7619 45.5504 71.6615 45.4719C71.3528 45.2356 71.0541 44.9261 70.7559 44.5562C70.7657 44.155 70.7559 43.8151 70.7559 43.5786C70.8794 43.7232 70.993 43.8675 71.1154 43.9904C71.4552 44.3407 71.785 44.6189 72.1242 44.8142C72.1861 44.8553 72.2582 44.8966 72.3201 44.9264C72.5367 45.0398 72.7421 45.1222 72.9575 45.1737C72.9986 45.1939 73.04 45.1939 73.0808 45.2049C73.1337 45.2148 73.1736 45.2148 73.2147 45.2258C73.2873 45.2359 73.3694 45.2463 73.442 45.2561C73.5132 45.2668 73.5756 45.2764 73.637 45.2764C73.6775 45.2764 73.7298 45.2764 73.7709 45.2668C73.7813 45.2764 73.7917 45.2764 73.8015 45.2668H73.8114C73.8527 45.2663 73.9054 45.2663 73.9566 45.2556Z" fill="#A5735B"/>
<path d="M73.9572 52.3963V80.2511L69.1515 80.0457L65.2002 79.8708L65.6017 75.0037L66.0439 69.5597C66.682 69.8281 67.4025 70.1466 68.0923 70.4558C67.9063 68.305 67.8253 66.3295 67.9482 64.7135C68.4316 58.704 69.1821 53.8063 69.7687 50.6062V50.5958C69.708 49.9786 69.7904 49.289 69.9339 48.6513C69.9538 48.5165 69.9853 48.384 70.0166 48.2602C70.0579 48.1159 70.0874 47.9825 70.1288 47.8486L70.2222 47.5403C70.2425 47.4683 70.2737 47.3962 70.294 47.3341C70.3698 47.0825 70.4592 46.8352 70.5618 46.5933H70.5818C70.4996 46.9641 70.211 48.1989 69.8514 50.1431V50.1538C70.0874 51.1827 70.8395 51.7588 71.7662 52.0784C71.776 52.0784 71.7963 52.088 71.8073 52.088C72.4442 52.3046 73.1652 52.3865 73.8536 52.3966C73.8843 52.3963 73.9265 52.407 73.9572 52.3963Z" fill="#674790"/>
<path d="M70.5813 46.593C70.4991 46.9638 70.2105 48.1986 69.8509 50.1428V50.1535C69.8203 50.2976 69.7995 50.4416 69.7685 50.5958V50.6062C69.1819 53.8063 68.4314 58.704 67.948 64.7135C67.8248 66.3292 67.9061 68.305 68.0921 70.4557C67.4126 70.1494 66.7298 69.8507 66.0437 69.5597C65.7663 69.4362 65.4979 69.3338 65.2521 69.2314C64.4277 68.9017 63.9956 68.6648 63.5227 68.4279C63.4926 68.3457 63.4712 68.2538 63.4403 68.1713C63.2962 67.7184 63.1629 67.286 63.0293 66.8958C62.5245 65.3313 62.1442 64.3329 62.1442 64.3329C62.1442 64.3329 62.0829 63.8088 62.0314 62.9341C62.3811 62.1413 62.7311 61.4416 62.9784 61.0619C63.698 59.9703 68.0192 53.6527 66.311 50.1232C66.1338 49.7555 65.8898 49.424 65.5913 49.1455C65.3972 48.9537 65.179 48.7877 64.9423 48.6518C64.3572 48.2914 62.0493 48.6992 60.7324 49.2653C63.1198 46.9904 67.1764 46.5629 67.9171 46.6147V46.5936H70.5813V46.593ZM69.4055 82.6575H62.7828C62.9818 82.0079 63.1782 81.3415 63.3613 80.6728C63.9511 78.5538 64.439 76.4025 64.6033 74.654C64.9408 74.7767 65.272 74.89 65.6026 75.0031C66.796 75.424 67.8859 75.8269 68.707 76.1257C68.7811 76.8005 68.8617 77.4781 68.9407 78.1495C69.0124 78.7872 69.0859 79.4212 69.151 80.046C69.2485 80.9386 69.3361 81.8135 69.4055 82.6575Z" fill="#7F5BAE"/>
<path d="M73.9566 46.2538V52.3966C73.926 52.4073 73.884 52.3966 73.8528 52.3966C73.1644 52.3865 72.4433 52.3046 71.8064 52.088C71.7957 52.088 71.7755 52.0784 71.7653 52.0784C70.8386 51.7588 70.0866 51.1827 69.8506 50.1538V50.1431C70.2101 48.1989 70.4991 46.9644 70.5809 46.5933H70.7252V46.3981C70.7252 46.2749 70.7359 46.1615 70.7359 46.0481C70.7458 45.6776 70.7458 45.3279 70.7559 44.988V44.5562C71.0541 44.9264 71.3529 45.2356 71.6615 45.4719C71.7653 45.5648 71.8677 45.6365 71.9695 45.6984C72.0526 45.76 72.1347 45.8106 72.2168 45.8526H72.2267C72.7311 46.1409 73.2266 46.2642 73.7191 46.2642C73.8019 46.2642 73.8837 46.2642 73.9566 46.2538Z" fill="#F4C7B1"/>
<path d="M76.7963 73.491C76.7243 73.9436 76.4261 74.2832 76.4261 74.2832C76.4261 74.2832 76.6008 74.8796 76.1999 75.2707C76.1999 75.2707 76.3335 75.8364 75.8088 76.2069C75.8088 76.2069 75.9323 76.7628 75.5202 76.9997C75.5202 76.9997 74.6247 77.1131 74.2967 77.0515C72.9662 76.7487 71.6388 76.4331 70.3145 76.1045L71.1888 72.4306V72.4208C71.5697 72.1637 71.9293 71.9262 72.0429 71.8545C72.3209 71.6893 73.2679 71.7414 74.244 72.0497C75.1919 72.3485 76.2516 72.7702 76.5496 72.9348C76.7043 73.0172 76.8576 73.0487 76.7963 73.491Z" fill="#EEA886"/>
<path d="M71.3022 71.9471L71.1885 72.4208V72.4307L70.3141 76.1046L70.1805 76.6709C70.1805 76.6709 69.6139 76.4548 68.7074 76.1251C67.8848 75.8266 66.795 75.4257 65.6013 75.004C65.2719 74.8904 64.9418 74.777 64.6037 74.6543C62.2675 73.8508 59.7974 73.0175 58.4597 72.7089C55.5477 72.0295 53.6124 70.9391 52.666 70.0236C51.7303 69.1079 54.8992 61.4729 55.8363 59.8057C56.7625 58.1385 57.852 54.4962 59.1802 51.2963C59.746 49.9375 60.6816 49.1456 61.6598 48.7343C62.9776 48.1679 64.3564 48.2911 64.9415 48.6515C65.1784 48.7873 65.3965 48.9533 65.5906 49.1453C65.889 49.4237 66.133 49.7552 66.3102 50.1229C68.0185 53.6525 63.6972 59.97 62.9776 61.0616C62.7303 61.4414 62.3803 62.1413 62.0307 62.9338C61.1869 64.7647 60.2813 67.0801 60.2813 67.0801C62.164 67.7496 62.8738 68.0988 63.522 68.4276C63.9949 68.6645 64.427 68.9014 65.2513 69.2311C65.4972 69.3335 65.7656 69.4359 66.043 69.5594C66.681 69.8278 67.4015 70.1463 68.0913 70.4555C69.1656 70.9441 70.2359 71.4413 71.3022 71.9471Z" fill="#7F5BAE"/>
<path d="M80.9971 37.1098L80.9086 33.0778C80.8956 32.4051 80.9086 31.7386 80.8126 31.1148C80.7177 30.4819 80.5459 29.8624 80.2798 29.2888C79.7568 28.1391 78.8793 27.1687 77.7773 26.5532C76.6764 25.9281 75.396 25.6441 74.119 25.6493C72.8423 25.6441 71.5592 25.9281 70.4627 26.5532C69.3584 27.1687 68.4812 28.1391 67.9565 29.2888C67.6921 29.8621 67.5206 30.4819 67.4255 31.1148C67.3297 31.7453 67.3393 32.3964 67.3303 33.0778L67.2401 37.1098H66.7348L66.6483 33.0778C66.6402 32.4166 66.6098 31.7204 66.6989 31.0173C66.7868 30.3208 66.9578 29.6261 67.2403 28.9727C67.7876 27.6546 68.81 26.5373 70.0471 25.8307C71.2859 25.1131 72.7162 24.7897 74.1193 24.7825C75.5233 24.7897 76.9521 25.1131 78.1906 25.8307C79.4286 26.5373 80.4496 27.6546 80.9959 28.9727C81.2782 29.6261 81.4512 30.3208 81.5409 31.0173C81.6288 31.7259 81.5996 32.41 81.5918 33.0778L81.5041 37.1098H80.9971Z" fill="#674790"/>
<path d="M67.1391 39.299C66.2317 39.299 66.0029 38.6485 66.0029 37.845V35.2381C66.0029 34.4354 66.2317 33.7835 67.1391 33.7835H67.356V39.299H67.1391Z" fill="#563C76"/>
<path d="M67.3564 33.7838H67.8253V39.2993H67.3564V33.7838Z" fill="#7F5BAE"/>
<path d="M81.2384 39.299C82.1466 39.299 82.3771 38.6485 82.3771 37.845V35.2381C82.3771 34.4354 82.1466 33.7835 81.2384 33.7835H81.0215V39.299H81.2384Z" fill="#563C76"/>
<path d="M80.5518 33.7838H81.0209V39.2993H80.5518V33.7838Z" fill="#7F5BAE"/>
<path d="M74.4561 44.3251V43.8192C76.549 43.8192 80.535 40.845 80.535 39.299H81.0397C81.0397 41.256 76.6305 44.3251 74.4561 44.3251Z" fill="#F0EEF9"/>
<path d="M74.7918 44.7786H74.1179C73.5588 44.7786 73.1064 44.4633 73.1064 44.072C73.1064 43.6821 73.5588 43.3671 74.1179 43.3671H74.7918C75.3504 43.3671 75.803 43.6824 75.803 44.072C75.8027 44.4633 75.3504 44.7786 74.7918 44.7786Z" fill="#563C76"/>
<path d="M56.4087 17.0662V21.0614L56.3847 26.4849L56.3526 33.0356L56.3324 37.8682L51.518 33.0171L50.049 33.0119L30.5679 32.9207C27.2767 32.2786 24.793 29.3822 24.793 25.9093V17.0662C24.793 13.3977 27.5668 10.368 31.1296 9.96912L50.6566 10.0591C53.9349 10.7061 56.4087 13.597 56.4087 17.0662Z" fill="#7F5BAE"/>
<path opacity="0.8" d="M50.3352 17.2579C50.3353 17.3957 50.3083 17.5321 50.2556 17.6595C50.203 17.7868 50.1259 17.9025 50.0285 18C49.9312 18.0975 49.8156 18.1748 49.6884 18.2277C49.5611 18.2805 49.4247 18.3077 49.287 18.3079H31.3296C31.1918 18.3079 31.0553 18.2807 30.9279 18.2279C30.8006 18.1752 30.6849 18.0978 30.5874 18.0003C30.49 17.9028 30.4127 17.7871 30.36 17.6597C30.3073 17.5323 30.2802 17.3958 30.2803 17.2579C30.2803 17.1201 30.3074 16.9837 30.3602 16.8564C30.4129 16.7291 30.4902 16.6134 30.5876 16.516C30.6851 16.4186 30.8008 16.3413 30.9281 16.2886C31.0554 16.2359 31.1918 16.2088 31.3296 16.2089H49.287C49.8654 16.2089 50.3352 16.6783 50.3352 17.2579ZM50.3352 21.165C50.335 21.4431 50.2246 21.7098 50.0281 21.9067C49.8316 22.1036 49.5651 22.2145 49.287 22.2152H31.3296C31.0513 22.2146 30.7846 22.1038 30.5879 21.9069C30.3912 21.7101 30.2806 21.4432 30.2803 21.165C30.2802 21.0271 30.3073 20.8906 30.3601 20.7633C30.4128 20.6359 30.4901 20.5202 30.5875 20.4227C30.6849 20.3252 30.8006 20.2478 30.928 20.195C31.0553 20.1422 31.1918 20.1151 31.3296 20.115H49.287C49.4247 20.1151 49.5611 20.1424 49.6884 20.1952C49.8156 20.248 49.9312 20.3254 50.0285 20.4229C50.1259 20.5204 50.203 20.6361 50.2556 20.7634C50.3083 20.8908 50.3353 21.0272 50.3352 21.165ZM44.8492 25.0717C44.8492 25.6473 44.3777 26.1187 43.7981 26.1187H31.3285C31.051 26.1184 30.785 26.008 30.5888 25.8117C30.3927 25.6153 30.2826 25.3492 30.2826 25.0717C30.2826 24.7816 30.3968 24.5207 30.5877 24.3301C30.6846 24.232 30.7999 24.1541 30.9271 24.1009C31.0542 24.0477 31.1906 24.0202 31.3285 24.02H43.7981C44.0769 24.0203 44.3441 24.1313 44.5412 24.3284C44.7383 24.5256 44.849 24.7929 44.8492 25.0717Z" fill="#F0EEF9"/>
</svg>
