<svg width="153" height="48" viewBox="0 0 153 48" fill="none" xmlns="http://www.w3.org/2000/svg">
<path d="M4.35446 47.9121C6.75936 47.9121 8.70892 45.8992 8.70892 43.4162C8.70892 40.9332 6.75936 38.9203 4.35446 38.9203C1.94955 38.9203 -7.62939e-06 40.9332 -7.62939e-06 43.4162C-7.62939e-06 45.8992 1.94955 47.9121 4.35446 47.9121Z" fill="#FF875C"/>
<path d="M29.2138 27.6275C31.7161 24.7145 33.182 20.866 33.2392 16.9712C33.3208 13.7699 32.4368 10.5605 30.8049 7.84066C28.8684 4.65028 25.8738 2.12355 22.4033 0.937699C19.8603 -0.00064645 17.0996 -0.155677 14.4315 0.127186C10.5149 0.584119 6.78599 2.59408 4.2239 5.68654C1.58294 8.70284 0.187658 12.7826 0.206697 16.8324C0.0951833 23.6484 0.106063 30.467 0.0190277 37.2829H8.81499C8.86939 30.4208 8.92923 23.5613 8.99178 16.6992C9.0081 14.6321 9.7479 12.5487 11.1731 11.0718C13.0335 9.00475 16.0443 8.12624 18.6771 8.91227C22.0117 9.74182 24.4922 13.1634 24.3942 16.6937C24.3752 18.6792 23.6218 20.681 22.1993 22.0437C19.8249 24.5622 17.2383 26.8659 14.9238 29.4444C13.4034 31.2313 12.2447 33.4344 12.0271 35.836C11.6246 39.5703 13.2456 43.4869 16.1994 45.6927C18.1277 47.2539 20.6164 47.9175 23.0398 47.9094C26.3362 47.9583 29.6381 48.0073 32.9373 47.9991C32.9617 45.0209 32.9889 42.0427 33.0053 39.0672C28.0198 39.04 23.0343 38.9828 18.0516 38.9692C20.3634 36.8233 22.5311 34.5141 24.7397 32.2539C26.2165 30.6955 27.7641 29.2132 29.2165 27.6275H29.2138Z" fill="#7F5BAE"/>
<path d="M47.5727 10.3783H57.2445C58.4929 10.3783 59.6597 10.5823 60.7422 10.9902C61.8247 11.3982 62.7603 11.9775 63.5518 12.7309C64.3405 13.4816 64.9607 14.3683 65.4067 15.3882C65.8528 16.4082 66.0758 17.5287 66.0758 18.7527C66.0758 19.6964 65.9153 20.5885 65.5971 21.429C65.2789 22.2694 64.8383 23.0282 64.278 23.7028C63.7177 24.3773 63.0595 24.9593 62.3088 25.4407C61.5554 25.9249 60.7476 26.2812 59.8827 26.5124L59.8446 26.7028L67.3378 37.5196V37.748H62.2925L55.0686 27.0835H51.8946V37.748H47.5754V10.3783H47.5727ZM57.1302 23.031C57.7667 23.031 58.3596 22.9222 58.909 22.7073C59.4557 22.4924 59.9344 22.1905 60.3424 21.8098C60.7504 21.4263 61.074 20.9748 61.3161 20.4526C61.5581 19.9303 61.6805 19.351 61.6805 18.7146C61.6805 18.206 61.5853 17.6946 61.395 17.186C61.2046 16.6774 60.9244 16.2178 60.5545 15.8098C60.1846 15.4018 59.725 15.07 59.1783 14.817C58.6289 14.5614 58.0006 14.4335 57.2853 14.4335H51.8946V17.798C51.8946 20.6892 54.2391 23.0337 57.1302 23.0337V23.031Z" fill="#7F5BAE"/>
<path d="M81.1736 35.224H80.9452C80.3849 36.1161 79.588 36.8614 78.5572 37.4597C77.5263 38.0581 76.3595 38.3573 75.0594 38.3573C72.6905 38.3573 70.9171 37.6501 69.7449 36.2358C68.5726 34.8215 67.9851 32.9421 67.9851 30.5976V19.0165H72.2281V30.0264C72.2281 31.6583 72.6034 32.7979 73.3568 33.448C74.1075 34.098 75.0948 34.4217 76.3187 34.4217C77.0313 34.4217 77.6759 34.2694 78.2498 33.962C78.8237 33.6574 79.3133 33.2413 79.7212 32.719C80.1292 32.1968 80.4339 31.5985 80.6378 30.9212C80.8418 30.2467 80.9425 29.5395 80.9425 28.7998V19.0138H85.1854V37.7453H81.1709V35.2213L81.1736 35.224Z" fill="#7F5BAE"/>
<path d="M92.1428 21.5405H92.3712C92.9315 20.6484 93.7284 19.9032 94.7592 19.3048C95.7901 18.7064 96.9569 18.4072 98.257 18.4072C100.626 18.4072 102.397 19.1144 103.572 20.5287C104.744 21.943 105.331 23.8224 105.331 26.1669V37.7507H101.088V26.7408C101.088 25.1089 100.713 23.9693 99.9596 23.3193C99.2089 22.6692 98.2216 22.3456 96.9977 22.3456C96.2579 22.3456 95.6078 22.4979 95.0476 22.8052C94.4873 23.1098 94.0031 23.526 93.5952 24.0482C93.1872 24.5704 92.8826 25.1688 92.6786 25.846C92.4746 26.5205 92.374 27.2277 92.374 27.9675V37.7535H88.131V19.0219H92.1455V21.5459L92.1428 21.5405Z" fill="#7F5BAE"/>
<path d="M112.136 21.5405H112.365C112.925 20.6484 113.722 19.9032 114.753 19.3048C115.784 18.7064 116.95 18.4072 118.251 18.4072C120.619 18.4072 122.39 19.1144 123.565 20.5287C124.737 21.943 125.325 23.8224 125.325 26.1669V37.7507H121.082V26.7408C121.082 25.1089 120.707 23.9693 119.953 23.3193C119.202 22.6692 118.215 22.3456 116.991 22.3456C116.251 22.3456 115.601 22.4979 115.041 22.8052C114.481 23.1098 113.997 23.526 113.589 24.0482C113.181 24.5704 112.876 25.1688 112.672 25.846C112.468 26.5205 112.367 27.2277 112.367 27.9675V37.7535H108.125V19.0219H112.139V21.5459L112.136 21.5405Z" fill="#7F5BAE"/>
<path d="M130.561 17.0092C129.745 17.0092 129.062 16.7291 128.515 16.1688C127.966 15.6085 127.694 14.934 127.694 14.1425C127.694 13.3511 127.969 12.6765 128.515 12.1162C129.062 11.556 129.745 11.2758 130.561 11.2758C131.376 11.2758 132.018 11.556 132.568 12.1162C133.114 12.6765 133.389 13.3538 133.389 14.1425C133.389 14.9313 133.114 15.6085 132.568 16.1688C132.018 16.7291 131.349 17.0092 130.561 17.0092Z" fill="#FF875C"/>
<path d="M132.663 19.0165H128.42V37.748H132.663V19.0165Z" fill="#7F5BAE"/>
<path d="M140.651 28.2286L134.192 19.0165H139.123L143.175 24.9403H143.289L147.073 19.0165H152.194L145.658 28.2286L152.308 37.748H147.263L143.21 31.6311H143.096L139.082 37.748H134.075L140.648 28.2286H140.651Z" fill="#7F5BAE"/>
</svg>
