<svg width="30" height="29" viewBox="0 0 30 29" fill="none" xmlns="http://www.w3.org/2000/svg">
<path fill-rule="evenodd" clip-rule="evenodd" d="M14.5935 4.6289C16.7257 3.85423 17.5684 0.855912 19.8007 0.42326C21.5998 0.0745684 24.3128 0.928842 24.7479 2.66084C25.3707 5.13994 21.0266 7.52241 22.1621 9.82337C23.2747 12.0778 29.229 9.65715 29.4308 12.1498C29.6343 14.6635 23.6733 13.3982 22.6387 15.7105C21.7817 17.6257 26.3493 19.5233 25.3128 21.3527C24.3729 23.0115 20.9592 19.9414 19.5188 21.2166C17.6313 22.8877 19.9517 27.8385 17.4463 28.3173C14.9561 28.7932 15.2593 23.2978 12.8618 22.4887C10.9338 21.838 9.35523 25.0647 7.32127 24.9002C5.60323 24.7613 3.83067 23.3363 3.3722 21.7212C2.84577 19.8667 5.48882 18.0008 4.84626 16.1812C4.15173 14.2143 0.019996 14.2511 6.59098e-05 12.1718C-0.0185414 10.2304 3.90822 10.4838 4.77489 8.73456C5.65812 6.95191 3.08107 4.1491 4.61792 2.85146C6.17934 1.53306 8.66934 3.3659 10.7039 3.72841C12.0261 3.964 13.3344 5.08639 14.5935 4.6289Z" fill="#FC3813"/>
</svg>
