<svg width="325" height="275" viewBox="0 0 325 275" fill="none" xmlns="http://www.w3.org/2000/svg">
<path d="M314.422 185.916C309.128 201.688 296.336 214.144 279.099 223.602C228.373 251.449 139.18 253.346 89.5712 237.398C75.305 232.812 61.2741 224.996 48.7195 214.771C15.104 187.372 -7.93059 142.634 3.42094 96.0581C26.9552 -0.49823 170.098 4.08539 223.61 78.7317C263.529 134.396 337.45 117.298 314.422 185.916Z" fill="#FFF3ED"/>
<mask id="mask0_2042_19487" style="mask-type:luminance" maskUnits="userSpaceOnUse" x="0" y="23" width="319" height="225">
<path d="M314.422 185.916C309.128 201.688 296.336 214.144 279.099 223.602C228.373 251.449 139.18 253.346 89.5712 237.398C75.305 232.812 61.2741 224.996 48.7195 214.771C15.104 187.372 -7.93059 142.634 3.42094 96.0581C26.9552 -0.49823 170.098 4.08539 223.61 78.7317C263.529 134.396 337.45 117.298 314.422 185.916Z" fill="white"/>
</mask>
<g mask="url(#mask0_2042_19487)">
<path d="M300.176 161.19H300.149C300.061 161.183 299.978 161.141 299.92 161.074C299.862 161.006 299.834 160.918 299.84 160.829C299.84 160.74 300.494 151.884 296.982 147.972C296.487 147.407 295.879 146.952 295.197 146.637C294.515 146.322 293.774 146.155 293.023 146.146C292.274 146.117 291.528 146.26 290.842 146.562C290.156 146.865 289.548 147.321 289.065 147.894C286.289 151.001 285.908 157.451 286.217 159.615C286.23 159.704 286.206 159.795 286.152 159.866C286.098 159.938 286.017 159.986 285.928 159.998C285.839 160.011 285.749 159.987 285.677 159.933C285.605 159.879 285.558 159.798 285.545 159.709C285.175 157.119 285.693 150.654 288.558 147.446C289.105 146.797 289.793 146.282 290.57 145.941C291.347 145.599 292.191 145.439 293.039 145.474C293.881 145.484 294.712 145.672 295.477 146.024C296.242 146.377 296.925 146.888 297.479 147.522C301.184 151.649 300.537 160.516 300.508 160.878C300.502 160.962 300.464 161.041 300.403 161.099C300.341 161.156 300.261 161.189 300.176 161.19Z" fill="#654B1E"/>
<path d="M312.419 219L309.628 157.274L274.399 157.272L271.608 219.003H294.593V219H312.419Z" fill="url(#paint0_linear_2042_19487)"/>
<path d="M269.838 162.559C269.838 162.559 274.162 162.198 274.4 157.272C276.927 165.944 276.129 175.77 274.4 185.914H271.014L269.838 162.559Z" fill="url(#paint1_linear_2042_19487)"/>
<path d="M295.781 165.476H295.75C295.661 165.467 295.58 165.424 295.523 165.355C295.466 165.287 295.439 165.199 295.447 165.11C295.447 165.012 296.328 155.296 293.025 151.828C292.65 151.416 292.187 151.094 291.669 150.888C291.152 150.681 290.595 150.594 290.039 150.634C289.21 150.654 288.396 150.853 287.651 151.218C286.906 151.582 286.249 152.102 285.724 152.744C282.96 156.031 283.016 162.057 283.26 163.91C283.266 163.954 283.262 163.999 283.251 164.041C283.239 164.084 283.219 164.125 283.192 164.16C283.164 164.195 283.13 164.224 283.092 164.246C283.053 164.268 283.011 164.283 282.966 164.288C282.922 164.294 282.878 164.291 282.835 164.279C282.792 164.267 282.751 164.247 282.716 164.22C282.681 164.193 282.652 164.159 282.63 164.12C282.608 164.081 282.593 164.039 282.588 163.995C282.341 162.066 282.292 155.78 285.211 152.309C285.795 151.596 286.526 151.017 287.354 150.612C288.182 150.207 289.088 149.985 290.01 149.962C290.661 149.921 291.313 150.025 291.919 150.268C292.525 150.51 293.069 150.885 293.511 151.364C297.024 155.056 296.153 164.761 296.115 165.173C296.106 165.256 296.068 165.333 296.006 165.389C295.944 165.444 295.864 165.475 295.781 165.476Z" fill="#654B1E"/>
<path d="M312.419 219H300.535C300.759 206.388 301.431 166.13 301.473 166.029C301.516 165.928 304.039 162.559 304.039 162.559C301.431 160.276 303.62 157.406 309.639 157.274L312.419 219Z" fill="url(#paint2_linear_2042_19487)"/>
<path d="M304.039 162.559H269.838L267.128 224.288H306.747L304.039 162.559Z" fill="url(#paint3_linear_2042_19487)"/>
<path d="M279.729 174.103C283.356 174.753 283.356 177.627 284.286 185.23C285.216 192.834 289.439 230.69 289.439 230.69H269.834L279.729 174.103Z" fill="url(#paint4_linear_2042_19487)"/>
<path d="M279.729 174.103C279.729 174.103 279.454 186.187 279.183 198.923C279.131 201.325 279.082 203.751 279.032 206.123C278.795 217.486 278.611 227.612 278.674 228.078C278.824 229.133 237.372 229.888 237.372 229.888L242.637 206.141L244.232 198.941L249.732 174.103H279.729Z" fill="url(#paint5_linear_2042_19487)"/>
</g>
<path d="M189.537 217.8C189.537 217.8 205.264 218.362 205.141 218.118C205.018 217.874 195.284 178.711 195.284 178.711L182.373 183.546L189.537 217.8Z" fill="#F9CBA2"/>
<path d="M185.612 195.547C190.693 189.075 196.458 185.168 198.655 184.191C200.853 183.214 195.644 178.037 195.644 178.037L181.416 183.85L185.612 195.547Z" fill="#E5AD83"/>
<path d="M86.1906 196.17C92.9473 195.448 100.304 193.578 100.304 193.578L99.5607 185.903L88.9999 183.38L86.1906 196.17Z" fill="url(#paint6_linear_2042_19487)"/>
<path d="M116.298 120.385L155.761 122.101L176.347 223.712C176.347 223.712 118.003 230.605 118.173 229.01C118.343 227.415 116.298 120.385 116.298 120.385Z" fill="url(#paint7_linear_2042_19487)"/>
<path d="M186.963 186.51L195.667 219.386L166.754 218.613C166.754 218.613 156.795 169.775 154.065 158.08C151.334 146.386 149.638 139.226 149.481 130.794C149.481 130.794 151.786 120.334 152.617 117.3C162.376 117.507 178.542 118.322 188.193 119.415C190.489 119.675 192.418 119.951 193.794 120.24C194.856 121.707 203.203 181.675 203.203 181.675L186.963 186.51Z" fill="url(#paint8_linear_2042_19487)"/>
<path d="M203.21 181.673L186.963 186.507C186.654 185.824 174.194 140.582 181.416 127.03C183.108 123.858 185.505 121.367 188.189 119.413C190.485 119.673 192.414 119.949 193.789 120.238C194.86 121.705 203.21 181.673 203.21 181.673Z" fill="url(#paint9_linear_2042_19487)"/>
<path d="M195.21 147.627H178.567C178.122 147.626 177.683 147.525 177.282 147.332C176.881 147.14 176.528 146.86 176.249 146.513C175.97 146.167 175.772 145.763 175.669 145.33C175.566 144.897 175.561 144.446 175.654 144.011L183.943 105.411C184.086 104.744 184.453 104.147 184.983 103.717C185.513 103.288 186.174 103.052 186.856 103.05H203.499C203.944 103.051 204.383 103.152 204.784 103.345C205.185 103.538 205.538 103.817 205.817 104.164C206.096 104.51 206.294 104.915 206.397 105.348C206.5 105.781 206.505 106.231 206.411 106.666L198.122 145.266C197.979 145.933 197.612 146.531 197.082 146.96C196.553 147.39 195.892 147.625 195.21 147.627Z" fill="url(#paint10_linear_2042_19487)"/>
<path d="M194.712 113.945C195.565 113.945 196.256 113.253 196.256 112.401C196.256 111.548 195.565 110.857 194.712 110.857C193.86 110.857 193.169 111.548 193.169 112.401C193.169 113.253 193.86 113.945 194.712 113.945Z" fill="#654B1E"/>
<path d="M202.686 217.679L201.014 217.8C201.014 217.8 197.936 200.343 196.664 194.68C195.391 189.017 192.817 173.417 191.063 166.968C189.271 160.366 190.167 162.819 188.491 159.447C187.223 156.889 186.865 154.919 187.288 152.607C187.711 150.295 190.933 147.625 190.933 147.625C190.933 147.625 188.95 144.984 188.558 144.787C188.166 144.589 183.278 143.176 181.654 142.708C179.348 142.036 179.555 138.948 181.085 138.5C178.396 137.882 177.861 132.965 180.807 132.676C177.184 132.228 177.939 128.018 180.278 127.816C182.294 127.644 189.524 126.822 191.305 127.592C192.571 128.139 199.253 131.977 199.253 131.977L200.078 127.848C200.078 127.848 196.216 125.778 191.932 123.275C187.929 120.934 190.454 116.207 194.228 118.241C196.399 119.413 202.591 122.538 204.451 123.508C206.31 124.478 207.399 127.066 207.117 130.789C206.835 134.513 204.451 153.517 204.451 153.517L207.607 163.018L218.101 194.581C221.712 205.465 214.111 216.843 202.686 217.679Z" fill="#F9CBA2"/>
<path d="M177.608 67.6916C178.504 68.9596 177.14 72.1274 167.195 75.2615C167.195 75.2615 158.202 64.3625 158.339 64.1923C158.476 64.022 175.249 66.0136 177.608 67.6916Z" fill="url(#paint11_linear_2042_19487)"/>
<path d="M105.681 76.7401C104.483 80.1857 110.334 81.3484 114.799 80.8869C119.264 80.4254 120.877 72.1968 120.877 72.1968L118.818 69.5085C118.818 69.5085 110.386 72.1699 105.681 76.7401Z" fill="url(#paint12_linear_2042_19487)"/>
<path d="M157.839 89.5456C159.791 92.7112 165.297 92.5073 166.635 92.1981C166.635 92.1981 164.679 91.5552 165.091 88.6473C165.365 86.7274 166.917 85.4123 168.965 84.9262C174.675 83.5663 167.018 65.7023 160.151 63.2335C155.261 61.4816 122.483 66.5782 117.4 69.5623C117.4 69.5623 115.702 70.1291 115.24 82.3319C115.24 82.3319 123.529 90.3566 134.173 88.8131C144.817 87.2695 157.839 89.5456 157.839 89.5456Z" fill="url(#paint13_linear_2042_19487)"/>
<path d="M157.839 89.5456C153.988 107.154 149.929 109.155 149.929 109.155C149.929 109.155 150.023 123.045 148.751 123.679C147.478 124.313 140.298 126.474 130.698 125.776C121.099 125.077 118.621 121.071 118.112 118.275C117.604 115.479 120.4 107.97 120.718 107.723C120.846 104.419 119.73 90.435 119.73 90.435C109.543 91.2191 110.856 81.2498 112.928 79.2156C115.001 77.1815 117.915 78.3598 122.864 83.8105C122.864 83.8105 122.772 74.2848 127.851 70.772C127.851 70.772 129.265 76.767 141.517 76.31C141.517 76.31 135.75 74.1324 134.706 68.0993C134.706 68.0993 136.664 71.8697 142.915 73.7785C149.165 75.6872 157.084 74.8247 156.863 80.5509C156.688 85.2286 156.984 87.8676 157.839 89.5456Z" fill="#F9CBA2"/>
<path d="M192.031 97.1312C191.838 97.1319 191.648 97.0938 191.471 97.0192C191.198 96.9061 190.973 96.7017 190.834 96.441C190.695 96.1803 190.651 95.8795 190.709 95.5899L196.534 56.8934C197.065 53.3627 200.371 50.4884 203.904 50.4884H293.637C294.446 50.4704 295.249 50.6297 295.99 50.9552C296.732 51.2807 297.392 51.7644 297.927 52.3725C298.989 53.6069 299.43 55.2468 299.168 56.992L295.543 81.1131C295.012 84.6438 291.706 87.5181 288.173 87.5181H200.201L193.355 96.4501C193.201 96.6573 193.001 96.8263 192.772 96.9444C192.542 97.0624 192.289 97.1263 192.031 97.1312Z" fill="url(#paint14_linear_2042_19487)"/>
<path d="M177.608 67.6916C177.608 67.6916 161.072 63.6591 141.539 65.9867C122.006 68.3144 113.67 71.6278 105.668 76.7401C107.189 74.1615 116.293 68.0993 116.293 68.0993C116.813 66.0427 117.342 64.2012 117.879 62.5546C121.636 51.0597 125.85 48.9135 130.333 48.3109C135.459 47.6253 137.014 50.8402 142.063 51.0373C147.113 51.2344 147.619 48.1787 149.978 47.5895C152.337 47.0003 156.883 46.5119 159.898 50.5131C161.41 52.5159 162.345 55.2602 162.9 57.5005C163.228 58.8049 163.473 60.1285 163.635 61.4636C174.198 65.0032 177.608 67.6916 177.608 67.6916Z" fill="url(#paint15_linear_2042_19487)"/>
<path d="M163.64 61.4636C145.184 60.7915 129.303 62.8906 116.298 68.0993C116.818 66.0427 117.346 64.2012 117.884 62.5546C129.287 58.6296 143.199 56.2661 162.914 57.5005C163.238 58.8051 163.481 60.1287 163.64 61.4636Z" fill="url(#paint16_linear_2042_19487)"/>
<path d="M140.251 85.8697C140.312 84.8718 139.819 84.0299 139.149 83.9892C138.48 83.9485 137.888 84.7244 137.827 85.7223C137.767 86.7202 138.26 87.5621 138.929 87.6028C139.599 87.6435 140.191 86.8676 140.251 85.8697Z" fill="#654B1E"/>
<path d="M153.85 87.5067C153.905 86.6039 153.458 85.8422 152.852 85.8053C152.246 85.7684 151.709 86.4704 151.655 87.3732C151.6 88.2759 152.047 89.0377 152.653 89.0746C153.259 89.1114 153.796 88.4095 153.85 87.5067Z" fill="#654B1E"/>
<path d="M144.438 81.4312C144.359 81.4297 144.282 81.4073 144.214 81.3663C142.375 80.2596 138.443 78.5346 132.789 79.4105C132.73 79.4195 132.67 79.4168 132.612 79.4026C132.554 79.3883 132.5 79.3628 132.452 79.3276C132.404 79.2923 132.363 79.248 132.332 79.197C132.302 79.1461 132.281 79.0896 132.272 79.0308C132.263 78.9719 132.266 78.9119 132.28 78.8541C132.294 78.7963 132.32 78.7419 132.355 78.6939C132.39 78.646 132.435 78.6055 132.486 78.5746C132.537 78.5438 132.593 78.5234 132.652 78.5144C138.589 77.5959 142.733 79.4105 144.682 80.5889C144.765 80.6392 144.83 80.7152 144.866 80.8053C144.902 80.8955 144.908 80.9949 144.883 81.0887C144.857 81.1824 144.802 81.2655 144.726 81.3252C144.649 81.385 144.555 81.4183 144.458 81.42L144.438 81.4312Z" fill="#B68B2D"/>
<path d="M152.055 82.5783C151.961 82.5783 151.869 82.5487 151.793 82.4937C151.717 82.4387 151.66 82.3611 151.63 82.2719C151.6 82.1827 151.599 82.0864 151.627 81.9966C151.655 81.9069 151.711 81.8282 151.786 81.7718C153.285 80.6517 155.857 80.748 156.894 80.8443C157.013 80.8553 157.123 80.9131 157.199 81.0049C157.275 81.0967 157.312 81.215 157.301 81.3338C157.29 81.4527 157.232 81.5623 157.14 81.6385C157.048 81.7148 156.93 81.7514 156.811 81.7404C154.869 81.5612 153.191 81.8413 152.331 82.4909C152.251 82.5497 152.154 82.5804 152.055 82.5783Z" fill="#B68B2D"/>
<path d="M120.868 86.5593C120.805 86.5594 120.743 86.5418 120.69 86.5085C120.636 86.4753 120.593 86.4276 120.566 86.3711C119.38 83.9381 115.839 82.2221 113.977 82.2221H113.921C113.877 82.2229 113.833 82.2151 113.792 82.1991C113.751 82.183 113.713 82.159 113.681 82.1284C113.649 82.0978 113.624 82.0613 113.606 82.0208C113.589 81.9804 113.579 81.9369 113.578 81.8927C113.577 81.8486 113.585 81.8047 113.601 81.7636C113.617 81.7225 113.641 81.685 113.672 81.6531C113.702 81.6213 113.739 81.5958 113.779 81.5781C113.82 81.5604 113.863 81.5509 113.907 81.55C116.168 81.5074 119.92 83.5147 121.168 86.0776C121.193 86.1289 121.205 86.1857 121.202 86.2428C121.199 86.2998 121.182 86.3551 121.151 86.4036C121.121 86.452 121.079 86.4919 121.029 86.5195C120.979 86.5472 120.923 86.5616 120.866 86.5615L120.868 86.5593Z" fill="#C98348"/>
<path d="M118.702 88.4904C116.775 88.4904 115.706 87.33 115.494 86.1157C115.281 84.9015 115.899 83.3647 117.754 82.8494C117.839 82.8286 117.929 82.8417 118.004 82.8859C118.079 82.9301 118.135 83.0019 118.158 83.0861C118.181 83.1704 118.171 83.2604 118.129 83.337C118.087 83.4137 118.017 83.471 117.933 83.4968C116.482 83.9001 115.993 85.0785 116.154 86.0015C116.316 86.9245 117.16 87.9438 119.024 87.8071C119.068 87.8039 119.113 87.8094 119.155 87.8233C119.197 87.8372 119.236 87.8592 119.269 87.8881C119.303 87.9171 119.33 87.9523 119.35 87.9918C119.37 88.0314 119.382 88.0744 119.385 88.1185C119.388 88.1627 119.383 88.207 119.369 88.249C119.355 88.291 119.333 88.3299 119.304 88.3634C119.275 88.3969 119.24 88.4243 119.2 88.4442C119.161 88.4641 119.118 88.476 119.074 88.4792C118.947 88.4867 118.823 88.4904 118.702 88.4904Z" fill="#C98348"/>
<path d="M146.598 96.3874C145.009 96.3874 143.858 95.6212 142.816 93.9007C142.777 93.825 142.769 93.7374 142.792 93.6556C142.815 93.5737 142.868 93.5037 142.941 93.4597C143.014 93.4156 143.101 93.4008 143.184 93.4182C143.267 93.4356 143.341 93.4839 143.39 93.5534C144.42 95.2538 145.455 95.852 147.079 95.6907C148.482 95.5495 149.3 94.9984 148.466 85.8334C148.462 85.7893 148.467 85.7448 148.48 85.7025C148.493 85.6602 148.515 85.6209 148.543 85.5869C148.572 85.5529 148.606 85.5248 148.646 85.5043C148.685 85.4837 148.728 85.4711 148.772 85.4671C148.816 85.4631 148.861 85.4679 148.903 85.4811C148.945 85.4943 148.984 85.5158 149.018 85.5442C149.052 85.5726 149.081 85.6074 149.101 85.6466C149.122 85.6859 149.134 85.7288 149.138 85.7729C149.945 94.6557 149.38 96.1454 147.151 96.3695C146.958 96.3799 146.774 96.3859 146.598 96.3874Z" fill="#C98348"/>
<path d="M142.769 100.743C141.087 100.743 137.69 99.7815 136.877 96.1477C136.857 96.0342 136.882 95.9173 136.946 95.8214C137.01 95.7255 137.108 95.658 137.221 95.6329C137.333 95.6077 137.451 95.627 137.55 95.6866C137.649 95.7462 137.721 95.8415 137.751 95.9528C138.613 99.8016 142.729 99.8464 142.769 99.8464C142.888 99.8464 143.002 99.8936 143.086 99.9777C143.17 100.062 143.217 100.176 143.217 100.294C143.217 100.413 143.17 100.527 143.086 100.611C143.002 100.695 142.888 100.743 142.769 100.743Z" fill="#C98348"/>
<path d="M149.929 109.155C147.424 110.644 144.553 111.403 141.64 111.346C131.559 111.18 125.667 103.928 122.786 93.2667C122.786 93.2667 122.689 101.063 125.389 107.23C128.088 113.398 134.126 121.107 147.615 115.744L149.929 109.155Z" fill="#E5AD83"/>
<path d="M164.693 130.386C159.941 125.442 153.444 125.124 149.483 130.794L147.725 124.073L145.724 116.433L144.342 111.155C146.318 110.865 148.218 110.185 149.929 109.155C150.077 109.07 150.214 108.966 150.337 108.848C151.246 109.346 152.099 109.942 152.879 110.624C157.902 114.971 162.791 122.236 164.693 130.386Z" fill="url(#paint17_linear_2042_19487)"/>
<path d="M188.086 192.417C188.01 192.417 187.936 192.392 187.877 192.344C187.817 192.297 187.776 192.231 187.758 192.157C187.44 190.795 179.989 158.728 179.989 153.519C179.989 153.43 180.025 153.345 180.088 153.282C180.151 153.219 180.236 153.183 180.325 153.183C180.414 153.183 180.5 153.219 180.563 153.282C180.626 153.345 180.661 153.43 180.661 153.519C180.661 158.652 188.334 191.674 188.413 192.005C188.424 192.054 188.424 192.106 188.413 192.155C188.402 192.204 188.38 192.25 188.349 192.29C188.317 192.33 188.277 192.362 188.232 192.384C188.186 192.406 188.136 192.417 188.086 192.417Z" fill="#B68B2D"/>
<path d="M201.765 129.01C201.713 129.01 201.663 128.998 201.617 128.975L199.928 128.141C199.848 128.102 199.787 128.032 199.758 127.948C199.73 127.863 199.736 127.771 199.775 127.691C199.815 127.611 199.885 127.55 199.969 127.522C200.053 127.493 200.146 127.499 200.226 127.539L201.915 128.372C201.982 128.406 202.036 128.462 202.068 128.53C202.1 128.599 202.108 128.676 202.091 128.749C202.074 128.823 202.032 128.888 201.973 128.935C201.914 128.982 201.84 129.008 201.765 129.008V129.01Z" fill="#C98348"/>
<path d="M201.451 134.123C201.393 134.123 201.336 134.108 201.285 134.079C201.234 134.051 201.192 134.009 201.162 133.959C200.575 133.277 199.872 132.704 199.085 132.266C199.013 132.219 198.961 132.147 198.94 132.064C198.919 131.98 198.931 131.892 198.973 131.817C199.015 131.742 199.085 131.687 199.167 131.661C199.249 131.636 199.338 131.643 199.415 131.681C200.306 132.17 201.095 132.827 201.738 133.614C201.768 133.665 201.785 133.724 201.786 133.783C201.786 133.842 201.771 133.901 201.742 133.953C201.712 134.005 201.67 134.047 201.618 134.077C201.567 134.107 201.508 134.123 201.449 134.123H201.451Z" fill="#C98348"/>
<path d="M197.737 138.617C197.671 138.617 197.606 138.597 197.551 138.561C197.484 138.516 190.879 134.136 189.58 133.502C188.522 132.987 185.621 132.994 182.55 133H180.802C180.713 133 180.628 132.965 180.565 132.902C180.502 132.839 180.466 132.753 180.466 132.664C180.466 132.575 180.502 132.49 180.565 132.427C180.628 132.364 180.713 132.328 180.802 132.328C181.385 132.328 181.97 132.328 182.545 132.328C185.832 132.328 188.673 132.313 189.871 132.897C191.215 133.551 197.647 137.826 197.92 137.998C197.981 138.038 198.026 138.097 198.051 138.165C198.075 138.232 198.077 138.306 198.056 138.376C198.036 138.445 197.993 138.505 197.935 138.548C197.877 138.591 197.807 138.615 197.735 138.615L197.737 138.617Z" fill="#C98348"/>
<path d="M196.209 143.252C196.147 143.252 196.087 143.235 196.034 143.203C194.065 142.011 188.807 138.859 188.137 138.597C187.398 138.308 183.22 138.332 181.163 138.821C181.12 138.831 181.076 138.833 181.032 138.826C180.988 138.819 180.947 138.803 180.909 138.78C180.871 138.757 180.839 138.727 180.813 138.691C180.787 138.655 180.768 138.615 180.758 138.572C180.747 138.529 180.746 138.485 180.753 138.441C180.759 138.397 180.775 138.355 180.798 138.318C180.821 138.28 180.851 138.247 180.887 138.221C180.923 138.196 180.963 138.177 181.006 138.167C183.114 137.658 187.456 137.6 188.381 137.96C189.244 138.296 196.092 142.441 196.384 142.618C196.446 142.656 196.494 142.714 196.521 142.782C196.548 142.85 196.552 142.925 196.532 142.996C196.512 143.066 196.47 143.128 196.412 143.172C196.353 143.217 196.282 143.241 196.209 143.241V143.252Z" fill="#C98348"/>
<path d="M193.547 150.569C193.465 150.569 193.385 150.54 193.323 150.486C192.393 149.657 191.509 148.777 190.678 147.849C190.648 147.816 190.626 147.777 190.611 147.736C190.596 147.694 190.59 147.649 190.593 147.605C190.596 147.561 190.607 147.518 190.626 147.478C190.646 147.438 190.672 147.402 190.706 147.373C190.739 147.344 190.777 147.321 190.819 147.306C190.861 147.292 190.905 147.286 190.949 147.288C190.994 147.291 191.037 147.302 191.077 147.322C191.117 147.341 191.152 147.368 191.182 147.401C191.995 148.306 192.859 149.165 193.769 149.973C193.821 150.018 193.858 150.078 193.874 150.145C193.891 150.211 193.887 150.281 193.862 150.345C193.838 150.41 193.794 150.465 193.738 150.504C193.681 150.542 193.614 150.563 193.545 150.562L193.547 150.569Z" fill="#C98348"/>
<path d="M207.603 163.02L201.46 157.971C201.46 157.971 202.912 156.882 204.444 153.519L207.603 163.02Z" fill="#E5AD83"/>
<path d="M59.0698 106.798C59.0445 106.801 59.0189 106.801 58.9936 106.798C58.7696 106.746 53.4556 105.496 50.5701 102.158C47.8078 98.9615 47.996 95.7713 49.6113 94.2703C50.7673 93.1994 52.797 92.9889 54.8737 94.7766C55.4159 92.5072 57.0333 91.8127 58.4582 91.9471C60.9762 92.1846 63.5615 94.9715 63.3465 99.06C63.1314 103.149 59.4596 106.574 59.314 106.717C59.2465 106.776 59.1586 106.805 59.0698 106.798Z" fill="url(#paint18_linear_2042_19487)"/>
<path d="M73.7571 85.9455C73.6937 85.9456 73.6316 85.9277 73.5779 85.8939C73.4547 85.8155 70.558 83.9606 69.6574 81.0549C68.7389 78.0933 69.8814 75.6626 71.4496 75.1092C72.292 74.8135 73.3964 75.0375 74.1626 76.4265C75.0744 75.0263 76.2237 74.874 77.0593 75.2436C78.567 75.9157 79.4273 78.3375 78.2578 81.2297C77.0884 84.1219 74.0506 85.8312 73.9206 85.9007C73.8708 85.9292 73.8145 85.9447 73.7571 85.9455Z" fill="url(#paint19_linear_2042_19487)"/>
<path d="M62.9992 157.543C62.1882 155.448 62.9992 152.614 62.6676 144.717C62.4078 138.527 57.6875 134.797 55.1134 132.308C52.5393 129.819 47.9019 123.896 46.2239 121.844C44.1136 119.265 39.8414 121.228 41.4185 124.817C31.9578 138.742 37.6795 152.757 62.9992 157.543Z" fill="#F9CBA2"/>
<path d="M23.0303 130.892C26.8567 128.739 52.4497 130.628 56.0163 131.717C59.5828 132.806 59.9771 134.837 67.4552 135.232C74.9333 135.626 76.1318 129.976 74.7563 128.511C71.7364 125.294 64.74 128.148 57.6069 129.38C56.9841 129.488 47.7922 127.012 25.5506 127.792C22.701 127.893 20.0238 129.38 19.6004 130.27C18.7581 132.033 20.4293 132.355 23.0303 130.892Z" fill="url(#paint20_linear_2042_19487)"/>
<path d="M52.7678 157.892C51.9163 160.231 50.1937 162.15 47.9601 163.249C46.663 159.328 45.8946 156.947 45.8946 156.947C48.8831 157.861 52.7678 157.892 52.7678 157.892Z" fill="#E5AD83"/>
<path d="M74.0505 131.154C73.4076 132.525 71.4092 133.733 67.5134 133.578C66.1353 133.538 64.7617 133.402 63.4025 133.171C60.6828 132.669 59.3991 131.8 59.6388 130.796C59.7777 130.222 60.2571 129.866 61.095 129.575C62.0089 129.293 62.9407 129.072 63.8841 128.914C68.5484 128.018 71.8058 127.74 73.3113 128.486C73.5184 128.576 73.704 128.71 73.8554 128.877C74.0069 129.045 74.1208 129.243 74.1894 129.459C74.3551 130.021 74.3056 130.626 74.0505 131.154Z" fill="url(#paint21_linear_2042_19487)"/>
<path d="M74.0505 131.154C73.4075 132.525 71.4092 133.733 67.5133 133.578C66.1352 133.538 64.7616 133.402 63.4024 133.171C62.1994 132.707 61.3234 132.051 61.1778 131.154C61.0988 130.636 61.0718 130.11 61.0971 129.586V129.423C61.1979 127.821 61.7692 126.197 62.9902 125.807C64.6726 125.271 64.6457 126.784 66.4537 126.338C68.2616 125.892 67.865 124.675 70.634 125.354C71.8931 125.661 72.7444 127.019 73.3067 128.491C73.3941 128.715 73.4725 128.954 73.5464 129.187C73.7502 129.833 73.9185 130.49 74.0505 131.154Z" fill="url(#paint22_linear_2042_19487)"/>
<path d="M73.5509 129.183C71.9693 129.313 71.9356 126.116 70.2397 125.845C68.1294 125.504 67.8852 130.325 65.6561 130.823C63.427 131.32 64.3948 128.634 62.6967 129.868C61.7603 130.541 61.2674 130.348 61.1016 129.405C61.2024 127.803 61.7737 126.179 62.9947 125.789C64.6771 125.253 64.6502 126.766 66.4581 126.32C68.2661 125.874 67.8695 124.658 70.6385 125.336C72.0947 125.695 73.0043 127.451 73.5509 129.183Z" fill="url(#paint23_linear_2042_19487)"/>
<path d="M244.402 183.286H277.442L279.729 174.103H247.191L244.402 183.286Z" fill="url(#paint24_linear_2042_19487)"/>
<g opacity="0.5">
<path d="M260.893 179.901H263.527C263.527 179.901 262.3 182.674 262.3 187.742H259.611C259.611 187.742 259.125 182.952 260.893 179.901Z" fill="url(#paint25_linear_2042_19487)"/>
</g>
<path d="M279.182 198.921C279.131 201.322 279.082 203.749 279.032 206.121H242.637L244.232 198.921H279.182Z" fill="url(#paint26_linear_2042_19487)"/>
<path d="M259.553 194.611C257.988 194.611 256.458 195.075 255.157 195.944C253.856 196.814 252.842 198.049 252.243 199.495C251.644 200.941 251.487 202.532 251.792 204.067C252.098 205.602 252.851 207.012 253.958 208.118C255.065 209.225 256.474 209.979 258.009 210.284C259.544 210.589 261.135 210.433 262.581 209.834C264.027 209.235 265.263 208.221 266.132 206.919C267.002 205.618 267.466 204.088 267.466 202.523C267.463 200.425 266.629 198.414 265.146 196.931C263.662 195.447 261.651 194.613 259.553 194.611Z" fill="url(#paint27_linear_2042_19487)"/>
<path d="M211.813 62.6779L213.244 66.8403L217.738 67.5079L213.925 70.7496L214.024 75.3265L210.238 73.1669L205.802 75.3265L207.276 70.7496L204.438 67.5079L209.133 66.8403L211.813 62.6779Z" fill="url(#paint28_linear_2042_19487)"/>
<path d="M228.718 62.6779L230.147 66.8403L234.643 67.5079L230.83 70.7496L230.927 75.3265L227.143 73.1669L222.707 75.3265L224.179 70.7496L221.34 67.5079L226.036 66.8403L228.718 62.6779Z" fill="url(#paint29_linear_2042_19487)"/>
<path d="M245.623 62.6779L247.052 66.8403L251.546 67.5079L247.735 70.7496L247.832 75.3265L244.046 73.1669L239.612 75.3265L241.084 70.7496L238.246 67.5079L242.941 66.8403L245.623 62.6779Z" fill="url(#paint30_linear_2042_19487)"/>
<path d="M262.526 62.6779L263.955 66.8403L268.451 67.5079L264.638 70.7496L264.737 75.3265L260.951 73.1669L256.515 75.3265L257.989 70.7496L255.151 67.5079L259.846 66.8403L262.526 62.6779Z" fill="url(#paint31_linear_2042_19487)"/>
<path opacity="0.25" d="M280.975 62.6779L282.404 66.8403L286.9 67.5079L283.087 70.7496L283.186 75.3265L279.4 73.1669L274.964 75.3265L276.436 70.7496L273.597 67.5079L278.293 66.8403L280.975 62.6779Z" fill="url(#paint32_linear_2042_19487)"/>
<path d="M279.431 60.4644L280.86 64.6291L285.357 65.2967L281.544 68.5384L281.64 73.1153L277.854 70.9534L273.42 73.1153L274.892 68.5384L272.054 65.2967L276.749 64.6291L279.431 60.4644Z" fill="url(#paint33_linear_2042_19487)"/>
<path d="M279.102 223.602C228.375 251.449 139.182 253.346 89.5735 237.398C75.3073 232.812 61.2764 224.996 48.7219 214.771C118.281 210.366 204.122 213.442 279.102 223.602Z" fill="#FFE2D4"/>
<path d="M94.5805 179.708C94.0182 186.25 93.5566 192.234 92.8913 197.386C91.5919 207.468 89.5309 214.356 84.4118 215.981C75.7598 218.729 66.3775 218.575 58.0436 192.695C58.0436 192.695 72.9975 175.642 73.1969 175.642C73.2126 175.642 73.3605 175.667 73.6226 175.716C76.6335 176.263 94.5805 179.708 94.5805 179.708Z" fill="#F9CBA2"/>
<path d="M94.5806 179.708C94.0183 186.25 93.5568 192.234 92.8914 197.386C88.5587 191.562 80.46 185.737 72.2808 183.066L73.6249 175.714C76.6336 176.263 94.5806 179.708 94.5806 179.708Z" fill="#E5AD83"/>
<path d="M135.192 212.994C123.543 212.795 112.044 212.77 100.75 212.889L98.51 190.262L98.3734 190.186C96.8052 189.308 81.905 181.2 67.6411 180.217L64.9393 167.738C64.9393 167.738 70.139 150.526 72.5809 143.507C74.9489 136.713 78.5401 123.627 89.8155 120.058C90.1874 119.94 90.5682 119.834 90.958 119.736C106.398 115.903 117.25 118.026 117.25 118.026L125.987 133.036C127.723 149.57 133.461 198.385 135.192 212.994Z" fill="url(#paint34_linear_2042_19487)"/>
<path d="M98.3644 190.195C96.7962 189.317 81.896 181.209 67.6321 180.226L64.9304 167.747C64.9304 167.747 70.1301 150.535 72.572 143.516C74.94 136.722 78.5311 123.636 89.8065 120.067C91.4442 122.281 92.692 125.294 93.2453 129.362C95.5864 146.55 97.8043 181.102 98.3644 190.195Z" fill="url(#paint35_linear_2042_19487)"/>
<path d="M120.72 107.726C120.864 113.23 120.944 117.554 120.944 117.554C120.944 117.554 125.281 126.412 125.962 133.047C125.962 133.047 115.585 122.5 104.357 128.412C104.357 128.412 106.947 114.251 111.479 110.898C116.011 107.544 120.72 107.726 120.72 107.726Z" fill="url(#paint36_linear_2042_19487)"/>
<path d="M83.0879 198.3C68.9741 205.021 58.0459 192.7 58.0459 192.7C53.9417 181.196 50.178 169.97 47.9646 163.255C46.6675 159.335 45.8991 156.954 45.8991 156.954C45.8991 156.954 39.9198 154.366 36.6982 152.881C33.4767 151.395 33.5193 149.193 33.8576 147.627C33.8576 147.627 30.3403 145.889 31.8659 142.161C29.5696 142.443 28.0574 139.473 29.5338 137.093C29.5338 137.093 27.7124 136.408 28.2972 133.655C28.8819 130.901 31.8077 126.958 36.6624 125.637C46.6429 122.917 48.4665 127.769 45.8476 129.387C49.376 129.36 51.7328 129.456 52.1047 131.531C52.4766 133.605 50.4133 134.412 50.4133 134.412C54.0201 135.308 53.18 138.986 51.3609 139.199C53.3368 139.166 53.6639 142.237 52.6222 142.974C51.502 143.765 49.2282 144.462 47.9736 144.912C46.9879 145.268 46.1433 146.469 46.1433 146.469C46.6541 146.561 51.968 146.803 53.0882 146.861C54.2083 146.919 55.0439 147.103 57.8981 149.267C60.7522 151.431 60.275 155.011 60.275 155.011C60.275 155.011 62.4436 156.239 62.9925 157.556C70.7506 176.086 78.4303 189.137 83.0879 198.3Z" fill="#F9CBA2"/>
<path d="M45.8498 129.714C45.7764 129.714 45.7049 129.691 45.6462 129.647C45.5875 129.602 45.5448 129.54 45.5248 129.47C45.5047 129.399 45.5083 129.324 45.535 129.255C45.5618 129.187 45.6102 129.129 45.6728 129.091C46.4748 128.596 46.793 127.747 46.4547 126.983C45.7445 125.348 42.467 124.393 36.7498 125.952C36.6656 125.971 36.5776 125.956 36.5039 125.912C36.4302 125.867 36.3765 125.796 36.3538 125.713C36.3311 125.63 36.3411 125.541 36.3819 125.465C36.4226 125.389 36.491 125.332 36.5728 125.305C43.0965 123.526 46.3068 124.953 47.0708 126.716C47.5412 127.801 47.1223 128.986 46.0245 129.665C45.9719 129.697 45.9115 129.714 45.8498 129.714Z" fill="#C98348"/>
<path d="M60.2884 154.2C60.2059 154.2 60.1262 154.17 60.0647 154.115C60.0031 154.06 59.9639 153.984 59.9546 153.902C59.3318 148.6 56.574 147.979 53.6504 147.32L53.0119 147.175C52.36 147.02 49.9629 146.951 48.211 146.888C46.9519 146.848 46.2866 146.825 46.0827 146.787C46.0264 146.778 45.9732 146.755 45.9282 146.72C45.8831 146.685 45.8478 146.64 45.8253 146.587C45.8029 146.535 45.7942 146.477 45.8001 146.421C45.8059 146.364 45.8261 146.31 45.8587 146.263C45.8968 146.211 46.775 144.973 47.8503 144.585C48.0743 144.504 48.3275 144.417 48.6008 144.323C49.8397 143.897 51.5356 143.312 52.4093 142.69C52.8305 142.392 52.9761 141.437 52.7162 140.647C52.5773 140.225 52.2211 139.526 51.372 139.526H51.3407C51.2965 139.529 51.2524 139.523 51.2106 139.508C51.1689 139.494 51.1304 139.471 51.0975 139.441C51.0645 139.412 51.0377 139.376 51.0185 139.337C50.9993 139.297 50.9881 139.254 50.9856 139.209C50.9831 139.165 50.9893 139.121 51.0039 139.079C51.0185 139.038 51.0411 138.999 51.0706 138.966C51.1 138.933 51.1356 138.906 51.1754 138.887C51.2153 138.868 51.2585 138.857 51.3026 138.854C51.9747 138.776 52.5079 138.072 52.5616 137.217C52.5908 136.769 52.5101 135.272 50.3213 134.725C50.2523 134.708 50.1905 134.67 50.1448 134.615C50.0992 134.56 50.072 134.493 50.0673 134.422C50.0625 134.351 50.0805 134.28 50.1185 134.22C50.1565 134.16 50.2126 134.113 50.2788 134.087C50.3527 134.058 52.071 133.348 51.7618 131.578C51.4527 129.808 49.3132 129.683 45.8385 129.712C45.7494 129.712 45.6639 129.676 45.6009 129.613C45.5379 129.55 45.5025 129.465 45.5025 129.376C45.5025 129.287 45.5379 129.201 45.6009 129.138C45.6639 129.075 45.7494 129.04 45.8385 129.04C48.9996 129.015 51.9881 128.99 52.4294 131.459C52.5308 132 52.4725 132.558 52.2616 133.066C52.0507 133.574 51.6965 134.01 51.2421 134.32C52.8103 134.974 53.3211 136.222 53.2584 137.261C53.2411 137.613 53.1528 137.957 52.9988 138.274C52.8448 138.59 52.6283 138.872 52.3622 139.103C52.8589 139.407 53.2228 139.887 53.3816 140.447C53.6952 141.408 53.572 142.717 52.8237 143.248C51.8627 143.92 50.113 144.529 48.8383 144.968C48.5672 145.062 48.3163 145.147 48.0967 145.226C47.6074 145.442 47.1732 145.766 46.8265 146.173C47.2163 146.191 47.7338 146.207 48.2424 146.223C50.1197 146.283 52.4563 146.359 53.171 146.527L53.8027 146.671C56.6838 147.318 59.9479 148.053 60.6267 153.84C60.632 153.884 60.6285 153.928 60.6165 153.971C60.6045 154.014 60.5842 154.053 60.5567 154.088C60.5292 154.123 60.4951 154.152 60.4563 154.174C60.4176 154.195 60.375 154.209 60.3309 154.214L60.2884 154.2Z" fill="#C98348"/>
<path d="M44.6781 150.773H44.6467C44.6027 150.768 44.5599 150.756 44.5209 150.735C44.4819 150.714 44.4473 150.686 44.4192 150.652C44.3911 150.617 44.3701 150.578 44.3572 150.536C44.3443 150.494 44.3399 150.449 44.3443 150.405C44.51 148.667 45.0612 147.186 45.8945 146.236C45.954 146.169 46.0375 146.129 46.1268 146.123C46.2161 146.118 46.3038 146.149 46.3706 146.208C46.4374 146.267 46.478 146.351 46.4832 146.44C46.4885 146.529 46.458 146.617 46.3986 146.684C45.6571 147.529 45.1642 148.873 45.0119 150.472C45.003 150.555 44.9641 150.631 44.9024 150.686C44.8408 150.742 44.7609 150.772 44.6781 150.773Z" fill="#C98348"/>
<path d="M37.4779 147.509C37.4226 147.508 37.3681 147.495 37.3194 147.468C37.2707 147.442 37.2292 147.404 37.1986 147.358C37.1681 147.312 37.1493 147.259 37.1441 147.204C37.1389 147.149 37.1474 147.094 37.1687 147.043C38.5667 143.718 42.5454 139.981 45.3391 139.354C48.0834 138.74 51.2422 138.848 51.3766 138.852C51.4658 138.854 51.5506 138.89 51.6126 138.954C51.6746 139.019 51.7086 139.105 51.7071 139.194C51.7056 139.283 51.6688 139.368 51.6047 139.43C51.5406 139.492 51.4546 139.526 51.3654 139.524H51.352C51.3206 139.524 48.1461 139.414 45.4869 140.01C42.9061 140.588 39.0954 144.2 37.7893 147.302C37.7636 147.364 37.7203 147.416 37.6649 147.453C37.6094 147.489 37.5444 147.509 37.4779 147.509Z" fill="#C98348"/>
<path d="M34.5498 141.805C34.4853 141.804 34.4223 141.786 34.3682 141.75C34.3142 141.715 34.2714 141.665 34.2449 141.607C34.2185 141.548 34.2095 141.483 34.2191 141.419C34.2286 141.355 34.2564 141.295 34.2989 141.247C37.5585 137.555 40.6434 134.067 49.8846 134.067H50.42C50.5091 134.067 50.5946 134.102 50.6576 134.165C50.7207 134.228 50.7561 134.314 50.7561 134.403C50.7561 134.492 50.7207 134.577 50.6576 134.64C50.5946 134.703 50.5091 134.739 50.42 134.739C41.0579 134.613 38.029 138.048 34.8119 141.684C34.78 141.722 34.7399 141.753 34.6945 141.774C34.6492 141.795 34.5998 141.805 34.5498 141.805Z" fill="#C98348"/>
<path d="M31.6105 136.417C31.5495 136.417 31.4898 136.4 31.4376 136.369C31.3854 136.337 31.3427 136.292 31.3142 136.238C31.2856 136.184 31.2723 136.124 31.2755 136.063C31.2788 136.002 31.2986 135.943 31.3327 135.893C35.9701 129.06 41.88 129.051 45.7915 129.044H45.8497C45.9389 129.044 46.0243 129.079 46.0874 129.142C46.1504 129.206 46.1858 129.291 46.1858 129.38C46.1858 129.469 46.1504 129.555 46.0874 129.618C46.0243 129.681 45.9389 129.716 45.8497 129.716H45.7915C42.0211 129.716 36.324 129.732 31.886 136.269C31.8555 136.314 31.8145 136.351 31.7665 136.377C31.7185 136.403 31.665 136.416 31.6105 136.417Z" fill="#C98348"/>
<path d="M169.097 197.534H157.275L160.727 227.433C160.727 227.433 162.71 230.189 169.099 230.189C175.488 230.189 177.471 227.433 177.471 227.433L180.923 197.534H169.097Z" fill="url(#paint37_linear_2042_19487)"/>
<path d="M179.387 197.283L178.715 203.056L178.222 207.329L176.147 225.311C176.147 225.311 174.474 227.637 169.081 227.637C163.689 227.637 162.018 225.311 162.018 225.311L160.647 213.422L160.199 209.594L160.178 209.419L159.414 202.797L158.695 196.571L179.387 197.283Z" fill="url(#paint38_linear_2042_19487)"/>
<path d="M180.917 196.958C180.917 197.597 180.869 198.236 180.771 198.867C173.07 200.487 165.117 200.487 157.416 198.867C157.319 198.236 157.27 197.597 157.271 196.958C157.271 196.842 157.271 196.721 157.271 196.604C157.452 190.04 162.674 184.78 169.088 184.78C175.502 184.78 180.724 190.04 180.906 196.604C180.914 196.721 180.917 196.842 180.917 196.958Z" fill="url(#paint39_linear_2042_19487)"/>
<mask id="mask1_2042_19487" style="mask-type:luminance" maskUnits="userSpaceOnUse" x="157" y="184" width="24" height="17">
<path d="M180.917 196.958C180.917 197.597 180.869 198.236 180.771 198.867C173.07 200.487 165.117 200.487 157.416 198.867C157.319 198.236 157.27 197.597 157.271 196.958C157.271 196.842 157.271 196.721 157.271 196.604C157.452 190.04 162.674 184.78 169.088 184.78C175.502 184.78 180.724 190.04 180.906 196.604C180.914 196.721 180.917 196.842 180.917 196.958Z" fill="white"/>
</mask>
<g mask="url(#mask1_2042_19487)">
<path d="M159.661 200.122C159.572 200.122 159.486 200.086 159.423 200.023C159.36 199.96 159.325 199.875 159.325 199.786V196.029C159.325 195.94 159.36 195.854 159.423 195.791C159.486 195.728 159.572 195.693 159.661 195.693C159.75 195.693 159.835 195.728 159.898 195.791C159.961 195.854 159.997 195.94 159.997 196.029V199.786C159.997 199.875 159.961 199.96 159.898 200.023C159.835 200.086 159.75 200.122 159.661 200.122Z" fill="#C5E0E2"/>
<path d="M162.808 200.561C162.719 200.561 162.634 200.525 162.571 200.462C162.508 200.399 162.472 200.314 162.472 200.225V196.026C162.472 195.937 162.508 195.852 162.571 195.789C162.634 195.726 162.719 195.69 162.808 195.69C162.897 195.69 162.983 195.726 163.046 195.789C163.109 195.852 163.144 195.937 163.144 196.026V200.225C163.144 200.314 163.109 200.399 163.046 200.462C162.983 200.525 162.897 200.561 162.808 200.561Z" fill="#C5E0E2"/>
<path d="M165.945 200.816C165.856 200.816 165.77 200.781 165.707 200.718C165.644 200.655 165.609 200.569 165.609 200.48V196.029C165.609 195.94 165.644 195.854 165.707 195.791C165.77 195.728 165.856 195.693 165.945 195.693C166.034 195.693 166.119 195.728 166.182 195.791C166.245 195.854 166.281 195.94 166.281 196.029V200.48C166.281 200.569 166.245 200.655 166.182 200.718C166.119 200.781 166.034 200.816 165.945 200.816Z" fill="#C5E0E2"/>
<path d="M169.095 200.899C169.006 200.899 168.92 200.864 168.857 200.801C168.794 200.738 168.759 200.652 168.759 200.563V196.026C168.759 195.937 168.794 195.852 168.857 195.789C168.92 195.726 169.006 195.69 169.095 195.69C169.184 195.69 169.269 195.726 169.332 195.789C169.395 195.852 169.431 195.937 169.431 196.026V200.563C169.431 200.652 169.395 200.738 169.332 200.801C169.269 200.864 169.184 200.899 169.095 200.899Z" fill="#C5E0E2"/>
<path d="M172.242 200.816C172.153 200.816 172.068 200.781 172.005 200.718C171.942 200.655 171.906 200.569 171.906 200.48V196.029C171.906 195.94 171.942 195.854 172.005 195.791C172.068 195.728 172.153 195.693 172.242 195.693C172.331 195.693 172.417 195.728 172.48 195.791C172.543 195.854 172.578 195.94 172.578 196.029V200.48C172.578 200.569 172.543 200.655 172.48 200.718C172.417 200.781 172.331 200.816 172.242 200.816Z" fill="#C5E0E2"/>
<path d="M175.388 200.561C175.298 200.561 175.213 200.525 175.15 200.462C175.087 200.399 175.052 200.314 175.052 200.225V196.026C175.052 195.937 175.087 195.852 175.15 195.789C175.213 195.726 175.298 195.69 175.388 195.69C175.477 195.69 175.562 195.726 175.625 195.789C175.688 195.852 175.724 195.937 175.724 196.026V200.225C175.724 200.314 175.688 200.399 175.625 200.462C175.562 200.525 175.477 200.561 175.388 200.561Z" fill="#C5E0E2"/>
<path d="M178.533 200.122C178.444 200.122 178.358 200.086 178.295 200.023C178.232 199.96 178.197 199.875 178.197 199.786V196.029C178.197 195.94 178.232 195.854 178.295 195.791C178.358 195.728 178.444 195.693 178.533 195.693C178.622 195.693 178.708 195.728 178.771 195.791C178.834 195.854 178.869 195.94 178.869 196.029V199.786C178.869 199.875 178.834 199.96 178.771 200.023C178.708 200.086 178.622 200.122 178.533 200.122Z" fill="#C5E0E2"/>
</g>
<path d="M180.912 196.604C173.121 198.265 165.068 198.265 157.277 196.604C157.459 190.04 162.681 184.78 169.095 184.78C175.509 184.78 180.731 190.04 180.912 196.604Z" fill="url(#paint40_linear_2042_19487)"/>
<path d="M174.187 210.685C174.187 210.685 165.002 216.207 160.662 213.42L160.214 209.591L160.194 209.417C162.976 207.754 169.16 207.217 174.187 210.685Z" fill="url(#paint41_linear_2042_19487)"/>
<path d="M178.235 207.324L176.161 225.307C176.161 225.307 174.487 227.632 169.095 227.632C163.702 227.632 162.031 225.307 162.031 225.307L160.219 209.589C161.003 210.776 162.757 212.309 166.33 211.231C170.992 209.833 174.115 206.652 178.235 207.324Z" fill="url(#paint42_linear_2042_19487)"/>
<path d="M152.098 191.521L151.271 197.14V197.164L149.703 207.902L149.161 211.596L147.886 220.271C147.886 220.271 146.99 221.344 144.4 222.421C141.81 223.499 137.516 224.577 130.712 224.595H130.548C116.941 224.561 113.374 220.271 113.374 220.271L111.56 207.902L109.978 197.149L109.154 191.53L152.098 191.521Z" fill="url(#paint43_linear_2042_19487)"/>
<path d="M130.627 196.958C143.309 196.958 153.59 193.849 153.59 190.013C153.59 186.178 143.309 183.069 130.627 183.069C117.945 183.069 107.664 186.178 107.664 190.013C107.664 193.849 117.945 196.958 130.627 196.958Z" fill="url(#paint44_linear_2042_19487)"/>
<path d="M130.627 195.085C142.472 195.085 152.075 192.815 152.075 190.013C152.075 187.212 142.472 184.941 130.627 184.941C118.781 184.941 109.178 187.212 109.178 190.013C109.178 192.815 118.781 195.085 130.627 195.085Z" fill="url(#paint45_linear_2042_19487)"/>
<path d="M121.034 191.293C125.109 190.397 127.47 190.148 129.222 190.97C130.974 191.792 134.442 192.507 136.445 190.88C138.448 189.254 138.947 190.999 141.45 191.163C143.952 191.326 145.955 189.61 146.026 187.679C146.098 185.748 137.052 183.066 137.052 183.066C137.052 183.066 124.036 185.248 121.034 191.293Z" fill="url(#paint46_linear_2042_19487)"/>
<path d="M140.587 182.271C142.565 180.17 145.888 179.657 147.353 184.249C148.818 188.842 146.961 190.652 146.181 190.381C145.121 190.011 145.894 188.629 144.575 188.454C143.255 188.28 142.783 187.426 142.559 185.318C142.48 184.694 142.262 184.097 141.921 183.569C141.58 183.042 141.124 182.598 140.587 182.271Z" fill="url(#paint47_linear_2042_19487)"/>
<path d="M132.753 183.261C132.995 185.858 136.252 184.175 137.876 186.006C139.261 187.574 139.958 186.765 141.537 186.765C143.116 186.765 142.852 188.945 143.892 188.134C144.599 187.583 144.234 181.297 140.506 179.737C136.055 177.878 132.477 180.311 132.753 183.261Z" fill="url(#paint48_linear_2042_19487)"/>
<path d="M151.271 197.14V197.164L149.703 207.902C144.561 210.391 137.908 211.892 130.638 211.892C123.368 211.892 116.712 210.391 111.573 207.902L109.992 197.149C115.308 200.124 122.598 201.959 130.638 201.959C138.678 201.959 145.955 200.113 151.271 197.14Z" fill="url(#paint49_linear_2042_19487)"/>
<path d="M151.269 197.164L149.152 211.594C147.3 211.383 145.599 210.471 144.399 209.046C143.198 207.621 142.588 205.79 142.694 203.929C142.8 202.069 143.614 200.319 144.969 199.04C146.324 197.76 148.117 197.048 149.981 197.048C150.413 197.048 150.844 197.087 151.269 197.164Z" fill="url(#paint50_linear_2042_19487)"/>
<path d="M118.287 193.551C115.545 193.822 113.583 192.117 113.39 189.33C113.197 186.543 118.767 183.237 121.354 182.123C123.942 181.01 134.124 181.023 135.441 182.184C136.584 183.183 135.528 186.653 129.15 188.535C121.522 190.786 122.313 193.152 118.287 193.551Z" fill="url(#paint51_linear_2042_19487)"/>
<path d="M121.029 181.413C124.683 179.704 128.516 180.768 127.894 183.066C127.271 185.365 119.775 187.641 118.036 187.144C116.152 186.613 118.359 182.665 121.029 181.413Z" fill="url(#paint52_linear_2042_19487)"/>
<path d="M164.26 171.04L167.637 170.456L176.27 220.382C176.314 220.64 176.255 220.905 176.104 221.119C175.953 221.334 175.723 221.479 175.465 221.524L174.032 221.771C173.774 221.816 173.508 221.756 173.294 221.605C173.08 221.454 172.935 221.224 172.89 220.966L164.257 171.041L164.26 171.04Z" fill="url(#paint53_linear_2042_19487)"/>
<path d="M174.108 207.819C173.006 208.248 171.93 208.74 170.885 209.293L164.269 171.032L167.645 170.447L174.108 207.819Z" fill="url(#paint54_linear_2042_19487)"/>
<path d="M169.095 184.78C168.286 184.779 167.48 184.863 166.689 185.031L164.269 171.036L167.645 170.451L170.132 184.827C169.791 184.796 169.446 184.78 169.095 184.78Z" fill="url(#paint55_linear_2042_19487)"/>
<path d="M186.963 186.846C186.882 186.846 186.804 186.817 186.742 186.765C186.681 186.712 186.64 186.639 186.629 186.558C186.617 186.478 186.634 186.396 186.678 186.328C186.722 186.26 186.789 186.21 186.867 186.187L194.531 183.906C194.617 183.881 194.709 183.89 194.787 183.933C194.866 183.975 194.924 184.047 194.95 184.133C194.975 184.218 194.966 184.31 194.924 184.389C194.881 184.468 194.809 184.526 194.724 184.552L187.06 186.832C187.028 186.841 186.996 186.846 186.963 186.846Z" fill="#B68B2D"/>
<path d="M98.4988 190.609C98.4381 190.61 98.3785 190.593 98.3263 190.562C88.3458 184.596 74.0998 181.46 73.9565 181.429C73.9124 181.42 73.8706 181.403 73.8333 181.378C73.796 181.353 73.7641 181.321 73.7395 181.284C73.7148 181.246 73.6978 181.204 73.6897 181.16C73.6815 181.116 73.6822 181.071 73.6917 181.027C73.7013 180.983 73.7195 180.942 73.7454 180.905C73.7712 180.868 73.8041 180.837 73.8421 180.814C73.8801 180.79 73.9225 180.774 73.9668 180.767C74.0111 180.76 74.0563 180.762 74.0998 180.772C74.241 180.804 88.0703 183.848 98.109 189.655C96.7648 173.986 95.0577 155.19 95.042 155C95.034 154.911 95.0617 154.822 95.1191 154.754C95.1764 154.685 95.2587 154.642 95.3478 154.634C95.437 154.626 95.5256 154.653 95.5943 154.711C95.663 154.768 95.7061 154.85 95.7141 154.94C95.7321 155.132 97.4772 174.45 98.8371 190.244C98.8411 190.291 98.8355 190.337 98.8206 190.381C98.8056 190.425 98.7817 190.466 98.7503 190.5C98.719 190.534 98.6808 190.562 98.6383 190.581C98.5958 190.599 98.5498 190.609 98.5033 190.609H98.4988Z" fill="#B68B2D"/>
<defs>
<linearGradient id="paint0_linear_2042_19487" x1="285.231" y1="164.329" x2="283.762" y2="157.827" gradientUnits="userSpaceOnUse">
<stop stop-color="#C98348"/>
<stop offset="1" stop-color="#D2A651"/>
</linearGradient>
<linearGradient id="paint1_linear_2042_19487" x1="267.125" y1="165.142" x2="260.111" y2="157.034" gradientUnits="userSpaceOnUse">
<stop stop-color="#C98348"/>
<stop offset="1" stop-color="#D2A651"/>
</linearGradient>
<linearGradient id="paint2_linear_2042_19487" x1="311.268" y1="190.997" x2="303.064" y2="187.204" gradientUnits="userSpaceOnUse">
<stop stop-color="#C98348"/>
<stop offset="1" stop-color="#D2A651"/>
</linearGradient>
<linearGradient id="paint3_linear_2042_19487" x1="290.527" y1="198.179" x2="273.044" y2="181.364" gradientUnits="userSpaceOnUse">
<stop stop-color="#C98348"/>
<stop offset="1" stop-color="#D2A651"/>
</linearGradient>
<linearGradient id="paint4_linear_2042_19487" x1="261.307" y1="212.154" x2="287.787" y2="201.054" gradientUnits="userSpaceOnUse">
<stop stop-color="#51823B"/>
<stop offset="1" stop-color="#AAC76F"/>
</linearGradient>
<linearGradient id="paint5_linear_2042_19487" x1="242.059" y1="179.13" x2="272.238" y2="220.959" gradientUnits="userSpaceOnUse">
<stop stop-color="#DBE8C4"/>
<stop offset="1" stop-color="#AAC76F"/>
</linearGradient>
<linearGradient id="paint6_linear_2042_19487" x1="94.8762" y1="181.749" x2="90.884" y2="213.873" gradientUnits="userSpaceOnUse">
<stop stop-color="#D2A651"/>
<stop offset="1" stop-color="#B2752C"/>
</linearGradient>
<linearGradient id="paint7_linear_2042_19487" x1="157.568" y1="155.121" x2="136.521" y2="186.796" gradientUnits="userSpaceOnUse">
<stop stop-color="#52BEB8"/>
<stop offset="1" stop-color="#308B85"/>
</linearGradient>
<linearGradient id="paint8_linear_2042_19487" x1="194.32" y1="150.004" x2="139.194" y2="200.099" gradientUnits="userSpaceOnUse">
<stop stop-color="#F3CE63"/>
<stop offset="1" stop-color="#D2A651"/>
</linearGradient>
<linearGradient id="paint9_linear_2042_19487" x1="202.957" y1="138.296" x2="169.148" y2="189.01" gradientUnits="userSpaceOnUse">
<stop stop-color="#F3CE63"/>
<stop offset="1" stop-color="#D2A651"/>
</linearGradient>
<linearGradient id="paint10_linear_2042_19487" x1="186.17" y1="120.885" x2="199.359" y2="132.974" gradientUnits="userSpaceOnUse">
<stop stop-color="white"/>
<stop offset="1" stop-color="#DDF1F3"/>
</linearGradient>
<linearGradient id="paint11_linear_2042_19487" x1="167.737" y1="63.4373" x2="169.113" y2="74.5805" gradientUnits="userSpaceOnUse">
<stop stop-color="#51823B"/>
<stop offset="1" stop-color="#AAC76F"/>
</linearGradient>
<linearGradient id="paint12_linear_2042_19487" x1="112.608" y1="70.2522" x2="113.986" y2="81.3932" gradientUnits="userSpaceOnUse">
<stop stop-color="#51823B"/>
<stop offset="1" stop-color="#AAC76F"/>
</linearGradient>
<linearGradient id="paint13_linear_2042_19487" x1="146.739" y1="63.9392" x2="141.095" y2="87.9618" gradientUnits="userSpaceOnUse">
<stop stop-color="#D2A651"/>
<stop offset="1" stop-color="#B2752C"/>
</linearGradient>
<linearGradient id="paint14_linear_2042_19487" x1="235.555" y1="57.9978" x2="253.235" y2="90.6231" gradientUnits="userSpaceOnUse">
<stop stop-color="white"/>
<stop offset="1" stop-color="#DDF1F3"/>
</linearGradient>
<linearGradient id="paint15_linear_2042_19487" x1="148.152" y1="41.0367" x2="142.738" y2="66.9568" gradientUnits="userSpaceOnUse">
<stop stop-color="#DBE8C4"/>
<stop offset="1" stop-color="#AAC76F"/>
</linearGradient>
<linearGradient id="paint16_linear_2042_19487" x1="143.172" y1="53.8085" x2="140.607" y2="62.4829" gradientUnits="userSpaceOnUse">
<stop stop-color="white"/>
<stop offset="1" stop-color="#DDF1F3"/>
</linearGradient>
<linearGradient id="paint17_linear_2042_19487" x1="160.252" y1="116.429" x2="150.579" y2="123.753" gradientUnits="userSpaceOnUse">
<stop stop-color="#F3CE63"/>
<stop offset="1" stop-color="#D2A651"/>
</linearGradient>
<linearGradient id="paint18_linear_2042_19487" x1="64.2672" y1="105.611" x2="51.2691" y2="93.4033" gradientUnits="userSpaceOnUse">
<stop stop-color="#51823B"/>
<stop offset="1" stop-color="#AAC76F"/>
</linearGradient>
<linearGradient id="paint19_linear_2042_19487" x1="73.7437" y1="78.8707" x2="76.9585" y2="82.6702" gradientUnits="userSpaceOnUse">
<stop stop-color="#E94E4E"/>
<stop offset="1" stop-color="#D33332"/>
</linearGradient>
<linearGradient id="paint20_linear_2042_19487" x1="51.0966" y1="110.759" x2="48.7555" y2="123.094" gradientUnits="userSpaceOnUse">
<stop stop-color="#E8E8EB"/>
<stop offset="1" stop-color="#D3D3D3"/>
</linearGradient>
<linearGradient id="paint21_linear_2042_19487" x1="65.6495" y1="133.984" x2="66.3753" y2="132.147" gradientUnits="userSpaceOnUse">
<stop stop-color="#C98348"/>
<stop offset="1" stop-color="#DD9127"/>
</linearGradient>
<linearGradient id="paint22_linear_2042_19487" x1="67.6746" y1="128.403" x2="67.4349" y2="132.974" gradientUnits="userSpaceOnUse">
<stop stop-color="white"/>
<stop offset="1" stop-color="#DDF1F3"/>
</linearGradient>
<linearGradient id="paint23_linear_2042_19487" x1="67.1638" y1="126.575" x2="67.3722" y2="130.048" gradientUnits="userSpaceOnUse">
<stop stop-color="#E94E4E"/>
<stop offset="1" stop-color="#D33332"/>
</linearGradient>
<linearGradient id="paint24_linear_2042_19487" x1="258.377" y1="170.07" x2="264.226" y2="183.743" gradientUnits="userSpaceOnUse">
<stop stop-color="#DBE8C4"/>
<stop offset="1" stop-color="#AAC76F"/>
</linearGradient>
<linearGradient id="paint25_linear_2042_19487" x1="260.144" y1="181.608" x2="263.594" y2="186.953" gradientUnits="userSpaceOnUse">
<stop stop-color="white"/>
<stop offset="1" stop-color="#DDF1F3"/>
</linearGradient>
<linearGradient id="paint26_linear_2042_19487" x1="262.302" y1="213.57" x2="260.158" y2="196.542" gradientUnits="userSpaceOnUse">
<stop stop-color="#51823B"/>
<stop offset="1" stop-color="#AAC76F"/>
</linearGradient>
<linearGradient id="paint27_linear_2042_19487" x1="257.266" y1="195.758" x2="260.855" y2="206.37" gradientUnits="userSpaceOnUse">
<stop stop-color="white"/>
<stop offset="1" stop-color="#DDF1F3"/>
</linearGradient>
<linearGradient id="paint28_linear_2042_19487" x1="211.111" y1="64.3827" x2="210.986" y2="80.6069" gradientUnits="userSpaceOnUse">
<stop stop-color="#F3CE63"/>
<stop offset="1" stop-color="#D2A651"/>
</linearGradient>
<linearGradient id="paint29_linear_2042_19487" x1="228.014" y1="64.5149" x2="227.889" y2="80.739" gradientUnits="userSpaceOnUse">
<stop stop-color="#F3CE63"/>
<stop offset="1" stop-color="#D2A651"/>
</linearGradient>
<linearGradient id="paint30_linear_2042_19487" x1="244.919" y1="64.6471" x2="244.792" y2="80.8712" gradientUnits="userSpaceOnUse">
<stop stop-color="#F3CE63"/>
<stop offset="1" stop-color="#D2A651"/>
</linearGradient>
<linearGradient id="paint31_linear_2042_19487" x1="261.822" y1="64.7792" x2="261.695" y2="81.0034" gradientUnits="userSpaceOnUse">
<stop stop-color="#F3CE63"/>
<stop offset="1" stop-color="#D2A651"/>
</linearGradient>
<linearGradient id="paint32_linear_2042_19487" x1="279.207" y1="66.5715" x2="274.827" y2="54.2633" gradientUnits="userSpaceOnUse">
<stop stop-color="#53BEB8"/>
<stop offset="1" stop-color="#53BEB8" stop-opacity="0"/>
</linearGradient>
<linearGradient id="paint33_linear_2042_19487" x1="278.725" y1="62.698" x2="278.598" y2="78.9221" gradientUnits="userSpaceOnUse">
<stop stop-color="#F3CE63"/>
<stop offset="1" stop-color="#D2A651"/>
</linearGradient>
<linearGradient id="paint34_linear_2042_19487" x1="91.5898" y1="117.71" x2="102.688" y2="211.706" gradientUnits="userSpaceOnUse">
<stop stop-color="#F3CE63"/>
<stop offset="1" stop-color="#D2A651"/>
</linearGradient>
<linearGradient id="paint35_linear_2042_19487" x1="73.2575" y1="145.927" x2="97.4638" y2="164.642" gradientUnits="userSpaceOnUse">
<stop stop-color="#F3CE63"/>
<stop offset="1" stop-color="#D2A651"/>
</linearGradient>
<linearGradient id="paint36_linear_2042_19487" x1="107.926" y1="113.452" x2="121.939" y2="127.465" gradientUnits="userSpaceOnUse">
<stop stop-color="#F3CE63"/>
<stop offset="1" stop-color="#D2A651"/>
</linearGradient>
<linearGradient id="paint37_linear_2042_19487" x1="223.995" y1="309.163" x2="242.796" y2="343.343" gradientUnits="userSpaceOnUse">
<stop stop-color="white"/>
<stop offset="1" stop-color="#DDF1F3"/>
</linearGradient>
<linearGradient id="paint38_linear_2042_19487" x1="169.057" y1="208.433" x2="169.057" y2="196.808" gradientUnits="userSpaceOnUse">
<stop stop-color="white"/>
<stop offset="1" stop-color="#DDF1F3"/>
</linearGradient>
<linearGradient id="paint39_linear_2042_19487" x1="169.095" y1="201.954" x2="169.095" y2="193.735" gradientUnits="userSpaceOnUse">
<stop stop-color="white"/>
<stop offset="1" stop-color="#DDF1F3"/>
</linearGradient>
<linearGradient id="paint40_linear_2042_19487" x1="168.515" y1="196.535" x2="174.92" y2="183.331" gradientUnits="userSpaceOnUse">
<stop stop-color="white"/>
<stop offset="1" stop-color="#DDF1F3"/>
</linearGradient>
<linearGradient id="paint41_linear_2042_19487" x1="167.739" y1="206.09" x2="167.128" y2="210.532" gradientUnits="userSpaceOnUse">
<stop stop-color="#D2A651"/>
<stop offset="1" stop-color="#B2752C"/>
</linearGradient>
<linearGradient id="paint42_linear_2042_19487" x1="167.466" y1="213.42" x2="174.173" y2="220.726" gradientUnits="userSpaceOnUse">
<stop offset="0.04" stop-color="#654B1E"/>
<stop offset="1" stop-color="#2E1D12"/>
</linearGradient>
<linearGradient id="paint43_linear_2042_19487" x1="114.4" y1="214.35" x2="149.396" y2="193.728" gradientUnits="userSpaceOnUse">
<stop stop-color="#E8E8EB"/>
<stop offset="1" stop-color="#D3D3D3"/>
</linearGradient>
<linearGradient id="paint44_linear_2042_19487" x1="139.22" y1="212.858" x2="144.797" y2="227.684" gradientUnits="userSpaceOnUse">
<stop stop-color="#E8E8EB"/>
<stop offset="1" stop-color="#D3D3D3"/>
</linearGradient>
<linearGradient id="paint45_linear_2042_19487" x1="131.756" y1="195.198" x2="130.49" y2="189.393" gradientUnits="userSpaceOnUse">
<stop stop-color="#C98348"/>
<stop offset="1" stop-color="#DD9127"/>
</linearGradient>
<linearGradient id="paint46_linear_2042_19487" x1="133.152" y1="187.603" x2="134.249" y2="192.942" gradientUnits="userSpaceOnUse">
<stop stop-color="#E94E4E"/>
<stop offset="1" stop-color="#D33332"/>
</linearGradient>
<linearGradient id="paint47_linear_2042_19487" x1="142.424" y1="187.401" x2="146.053" y2="184.146" gradientUnits="userSpaceOnUse">
<stop stop-color="#51823B"/>
<stop offset="1" stop-color="#AAC76F"/>
</linearGradient>
<linearGradient id="paint48_linear_2042_19487" x1="138.047" y1="180.781" x2="138.416" y2="184.294" gradientUnits="userSpaceOnUse">
<stop stop-color="#F9CBA2"/>
<stop offset="1" stop-color="#FCD7BA"/>
</linearGradient>
<linearGradient id="paint49_linear_2042_19487" x1="112.236" y1="171.863" x2="130.441" y2="200.962" gradientUnits="userSpaceOnUse">
<stop stop-color="#E8E8EB"/>
<stop offset="1" stop-color="#D3D3D3"/>
</linearGradient>
<linearGradient id="paint50_linear_2042_19487" x1="150.287" y1="199.721" x2="145.009" y2="208.453" gradientUnits="userSpaceOnUse">
<stop stop-color="white"/>
<stop offset="1" stop-color="#DDF1F3"/>
</linearGradient>
<linearGradient id="paint51_linear_2042_19487" x1="124.806" y1="186.938" x2="127.882" y2="194.458" gradientUnits="userSpaceOnUse">
<stop stop-color="#FFF1E0"/>
<stop offset="1" stop-color="#ECDE74"/>
</linearGradient>
<linearGradient id="paint52_linear_2042_19487" x1="121.771" y1="180.313" x2="122.499" y2="183.687" gradientUnits="userSpaceOnUse">
<stop stop-color="#FFF1E0"/>
<stop offset="1" stop-color="#ECDE74"/>
</linearGradient>
<linearGradient id="paint53_linear_2042_19487" x1="169.869" y1="199.988" x2="168.159" y2="217.197" gradientUnits="userSpaceOnUse">
<stop offset="0.04" stop-color="#654B1E"/>
<stop offset="1" stop-color="#2E1D12"/>
</linearGradient>
<linearGradient id="paint54_linear_2042_19487" x1="187.702" y1="169.835" x2="180.464" y2="177.497" gradientUnits="userSpaceOnUse">
<stop stop-color="white"/>
<stop offset="1" stop-color="#DDF1F3"/>
</linearGradient>
<linearGradient id="paint55_linear_2042_19487" x1="173.495" y1="172.544" x2="153.18" y2="189.933" gradientUnits="userSpaceOnUse">
<stop stop-color="white"/>
<stop offset="1" stop-color="#DDF1F3"/>
</linearGradient>
</defs>
</svg>
