<svg width="96" height="96" viewBox="0 0 96 96" fill="none" xmlns="http://www.w3.org/2000/svg">
<circle cx="48" cy="48" r="48" fill="#F7F6FC"/>
<mask id="mask0_2048_26085" style="mask-type:alpha" maskUnits="userSpaceOnUse" x="16" y="16" width="64" height="64">
<rect x="16" y="16" width="64" height="64" fill="#D9D9D9"/>
</mask>
<g mask="url(#mask0_2048_26085)">
<path d="M24.0002 72C23.2446 72 22.6113 71.7444 22.1002 71.2333C21.5891 70.7222 21.3335 70.0889 21.3335 69.3333C21.3335 68.5778 21.5891 67.9444 22.1002 67.4333C22.6113 66.9222 23.2446 66.6667 24.0002 66.6667H72.0002C72.7557 66.6667 73.389 66.9222 73.9002 67.4333C74.4113 67.9444 74.6668 68.5778 74.6668 69.3333C74.6668 70.0889 74.4113 70.7222 73.9002 71.2333C73.389 71.7444 72.7557 72 72.0002 72H24.0002ZM28.0002 64C26.8891 64 25.9446 63.6111 25.1668 62.8333C24.3891 62.0556 24.0002 61.1111 24.0002 60V49.3333C24.0002 48.2222 24.3891 47.2778 25.1668 46.5C25.9446 45.7222 26.8891 45.3333 28.0002 45.3333C29.1113 45.3333 30.0557 45.7222 30.8335 46.5C31.6113 47.2778 32.0002 48.2222 32.0002 49.3333V60C32.0002 61.1111 31.6113 62.0556 30.8335 62.8333C30.0557 63.6111 29.1113 64 28.0002 64ZM41.3335 64C40.2224 64 39.2779 63.6111 38.5002 62.8333C37.7224 62.0556 37.3335 61.1111 37.3335 60V36C37.3335 34.8889 37.7224 33.9444 38.5002 33.1667C39.2779 32.3889 40.2224 32 41.3335 32C42.4446 32 43.389 32.3889 44.1668 33.1667C44.9446 33.9444 45.3335 34.8889 45.3335 36V60C45.3335 61.1111 44.9446 62.0556 44.1668 62.8333C43.389 63.6111 42.4446 64 41.3335 64ZM54.6668 64C53.5557 64 52.6113 63.6111 51.8335 62.8333C51.0557 62.0556 50.6668 61.1111 50.6668 60V44C50.6668 42.8889 51.0557 41.9444 51.8335 41.1667C52.6113 40.3889 53.5557 40 54.6668 40C55.7779 40 56.7224 40.3889 57.5002 41.1667C58.2779 41.9444 58.6668 42.8889 58.6668 44V60C58.6668 61.1111 58.2779 62.0556 57.5002 62.8333C56.7224 63.6111 55.7779 64 54.6668 64ZM68.0002 64C66.889 64 65.9446 63.6111 65.1668 62.8333C64.389 62.0556 64.0002 61.1111 64.0002 60V28C64.0002 26.8889 64.389 25.9444 65.1668 25.1667C65.9446 24.3889 66.889 24 68.0002 24C69.1113 24 70.0557 24.3889 70.8335 25.1667C71.6113 25.9444 72.0002 26.8889 72.0002 28V60C72.0002 61.1111 71.6113 62.0556 70.8335 62.8333C70.0557 63.6111 69.1113 64 68.0002 64Z" fill="#7F5BAE"/>
</g>
</svg>
