<svg width="96" height="96" viewBox="0 0 96 96" fill="none" xmlns="http://www.w3.org/2000/svg">
<circle cx="48" cy="48" r="48" fill="#F7F6FC"/>
<mask id="mask0_2048_26061" style="mask-type:alpha" maskUnits="userSpaceOnUse" x="16" y="16" width="64" height="64">
<rect x="16" y="16" width="64" height="64" fill="#D9D9D9"/>
</mask>
<g mask="url(#mask0_2048_26061)">
<path d="M21.3332 69.3334C20.5776 69.3334 19.9443 69.0778 19.4332 68.5667C18.9221 68.0556 18.6665 67.4223 18.6665 66.6667C18.6665 65.9112 18.9221 65.2778 19.4332 64.7667C19.9443 64.2556 20.5776 64 21.3332 64H31.9998V58.6667H23.9998C23.2443 58.6667 22.6109 58.4112 22.0998 57.9C21.5887 57.3889 21.3332 56.7556 21.3332 56C21.3332 55.2445 21.5887 54.6112 22.0998 54.1C22.6109 53.5889 23.2443 53.3334 23.9998 53.3334H31.9998V48H26.7998C26.0443 48 25.4109 47.7445 24.8998 47.2334C24.3887 46.7223 24.1332 46.0889 24.1332 45.3334C24.1332 44.5778 24.3887 43.9445 24.8998 43.4334C25.4109 42.9223 26.0443 42.6667 26.7998 42.6667H31.9998V34.8L27.9332 26C27.6221 25.3334 27.5887 24.6556 27.8332 23.9667C28.0776 23.2778 28.5332 22.7778 29.1998 22.4667C29.8665 22.1556 30.5443 22.1223 31.2332 22.3667C31.9221 22.6112 32.4221 23.0667 32.7332 23.7334L37.8665 34.6667H68.7998L64.7332 26C64.4221 25.3334 64.3887 24.6556 64.6332 23.9667C64.8776 23.2778 65.3332 22.7778 65.9998 22.4667C66.6665 22.1556 67.3443 22.1223 68.0332 22.3667C68.7221 22.6112 69.2221 23.0667 69.5332 23.7334L74.1332 33.6C74.311 33.9556 74.4443 34.3223 74.5332 34.7C74.6221 35.0778 74.6665 35.4667 74.6665 35.8667V64C74.6665 65.4667 74.1443 66.7223 73.0998 67.7667C72.0554 68.8112 70.7998 69.3334 69.3332 69.3334H21.3332ZM47.9998 50.6667H58.6665C59.4221 50.6667 60.0554 50.4112 60.5665 49.9001C61.0776 49.3889 61.3332 48.7556 61.3332 48C61.3332 47.2445 61.0776 46.6112 60.5665 46.1C60.0554 45.5889 59.4221 45.3334 58.6665 45.3334H47.9998C47.2443 45.3334 46.611 45.5889 46.0998 46.1C45.5887 46.6112 45.3332 47.2445 45.3332 48C45.3332 48.7556 45.5887 49.3889 46.0998 49.9001C46.611 50.4112 47.2443 50.6667 47.9998 50.6667ZM37.3332 64H69.3332V40H37.3332V64Z" fill="#7F5BAE"/>
</g>
</svg>
