<svg width="96" height="96" viewBox="0 0 96 96" fill="none" xmlns="http://www.w3.org/2000/svg">
<circle cx="48" cy="48" r="48" fill="#F7F6FC"/>
<mask id="mask0_2048_26073" style="mask-type:alpha" maskUnits="userSpaceOnUse" x="16" y="16" width="64" height="64">
<rect x="16" y="16" width="64" height="64" fill="#D9D9D9"/>
</mask>
<g mask="url(#mask0_2048_26073)">
<path d="M47.9997 36.8C47.4663 36.1333 46.7775 35.6111 45.933 35.2333C45.0886 34.8556 44.1775 34.6667 43.1997 34.6667C41.5997 34.6667 40.2219 35.2444 39.0663 36.4C37.9108 37.5556 37.333 38.9333 37.333 40.5333C37.333 41.3778 37.4552 42.1556 37.6997 42.8667C37.9441 43.5778 38.4441 44.4222 39.1997 45.4C39.8219 46.2 40.6886 47.1556 41.7997 48.2667C42.9108 49.3778 44.333 50.7333 46.0663 52.3333C46.333 52.6 46.633 52.8 46.9663 52.9333C47.2997 53.0667 47.6441 53.1333 47.9997 53.1333C48.3552 53.1333 48.6997 53.0667 49.033 52.9333C49.3663 52.8 49.6663 52.6 49.933 52.3333C51.6219 50.7778 53.0219 49.4556 54.133 48.3667C55.2441 47.2778 56.1108 46.3111 56.733 45.4667C57.4886 44.4889 57.9997 43.6333 58.2663 42.9C58.533 42.1667 58.6663 41.3778 58.6663 40.5333C58.6663 38.9333 58.0886 37.5556 56.933 36.4C55.7775 35.2444 54.3997 34.6667 52.7997 34.6667C51.8663 34.6667 50.9663 34.8556 50.0997 35.2333C49.233 35.6111 48.533 36.1333 47.9997 36.8ZM47.9997 64L36.7997 68.8C35.0219 69.5556 33.333 69.4111 31.733 68.3667C30.133 67.3222 29.333 65.8444 29.333 63.9333V29.3333C29.333 27.8667 29.8552 26.6111 30.8997 25.5667C31.9441 24.5222 33.1997 24 34.6663 24H61.333C62.7997 24 64.0552 24.5222 65.0997 25.5667C66.1441 26.6111 66.6663 27.8667 66.6663 29.3333V63.9333C66.6663 65.8444 65.8663 67.3222 64.2663 68.3667C62.6663 69.4111 60.9775 69.5556 59.1997 68.8L47.9997 64ZM47.9997 58.1333L61.333 63.8667V29.3333H34.6663V63.8667L47.9997 58.1333Z" fill="#7F5BAE"/>
</g>
</svg>
