<svg width="96" height="96" viewBox="0 0 96 96" fill="none" xmlns="http://www.w3.org/2000/svg">
<circle cx="48" cy="48" r="48" fill="#F7F6FC"/>
<mask id="mask0_2048_26067" style="mask-type:alpha" maskUnits="userSpaceOnUse" x="16" y="16" width="64" height="64">
<rect x="16" y="16" width="64" height="64" fill="#D9D9D9"/>
</mask>
<g mask="url(#mask0_2048_26067)">
<path d="M26.6663 74.6666C25.1997 74.6666 23.9441 74.1444 22.8997 73.1C21.8552 72.0555 21.333 70.8 21.333 69.3333V61.3333C21.333 60.5778 21.5886 59.9444 22.0997 59.4333C22.6108 58.9222 23.2441 58.6666 23.9997 58.6666C24.7552 58.6666 25.3886 58.9222 25.8997 59.4333C26.4108 59.9444 26.6663 60.5778 26.6663 61.3333V69.3333H34.6663C35.4219 69.3333 36.0552 69.5889 36.5663 70.1C37.0775 70.6111 37.333 71.2444 37.333 72C37.333 72.7555 37.0775 73.3889 36.5663 73.9C36.0552 74.4111 35.4219 74.6666 34.6663 74.6666H26.6663ZM21.333 34.6666V26.6666C21.333 25.2 21.8552 23.9444 22.8997 22.9C23.9441 21.8555 25.1997 21.3333 26.6663 21.3333H34.6663C35.4219 21.3333 36.0552 21.5889 36.5663 22.1C37.0775 22.6111 37.333 23.2444 37.333 24C37.333 24.7555 37.0775 25.3889 36.5663 25.9C36.0552 26.4111 35.4219 26.6666 34.6663 26.6666H26.6663V34.6666C26.6663 35.4222 26.4108 36.0555 25.8997 36.5666C25.3886 37.0778 24.7552 37.3333 23.9997 37.3333C23.2441 37.3333 22.6108 37.0778 22.0997 36.5666C21.5886 36.0555 21.333 35.4222 21.333 34.6666ZM47.9997 53.3333C46.533 53.3333 45.2775 52.8111 44.233 51.7666C43.1886 50.7222 42.6663 49.4666 42.6663 48C42.6663 46.4889 43.1886 45.2222 44.233 44.2C45.2775 43.1778 46.533 42.6666 47.9997 42.6666C49.5108 42.6666 50.7775 43.1778 51.7997 44.2C52.8219 45.2222 53.333 46.4889 53.333 48C53.333 49.4666 52.8219 50.7222 51.7997 51.7666C50.7775 52.8111 49.5108 53.3333 47.9997 53.3333ZM69.333 74.6666H61.333C60.5774 74.6666 59.9441 74.4111 59.433 73.9C58.9219 73.3889 58.6663 72.7555 58.6663 72C58.6663 71.2444 58.9219 70.6111 59.433 70.1C59.9441 69.5889 60.5774 69.3333 61.333 69.3333H69.333V61.3333C69.333 60.5778 69.5886 59.9444 70.0997 59.4333C70.6108 58.9222 71.2441 58.6666 71.9997 58.6666C72.7552 58.6666 73.3886 58.9222 73.8997 59.4333C74.4108 59.9444 74.6663 60.5778 74.6663 61.3333V69.3333C74.6663 70.8 74.1441 72.0555 73.0997 73.1C72.0552 74.1444 70.7997 74.6666 69.333 74.6666ZM69.333 34.6666V26.6666H61.333C60.5774 26.6666 59.9441 26.4111 59.433 25.9C58.9219 25.3889 58.6663 24.7555 58.6663 24C58.6663 23.2444 58.9219 22.6111 59.433 22.1C59.9441 21.5889 60.5774 21.3333 61.333 21.3333H69.333C70.7997 21.3333 72.0552 21.8555 73.0997 22.9C74.1441 23.9444 74.6663 25.2 74.6663 26.6666V34.6666C74.6663 35.4222 74.4108 36.0555 73.8997 36.5666C73.3886 37.0778 72.7552 37.3333 71.9997 37.3333C71.2441 37.3333 70.6108 37.0778 70.0997 36.5666C69.5886 36.0555 69.333 35.4222 69.333 34.6666ZM32.4663 50.6666C31.6663 50.6666 31.0441 51.0111 30.5997 51.7C30.1552 52.3889 30.0441 53.1333 30.2663 53.9333C31.1108 56.7333 32.5775 59.1555 34.6663 61.2C36.7552 63.2444 39.1997 64.7333 41.9997 65.6666C42.7997 65.9333 43.5441 65.8111 44.233 65.3C44.9219 64.7889 45.2663 64.1111 45.2663 63.2666C45.2663 62.6444 45.0663 62.0778 44.6663 61.5666C44.2663 61.0555 43.7552 60.6889 43.133 60.4666C41.3997 59.8 39.8552 58.8222 38.4997 57.5333C37.1441 56.2444 36.1552 54.7111 35.533 52.9333C35.3108 52.2666 34.9219 51.7222 34.3663 51.3C33.8108 50.8778 33.1775 50.6666 32.4663 50.6666ZM32.533 45.3333C31.733 45.3333 31.1108 44.9889 30.6663 44.3C30.2219 43.6111 30.1108 42.8666 30.333 42.0666C31.1775 39.2666 32.6552 36.8444 34.7663 34.8C36.8775 32.7555 39.333 31.2666 42.133 30.3333C42.933 30.0666 43.6663 30.1889 44.333 30.7C44.9997 31.2111 45.333 31.8889 45.333 32.7333C45.333 33.3555 45.133 33.9222 44.733 34.4333C44.333 34.9444 43.8219 35.3111 43.1997 35.5333C41.4663 36.2 39.9219 37.1778 38.5663 38.4666C37.2108 39.7555 36.2219 41.2889 35.5997 43.0666C35.3775 43.7333 34.9886 44.2778 34.433 44.7C33.8775 45.1222 33.2441 45.3333 32.533 45.3333ZM63.5997 50.6666C64.3997 50.6666 65.0219 51.0111 65.4663 51.7C65.9108 52.3889 66.0219 53.1333 65.7997 53.9333C64.9552 56.7333 63.4774 59.1555 61.3663 61.2C59.2552 63.2444 56.7997 64.7333 53.9997 65.6666C53.1997 65.9333 52.4663 65.8111 51.7997 65.3C51.133 64.7889 50.7997 64.1111 50.7997 63.2666C50.7997 62.6444 50.9886 62.0778 51.3663 61.5666C51.7441 61.0555 52.2441 60.6889 52.8663 60.4666C54.5997 59.8 56.1552 58.8222 57.533 57.5333C58.9108 56.2444 59.9108 54.7111 60.533 52.9333C60.7552 52.2666 61.1441 51.7222 61.6997 51.3C62.2552 50.8778 62.8886 50.6666 63.5997 50.6666ZM63.5997 45.3333C64.3997 45.3333 65.0219 44.9889 65.4663 44.3C65.9108 43.6111 66.0219 42.8666 65.7997 42.0666C64.9552 39.2666 63.4774 36.8444 61.3663 34.8C59.2552 32.7555 56.7997 31.2666 53.9997 30.3333C53.1997 30.0666 52.4663 30.1889 51.7997 30.7C51.133 31.2111 50.7997 31.8889 50.7997 32.7333C50.7997 33.3555 50.9997 33.9222 51.3997 34.4333C51.7997 34.9444 52.3108 35.3111 52.933 35.5333C54.6663 36.2 56.2108 37.1778 57.5663 38.4666C58.9219 39.7555 59.9108 41.2889 60.533 43.0666C60.7552 43.7333 61.1441 44.2778 61.6997 44.7C62.2552 45.1222 62.8886 45.3333 63.5997 45.3333Z" fill="#7F5BAE"/>
</g>
</svg>
