<svg width="96" height="96" viewBox="0 0 96 96" fill="none" xmlns="http://www.w3.org/2000/svg">
<circle cx="48" cy="48" r="48" fill="#F7F6FC"/>
<mask id="mask0_2048_26055" style="mask-type:alpha" maskUnits="userSpaceOnUse" x="16" y="16" width="64" height="64">
<rect x="16" y="16" width="64" height="64" fill="#D9D9D9"/>
</mask>
<g mask="url(#mask0_2048_26055)">
<path d="M18.6665 66.6666V58.6666C18.6665 57.1555 19.1887 55.8888 20.2332 54.8666C21.2776 53.8444 22.5332 53.3333 23.9998 53.3333H32.7332C33.6221 53.3333 34.4665 53.5555 35.2665 54C36.0665 54.4444 36.7109 55.0444 37.1998 55.8C38.4887 57.5333 40.0776 58.8888 41.9665 59.8666C43.8554 60.8444 45.8665 61.3333 47.9998 61.3333C50.1776 61.3333 52.2109 60.8444 54.0998 59.8666C55.9887 58.8888 57.5554 57.5333 58.7998 55.8C59.3776 55.0444 60.0554 54.4444 60.8332 54C61.611 53.5555 62.4221 53.3333 63.2665 53.3333H71.9998C73.5109 53.3333 74.7776 53.8444 75.7998 54.8666C76.8221 55.8888 77.3332 57.1555 77.3332 58.6666V66.6666C77.3332 67.4222 77.0776 68.0555 76.5665 68.5666C76.0554 69.0777 75.4221 69.3333 74.6665 69.3333H61.3332C60.5776 69.3333 59.9443 69.0777 59.4332 68.5666C58.9221 68.0555 58.6665 67.4222 58.6665 66.6666V63.2666C57.111 64.3777 55.4332 65.2222 53.6332 65.8C51.8332 66.3777 49.9554 66.6666 47.9998 66.6666C46.0887 66.6666 44.2221 66.3666 42.3998 65.7666C40.5776 65.1666 38.8887 64.3111 37.3332 63.2V66.6666C37.3332 67.4222 37.0776 68.0555 36.5665 68.5666C36.0554 69.0777 35.4221 69.3333 34.6665 69.3333H21.3332C20.5776 69.3333 19.9443 69.0777 19.4332 68.5666C18.9221 68.0555 18.6665 67.4222 18.6665 66.6666ZM47.9998 58.6666C46.3109 58.6666 44.7109 58.2777 43.1998 57.5C41.6887 56.7222 40.4221 55.6444 39.3998 54.2666C38.6443 53.1555 37.6998 52.2777 36.5665 51.6333C35.4332 50.9888 34.1998 50.6666 32.8665 50.6666C33.8443 49.0222 35.9109 47.7222 39.0665 46.7666C42.2221 45.8111 45.1998 45.3333 47.9998 45.3333C50.7998 45.3333 53.7776 45.8111 56.9332 46.7666C60.0887 47.7222 62.1554 49.0222 63.1332 50.6666C61.8443 50.6666 60.6221 50.9888 59.4665 51.6333C58.311 52.2777 57.3554 53.1555 56.5998 54.2666C55.6221 55.6888 54.3776 56.7777 52.8665 57.5333C51.3554 58.2888 49.7332 58.6666 47.9998 58.6666ZM26.6665 50.6666C24.4443 50.6666 22.5554 49.8888 20.9998 48.3333C19.4443 46.7777 18.6665 44.8888 18.6665 42.6666C18.6665 40.4 19.4443 38.5 20.9998 36.9666C22.5554 35.4333 24.4443 34.6666 26.6665 34.6666C28.9332 34.6666 30.8332 35.4333 32.3665 36.9666C33.8998 38.5 34.6665 40.4 34.6665 42.6666C34.6665 44.8888 33.8998 46.7777 32.3665 48.3333C30.8332 49.8888 28.9332 50.6666 26.6665 50.6666ZM69.3332 50.6666C67.111 50.6666 65.2221 49.8888 63.6665 48.3333C62.111 46.7777 61.3332 44.8888 61.3332 42.6666C61.3332 40.4 62.111 38.5 63.6665 36.9666C65.2221 35.4333 67.111 34.6666 69.3332 34.6666C71.5998 34.6666 73.4998 35.4333 75.0332 36.9666C76.5665 38.5 77.3332 40.4 77.3332 42.6666C77.3332 44.8888 76.5665 46.7777 75.0332 48.3333C73.4998 49.8888 71.5998 50.6666 69.3332 50.6666ZM47.9998 42.6666C45.7776 42.6666 43.8887 41.8888 42.3332 40.3333C40.7776 38.7777 39.9998 36.8888 39.9998 34.6666C39.9998 32.4 40.7776 30.5 42.3332 28.9666C43.8887 27.4333 45.7776 26.6666 47.9998 26.6666C50.2665 26.6666 52.1665 27.4333 53.6998 28.9666C55.2332 30.5 55.9998 32.4 55.9998 34.6666C55.9998 36.8888 55.2332 38.7777 53.6998 40.3333C52.1665 41.8888 50.2665 42.6666 47.9998 42.6666Z" fill="#7F5BAE"/>
</g>
</svg>
