<svg width="96" height="96" viewBox="0 0 96 96" fill="none" xmlns="http://www.w3.org/2000/svg">
<circle cx="48" cy="48" r="48" fill="#F7F6FC"/>
<mask id="mask0_2048_26079" style="mask-type:alpha" maskUnits="userSpaceOnUse" x="16" y="16" width="64" height="64">
<rect x="16" y="16" width="64" height="64" fill="#D9D9D9"/>
</mask>
<g mask="url(#mask0_2048_26079)">
<path d="M26.6668 64V42.6666V43.5333V32V64ZM63.7335 69.5333C63.3779 69.5333 63.0446 69.4777 62.7335 69.3666C62.4224 69.2555 62.1335 69.0666 61.8668 68.8L54.4002 61.3333C53.8224 60.7555 53.4113 60.1333 53.1668 59.4666C52.9224 58.8 52.8002 58.1333 52.8002 57.4666C52.8002 56.0444 53.3113 54.7777 54.3335 53.6666C55.3557 52.5555 56.6668 52 58.2668 52C59.5113 52 60.489 52.2888 61.2002 52.8666C61.9113 53.4444 62.7557 54.2222 63.7335 55.2C64.6224 54.3111 65.4335 53.5555 66.1668 52.9333C66.9002 52.3111 67.9113 52 69.2002 52C70.8446 52 72.1668 52.5666 73.1668 53.7C74.1668 54.8333 74.6668 56.1111 74.6668 57.5333C74.6668 58.2 74.5335 58.8666 74.2668 59.5333C74.0002 60.2 73.6002 60.8 73.0668 61.3333L65.6002 68.8C65.3335 69.0666 65.0446 69.2555 64.7335 69.3666C64.4224 69.4777 64.0891 69.5333 63.7335 69.5333ZM26.6668 37.3333H69.3335V32H26.6668V37.3333ZM26.6668 69.3333C25.2002 69.3333 23.9446 68.8111 22.9002 67.7666C21.8557 66.7222 21.3335 65.4666 21.3335 64V32C21.3335 30.5333 21.8557 29.2777 22.9002 28.2333C23.9446 27.1888 25.2002 26.6666 26.6668 26.6666H69.3335C70.8002 26.6666 72.0557 27.1888 73.1002 28.2333C74.1446 29.2777 74.6668 30.5333 74.6668 32V42.5333C74.6668 43.3333 74.3224 43.9222 73.6335 44.3C72.9446 44.6777 72.2224 44.6888 71.4668 44.3333C70.3113 43.8 69.0779 43.3888 67.7668 43.1C66.4557 42.8111 65.1113 42.6666 63.7335 42.6666C61.2002 42.6666 58.8113 43.1444 56.5668 44.1C54.3224 45.0555 52.3557 46.3555 50.6668 48H26.6668V64H44.2002C44.9557 64 45.5891 64.2555 46.1002 64.7666C46.6113 65.2777 46.8668 65.9111 46.8668 66.6666C46.8668 67.4222 46.6113 68.0555 46.1002 68.5666C45.5891 69.0777 44.9557 69.3333 44.2002 69.3333H26.6668Z" fill="#7F5BAE"/>
</g>
</svg>
